<svg width="46" height="31" viewBox="0 0 46 31" fill="none" xmlns="http://www.w3.org/2000/svg">
<path fill-rule="evenodd" clip-rule="evenodd" d="M4.5 0.538849C2.01472 0.538849 0 2.55357 0 5.03885V25.5367C0 28.022 2.01472 30.0367 4.5 30.0367H41.5C43.9853 30.0367 46 28.022 46 25.5367V5.03885C46 2.55357 43.9853 0.538849 41.5 0.538849H4.5ZM3 5.03885C3 4.21042 3.67158 3.53885 4.5 3.53885H25V12.9122C25 13.7406 25.6716 14.4122 26.5 14.4122L39.3755 14.4123C40.2039 14.4123 40.8755 13.7407 40.8755 12.9123V3.53885H41.5C42.3284 3.53885 43 4.21042 43 5.03885V25.5367C43 26.3652 42.3284 27.0367 41.5 27.0367H40.8755V17.5C40.8755 16.6716 40.204 16 39.3755 16L26.5 15.9999C25.6716 15.9999 25 16.6715 25 17.4999V27.0367H4.5C3.67157 27.0367 3 26.3652 3 25.5367V5.03885ZM35.7453 27.0367C35.7202 26.6429 35.6009 26.2586 35.3955 25.9127C35.1626 25.5207 34.8268 25.1909 34.4198 24.9547C34.0128 24.7184 33.5482 24.5835 33.07 24.5626C32.5917 24.5418 32.1157 24.6358 31.6872 24.8357C31.6067 24.8761 31.5087 24.848 31.4618 24.7711L31.1827 24.3137C31.1409 24.2452 31.1441 24.1582 31.191 24.093L34.4957 19.4872C34.5906 19.3549 34.496 19.1707 34.3332 19.1707H29.7041C29.5936 19.1707 29.5041 19.0811 29.5041 18.9707V18.2C29.5041 18.0895 29.5936 18 29.7041 18H36.4873C36.5977 18 36.6873 18.0895 36.6873 18.2V18.7341C36.6873 18.7752 36.6746 18.8153 36.651 18.8489L33.6373 23.1449C33.5504 23.2688 33.6273 23.4419 33.7758 23.4712C34.3865 23.5917 34.9609 23.8428 35.4533 24.2066C36.0339 24.6355 36.4785 25.2047 36.7392 25.8531C36.8923 26.234 36.9786 26.6336 36.9965 27.0367H35.7453ZM36.1087 5.19933C36.4569 4.79028 36.7114 4.31768 36.8574 3.81184C36.8927 3.68935 36.7976 3.57152 36.6701 3.57152H35.6868C35.6007 3.57152 35.5251 3.62694 35.4931 3.70688C35.3878 3.96998 35.2362 4.2165 35.0427 4.43518L29.05 11.2286C29.0178 11.2651 29 11.3122 29 11.3609V11.8C29 11.9104 29.0895 12 29.2 12H36.8C36.9105 12 37 11.9104 37 11.8V10.9317C37 10.8212 36.9105 10.7317 36.8 10.7317L31.6717 10.7311C31.4995 10.7311 31.4079 10.5279 31.5218 10.3988L36.1087 5.19933ZM6 8.49994C6 7.67151 6.67158 6.99994 7.50001 6.99994L20.3755 6.99999C21.204 7 21.8755 7.67157 21.8755 8.49999V22.9123C21.8755 23.7407 21.204 24.4123 20.3755 24.4123L7.5 24.4122C6.67157 24.4122 6 23.7406 6 22.9122V8.49994ZM14.96 9C15.0705 9 15.16 9.08954 15.16 9.2V21.6125C15.16 21.723 15.0705 21.8125 14.96 21.8125H14.08C13.9695 21.8125 13.88 21.723 13.88 21.6125V10.6366C13.88 10.5056 13.7561 10.4099 13.6294 10.4431L11.2506 11.0657C11.1239 11.0988 11 11.0032 11 10.8722V9.9913C11 9.90033 11.0614 9.82082 11.1494 9.7978L14.1751 9.00651C14.1916 9.00219 14.2086 9 14.2257 9H14.96Z" fill="#002052"/>
</svg>
