<svg width="46" height="55" viewBox="0 0 46 55" fill="none" xmlns="http://www.w3.org/2000/svg">
<path fill-rule="evenodd" clip-rule="evenodd" d="M6.90141 2.86156L9.39411 0.0990254C9.50971 -0.0290832 9.70928 -0.0335097 9.83044 0.0893477L12.5549 2.85188C12.7418 3.04147 12.6075 3.36254 12.3413 3.36254H10.499V3.3626L10.4984 10.608C11.6494 10.5513 12.4486 10.3644 12.9766 10.1354C13.6143 9.85873 13.7745 9.56305 13.8087 9.42627C13.8411 9.29668 13.8094 9.11731 13.6174 8.93047C13.4246 8.74286 13.1 8.59054 12.695 8.59054C12.2808 8.59054 11.945 8.25475 11.945 7.84054C11.945 7.42633 12.2808 7.09054 12.695 7.09054C13.4684 7.09054 14.175 7.38013 14.6634 7.85538C15.1527 8.3314 15.4524 9.03585 15.2639 9.79007C15.0771 10.5371 14.4639 11.1252 13.5734 11.5115C12.8192 11.8386 11.8065 12.0516 10.4983 12.1097L10.4976 19.5388H14.9979C17.4832 19.5388 19.4979 21.5536 19.4979 24.0388V29.2248L32.8207 29.3195C32.8809 28.0366 33.0934 27.0592 33.4245 26.3419C33.8253 25.4735 34.4391 24.9196 35.1974 24.7932C35.9286 24.6714 36.5965 24.9821 37.0509 25.4113C37.5044 25.8396 37.8383 26.4696 37.8383 27.1534C37.8383 27.5676 37.5025 27.9034 37.0883 27.9034C36.6741 27.9034 36.3383 27.5676 36.3383 27.1534C36.3383 26.9533 36.2303 26.6995 36.021 26.5018C35.8125 26.3049 35.5966 26.2474 35.444 26.2728C35.3185 26.2937 35.0484 26.4028 34.7864 26.9705C34.5656 27.4491 34.3801 28.2019 34.322 29.3302L42.6322 29.3893L42.6442 27.6057C42.6459 27.3458 42.9549 27.2109 43.1467 27.3863L45.8924 29.8976C46.0197 30.014 46.0228 30.2136 45.8991 30.334L43.1183 33.0397C42.9274 33.2254 42.6073 33.0889 42.6091 32.8227L42.6221 30.8893L34.3199 30.8302C34.3756 31.9913 34.5633 32.7962 34.7935 33.327C35.0701 33.9648 35.3658 34.1249 35.5026 34.1591C35.6322 34.1915 35.8116 34.1599 35.9984 33.9679C36.186 33.775 36.3383 33.4505 36.3383 33.0455C36.3383 32.6313 36.6741 32.2955 37.0883 32.2955C37.5025 32.2955 37.8383 32.6313 37.8383 33.0455C37.8383 33.8189 37.5487 34.5254 37.0735 35.0139C36.5975 35.5031 35.893 35.8029 35.1388 35.6144C34.3918 35.4276 33.8036 34.8144 33.4174 33.9239C33.0878 33.164 32.8741 32.1419 32.8179 30.8195L19.4979 30.7248V34.5367C19.4979 35.5545 19.16 36.4933 18.5903 37.2472L25.1393 43.7962C26.1274 42.8815 26.9996 42.314 27.7651 42.032C28.6627 41.7013 29.4883 41.7437 30.1139 42.1905C30.717 42.6214 30.9696 43.3134 30.9875 43.9382C31.0053 44.5617 30.7959 45.2433 30.3124 45.7268C30.0195 46.0197 29.5447 46.0197 29.2518 45.7268C28.9589 45.4339 28.9589 44.959 29.2518 44.6661C29.3932 44.5247 29.4963 44.2688 29.4881 43.981C29.4799 43.6944 29.3679 43.5011 29.242 43.4111C29.1385 43.3372 28.8704 43.2233 28.2837 43.4395C27.7724 43.6279 27.0805 44.0503 26.2009 44.8578L32.0271 50.684L33.62 49.0148C33.7995 48.8267 34.1168 48.9403 34.1362 49.1995L34.472 53.6871C34.4849 53.8592 34.3503 54.0066 34.1778 54.0094L29.4859 54.0866C29.2197 54.0909 29.0801 53.7721 29.264 53.5795L30.9912 51.7695L25.1469 45.9251C24.4139 46.7462 23.9994 47.4192 23.794 47.9392C23.5386 48.5858 23.6344 48.9081 23.707 49.029C23.7757 49.1436 23.9249 49.248 24.1928 49.2444C24.4618 49.2407 24.799 49.1189 25.0854 48.8325C25.3783 48.5396 25.8532 48.5396 26.1461 48.8325C26.439 49.1254 26.439 49.6003 26.1461 49.8932C25.5992 50.44 24.8948 50.7349 24.2134 50.7442C23.5308 50.7536 22.8207 50.4674 22.4207 49.8008C22.0246 49.1405 22.0423 48.291 22.3989 47.3882C22.6933 46.6426 23.2383 45.8001 24.0847 44.8629L17.4996 38.2778C16.7842 38.7572 15.9237 39.0367 14.9979 39.0367H4.5C2.01472 39.0367 0 37.022 0 34.5367V24.0388C0 21.5536 2.01472 19.5388 4.5 19.5388H8.99762L8.99827 12.1095C7.70093 12.0512 6.7142 11.838 5.99145 11.5044C5.12298 11.1036 4.56915 10.4898 4.44277 9.73147C4.32091 9.00031 4.63164 8.33236 5.0608 7.87796C5.48912 7.42444 6.11913 7.09054 6.80289 7.09054C7.2171 7.09054 7.55289 7.42633 7.55289 7.84054C7.55289 8.25475 7.2171 8.59054 6.80289 8.59054C6.60283 8.59054 6.34903 8.69855 6.15132 8.90789C5.95444 9.11635 5.89691 9.33222 5.92236 9.48487C5.94327 9.61037 6.0523 9.88042 6.62004 10.1424C7.10122 10.3645 7.8597 10.5508 8.9984 10.6078L8.99903 3.36254H7.12415C6.86423 3.36254 6.72729 3.05453 6.90141 2.86156ZM3 24.0388C3 23.2104 3.67157 22.5388 4.5 22.5388H14.9979C15.8263 22.5388 16.4979 23.2104 16.4979 24.0388V34.5367C16.4979 35.3652 15.8263 36.0367 14.9979 36.0367H4.5C3.67157 36.0367 3 35.3652 3 34.5367V24.0388ZM7.12447 25.1633C6.29605 25.1633 5.62447 25.8349 5.62447 26.6633V31.9123C5.62447 32.7407 6.29605 33.4123 7.12447 33.4123H12.3734C13.2018 33.4123 13.8734 32.7407 13.8734 31.9123V26.6633C13.8734 25.8349 13.2018 25.1633 12.3734 25.1633H7.12447Z" fill="#002052"/>
</svg>
