<svg width="56" height="56" viewBox="0 0 56 56" fill="none" xmlns="http://www.w3.org/2000/svg">
<path fill-rule="evenodd" clip-rule="evenodd" d="M47.7314 9.75681C50.062 10.085 51.5744 11.512 52.433 12.6525C53.3833 13.914 53.9982 15.4842 54 16.6522C54.0028 18.3828 53.7095 34.877 53.6222 37.1493L53.6209 37.1785L53.6186 37.2067C53.3363 40.3355 51.527 41.6911 50.4735 42.2219C50.1789 42.3699 49.8032 42.5633 49.3686 42.787L49.3141 42.8151L49.281 42.8322C48.2265 43.3757 46.9249 44.0466 46.0155 44.4643C45.4049 44.7445 44.7987 44.8876 44.2143 44.8876C43.6159 44.8876 43.0369 44.7398 42.4863 44.4482L40.708 45.0044C40.3276 45.6495 39.8458 46.1348 39.2961 46.423C38.8566 46.6539 38.4666 46.8406 38.0203 47.0543L37.9773 47.0748L37.9611 47.0826C37.3505 47.3752 36.5899 47.7397 35.4008 48.3582C34.3585 48.9007 33.4544 49.1419 32.4703 49.1419C31.62 49.1419 30.7873 48.9565 29.8233 48.7416C29.7841 48.7329 29.7447 48.7241 29.7052 48.7153C29.448 48.6582 29.1823 48.5991 28.8966 48.5403L28.8326 48.5262L28.7714 48.506C27.0441 47.9309 16.9459 45.0997 14.4902 44.5029C13.084 44.2248 11.903 43.3667 11.0709 42.0199C10.4857 41.0729 10.1094 39.9342 9.95621 38.6902L5.49022 40.2579C5.32896 40.3149 5.15764 40.3437 4.98248 40.3437C3.9254 40.3437 2.7872 39.2861 2.27541 37.8294C1.66257 36.0829 2.10704 34.3311 3.26593 33.9234L9.73573 31.6745C9.72903 31.3527 9.7222 31.0256 9.71527 30.6943C9.70317 30.1153 9.6908 29.5236 9.67847 28.9254C9.56779 23.559 9.4419 17.4765 9.38979 16.6978C9.26773 14.8688 10.2507 12.5877 12.107 11.9363C13.3186 11.5107 14.6156 11.0934 15.8922 10.9218C16.0745 10.8976 16.3174 10.8473 16.599 10.789L16.6023 10.7884C17.2968 10.6447 18.1618 10.4661 19.0756 10.4661C19.1186 10.4661 19.1611 10.4665 19.2039 10.4674C19.6622 10.476 20.1476 10.6096 20.6617 10.751L20.6632 10.7514C20.8366 10.7991 21.0136 10.8477 21.1789 10.8878L24.3862 9.76173L24.4053 9.73677C24.8633 8.70421 25.6582 7.97512 26.6061 7.72475C26.902 7.64637 27.2033 7.57597 27.522 7.50148L27.5354 7.49836C28.0276 7.38363 28.5855 7.25357 29.2655 7.06134C29.7432 6.92647 30.3253 6.85815 30.9947 6.85815C31.8493 6.85815 32.5775 6.96998 32.6111 6.97515L32.6113 6.97518L32.6227 6.97682L32.6333 6.97879C33.3413 7.1038 34.9048 7.3975 36.8876 7.76998L36.9511 7.7819C40.5205 8.45264 45.4059 9.37069 47.7314 9.75681ZM22.8111 31.5649C22.5781 31.6468 10.652 35.8342 6.29463 37.3637C6.37422 38.1665 6.19436 38.8852 5.80463 39.317L23.0293 33.2688C23.7425 33.0185 23.9858 31.6335 23.5398 30.3629C23.1515 29.2582 22.3204 28.425 21.606 28.425C21.5145 28.425 21.4264 28.44 21.3435 28.469L4.40719 34.3573C4.95763 34.5928 5.48858 35.1308 5.85378 35.8569C10.3895 34.2642 22.3397 30.0683 22.4804 30.019C22.5436 29.9965 22.6068 29.9853 22.6693 29.9853C22.8896 29.9853 23.0715 30.1252 23.1443 30.3496C23.2057 30.5251 23.2548 30.7001 23.2965 30.8955C23.3387 31.0609 23.3346 31.3812 22.8111 31.5649ZM32.458 47.7815C33.215 47.7815 33.9321 47.5897 34.7814 47.16C35.6582 46.7155 36.2789 44.8802 36.1947 42.9819C35.974 37.9953 36.0477 34.5314 36.1127 31.4757L36.1128 31.4705C36.1636 29.0998 36.2113 26.8612 36.1162 24.2513C36.0848 23.3859 35.9044 22.4628 35.595 21.5815C34.7247 19.1034 33.018 17.2749 31.1399 16.8092C28.1469 16.0669 19.4946 13.965 15.4536 13.1621C14.9403 13.0604 14.4418 13.0087 13.9706 13.0087C13.1722 13.0087 12.6827 13.1588 12.5523 13.2048C11.3413 13.6297 10.6185 15.2665 10.7033 16.5291C10.7577 17.3459 10.8898 23.5306 11.0062 28.9878C11.0163 29.4762 11.0269 29.9606 11.0373 30.4375C11.043 30.6996 11.0486 30.9595 11.0541 31.2164L17.9301 28.8255C18.0379 26.9663 18.8778 25.5495 20.1604 25.0993C20.4494 24.9977 20.7542 24.9463 21.0669 24.9463C22.966 24.9463 24.9397 26.7889 25.8659 29.4268C26.3876 30.9118 26.504 32.4433 26.1935 33.7401C25.8735 35.081 25.1364 36.0156 24.1187 36.3729C23.8381 36.4718 23.5403 36.5211 23.2334 36.5211C22.2404 36.5211 21.1799 35.9991 20.2563 35.0734L17.808 35.933C19.6509 38.7355 22.0244 40.2619 24.6103 40.2619C25.4108 40.2619 26.2269 40.1119 27.0362 39.816C27.4571 39.6617 27.827 39.4873 28.1657 39.282C28.2846 39.2098 28.4377 39.2356 28.5264 39.3427C28.6153 39.45 28.6119 39.6052 28.5186 39.7089C27.8433 40.4597 27.0436 41.0004 26.1427 41.3167C25.5492 41.5251 24.9232 41.6308 24.282 41.6308C21.4548 41.6308 18.5217 39.6143 16.5182 36.386L11.2664 38.2299C11.3236 38.8842 11.4395 39.5218 11.6411 40.0955C12.2416 41.8062 13.3503 42.8972 14.7632 43.1678C17.1698 43.7512 27.3688 46.6161 29.1795 47.2172C29.4998 47.2835 29.7976 47.3493 30.0772 47.4115C31.0114 47.6183 31.749 47.7815 32.458 47.7815ZM39.2692 42.525L39.7896 21.8044L40.9871 21.3843C40.9657 17.83 38.6059 15.7305 36.6974 15.2528C36.2148 15.3432 35.9575 15.5127 35.9575 15.5127L19.757 11.8619L20.2048 11.7875C19.8244 11.6838 19.4616 11.5928 19.1822 11.5875C19.1468 11.5868 19.1107 11.5867 19.0749 11.5867C18.2759 11.5866 17.4781 11.7514 16.8285 11.8857C16.5301 11.9473 16.263 12.0025 16.0413 12.0323C15.8412 12.0593 15.6381 12.0954 15.4331 12.1353C15.458 12.1397 15.483 12.1439 15.508 12.1481C15.5551 12.156 15.6023 12.164 15.6497 12.1733C19.7048 12.9787 28.3815 15.0865 31.3828 15.8308C33.5864 16.3771 35.5652 18.4529 36.5464 21.2479C36.8888 22.2233 37.088 23.2487 37.1238 24.2144C37.2197 26.8536 37.1718 29.1067 37.121 31.4917C37.0557 34.5395 36.9821 37.9852 37.2019 42.9372C37.2609 44.2731 37.0163 45.5487 36.5643 46.514C36.9152 46.342 37.2144 46.1987 37.4875 46.068C37.9512 45.8461 38.3394 45.6603 38.7764 45.431C39.3108 45.1508 39.6877 44.5996 39.9336 44.0733L39.932 44.0727C40.1583 43.5879 40.2734 43.1226 40.2938 42.9073C40.3361 42.4592 40.3141 42.163 40.3141 42.163L39.2692 42.525ZM49.9702 41.2208C51.013 40.6961 52.2847 39.528 52.5029 37.1068C52.5933 34.7548 52.8826 18.2956 52.8801 16.6542C52.8774 15.0128 51.0777 11.3512 47.5625 10.8641C45.2286 10.4771 40.3905 9.56799 36.7353 8.88115C34.7699 8.51185 33.1466 8.20681 32.4384 8.08175C32.4384 8.08175 31.7745 7.97818 30.9947 7.97818C30.5214 7.97818 30.0055 8.01639 29.5703 8.13922C28.8649 8.33848 28.2939 8.47171 27.7891 8.58949C27.4694 8.6641 27.1762 8.7325 26.8923 8.80756C26.2844 8.96827 25.8437 9.43101 25.562 9.93306L27.3841 9.57158L42.7948 12.9968L47.1465 19.9705L46.9488 39.2494L42.9806 43.1214L42.6382 43.2277C43.1304 43.5792 43.6505 43.7673 44.2144 43.7673C44.6325 43.7673 45.0753 43.6636 45.5486 43.4462C46.4495 43.0324 47.7598 42.3568 48.8196 41.8104C49.2631 41.5817 49.6628 41.3757 49.9702 41.2208ZM12.7432 15.4418C13.1342 15.2495 13.6956 15.5898 13.9967 16.2018C14.2983 16.8144 14.2255 17.4665 13.8342 17.6591C13.4432 17.8513 12.8818 17.5111 12.5807 16.8988C12.2792 16.2866 12.3522 15.6344 12.7432 15.4418ZM32.6037 22.3489C32.2357 21.6008 31.5497 21.1847 31.0713 21.4197C30.593 21.655 30.504 22.4524 30.8726 23.2012C31.2411 23.9495 31.9268 24.3656 32.4052 24.1305C32.8833 23.8953 32.9725 23.0975 32.6037 22.3489ZM26.8728 23.0103C28.104 24.4082 29.1075 26.1511 29.7748 28.0512C30.191 29.2363 30.4665 30.3961 30.5945 31.6003C30.6016 31.6675 30.5843 31.685 30.5463 31.7235C30.5389 31.731 30.5307 31.7394 30.5217 31.7491C30.49 31.7831 30.4506 31.7644 30.4074 31.7439C30.3782 31.73 30.3473 31.7153 30.3158 31.7153H30.3086L27.1702 31.7563L27.1313 31.7555C27.0122 31.7537 26.9173 31.7523 26.9005 31.6298C26.7894 30.8377 26.5932 30.0433 26.3182 29.2602C25.8305 27.8716 25.1111 26.5971 24.2393 25.5699C24.1447 25.4585 24.1514 25.2939 24.255 25.1908L26.4649 22.9964C26.5201 22.942 26.5947 22.913 26.6717 22.9153C26.7489 22.918 26.8214 22.9524 26.8728 23.0103ZM14.2431 39.5428C14.004 39.0075 13.5328 38.697 13.1907 38.8496C12.8484 39.0028 12.765 39.5606 13.0041 40.0964C13.2435 40.6318 13.7144 40.9422 14.0568 40.7896C14.3989 40.6365 14.4823 40.0783 14.2431 39.5428ZM31.1509 43.5251C31.5423 43.3325 32.1033 43.6722 32.4047 44.2841C32.7059 44.8973 32.6333 45.5497 32.2423 45.7421C31.8507 45.9339 31.2896 45.5937 30.988 44.9818C30.6871 44.3694 30.7599 43.7176 31.1509 43.5251Z" fill="#03234B"/>
</svg>
