<svg width="50" height="56" viewBox="0 0 50 56" fill="none" xmlns="http://www.w3.org/2000/svg">
<path fill-rule="evenodd" clip-rule="evenodd" d="M26.5 2C26.5 1.17157 25.8284 0.5 25 0.5C24.1716 0.5 23.5 1.17157 23.5 2V5.5C23.5 6.32843 24.1716 7 25 7C25.8284 7 26.5 6.32843 26.5 5.5V2ZM25 11.5C17.5442 11.5 11.5 17.5442 11.5 25C11.5 28.4114 12.7634 31.5242 14.8502 33.9015L14.8834 33.9272C15.455 34.3696 16.5822 35.2419 17.5628 36.7417C18.4691 38.1279 19.2201 39.9938 19.4369 42.5H23.5V29.5H21C20.1716 29.5 19.5 28.8284 19.5 28C19.5 27.1716 20.1716 26.5 21 26.5H25H29C29.8284 26.5 30.5 27.1716 30.5 28C30.5 28.8284 29.8284 29.5 29 29.5H26.5V42.5H30.5626C31.0182 37.1828 33.8432 34.7522 35.1919 33.8533C37.2535 31.4823 38.5 28.3884 38.5 25C38.5 17.5442 32.4558 11.5 25 11.5ZM19.5 45.5H25H30.5V47V48.5H19.5V47V45.5ZM15.0518 38.3833C15.7984 39.5252 16.5 41.2794 16.5 44V47V49C16.5 50.3807 17.6193 51.5 19 51.5H19.5048C19.7629 52.2267 20.123 52.9074 20.6071 53.5001C21.637 54.761 23.1316 55.5 25 55.5C26.8684 55.5 28.363 54.761 29.3929 53.5001C29.877 52.9074 30.2371 52.2267 30.4952 51.5H31C32.3807 51.5 33.5 50.3807 33.5 49V47V44C33.5 38.6605 36.2169 36.7491 36.979 36.2698L37.1576 36.1575L37.2982 36.0004C39.9101 33.0822 41.5 29.225 41.5 25C41.5 15.8873 34.1127 8.5 25 8.5C15.8873 8.5 8.5 15.8873 8.5 25C8.5 29.225 10.0899 33.0822 12.7018 36.0004L12.7893 36.0982L12.8925 36.1793C12.9369 36.2142 12.9833 36.2503 13.0315 36.2878L13.0324 36.2885C13.5804 36.7148 14.3547 37.3172 15.0518 38.3833ZM22.8509 51.5C22.877 51.5351 22.9036 51.5693 22.9306 51.6023C23.3703 52.1406 23.9994 52.5 25 52.5C26.0006 52.5 26.6297 52.1406 27.0694 51.6023C27.0964 51.5693 27.123 51.5351 27.1491 51.5H22.8509ZM7 25C7 25.8284 6.32843 26.5 5.5 26.5H2C1.17157 26.5 0.5 25.8284 0.5 25C0.5 24.1716 1.17157 23.5 2 23.5H5.5C6.32843 23.5 7 24.1716 7 25ZM10.4404 12.5617C11.0267 13.1469 11.9765 13.146 12.5617 12.5596C13.1469 11.9733 13.146 11.0235 12.5596 10.4383L10.0548 7.9383C9.4684 7.35309 8.51865 7.35401 7.93344 7.94037C7.34822 8.52672 7.34914 9.47647 7.9355 10.0617L10.4404 12.5617ZM42.5607 8.43934C43.1464 9.02513 43.1464 9.97487 42.5607 10.5607L40.0607 13.0607C39.4749 13.6464 38.5251 13.6464 37.9393 13.0607C37.3536 12.4749 37.3536 11.5251 37.9393 10.9393L40.4393 8.43934C41.0251 7.85355 41.9749 7.85355 42.5607 8.43934ZM48 26.5C48.8284 26.5 49.5 25.8284 49.5 25C49.5 24.1716 48.8284 23.5 48 23.5H44.5C43.6716 23.5 43 24.1716 43 25C43 25.8284 43.6716 26.5 44.5 26.5H48Z" fill="#002052"/>
</svg>
