<?xml version="1.0" encoding="utf-8"?>
<!-- Generator: Adobe Illustrator 24.1.1, SVG Export Plug-In . SVG Version: 6.00 Build 0)  -->
<svg version="1.1" xmlns="http://www.w3.org/2000/svg" xmlns:xlink="http://www.w3.org/1999/xlink" x="0px" y="0px" width="200px"
	 height="200px" viewBox="0 0 200 200" style="enable-background:new 0 0 200 200;" xml:space="preserve">
<style type="text/css">
	.st0{display:none;}
	.st1{display:inline;fill:#39A9DC;}
	.st2{fill:#FFFFFF;}
	.st3{fill:#03234B;}
</style>
<g id="Layer_3_copy">
</g>
<g id="Layer_1" class="st0">
	<path class="st1" d="M-577.7,200c1.7,0,3.8,0,5.7-0.3c2-0.3,2.7-0.6,3.4-1.6c0.9-1.3,0.5-5.9,0.5-7.9c0.9-0.3,1.3,0.1,2.3-1.6
		c1-1.7,0.3-2.5,0.2-3.9c-0.1-1.4,0-2.7,0.5-4.2c0.3-0.8,0.3-2.2,0.4-3.5c0.2-2,0.2-3.4,0.2-4.4c0-6.3-0.9-12.5-0.9-18.4
		c0-0.6,0.5-0.9,0.6-1.6c0-0.8-0.7-2-0.6-2.9c0.1-1.1,0.6-1.1,0.7-2.3c0.5-4.2,1.5-9.1,2.1-12c0.7-3.4,1.5-8.2,2-11.8
		c0.4-2.9,0.7-6.1,1.1-10c1.3,7.2,2.1,11.9,4.4,19.1c0.6,2.1,1.6,6.1,2.5,8.9c1.1,3.5,0.7,7,2.4,9.3c-0.2,1.4-0.5,2.8-0.7,4.3
		c-0.3,1.9,0.1,4.4,0.2,6.3c0.3,3.8,0.3,6.8,0.5,10.6c0.2,3.7,0.8,6.6,1,9.8c0.2,2.6,0.1,3.4,0.8,6.2c0.1,0.6,1.7,1.6,2.2,1.7
		c-0.1,3,0.4,7.4,0.7,8.3c0.4,1.1,2,1.6,3.2,1.6c1.2,0.1,2.5,0.1,5,0.1c3,0,6.1-0.5,6.4-0.9c0.6-0.6,0.6-1.8,0.4-2.6
		c-0.2-1.3-1.2-2.4-1.8-3.1c-1-1-1.3-1.6-2-2.9c-1.2-2.4-0.5-4.1-1.6-4.8c0.7,0.1,1.3-0.3,1.3-1c0.2-1.4-1.2-2.1-1.1-3
		c0.1-1.4,0.4-4.6,0.2-6.5c-0.7-5-0.7-7.8-0.9-11.9c-0.2-3.2-0.7-9.8-1.1-13.3c-0.6-5-1.3-6.9-1.8-11.9c-0.4-4.4-0.1-6.9,0.2-11.1
		c0.1-1.5-0.1-4.3,0-6c0.2-2.6,0.1-6.1-0.1-9.4c-0.2-4.8-0.1-6.8-0.9-11c0.5-0.4,1.9-0.9,2.1-1.3c-0.3-2.3-2.9-7.5-3.2-8.9
		c1,0,1.5-0.3,2.6-0.4c1.1-0.1,3.3-0.1,4.5-2c0.8,0.4,2.3,1.9,3.6,2.4c0.7-0.6,2.6-6.1,3.5-7.1c1.3-1.5,2.2-4.1,2.6-4.9
		c0.7-1.3,1.7-2.2,2.5-4c0.9-2,1.5-4.3,2.1-5.5c1.6-3.5-0.9-5.9-3-8.6c-2.4-3.1-4.4-5.1-5.8-7.9c-1.5-3-2.8-4.6-3.7-6.6
		c-0.9-2.3-1.8-3.8-3.1-5.5c-1.1-1.4-0.9-2.5-2.1-3.3c-2.2-1.5-4.5-2.1-7.5-3.3c-2.2-0.8-4.2-1.6-5.5-2.2c-0.9-1-2.1-2.2-3.1-2.1
		c-0.1-1.4-0.2-5.4-0.2-6.7c0.4-1.2,0.4-2.1,0.3-3c0.4,0.2,1.1,0.1,1.5-0.1c0.7-0.2,1.3-0.7,1.8-2.1c0.5-1.1,0.8-2.1,0.7-3
		c-0.1-0.7-0.5-1.5-1.5-1.2c0.7-4.6-0.2-7.7-2.8-10.9c-0.9-1.1-2.9-2.6-5.5-2.8c-1.4-0.1-3.1,0.1-4.6,1c-1.8,1-3.4,2.4-4.6,4.6
		c-1,1.7-1.2,5.1-1,7.6c-0.8-0.2-1.5,0.3-1.7,1.1c-0.1,0.8,0,1.9,0.2,2.6c0.2,0.9,0.6,1.7,1.2,2.3c0.5,0.5,1.4,0.9,2.2,0.9
		c0.2,0.6,0.6,1.5,1,2.6c0.1,1.9,0,5.2,0,7.2c-0.5,0.2-1.5,0.9-1.9,1.3c-0.4,0.4-4.3,2.3-6.2,3.1c-4.7,2.1-5.7,2.5-7.8,3.5
		c-1.6,0.8-2.8,3.6-3.2,4.8c-0.8,2.2-2.7,4.8-3.4,6.6c-0.4,0.9-2.3,3.4-2.8,4.3c-0.7,1-1.3,2.1-2.8,4.1c-1.2,1.6-1.7,2.5-2.5,3.6
		c-1.1,1.6-1.9,3.5-3,5.6c-1,1.9-0.1,3.7,0.4,5.4c0.8,2.8,2.2,5.8,5.7,11.7c1,1.7,3,5.2,3.8,6c0.6-0.3,2.9-1.6,3.3-2
		c1.6,2.2,2.9,3.7,4.3,4c1.4,0.2,2.5-0.9,5.1-0.6c-0.9,2.6-1,2.5-1.7,5.2c-0.2,0.9-1.1,3.9-1.1,3.9s0.3,0.4,1.7,0.9
		c-0.8,8.3-0.4,15.7,0.1,21.3c0.1,1.5,0.2,4.4,0.3,5.9c0.3,3.2,0.7,4.8,1.2,8c0.3,2.3,0,5.3,0.4,7.8c-0.2,1.7-0.1,4.7-0.5,7.6
		c-0.4,2.5-0.7,7-0.9,11c-0.1,2.6-0.2,7.7-0.2,9.9c0.1,3.3,0.7,3.7,1,5.5c0.2,1.1-0.5,2.4-1.1,3.7c-0.8,1.8-0.6,3.4,1,4.1
		c-1.9,2.2-2.3,4.2-2.8,4.9c-0.4,0.6-1.3,1.1-1,2.2c-0.8,0.9-1.6,1.3-2.4,2.2c-0.8,0.9-0.9,3-0.4,3.6
		C-583.3,199.7-580.4,200-577.7,200z M-544.4,82.6c0.9-1,1.1-2.3,1.7-4.7c0.3-1.5,0.1-3.9,0.2-6c0.1-2.2,0.7-4.3,0.7-6.6
		c0-1.1,0.1-2.6,0-3.7c-0.1-2.1,0.1-3.2,0.1-4.1c1.2,2.1,4.1,4.5,5.5,6.2c1,1.2,3.8,4,5.2,5.3c0.3,1.1-0.1,1-0.6,2
		c-0.2,0.3-0.4,0.6-0.5,1c-0.2,0.6-0.1,1.6,0,2.1c0,0.5-0.5,1-1.1,1.6c-0.6,0.6-0.7,1.2-1.2,2c-0.8,1.2-1.2,1.7-1.9,2.6
		c-0.6,0.8-1.5,1.7-1.9,2.3c-0.4,0.6-0.5,0.9-0.2,1.3c-0.8,0.4-1.8,0.4-2.7-0.2C-542.3,83.2-543.5,82.5-544.4,82.6z M-576.9,83.1
		c-0.6,0-0.8,0.5-1.3,1c-0.6,0.5-1.3,1.1-1.7,1.5c-0.3,0.3-1,0.1-1.4,0c-0.3-0.1-0.6-0.7-0.8-1c0.5-0.2,0.3-0.4,0.2-0.7
		c-0.1-0.3-0.4-0.8-1.1-1.6c-0.5-0.6-2.7-4.5-3.8-6c-0.2-0.3-0.8-1.6-0.9-1.9c-0.2-0.4-0.3-1.1-0.4-1.6c-0.2-0.8-0.7-1.8-1-2.3
		c1.4-0.6,2.9-1.8,3.4-2.6c0.8-1.2,1.8-1.9,2.1-2.3c0.7-0.8,1.4-1.7,1.8-2.6c0.2-0.5,0.7-0.9,0.9-1.3c0.2-0.5,1.2-2.3,1.4-2.7
		c0.2,0.9,0,3.6,0.3,6.2c0.1,1.2,0.5,2.6,0.6,3.8c0.2,1.8,0.3,3.5,0.7,5c0.4,1.4,0.9,4.1,1,5.7c0,0.7,0,1.3-0.1,2
		C-576.9,82.2-577,82.6-576.9,83.1z"/>
</g>
<g id="Layer_2" class="st0">
	
		<image style="display:inline;overflow:visible;" width="947" height="362" xlink:href="877029.jpg"  transform="matrix(1 0 0 1 -1615.8861 -110.4342)">
	</image>
</g>
<g id="Layer_5">
	<g>
		<g>
			<g>
				<path class="st2" d="M99.3,195.8c52.8,0,95.6-42.8,95.6-95.6c0-52.8-42.8-95.6-95.6-95.6S3.6,47.4,3.6,100.2
					C3.6,153,46.5,195.8,99.3,195.8"/>
			</g>
		</g>
		<g>
			<path class="st3" d="M42.7,85.8c-1.4,1.2-3.2,1.8-5.3,1.8c-6,0-9.3-4.6-9.3-15.1s3.4-15.1,9.3-15.1c6,0,9.3,4.6,9.3,15.1
				c0,5.5-0.9,9.4-2.7,11.8l3,2.9l-1.4,1.6L42.7,85.8z M37.7,80.9l1.4-1.6l3.2,3.1c1.1-2.1,1.8-5.3,1.8-9.9c0-9.5-2.5-12.9-6.7-12.9
				c-4.2,0-6.7,3.4-6.7,12.9c0,9.5,2.5,12.9,6.7,12.9c1.4,0,2.6-0.4,3.7-1.3L37.7,80.9z"/>
			<path class="st3" d="M61.1,65.1h5.7l-5.5,22h-6.6l-5.7-22h5.9L58,80.9h0.1L61.1,65.1z"/>
			<path class="st3" d="M68.1,71.8v-0.5c0-5.1,3.5-6.8,7.7-6.8c6.7,0,8,2.8,8,6.8v11.6c0,2,0.1,3,0.7,4.3h-5.4
				c-0.4-0.7-0.5-1.6-0.7-2.3h-0.1c-1.3,2.3-2.9,2.9-5.6,2.9c-3.9,0-5.3-3.4-5.3-6.3c0-4.1,1.7-5.8,5.6-6.9l3.2-0.9
				c1.7-0.5,2.3-1.1,2.3-2.6c0-1.7-0.7-2.7-2.6-2.7c-1.7,0-2.6,1.1-2.6,2.9v0.6H68.1z M78.5,76.1c-0.8,0.6-1.7,0.9-2.4,1.1
				c-2.3,0.5-3.2,1.6-3.2,3.6c0,1.7,0.6,3.1,2.1,3.1c1.5,0,3.5-1,3.5-3.4V76.1z"/>
			<path class="st3" d="M87.9,65.1h5.4V68h0.1c1.1-2.1,2.7-3.5,5.1-3.5c0.3,0,0.7,0,1,0.1V70c-0.6,0-1.2-0.1-1.8-0.1
				c-2,0-4.2,1-4.2,4v13.2h-5.7V65.1z"/>
		</g>
		<g>
			<path class="st3" d="M142,154.8c0.1-0.7,0.1-1.4,0.1-2.2c-0.1-2-0.7-4.9-1-6.1c-0.2-0.9-0.4-2.1-0.5-3.2
				c-0.1-0.5-0.1-1.1-0.2-1.6c-0.1-0.6-0.2-1.3-0.3-2.1c-0.1-0.7-0.2-1.2-0.3-1.8c-0.2-1.4-0.2-2.9-0.2-4c0-1.1,0-1.9-0.1-2.5
				l-1.1-5l-1.8,4.8c-0.1,0.2-0.4,0.7-0.8,1.6c-0.3,0.5-0.5,0.9-0.6,1.1c-0.1,0.1-0.1,0.2-0.2,0.3c-0.2,0.3-0.5,0.6-0.7,1
				c-0.4,0.8-1.1,1.6-1.6,2.3c0,0-0.1,0.1-0.2,0.2l-0.1,0.1c-0.5,0.4-1.2,1.1-1.9,2.1c-0.3,0.5-1.6,1.6-2.8,2.1l-1.6,0.7l0.9,1.5
				c0.6,1,0.8,1.6,0.8,1.9c0.1,0.5,0.3,1.3,0.5,1.8c0.1,0.3,0.7,1.7,1.1,2.3c0.5,0.6,1.2,1.8,2,3.2c0.9,1.6,1.4,2.4,1.8,2.8l0.4,0.5
				l-0.8,0.4l1.6,1.7c0.3,0.4,0.7,1.1,1.6,1.3l0.2,0c0.3,0.1,0.7,0.2,1.1,0.2c0.9,0,1.4-0.5,1.6-0.7c0.1-0.1,0.3-0.3,0.9-0.8
				c0.2-0.2,0.4-0.3,0.6-0.5c0.1-0.1,0.3-0.2,0.4-0.4l0.2-0.2l1.7,0.1l-0.4-2C141.9,155.5,141.9,155.4,142,154.8z M138.9,154.6
				l-0.1,0.6l-0.1,0.1c-0.1,0.1-0.2,0.2-0.3,0.4c-0.1,0.1-0.2,0.2-0.3,0.3c-0.1,0.1-0.3,0.2-0.5,0.4l-0.6,0.5l-0.3-0.6
				c-0.2-0.5-0.6-1.1-1.4-2c-0.2-0.2-0.7-1.1-1.6-2.5c-0.7-1.2-1.6-2.6-2.1-3.4c-0.2-0.2-0.6-1.2-0.8-1.6c-0.1-0.2-0.2-0.8-0.3-1.3
				c-0.1-0.3-0.2-0.7-0.3-1.1l-0.1-0.4l0.3-0.2c1-0.7,1.9-1.5,2.4-2.2c0.5-0.7,1-1.2,1.5-1.6l0.1,0c0.2-0.2,0.4-0.4,0.6-0.5
				c0.3-0.4,0.6-0.8,1-1.2l0.7-1l0.2,1.2c0.1,0.6,0.2,1.2,0.3,1.9c0.1,0.6,0.2,1.2,0.3,1.8c0.1,0.5,0.1,1,0.2,1.6
				c0.1,1.3,0.3,2.4,0.6,3.6c0.3,1.3,0.9,3.9,1,5.5C139.1,153.3,139,153.9,138.9,154.6z"/>
		</g>
		<g>
			<g>
				<path class="st3" d="M182.7,135.5c-0.5-0.7-1.3-1.4-2.1-2.2c-1.2-1.2-2.6-2.6-3.3-3.8l-3.3-5.6l0.4,6.5c0,0.3,0,0.6,0,1.1l0,0.1
					c0,0.8-0.1,1.7,0,3c0,0.7,0,1.6,0,2.5l0,1.1c0,1.1-0.2,2.3-0.3,3.4c-0.1,0.9-0.3,2-0.4,3.1c0,0.8,0,1.7,0,2.5
					c0,1.3,0,2.5-0.2,3.3l-0.1,0.5c-0.4,1.8-0.7,2.9-1.2,3.5l-2.6,2.8l3.8-0.3c0,0,0,0,0,0c0.4,0,0.9,0.2,2,0.9l0,0
					c0.6-0.8,1.2-1.6,1.8-2.5l-0.1-0.1c0,0-0.1,0-0.1-0.1c-0.3-0.2-0.6-0.4-1-0.5l-0.4-0.2l0.1-0.4c0.2-0.7,0.4-1.6,0.6-2.6l0.2-0.7
					c0.2-1.1,0.2-2.4,0.2-3.8c0-0.7,0-1.5,0-2.2c0-0.9,0.2-1.9,0.3-2.8c0.2-1.2,0.4-2.5,0.4-3.9l0-1.1c0-0.5,0-0.9,0-1.4v-1.2l1,1
					c0.7,0.7,1.4,1.4,1.8,2c1.1,1.3,3.8,4,4.6,4.8l0.2,0.2c0.5-1,0.9-1.9,1.4-2.9C185,138,183.4,136.3,182.7,135.5z"/>
			</g>
			<g>
				<path class="st3" d="M121.6,177.4c-1-0.5-5.8-4.9-11-12.4c-2.8-4-6.5-10.1-8.2-16l-0.2-0.6l2.6-0.3l-3.4-4.5l0-0.3
					c0-13.1,10-28,19.4-35.3c4.1-3.3,7.5-4.5,10-5.4c3.3-1.2,5.9-2.1,6.6-6.4c0.5-3.1-0.5-6.8-1.5-10.3c-1-3.5-2.1-7.2-0.8-8.7
					c3-3.7,5.8-11.3,3.9-20.4C135.3,38.6,121,26.9,97.6,23l-0.5-0.1l0.4-2.8l-7.9,3.3l6.8,5.2l0.4-2.7l0.5,0.1
					c22,3.8,35.3,14.6,38.7,31.4c1.5,7.6-0.6,14.5-3.3,17.9c-2.2,2.8-1,7,0.3,11.5c0.9,3.2,1.9,6.5,1.5,8.9
					c-0.4,2.5-1.5,2.9-4.6,4.1c-2.7,1-6.3,2.3-10.9,5.9c-9.9,7.8-20.5,23.7-20.5,37.7c0,0.3,0,0.5,0,0.8l0,0.1l-2.1,5l2.8-0.3
					l0.1,0.4c1.1,4.2,3.4,9.1,6.6,14.1c4.6,7.3,10.6,14.1,13.6,16.3v-0.3l0.9,0.9c0.3,0.3,1.1,1.1,2.1,12.8c1-0.3,2-0.5,3-0.8
					C124.5,182.8,123.6,178.4,121.6,177.4z"/>
			</g>
			<g>
				<path class="st3" d="M187.8,106.5c-1.8-0.9-2.9-1.4-5.4-2.5l-3.5-1.5c-2.6-1.1-6.2-3-6.5-3.2c-0.4-0.3-0.8-0.7-1.3-1.1l-0.3-0.2
					l0.1-0.3c0.7-2.4,2.6-6.6,3.3-8.2l0.4-1c0-0.1,0.1-0.1,0.1-0.2c1.1-1.9-1.1-16.2-2.1-18.1c-1.3-2.4-3-4.2-5.3-5.6l-0.1-0.1
					l-0.1-0.2c-0.2-0.4-0.5-1.5-0.6-3.5c-0.4-6.3-0.2-6.9,1.6-12.9c0.5-1.7,1.1-3.6,1.8-6c0.4-1.4,1-2.8,1.8-4.1
					c-0.7-0.8-1.4-1.6-2.1-2.4c-1.2,1.9-2.1,3.8-2.7,5.7c-0.7,2.5-1.3,4.5-1.8,6.1c-1.8,5.8-2.2,7-1.7,13.9c0.2,3,0.8,5,1.7,5.9
					l0.2,0.1c2,1.1,3.5,2.6,4.6,4.6c0.9,1.6,2.1,12.4,2,14.9l0,0.2l-0.1,0.4c0,0,0,0.1-0.1,0.2l-0.9,2.1l-0.1-2.3
					c0-0.2,0-0.5-0.1-0.7c-0.1-0.9-0.6-1.6-1.3-2.1l-0.2-0.1l0-0.3c0-1.4-0.1-4.8-1.3-6.9c-1.2-2.1-2.7-3.7-4.7-5L163,72l-0.1-0.2
					c-0.1-0.4-0.4-1.3-0.5-3c-0.1-0.8-0.1-1.8-0.2-2.7c-0.6-7.8-1.4-19.7,1.2-28.8c0.5-1.9,1.2-4,2-6.2c-0.8-0.8-1.6-1.5-2.5-2.3
					c-1,2.7-1.8,5.3-2.5,7.6c-2.8,9.7-1.9,21.8-1.3,29.9l0,0.2c0.1,0.9,0.1,1.8,0.2,2.5c0.2,2.7,0.7,4.5,1.6,5.3l0.2,0.1
					c1.7,1,3,2.3,4,4.1c0.8,1.4,1,4.6,0.8,6.9l-0.2,2.3l1.9-0.6l0,0.7c0,0.4-0.1,0.8-0.2,1.2c-0.2,0.7-0.5,1.3-0.8,1.6
					c-0.2,0.2-0.8,0.5-1.2,0.5l-1,0.1l-0.7,1.7c-0.2,0.5-0.5,1.1-0.8,2.1l0,0.3c0,1,0,2.5,0,3.8c0,1.2,0,2.5,0,3.4l0,1.1l1,0.4
					c0.3,0.1,1.1,0.7,1.4,1c0.7,0.7,5.4,2.9,6.7,3.5c1,0.4,1.8,0.8,2.5,1.1l0.6,0.3c2.2,1,3.1,1.4,4.6,2.1c0.8,0.4,1.7,1.9,2.5,4
					c0.6,1.5,1.5,3,2.2,4.4c0.5,0.9,1,1.7,1.3,2.3c0.4,0.8,1.3,2.1,2.3,3.5l0.3,0.4c0.2,0.3,0.3,0.5,0.4,0.6
					c0.2,0.3,0.4,0.6,0.6,0.9c0.2,0.4,0.5,0.8,0.9,1.3c0.4-1.3,0.8-2.6,1.2-3.9c0,0,0,0,0-0.1c-0.2-0.3-0.5-0.7-0.8-1.2
					c-0.9-1.2-1.7-2.5-1.9-3c-0.4-0.8-0.9-1.7-1.5-2.7c-0.7-1.2-1.5-2.7-2-3.9c-1.1-3-2.5-4.9-4-5.7c-1.6-0.8-2.5-1.2-4.8-2.2
					l-3.1-1.4c-2.4-1.1-5.5-2.6-5.7-2.8l-0.1-0.1c-0.3-0.3-0.8-0.7-1.2-1l-0.2-0.2l0-0.3c0-0.7,0-1.5,0-2.3l0-0.2c0-1.2,0-2.3,0-3.3
					l0-0.2c0.2-0.4,0.3-0.8,0.5-1.3l0.1-0.2l0.2-0.1c0.5-0.1,0.9-0.3,1.3-0.6l1.3-0.8l-0.6,1.5c-0.9,2.3-1.4,3.9-1.4,4.8l0,1.1
					l1.1,0.4c0.3,0.1,1.2,0.8,1.6,1.2c0.8,0.7,5.8,3.1,7.5,3.9c1.4,0.6,2.5,1.1,3.5,1.5c2.5,1.1,3.6,1.6,5.3,2.4
					c0.3,0.2,1.6,1,2.9,4.6c0.6,1.6,1.6,3.4,2.5,4.9c0.3,0.5,0.6,1.1,0.9,1.6c0.3-1.5,0.6-3.1,0.9-4.6c-0.5-1-1.1-2-1.4-2.9
					C190.9,109.5,189.4,107.4,187.8,106.5z"/>
			</g>
			<g>
				<path class="st3" d="M185.7,99.7c-3.1-1.2-4.2-1.5-4.6-4.1c-0.4-2.5,0.5-5.8,1.5-8.9c1.3-4.5,2.5-8.7,0.3-11.4
					c-2.7-3.4-4.8-10.3-3.3-17.9c0.4-2.2,1.1-4.3,1.8-6.3c-0.6-1.1-1.3-2.1-2-3.2c-1.3,2.7-2.2,5.7-2.8,8.8
					c-1.8,9.2,1,16.7,3.9,20.4c1.2,1.5,0.2,5.2-0.8,8.7c-1,3.5-2.1,7.1-1.5,10.3c0.7,4.3,3.3,5.2,6.6,6.4c2.5,0.9,5.8,2.1,9.9,5.3
					c0.1-1.2,0.2-2.4,0.2-3.6C191.1,101.7,188,100.6,185.7,99.7z"/>
			</g>
			<g>
				<path class="st3" d="M148.1,17.9c-1.5-0.9-3.1-1.8-4.7-2.6c3.5,7,6.8,15.5,8.6,21.9c2.6,9.1,1.8,21,1.2,28.8
					c-0.1,1-0.1,1.9-0.2,2.7c-0.1,1.6-0.3,2.5-0.5,3l-0.1,0.2l-0.1,0.1c-2,1.3-3.5,2.8-4.7,5c-1.2,2.1-1.3,5.5-1.3,6.9v0.3l-0.2,0.1
					c-0.8,0.5-1.2,1.2-1.4,2.1c0,0.2-0.1,0.5-0.1,0.7l-0.1,2.2l-0.9-2c-0.1-0.1-0.1-0.2-0.1-0.3l-0.2-0.5c-0.1-2.4,1.2-13.4,2-14.9
					c1.1-2,2.6-3.5,4.8-4.8l0.2-0.2c0.3-0.3,1.3-1.7,1.5-5.7c0.4-6.8,0.1-8.1-1.7-13.9c-0.5-1.6-1.1-3.6-1.8-6.1
					c-3.1-10.7-17.5-20.6-28-27.8c-1.4-1-2.8-1.9-4-2.8l-0.4-0.3l1.7-2.1l-8.5-1.2l3.2,8l1.7-2.2l0.4,0.3c1.3,0.9,2.7,1.9,4.2,2.9
					c10.2,6.9,24.1,16.4,26.8,26.1c0.7,2.5,1.3,4.4,1.8,6.1c1.8,5.9,2,6.6,1.6,12.9c-0.1,2-0.4,3.1-0.6,3.5l-0.1,0.2l-0.1,0.1
					c-2.3,1.4-4,3.2-5.3,5.6c-1,1.8-3.2,16.1-2.1,18.1c0,0.1,0.1,0.1,0.1,0.2l0.1,0.1l0.4,0.9c0.8,1.7,2.6,5.8,3.3,8.1l0.1,0.3
					l-0.3,0.2c-0.5,0.3-0.9,0.7-1.1,0.9c-0.5,0.4-4.1,2.2-6.7,3.4l-3.5,1.5c-2.6,1.1-3.7,1.6-5.5,2.5c-1.7,0.8-3.2,3-4.4,6.3
					c-0.5,1.4-1.5,3-2.3,4.5c-0.6,1-1.2,2-1.6,2.9c-0.3,0.6-1.3,2-2.3,3.4l-0.1,0.2c-0.3,0.4-0.6,0.8-0.7,1
					c-0.2,0.4-0.5,0.7-0.7,1.1c-0.6,0.9-1.2,1.9-2.4,3.5c-0.9,1.2-1.5,2.1-2.1,2.9l-0.2,0.3c-0.2,0.3-0.4,0.6-0.6,0.9
					c-0.1,0.2-0.3,0.4-0.4,0.6l-0.1,0.1l-4.7,2.7l2.5,1.4l-0.2,0.4c-0.2,0.4-0.4,0.8-0.6,1.3c-1.2,2.4-0.5,4.7,0.1,6.5
					c0.1,0.3,0.2,0.5,0.2,0.8c0.8,2.7,2,5.5,4.1,9.4c0.7,1.3,1.5,2.7,2.5,4.3l0.3,0.5c1.7,2.9,3.3,5.5,4,6.4l0.7,1.1l0.9-0.5l0.2,0
					c0.8,0.2,2.8,0.8,3.8,1.1l0.4,0.1c1.6,0.5,2.9,0.9,3.6,1c0.5,0.1,1.6,0.5,2.2,1.5c0.4,0.6,0.5,1.2,0.3,1.9c-0.2,1-1,4.6,0.4,6.4
					l0.1,0.2l0,0.2c-0.3,3.2-0.4,6.4-0.4,9.7c1-0.4,2.1-0.7,3.1-1.1c0-3.2,0.2-6.3,0.5-9.3l0.1-1.2l-1-0.4l0-0.3
					c-0.1-0.6-0.1-2,0.3-3.5c0.4-1.5,0.1-3-0.7-4.3c-1.1-1.7-2.9-2.6-4.3-2.9c-0.5-0.1-1.9-0.5-3.3-0.9c-2.4-0.7-3.8-1.1-4.6-1.3
					l-0.2,0l-0.1-0.2c-0.9-1.3-2.4-3.9-3.3-5.4l-0.3-0.5c-3.6-6.1-5.3-9.6-6.3-12.9c-0.1-0.3-0.2-0.6-0.3-1
					c-0.1-0.4-0.2-0.7-0.3-1.1c-0.4-1.5-0.3-2.3,0.1-2.9c0.2-0.4,0.4-0.8,0.6-1.1l0.2-0.5l2.3,1.3l0-5.6l0.2-0.3
					c0.3-0.5,0.6-0.9,0.9-1.3c0.5-0.7,1.1-1.6,2-2.8c1.3-1.7,2-2.8,2.6-3.8c0.2-0.3,0.4-0.6,0.6-0.9c0.2-0.3,0.5-0.7,0.8-1.2
					c0.9-1.3,2.1-3,2.5-3.9c0.3-0.7,0.8-1.5,1.4-2.6l0.1-0.1c0.9-1.5,1.9-3.3,2.5-4.9c1.4-3.6,2.6-4.5,2.9-4.6
					c1.7-0.9,2.8-1.3,5.3-2.4c1-0.4,2.1-0.9,3.5-1.5c1.4-0.6,6.7-3.1,7.5-3.9c0.4-0.4,1.3-1,1.6-1.1l1.1-0.4l0-1.1
					c0-0.9-0.5-2.5-1.4-4.8l-0.6-1.5l1.3,0.9c0.4,0.2,0.8,0.5,1.3,0.6l0.2,0.1l0.1,0.2c0.2,0.4,0.3,0.8,0.5,1.3l0,0.2
					c0,0.9,0,2,0,3.3l0,0.3c0,0.7,0,1.4,0,2.1l0,0.3l-0.2,0.2c-0.5,0.4-0.9,0.7-1.1,0.9c-0.5,0.3-3.6,1.9-5.9,3L139,107
					c-2.3,1-3.2,1.4-4.7,2.2c-1.5,0.8-2.9,2.7-4,5.7c-0.5,1.2-1.3,2.7-2,3.9c-0.5,0.8-1,1.8-1.4,2.6c-0.2,0.5-1.1,1.7-2.1,3.1
					c-0.3,0.5-0.6,0.8-0.7,1c-0.2,0.3-0.4,0.6-0.5,0.8l-0.1,0.2c-0.5,0.8-1.1,1.7-2.1,3.1c-0.8,1.1-1.3,1.8-1.9,2.6l-0.7,1
					c-0.2,0.2-0.3,0.4-0.4,0.6l-0.1,0.1l-4.6,2.8l2.5,1.4l-0.5,1c-1.1,2.2-0.5,4.2,0.1,5.9c0.1,0.2,0.2,0.5,0.2,0.7
					c0.9,3.2,2.5,6.5,5.9,12.1l0.3,0.4c1.9,3.2,3.1,5.1,3.7,5.8l0.8,0.8l1-0.5c0.2-0.1,1-0.5,1.9-1.1l0.4-0.2l0.3,0.3
					c1,1.3,2.4,2.8,4.2,3.1c0.9,0.1,1.6,0,2.2-0.2l0.9-0.2l-0.3,0.9c-0.2,0.6-0.4,1.4-0.7,2.4c-0.2,0.9-1.1,3.8-1.1,3.9l-0.2,0.7
					l0.5,0.6c0.1,0.2,0.4,0.5,1,0.8l0.3,0.2l0,0.3c-0.3,4-0.4,8.2-0.3,12.4c1-0.4,2-0.9,3-1.3c-0.1-4.2,0.1-8.3,0.4-12.2l0.1-1.2
					l-1.5-0.6l0.1-0.4c0.3-0.9,0.6-2,0.7-2.5c0.4-1.6,0.6-2.2,0.9-3c0.2-0.5,0.4-1.2,0.8-2.2l0.6-1.8l-1.8-0.2
					c-1.7-0.2-3,0.1-3.9,0.4c-0.5,0.1-0.9,0.2-1.1,0.2c-0.5-0.1-1.3-0.5-3.3-3.4l-1-1.5l-1.2,1.2c-0.2,0.2-0.9,0.6-1.5,0.9l-0.4,0.2
					l-0.3-0.4c-0.8-1.3-1.9-3.1-2.4-4l-0.3-0.4c-3.2-5.4-4.7-8.5-5.6-11.4c-0.1-0.3-0.2-0.5-0.3-0.8c-0.4-1.3-0.8-2.4-0.2-3.5
					l0.4-0.9l2.4,1.3l-0.1-5.6l0.2-0.3c0.3-0.4,0.5-0.7,0.8-1.1c0.5-0.7,1-1.4,1.8-2.5c1.1-1.5,1.8-2.5,2.3-3.3
					c0.2-0.3,0.4-0.6,0.6-0.9c0.1-0.2,0.3-0.4,0.5-0.7l0.3-0.4c0.9-1.3,1.9-2.7,2.2-3.5c0.3-0.6,0.7-1.4,1.3-2.3
					c0.8-1.4,1.7-2.9,2.2-4.4c0.8-2.1,1.8-3.6,2.5-4c1.5-0.8,2.5-1.2,4.7-2.2l3.1-1.4c1.6-0.7,6-2.8,6.7-3.5c0.3-0.3,1.1-0.8,1.3-1
					l1.1-0.4l0-1.1c0-1,0-2.3,0-3.5c0-1.2,0-2.7-0.1-4l-0.1-0.3c-0.2-0.6-0.5-1.2-0.7-1.7l-0.1-0.2c-0.1-0.3-0.2-0.5-0.3-0.7
					l-0.4-0.9l-1-0.1c-0.4,0-1-0.3-1.2-0.5c-0.3-0.3-0.6-0.9-0.8-1.6c-0.1-0.3-0.1-0.8-0.2-1.2l0-0.7l1.9,0.6l-0.2-2.3
					c-0.2-2.3,0-5.4,0.8-6.9c1-1.8,2.3-3.1,4.2-4.2l0.2-0.2c0.3-0.3,1.2-1.5,1.4-5.2c0-0.8,0.1-1.6,0.2-2.5l0-0.2
					c0.6-8,1.4-20.2-1.3-29.9C153.4,31.1,151,24.3,148.1,17.9z"/>
			</g>
			<g>
				<path class="st3" d="M101.8,174.1l-6.1-9.9c-0.3-0.4-0.5-0.9-0.7-1.3l-0.3-0.5c-0.3-0.6-0.6-1.2-0.9-1.7l-0.2-0.4
					c-0.2-0.4-0.5-0.9-0.7-1.3l-0.4-0.8c-0.1-0.3-0.3-0.6-0.4-0.9l-0.3-0.7c-0.1-0.3-0.3-0.6-0.4-1l-0.3-0.7c-0.1-0.3-0.2-0.6-0.4-1
					l-0.2-0.6c-0.1-0.3-0.2-0.6-0.3-0.9l-0.2-0.7c-0.1-0.2-0.1-0.4-0.1-0.5l-0.1-0.6l0.6-0.1l2.1-0.2l-3.3-4.5l0-0.4
					c0.3-15.5,6.7-36.9,15.6-42.8c11.4-7.5,18.8-14.5,20.1-26c0.1-1,0.2-2,0.4-3l0-0.2c1.5-10.9,3.5-25.9-16.1-33.6
					c-13.1-5.2-25.2-4.9-31.3-4.3l-0.5,0l-0.5-2.8l-6.6,5.4l8,3l-0.4-2.7l0.5,0c5.7-0.5,17.2-0.7,29.6,4.2
					c17.4,6.8,15.7,19.9,14.2,30.4c-0.2,1.1-0.3,2.2-0.4,3.3c-1.2,10.3-8.1,16.7-18.7,23.8c-9.7,6.4-16.7,29-17,45.3
					c0,0.2,0,0.5,0,0.8l0,0.1l-2.2,4.9l2.8-0.3l0.1,0.4c0.1,0.4,0.2,0.8,0.3,1.2l0.3,0.8c0.1,0.3,0.2,0.6,0.3,0.9l0.3,0.8
					c0.1,0.3,0.2,0.7,0.4,1l0.3,0.7c0.1,0.4,0.3,0.7,0.5,1.1l0.3,0.7c0.2,0.4,0.4,0.8,0.6,1.2l0.3,0.6c0.2,0.5,0.5,1,0.8,1.6
					l0.1,0.2c0.3,0.6,0.7,1.2,1,1.9l0.1,0.2c0.3,0.6,0.6,1.1,1,1.7l6.2,10c4.1,6.4,8.2,12.9,11.1,19.4c1.1-0.1,2.1-0.3,3.1-0.4
					c-1.4-3.4-3.4-7.1-5.9-11.4C105.7,180.2,103.6,177,101.8,174.1z"/>
			</g>
		</g>
	</g>
</g>
<g id="Layer_3">
</g>
</svg>
