<svg width="53" height="44" viewBox="0 0 53 44" fill="none" xmlns="http://www.w3.org/2000/svg">
<path fill-rule="evenodd" clip-rule="evenodd" d="M14 0.5C6.17157 0.5 0.5 6.17157 0.5 14C0.5 21.3805 3.15452 25.3659 5.6 27.2C5.85964 27.3947 6.17544 27.5 6.5 27.5H12C12.5015 27.5 12.9699 27.2493 13.2481 26.8321L13.9708 25.748L16.2345 29.3053C16.5537 29.807 17.1392 30.0727 17.7269 29.9827C18.3147 29.8928 18.7938 29.4641 18.9484 28.89L20.9877 21.3154L24.0499 32.8838C24.2187 33.5214 24.784 33.9739 25.443 33.9989C26.102 34.024 26.7001 33.6157 26.9167 32.9928L29.9532 24.2631L31.7712 26.8602C32.0518 27.2612 32.5105 27.5 33 27.5H40.7314C39.3985 28.9869 37.8429 30.4301 36.0733 31.8205L36.0689 31.8239L25 40.5868L13.9311 31.8239C13.2815 31.3097 12.3381 31.4194 11.8239 32.0689C11.3097 32.7185 11.4194 33.6619 12.0689 34.1761L24.0689 43.6761C24.6145 44.108 25.3855 44.108 25.9311 43.6761L37.9267 34.1795L37.9286 34.178C40.5636 32.1074 42.818 29.8734 44.6181 27.5H51C51.8284 27.5 52.5 26.8284 52.5 26C52.5 25.1716 51.8284 24.5 51 24.5H46.6049C48.4778 21.2087 49.5 17.69 49.5 14C49.5 6.17157 43.8284 0.5 36 0.5C32.1739 0.5 29.6013 1.60653 27.7104 3.06106C26.7873 3.77113 26.0579 4.54014 25.4526 5.2272C25.2878 5.41428 25.1385 5.58736 25 5.74899C24.8615 5.58736 24.7122 5.41428 24.5474 5.2272C23.9421 4.54014 23.2127 3.77113 22.2896 3.06106C20.3987 1.60653 17.8261 0.5 14 0.5ZM46.5 14C46.5 17.6173 45.3295 21.1481 43.0779 24.5H33.781L30.7288 20.1398C30.4058 19.6784 29.8516 19.4368 29.2937 19.5143C28.7358 19.5917 28.2683 19.9752 28.0833 20.5072L25.6948 27.374L22.4501 15.1162C22.2762 14.4594 21.6826 14.0014 21.0032 14C20.3237 13.9986 19.7282 14.454 19.5516 15.11L16.937 24.8213L15.2655 22.1947C14.9932 21.7668 14.5231 21.5055 14.016 21.5001C13.5088 21.4947 13.0333 21.7459 12.7519 22.1679L11.1972 24.5H7.03168C5.50116 23.153 3.5 20.1144 3.5 14C3.5 7.82843 7.82843 3.5 14 3.5C17.1739 3.5 19.1013 4.39347 20.4604 5.43894C21.1623 5.97887 21.7454 6.58486 22.2963 7.2103C22.4489 7.38346 22.609 7.57047 22.773 7.76209L22.773 7.76211C23.1556 8.209 23.5596 8.68094 23.9393 9.06066C24.5251 9.64645 25.4749 9.64645 26.0607 9.06066C26.4404 8.68094 26.8444 8.209 27.227 7.76211L27.227 7.76209C27.391 7.57047 27.5511 7.38346 27.7037 7.2103C28.2546 6.58486 28.8377 5.97887 29.5396 5.43894C30.8987 4.39347 32.8261 3.5 36 3.5C42.1716 3.5 46.5 7.82843 46.5 14Z" fill="#002052"/>
</svg>
