<svg width="54" height="43" viewBox="0 0 54 43" fill="none" xmlns="http://www.w3.org/2000/svg">
<path fill-rule="evenodd" clip-rule="evenodd" d="M15 16.5767C15 13.7413 16.3307 10.2308 18.896 7.55151C21.4222 4.91304 25.1074 3.11748 29.8578 3.56989C33.3812 3.90545 37.0332 6.0404 39.45 8.99775C41.8676 11.9562 42.8367 15.4459 41.6073 18.5196C41.4092 19.0148 41.489 19.578 41.8169 19.9987C42.1448 20.4195 42.6714 20.6344 43.2001 20.5633C46.7314 20.088 48.7655 21.2819 49.8338 22.8075C50.9688 24.4283 51.1942 26.674 50.577 28.5257C50.1193 29.8985 48.6957 30.6718 46.3603 30.9895C44.6888 31.217 42.9897 31.1605 41.5357 31.1122C40.9834 31.0938 40.4666 31.0767 40 31.0767H39.9883H39.9766H39.9649H39.9533H39.9417H39.9301H39.9185H39.907H39.8955H39.8839H39.8725H39.861H39.8496H39.8382H39.8268H39.8154H39.804H39.7927H39.7814H39.7701H39.7589H39.7476H39.7364H39.7252H39.714H39.7029H39.6917H39.6806H39.6695H39.6584H39.6474H39.6364H39.6253H39.6144H39.6034H39.5924H39.5815H39.5706H39.5597H39.5488H39.538H39.5272H39.5164H39.5056H39.4948H39.4841H39.4733H39.4626H39.4519H39.4413H39.4306H39.42H39.4094H39.3988H39.3882H39.3777H39.3671H39.3566H39.3461H39.3357H39.3252H39.3148H39.3043H39.2939H39.2836H39.2732H39.2629H39.2525H39.2422H39.2319H39.2217H39.2114H39.2012H39.191H39.1808H39.1706H39.1604H39.1503H39.1401H39.13H39.1199H39.1099H39.0998H39.0898H39.0797H39.0697H39.0597H39.0498H39.0398H39.0299H39.0199H39.01H39.0001H38.9903H38.9804H38.9706H38.9608H38.951H38.9412H38.9314H38.9216H38.9119H38.9022H38.8925H38.8828H38.8731H38.8634H38.8538H38.8442H38.8345H38.8249H38.8154H38.8058H38.7962H38.7867H38.7772H38.7677H38.7582H38.7487H38.7392H38.7298H38.7204H38.7109H38.7015H38.6921H38.6828H38.6734H38.6641H38.6547H38.6454H38.6361H38.6268H38.6175H38.6083H38.599H38.5898H38.5806H38.5714H38.5622H38.553H38.5438H38.5347H38.5256H38.5164H38.5073H38.4982H38.4891H38.4801H38.471H38.462H38.4529H38.4439H38.4349H38.4259H38.4169H38.408H38.399H38.39H38.3811H38.3722H38.3633H38.3544H38.3455H38.3366H38.3278H38.3189H38.3101H38.3013H38.2924H38.2836H38.2748H38.2661H38.2573H38.2485H38.2398H38.2311H38.2223H38.2136H38.2049H38.1962H38.1876H38.1789H38.1702H38.1616H38.1529H38.1443H38.1357H38.1271H38.1185H38.1099H38.1013H38.0928H38.0842H38.0757H38.0671H38.0586H38.0501H38.0416H38.0331H38.0246H38.0161H38.0077H37.9992H37.9908H37.9823H37.9739H37.9655H37.957H37.9486H37.9402H37.9319H37.9235H37.9151H37.9068H37.8984H37.8901H37.8817H37.8734H37.8651H37.8568H37.8485H37.8402H37.8319H37.8236H37.8153H37.8071H37.7988H37.7906H37.7823H37.7741H37.7659H37.7577H37.7495H37.7412H37.7331H37.7249H37.7167H37.7085H37.7003H37.6922H37.684H37.6759H37.6677H37.6596H37.6515H37.6434H37.6353H37.6271H37.619H37.6109H37.6029H37.5948H37.5867H37.5786H37.5706H37.5625H37.5544H37.5464H37.5384H37.5303H37.5223H37.5143H37.5062H37.4982H37.4902H37.4822H37.4742H37.4662H37.4582H37.4502H37.4423H37.4343H37.4263H37.4183H37.4104H37.4024H37.3945H37.3865H37.3786H37.3706H37.3627H37.3548H37.3468H37.3389H37.331H37.3231H37.3152H37.3073H37.2993H37.2914H37.2835H37.2756H37.2678H37.2599H37.252H37.2441H37.2362H37.2283H37.2205H37.2126H37.2047H37.1969H37.189H37.1811H37.1733H37.1654H37.1576H37.1497H37.1419H37.134H37.1262H37.1183H37.1105H37.1027H37.0948H37.087H37.0792H37.0713H37.0635H37.0557H37.0478H37.04H37.0322H37.0244H37.0165H37.0087H37.0009H36.9931H36.9853H36.9774H36.9696H36.9618H36.954H36.9462H36.9384H36.9306H36.9227H36.9149H36.9071H36.8993H36.8915H36.8837H36.8759H36.8681H36.8602H36.8524H36.8446H36.8368H36.829H36.8212H36.8134H36.8055H36.7977H36.7899H36.7821H36.7743H36.7664H36.7586H36.7508H36.743H36.7352H36.7273H36.7195H36.7117H36.7038H36.696H36.6882H36.6803H36.6725H36.6647H36.6568H36.649H36.6411H36.6333H36.6254H36.6176H36.6097H36.6019H36.594H36.5862H36.5783H36.5704H36.5626H36.5547H36.5468H36.5389H36.5311H36.5232H36.5153H36.5074H36.4995H36.4916H36.4837H36.4758H36.4679H36.46H36.4521H36.4441H36.4362H36.4283H36.4204H36.4124H36.4045H36.3966H36.3886H36.3807H36.3727H36.3647H36.3568H36.3488H36.3408H36.3329H36.3249H36.3169H36.3089H36.3009H36.2929H36.2849H36.2769H36.2689H36.2608H36.2528H36.2448H36.2367H36.2287H36.2206H36.2126H36.2045H36.1965H36.1884H36.1803H36.1722H36.1641H36.156H36.1479H36.1398H36.1317H36.1236H36.1155H36.1073H36.0992H36.091H36.0829H36.0747H36.0665H36.0584H36.0502H36.042H36.0338H36.0256H36.0174H36.0092H36.0009H35.9927H35.9845H35.9762H35.9679H35.9597H35.9514H35.9431H35.9348H35.9265H35.9182H35.9099H35.9016H35.8933H35.8849H35.8766H35.8682H35.8599H35.8515H35.8431H35.8347H35.8263H35.8179H35.8095H35.8011H35.7927H35.7842H35.7758H35.7673H35.7588H35.7503H35.7419H35.7334H35.7248H35.7163H35.7078H35.6993H35.6907H35.6822H35.6736H35.665H35.6564H35.6478H35.6392H35.6306H35.622H35.6133H35.6047H35.596H35.5873H35.5786H35.57H35.5612H35.5525H35.5438H35.5351H35.5263H35.5176H35.5088H35.5C34.6716 31.0767 34 31.7482 34 32.5767C34 33.4051 34.6716 34.0767 35.5 34.0767H35.5088H35.5176H35.5263H35.5351H35.5438H35.5525H35.5612H35.57H35.5786H35.5873H35.596H35.6047H35.6133H35.622H35.6306H35.6392H35.6478H35.6564H35.665H35.6736H35.6822H35.6907H35.6993H35.7078H35.7163H35.7248H35.7334H35.7419H35.7503H35.7588H35.7673H35.7758H35.7842H35.7927H35.8011H35.8095H35.8179H35.8263H35.8347H35.8431H35.8515H35.8599H35.8682H35.8766H35.8849H35.8933H35.9016H35.9099H35.9182H35.9265H35.9348H35.9431H35.9514H35.9597H35.9679H35.9762H35.9845H35.9927H36.0009H36.0092H36.0174H36.0256H36.0338H36.042H36.0502H36.0584H36.0665H36.0747H36.0829H36.091H36.0992H36.1073H36.1155H36.1236H36.1317H36.1398H36.1479H36.156H36.1641H36.1722H36.1803H36.1884H36.1965H36.2045H36.2126H36.2206H36.2287H36.2367H36.2448H36.2528H36.2608H36.2689H36.2769H36.2849H36.2929H36.3009H36.3089H36.3169H36.3249H36.3329H36.3408H36.3488H36.3568H36.3647H36.3727H36.3807H36.3886H36.3966H36.4045H36.4124H36.4204H36.4283H36.4362H36.4441H36.4521H36.46H36.4679H36.4758H36.4837H36.4916H36.4995H36.5074H36.5153H36.5232H36.5311H36.5389H36.5468H36.5547H36.5626H36.5704H36.5783H36.5862H36.594H36.6019H36.6097H36.6176H36.6254H36.6333H36.6411H36.649H36.6568H36.6647H36.6725H36.6803H36.6882H36.696H36.7038H36.7117H36.7195H36.7273H36.7352H36.743H36.7508H36.7586H36.7664H36.7743H36.7821H36.7899H36.7977H36.8055H36.8134H36.8212H36.829H36.8368H36.8446H36.8524H36.8602H36.8681H36.8759H36.8837H36.8915H36.8993H36.9071H36.9149H36.9227H36.9306H36.9384H36.9462H36.954H36.9618H36.9696H36.9774H36.9853H36.9931H37.0009H37.0087H37.0165H37.0244H37.0322H37.04H37.0478H37.0557H37.0635H37.0713H37.0792H37.087H37.0948H37.1027H37.1105H37.1183H37.1262H37.134H37.1419H37.1497H37.1576H37.1654H37.1733H37.1811H37.189H37.1969H37.2047H37.2126H37.2205H37.2283H37.2362H37.2441H37.252H37.2599H37.2678H37.2756H37.2835H37.2914H37.2993H37.3073H37.3152H37.3231H37.331H37.3389H37.3468H37.3548H37.3627H37.3706H37.3786H37.3865H37.3945H37.4024H37.4104H37.4183H37.4263H37.4343H37.4423H37.4502H37.4582H37.4662H37.4742H37.4822H37.4902H37.4982H37.5062H37.5143H37.5223H37.5303H37.5384H37.5464H37.5544H37.5625H37.5706H37.5786H37.5867H37.5948H37.6029H37.6109H37.619H37.6271H37.6353H37.6434H37.6515H37.6596H37.6677H37.6759H37.684H37.6922H37.7003H37.7085H37.7167H37.7249H37.7331H37.7412H37.7495H37.7577H37.7659H37.7741H37.7823H37.7906H37.7988H37.8071H37.8153H37.8236H37.8319H37.8402H37.8485H37.8568H37.8651H37.8734H37.8817H37.8901H37.8984H37.9068H37.9151H37.9235H37.9319H37.9402H37.9486H37.957H37.9655H37.9739H37.9823H37.9908H37.9992H38.0077H38.0161H38.0246H38.0331H38.0416H38.0501H38.0586H38.0671H38.0757H38.0842H38.0928H38.1013H38.1099H38.1185H38.1271H38.1357H38.1443H38.1529H38.1616H38.1702H38.1789H38.1876H38.1962H38.2049H38.2136H38.2223H38.2311H38.2398H38.2485H38.2573H38.2661H38.2748H38.2836H38.2924H38.3013H38.3101H38.3189H38.3278H38.3366H38.3455H38.3544H38.3633H38.3722H38.3811H38.39H38.399H38.408H38.4169H38.4259H38.4349H38.4439H38.4529H38.462H38.471H38.4801H38.4891H38.4982H38.5073H38.5164H38.5256H38.5347H38.5438H38.553H38.5622H38.5714H38.5806H38.5898H38.599H38.6083H38.6175H38.6268H38.6361H38.6454H38.6547H38.6641H38.6734H38.6828H38.6921H38.7015H38.7109H38.7204H38.7298H38.7392H38.7487H38.7582H38.7677H38.7772H38.7867H38.7962H38.8058H38.8154H38.8249H38.8345H38.8442H38.8538H38.8634H38.8731H38.8828H38.8925H38.9022H38.9119H38.9216H38.9314H38.9412H38.951H38.9608H38.9706H38.9804H38.9903H39.0001H39.01H39.0199H39.0299H39.0398H39.0498H39.0597H39.0697H39.0797H39.0898H39.0998H39.1099H39.1199H39.13H39.1401H39.1503H39.1604H39.1706H39.1808H39.191H39.2012H39.2114H39.2217H39.2319H39.2422H39.2525H39.2629H39.2732H39.2836H39.2939H39.3043H39.3148H39.3252H39.3357H39.3461H39.3566H39.3671H39.3777H39.3882H39.3988H39.4094H39.42H39.4306H39.4413H39.4519H39.4626H39.4733H39.4841H39.4948H39.5056H39.5164H39.5272H39.538H39.5488H39.5597H39.5706H39.5815H39.5924H39.6034H39.6144H39.6253H39.6364H39.6474H39.6584H39.6695H39.6806H39.6917H39.7029H39.714H39.7252H39.7364H39.7476H39.7589H39.7701H39.7814H39.7927H39.804H39.8154H39.8268H39.8382H39.8496H39.861H39.8725H39.8839H39.8955H39.907H39.9185H39.9301H39.9417H39.9533H39.9649H39.9766H39.9883H40C40.314 34.0767 40.7198 34.0903 41.1909 34.1061L41.1911 34.1061H41.1912C42.6778 34.1559 44.8142 34.2275 46.7647 33.9621C49.3043 33.6166 52.3807 32.6015 53.423 29.4743C54.3058 26.826 54.0312 23.5717 52.2912 21.0867C50.7965 18.952 48.3372 17.5445 45.0021 17.4626C45.625 13.7309 44.152 10.0106 41.773 7.0994C38.9307 3.62136 34.5828 1.00631 30.1422 0.583401C24.3926 0.0358227 19.8278 2.24026 16.729 5.47679C14.2688 8.04636 12.7075 11.2908 12.1901 14.3686C10.1455 13.8567 7.77142 14.1958 5.78055 15.1657C2.91454 16.5619 0.5 19.4119 0.5 23.5767C0.5 27.4207 1.74821 30.0855 3.52567 31.7856C5.26538 33.4497 7.39685 34.0767 9 34.0767H19.5C20.3284 34.0767 21 33.4051 21 32.5767C21 31.7482 20.3284 31.0767 19.5 31.0767H9C8.10315 31.0767 6.73462 30.7036 5.59933 29.6177C4.50179 28.5679 3.5 26.7326 3.5 23.5767C3.5 20.7415 5.08546 18.8414 7.09445 17.8626C9.2092 16.8324 11.4623 16.9645 12.6281 17.7973C13.0854 18.1238 13.6868 18.1675 14.1864 17.9104C14.686 17.6533 15 17.1385 15 16.5767ZM28.5607 17.016C27.9749 16.4302 27.0251 16.4302 26.4393 17.016L17.9393 25.516C17.3536 26.1018 17.3536 27.0515 17.9393 27.6373C18.5251 28.2231 19.4749 28.2231 20.0607 27.6373L26 21.698V41.0767C26 41.9051 26.6716 42.5767 27.5 42.5767C28.3284 42.5767 29 41.9051 29 41.0767V21.698L34.9393 27.6373C35.5251 28.2231 36.4749 28.2231 37.0607 27.6373C37.6464 27.0515 37.6464 26.1018 37.0607 25.516L28.5607 17.016Z" fill="#002052"/>
</svg>
