<?xml version="1.0" encoding="iso-8859-1"?>
<!-- Generator: Adobe Illustrator 24.1.1, SVG Export Plug-In . SVG Version: 6.00 Build 0)  -->
<svg version="1.1" id="Layer_1" xmlns="http://www.w3.org/2000/svg" xmlns:xlink="http://www.w3.org/1999/xlink" x="0px" y="0px"
	 width="500px" height="500px" viewBox="0 0 500 500" style="enable-background:new 0 0 500 500;" xml:space="preserve">
<path style="fill:#03234B;" d="M375.411,334.699c25.196-33.641,40.119-75.421,40.119-120.684
	c0-111.293-90.222-201.515-201.515-201.515S12.5,102.722,12.5,214.015S102.722,415.53,214.015,415.53
	c45.264,0,87.044-14.925,120.684-40.119l103.657,103.657c11.242,11.243,29.47,11.243,40.711,0c11.243-11.242,11.243-29.47,0-40.711
	L375.411,334.699z M214.015,357.954c-79.495,0-143.939-64.444-143.939-143.939S134.52,70.076,214.015,70.076
	s143.939,64.444,143.939,143.939S293.51,357.954,214.015,357.954z"/>
</svg>
