<svg width="53" height="52" viewBox="0 0 53 52" fill="none" xmlns="http://www.w3.org/2000/svg">
<path fill-rule="evenodd" clip-rule="evenodd" d="M13 3.5C11.067 3.5 9.50003 5.067 9.50003 7C9.50003 8.933 11.067 10.5 13 10.5C14.933 10.5 16.5 8.933 16.5 7C16.5 5.067 14.933 3.5 13 3.5ZM6.50003 7C6.50003 3.41015 9.41018 0.5 13 0.5C16.5899 0.5 19.5 3.41015 19.5 7C19.5 9.07413 18.5285 10.9214 17.0158 12.1115C18.0005 12.3707 18.978 12.6935 19.8623 13.0419C20.9485 13.4698 21.9785 13.9689 22.7651 14.4964C23.1548 14.7577 23.5405 15.0628 23.845 15.4123C24.115 15.7223 24.4715 16.2396 24.4984 16.9182L25.4948 28.8754C25.4983 28.9169 25.5 28.9584 25.5 29C25.5 30.249 24.9256 31.2431 24.0793 31.8836C23.275 32.4922 22.2786 32.75 21.3571 32.75C21.057 32.75 20.749 32.7227 20.4422 32.6648L21.4959 46.8892C21.4986 46.9261 21.5 46.963 21.5 47C21.5 48.0696 21.1452 49.1882 20.3711 50.059C19.5726 50.9574 18.4071 51.5 17 51.5C15.593 51.5 14.4275 50.9574 13.6289 50.059C13.3749 49.7733 13.166 49.4608 13 49.1321C12.834 49.4608 12.6251 49.7733 12.3711 50.059C11.5726 50.9574 10.4071 51.5 9.00003 51.5C7.593 51.5 6.42749 50.9575 5.62891 50.0591C4.85485 49.1883 4.49999 48.0696 4.49999 47C4.49999 46.963 4.50135 46.9261 4.50409 46.8892L5.55777 32.6648C5.251 32.7227 4.94295 32.75 4.64285 32.75C3.72141 32.75 2.72499 32.4922 1.92073 31.8836C1.07435 31.2431 0.5 30.249 0.5 29C0.5 28.9584 0.501729 28.9169 0.505181 28.8754L1.50161 16.9182C1.52851 16.2396 1.88496 15.7223 2.155 15.4123C2.45944 15.0627 2.84514 14.7577 3.23487 14.4964C4.0215 13.9689 5.05148 13.4698 6.1377 13.0419C7.02202 12.6935 7.99956 12.3707 8.98425 12.1115C7.4715 10.9213 6.50003 9.07412 6.50003 7ZM40.4721 2.00006C40.4722 1.58585 40.1364 1.25003 39.7222 1.25C39.308 1.24997 38.9722 1.58572 38.9721 1.99994L38.972 3.34002C38.972 3.75424 39.3078 4.09005 39.722 4.09009C40.1362 4.09012 40.472 3.75436 40.472 3.34015L40.4721 2.00006ZM40.4718 6.02032C40.4718 5.6061 40.1361 5.27029 39.7219 5.27026C39.3077 5.27022 38.9718 5.60598 38.9718 6.0202L38.9716 8.70037C38.9716 9.11458 39.3073 9.45039 39.7215 9.45043C40.1357 9.45046 40.4716 9.1147 40.4716 8.70049L40.4718 6.02032ZM40.4714 11.3807C40.4714 10.9664 40.1356 10.6306 39.7214 10.6306C39.3072 10.6306 38.9714 10.9663 38.9714 11.3805L38.9711 14.0607C38.9711 14.4749 39.3069 14.8107 39.7211 14.8108C40.1353 14.8108 40.4711 14.475 40.4711 14.0608L40.4714 11.3807ZM40.4709 16.741C40.471 16.3268 40.1352 15.991 39.721 15.9909C39.3068 15.9909 38.971 16.3267 38.9709 16.7409L38.9708 18.081C38.9708 18.4952 39.3065 18.831 39.7208 18.831C40.135 18.8311 40.4708 18.4953 40.4708 18.0811L40.4709 16.741ZM35 28H44V26H35V28ZM39.6797 22.9697L37 20H42.6084L39.6797 22.9697ZM33.5 35.1181V32H46.5V35.1181V48.5H33.5V35.1181ZM46.5 29H33.5H32.8373H31.5C29.567 29 28 30.567 28 32.5V34C28 34.4443 28.1931 34.8434 28.5 35.1181C28.7654 35.3556 29.1158 35.5 29.5 35.5C29.8842 35.5 30.2346 35.3556 30.5 35.1181V38.3879V48.5V51.5H33.5H46.5H49.5V48.5V38.3879V35.1181C49.7654 35.3556 50.1158 35.5 50.5 35.5C50.8842 35.5 51.2346 35.3556 51.5 35.1181C51.8069 34.8434 52 34.4443 52 34L52 32.4989C52 30.565 50.4321 29 48.5001 29H47.1627H46.5ZM4.39195 17.4149C4.39152 17.415 4.39457 17.4101 4.40242 17.4003C4.3963 17.41 4.39238 17.4149 4.39195 17.4149ZM4.90573 16.988C4.69687 17.1281 4.5604 17.2405 4.4786 17.319L3.50114 29.0487C3.51178 29.2684 3.59601 29.3892 3.73106 29.4914C3.91786 29.6328 4.24286 29.75 4.64285 29.75C5.04284 29.75 5.36784 29.6328 5.55464 29.4914C5.69934 29.3819 5.7857 29.251 5.7857 29C5.7857 28.8312 5.81358 28.6689 5.86498 28.5175L6.50413 19.8892C6.56533 19.063 7.28468 18.4429 8.11084 18.5041C8.937 18.5653 9.55713 19.2846 9.49593 20.1108L7.50058 47.0475C7.51082 47.4584 7.65349 47.8211 7.87111 48.0659C8.07255 48.2925 8.40706 48.5 9.00003 48.5C9.59299 48.5 9.92748 48.2926 10.1289 48.066C10.3548 47.8118 10.5 47.4304 10.5 47C10.5 46.9447 10.503 46.8894 10.5092 46.8344L11.5 37.9169V30.5C11.5 29.6716 12.1716 29 13 29C13.8284 29 14.5 29.6716 14.5 30.5V37.9169L15.4909 46.8343C15.497 46.8894 15.5 46.9447 15.5 47C15.5 47.4304 15.6452 47.8117 15.8711 48.066C16.0726 48.2926 16.4071 48.5 17 48.5C17.593 48.5 17.9275 48.2926 18.1289 48.066C18.3465 47.8212 18.4892 47.4584 18.4994 47.0475L16.5041 20.1108C16.4429 19.2846 17.0631 18.5653 17.8892 18.5041C18.7154 18.4429 19.4347 19.063 19.4959 19.8892L20.1351 28.5178C20.1864 28.6691 20.2143 28.8313 20.2143 29C20.2143 29.251 20.3006 29.3819 20.4453 29.4914C20.6321 29.6328 20.9571 29.75 21.3571 29.75C21.7571 29.75 22.0821 29.6328 22.2689 29.4914C22.404 29.3892 22.4882 29.2684 22.4988 29.0487L21.5214 17.319C21.4396 17.2405 21.3031 17.1281 21.0943 16.988C20.5528 16.6249 19.739 16.2177 18.7627 15.8331C16.7864 15.0545 14.4854 14.5 13 14.5C11.5146 14.5 9.21363 15.0545 7.23727 15.8331C6.26099 16.2177 5.44723 16.6249 4.90573 16.988ZM21.608 17.4149C21.6076 17.4149 21.6037 17.41 21.5976 17.4003C21.6054 17.4101 21.6085 17.415 21.608 17.4149Z" fill="#002052"/>
<path d="M17.0158 12.1115L16.8612 11.915C16.7867 11.9736 16.7517 12.0694 16.771 12.1623C16.7903 12.2551 16.8604 12.3291 16.9521 12.3532L17.0158 12.1115ZM19.8623 13.0419L19.9539 12.8093L19.9539 12.8093L19.8623 13.0419ZM22.7651 14.4964L22.6259 14.704L22.6259 14.704L22.7651 14.4964ZM23.845 15.4123L23.6565 15.5765L23.6565 15.5765L23.845 15.4123ZM24.4984 16.9182L24.2483 16.9281L24.2492 16.9389L24.4984 16.9182ZM25.4948 28.8754L25.2457 28.8962L25.2457 28.8962L25.4948 28.8754ZM24.0793 31.8836L24.2301 32.083L24.2301 32.083L24.0793 31.8836ZM20.4422 32.6648L20.4886 32.4191C20.4123 32.4047 20.3336 32.4266 20.2757 32.4783C20.2178 32.5301 20.1872 32.6058 20.1929 32.6832L20.4422 32.6648ZM21.4959 46.8892L21.2466 46.9077L21.2466 46.9077L21.4959 46.8892ZM20.3711 50.059L20.1843 49.8929L20.1843 49.8929L20.3711 50.059ZM13.6289 50.059L13.8158 49.893L13.8158 49.893L13.6289 50.059ZM13 49.1321L13.2232 49.0194C13.1806 48.9352 13.0943 48.8821 13 48.8821C12.9057 48.8821 12.8194 48.9352 12.7769 49.0194L13 49.1321ZM12.3711 50.059L12.1843 49.8929L12.1843 49.8929L12.3711 50.059ZM5.62891 50.0591L5.81576 49.893L5.81576 49.893L5.62891 50.0591ZM4.50409 46.8892L4.7534 46.9077L4.7534 46.9077L4.50409 46.8892ZM5.55777 32.6648L5.80709 32.6832C5.81282 32.6058 5.78224 32.5301 5.72432 32.4783C5.6664 32.4266 5.58772 32.4047 5.51141 32.4191L5.55777 32.6648ZM1.92073 31.8836L2.07159 31.6843L2.07159 31.6843L1.92073 31.8836ZM0.505181 28.8754L0.256045 28.8547L0.256045 28.8547L0.505181 28.8754ZM1.50161 16.9182L1.75098 16.9389L1.75141 16.9281L1.50161 16.9182ZM2.155 15.4123L1.96648 15.2481L1.96648 15.2481L2.155 15.4123ZM3.23487 14.4964L3.09563 14.2887L3.09563 14.2887L3.23487 14.4964ZM6.1377 13.0419L6.04607 12.8093L6.04607 12.8093L6.1377 13.0419ZM8.98425 12.1115L9.04791 12.3532C9.13962 12.3291 9.20977 12.2551 9.22904 12.1623C9.24831 12.0694 9.21337 11.9736 9.13883 11.915L8.98425 12.1115ZM40.4721 2.00006L40.2221 2.00004L40.2221 2.00004L40.4721 2.00006ZM38.9721 1.99994L38.7221 1.99992L38.7221 1.99992L38.9721 1.99994ZM38.972 3.34002L39.222 3.34004L39.222 3.34004L38.972 3.34002ZM39.722 4.09009L39.7219 4.34009L39.722 4.09009ZM40.472 3.34015L40.722 3.34017L40.722 3.34017L40.472 3.34015ZM39.7219 5.27026L39.7219 5.02026L39.7219 5.02026L39.7219 5.27026ZM40.4718 6.02032L40.7218 6.02034L40.7218 6.02034L40.4718 6.02032ZM38.9718 6.0202L39.2218 6.02022L39.2218 6.02021L38.9718 6.0202ZM38.9716 8.70037L39.2216 8.70039L39.2216 8.70039L38.9716 8.70037ZM39.7215 9.45043L39.7215 9.20043L39.7215 9.20043L39.7215 9.45043ZM40.4716 8.70049L40.7216 8.70051L40.7216 8.70051L40.4716 8.70049ZM39.7214 10.6306L39.7214 10.8806L39.7214 10.6306ZM40.4714 11.3807L40.2214 11.3806L40.2214 11.3806L40.4714 11.3807ZM38.9714 11.3805L38.7214 11.3805L38.7214 11.3805L38.9714 11.3805ZM38.9711 14.0607L39.2211 14.0607L39.2211 14.0607L38.9711 14.0607ZM39.7211 14.8108L39.7211 14.5608L39.7211 14.8108ZM40.4711 14.0608L40.7211 14.0609L40.7211 14.0609L40.4711 14.0608ZM39.721 15.9909L39.721 16.2409L39.721 15.9909ZM40.4709 16.741L40.2209 16.741L40.2209 16.741L40.4709 16.741ZM38.9709 16.7409L38.7209 16.7409L38.7209 16.7409L38.9709 16.7409ZM38.9708 18.081L39.2208 18.081L39.2208 18.081L38.9708 18.081ZM39.7208 18.831L39.7207 19.081L39.7208 18.831ZM40.4708 18.0811L40.2208 18.0811L40.2208 18.0811L40.4708 18.0811ZM44 28V28.25C44.1381 28.25 44.25 28.1381 44.25 28H44ZM35 28H34.75C34.75 28.1381 34.8619 28.25 35 28.25V28ZM44 26H44.25C44.25 25.8619 44.1381 25.75 44 25.75V26ZM35 26V25.75C34.8619 25.75 34.75 25.8619 34.75 26H35ZM37 20V19.75C36.9012 19.75 36.8117 19.8082 36.7716 19.8984C36.7314 19.9887 36.7482 20.0941 36.8144 20.1675L37 20ZM39.6797 22.9697L39.4941 23.1372C39.5402 23.1883 39.6053 23.2182 39.6741 23.2197C39.7429 23.2212 39.8093 23.1943 39.8577 23.1453L39.6797 22.9697ZM42.6084 20L42.7864 20.1755C42.8572 20.1038 42.878 19.9965 42.8391 19.9035C42.8002 19.8105 42.7092 19.75 42.6084 19.75V20ZM33.5 32V31.75C33.3619 31.75 33.25 31.8619 33.25 32H33.5ZM46.5 32H46.75C46.75 31.8619 46.6381 31.75 46.5 31.75V32ZM46.5 48.5V48.75C46.6381 48.75 46.75 48.6381 46.75 48.5H46.5ZM33.5 48.5H33.25C33.25 48.6381 33.3619 48.75 33.5 48.75V48.5ZM28.5 35.1181L28.3333 35.3043L28.3333 35.3043L28.5 35.1181ZM30.5 35.1181H30.75C30.75 35.0195 30.692 34.9301 30.602 34.8898C30.512 34.8496 30.4067 34.866 30.3333 34.9318L30.5 35.1181ZM30.5 51.5H30.25C30.25 51.6381 30.3619 51.75 30.5 51.75V51.5ZM49.5 51.5V51.75C49.6381 51.75 49.75 51.6381 49.75 51.5H49.5ZM49.5 35.1181L49.6667 34.9318C49.5933 34.866 49.488 34.8496 49.398 34.8898C49.308 34.9301 49.25 35.0195 49.25 35.1181H49.5ZM50.5 35.5L50.5 35.75L50.5 35.5ZM51.5 35.1181L51.6667 35.3043L51.6667 35.3043L51.5 35.1181ZM52 34L52.25 34L52.25 34L52 34ZM52 32.4989L52.25 32.4989L52.25 32.4989L52 32.4989ZM4.40242 17.4003L4.61368 17.534C4.68465 17.4218 4.65559 17.2738 4.5475 17.1967C4.43941 17.1197 4.28997 17.1406 4.20711 17.2443L4.40242 17.4003ZM4.4786 17.319L4.30551 17.1386C4.26156 17.1808 4.23452 17.2376 4.22946 17.2983L4.4786 17.319ZM4.90573 16.988L4.76649 16.7804L4.76649 16.7804L4.90573 16.988ZM3.50114 29.0487L3.25201 29.0279C3.2511 29.0388 3.25091 29.0498 3.25144 29.0607L3.50114 29.0487ZM3.73106 29.4914L3.58019 29.6907L3.5802 29.6907L3.73106 29.4914ZM5.55464 29.4914L5.7055 29.6907L5.70551 29.6907L5.55464 29.4914ZM5.86498 28.5175L6.10171 28.5979C6.1085 28.5779 6.11273 28.5571 6.1143 28.536L5.86498 28.5175ZM6.50413 19.8892L6.25481 19.8707L6.25481 19.8707L6.50413 19.8892ZM8.11084 18.5041L8.09237 18.7534L8.09237 18.7534L8.11084 18.5041ZM9.49593 20.1108L9.24661 20.0923L9.24661 20.0923L9.49593 20.1108ZM7.50058 47.0475L7.25126 47.029C7.25065 47.0373 7.25045 47.0455 7.25066 47.0537L7.50058 47.0475ZM7.87111 48.0659L7.68426 48.232L7.68426 48.232L7.87111 48.0659ZM10.1289 48.066L10.3157 48.2321L10.3157 48.2321L10.1289 48.066ZM10.5092 46.8344L10.2607 46.8067L10.2607 46.8067L10.5092 46.8344ZM11.5 37.9169L11.7485 37.9445C11.7495 37.9354 11.75 37.9261 11.75 37.9169H11.5ZM14.5 37.9169H14.25C14.25 37.9261 14.2505 37.9354 14.2515 37.9445L14.5 37.9169ZM15.4909 46.8343L15.2424 46.862L15.2424 46.862L15.4909 46.8343ZM15.8711 48.066L15.6843 48.232L15.6843 48.232L15.8711 48.066ZM18.1289 48.066L18.3157 48.2321L18.3157 48.2321L18.1289 48.066ZM18.4994 47.0475L18.7493 47.0537C18.7495 47.0455 18.7493 47.0372 18.7487 47.029L18.4994 47.0475ZM16.5041 20.1108L16.2548 20.1293L16.2548 20.1293L16.5041 20.1108ZM17.8892 18.5041L17.9077 18.7534L17.9077 18.7534L17.8892 18.5041ZM19.4959 19.8892L19.2466 19.9077L19.2466 19.9077L19.4959 19.8892ZM20.1351 28.5178L19.8858 28.5362C19.8873 28.5573 19.8915 28.5781 19.8983 28.5981L20.1351 28.5178ZM20.4453 29.4914L20.2945 29.6907L20.2945 29.6907L20.4453 29.4914ZM22.2689 29.4914L22.1181 29.292L22.1181 29.292L22.2689 29.4914ZM22.4988 29.0487L22.7485 29.0607C22.7491 29.0498 22.7489 29.0388 22.748 29.0279L22.4988 29.0487ZM21.5214 17.319L21.7705 17.2983C21.7655 17.2376 21.7384 17.1808 21.6945 17.1386L21.5214 17.319ZM21.0943 16.988L21.2335 16.7804L21.2335 16.7804L21.0943 16.988ZM18.7627 15.8331L18.6711 16.0657L18.6711 16.0657L18.7627 15.8331ZM7.23727 15.8331L7.3289 16.0657L7.3289 16.0657L7.23727 15.8331ZM21.5976 17.4003L21.7929 17.2443C21.71 17.1406 21.5606 17.1197 21.4525 17.1967C21.3444 17.2737 21.3153 17.4218 21.3863 17.534L21.5976 17.4003ZM9.75003 7C9.75003 5.20507 11.2051 3.75 13 3.75V3.25C10.929 3.25 9.25003 4.92893 9.25003 7H9.75003ZM13 10.25C11.2051 10.25 9.75003 8.79493 9.75003 7H9.25003C9.25003 9.07107 10.929 10.75 13 10.75V10.25ZM16.25 7C16.25 8.79493 14.795 10.25 13 10.25V10.75C15.0711 10.75 16.75 9.07107 16.75 7H16.25ZM13 3.75C14.795 3.75 16.25 5.20507 16.25 7H16.75C16.75 4.92893 15.0711 3.25 13 3.25V3.75ZM13 0.25C9.27211 0.25 6.25003 3.27208 6.25003 7H6.75003C6.75003 3.54822 9.54825 0.75 13 0.75V0.25ZM19.75 7C19.75 3.27208 16.728 0.25 13 0.25V0.75C16.4518 0.75 19.25 3.54822 19.25 7H19.75ZM17.1704 12.308C18.7408 11.0725 19.75 9.15403 19.75 7H19.25C19.25 8.99423 18.3163 10.7702 16.8612 11.915L17.1704 12.308ZM16.9521 12.3532C17.9272 12.61 18.8954 12.9297 19.7706 13.2745L19.9539 12.8093C19.0606 12.4574 18.0737 12.1315 17.0794 11.8697L16.9521 12.3532ZM19.7706 13.2745C20.8477 13.6988 21.8597 14.1902 22.6259 14.704L22.9044 14.2887C22.0973 13.7475 21.0493 13.2408 19.9539 12.8093L19.7706 13.2745ZM22.6259 14.704C23.0059 14.9589 23.372 15.2499 23.6565 15.5765L24.0335 15.2481C23.7091 14.8756 23.3037 14.5566 22.9044 14.2887L22.6259 14.704ZM23.6565 15.5765C23.9111 15.8689 24.225 16.3327 24.2486 16.9281L24.7482 16.9083C24.718 16.1465 24.3189 15.5758 24.0335 15.2481L23.6565 15.5765ZM24.2492 16.9389L25.2457 28.8962L25.7439 28.8547L24.7475 16.8974L24.2492 16.9389ZM25.2457 28.8962C25.2485 28.9307 25.25 28.9654 25.25 29H25.75C25.75 28.9515 25.748 28.903 25.7439 28.8547L25.2457 28.8962ZM25.25 29C25.25 30.1656 24.7164 31.0879 23.9284 31.6843L24.2301 32.083C25.1348 31.3983 25.75 30.3323 25.75 29H25.25ZM23.9284 31.6843C23.1757 32.2539 22.2353 32.5 21.3571 32.5V33C22.3219 33 23.3743 32.7306 24.2301 32.083L23.9284 31.6843ZM21.3571 32.5C21.0721 32.5 20.7796 32.474 20.4886 32.4191L20.3959 32.9104C20.7184 32.9713 21.042 33 21.3571 33V32.5ZM20.1929 32.6832L21.2466 46.9077L21.7452 46.8707L20.6916 32.6463L20.1929 32.6832ZM21.2466 46.9077C21.2488 46.9384 21.25 46.9692 21.25 47H21.75C21.75 46.9569 21.7484 46.9137 21.7452 46.8707L21.2466 46.9077ZM21.25 47C21.25 48.0165 20.9126 49.0736 20.1843 49.8929L20.558 50.2251C21.3778 49.3028 21.75 48.1227 21.75 47H21.25ZM20.1843 49.8929C19.4355 50.7353 18.3393 51.25 17 51.25V51.75C18.4748 51.75 19.7096 51.1796 20.558 50.2251L20.1843 49.8929ZM17 51.25C15.6607 51.25 14.5645 50.7353 13.8158 49.893L13.4421 50.2251C14.2905 51.1796 15.5252 51.75 17 51.75V51.25ZM13.8158 49.893C13.5767 49.624 13.3798 49.3296 13.2232 49.0194L12.7769 49.2448C12.9522 49.592 13.1731 49.9225 13.4421 50.2251L13.8158 49.893ZM12.7769 49.0194C12.6202 49.3296 12.4233 49.624 12.1843 49.8929L12.558 50.2251C12.827 49.9225 13.0479 49.592 13.2232 49.2448L12.7769 49.0194ZM12.1843 49.8929C11.4355 50.7353 10.3393 51.25 9.00003 51.25V51.75C10.4748 51.75 11.7096 51.1796 12.558 50.2251L12.1843 49.8929ZM9.00003 51.25C7.66075 51.25 6.56453 50.7353 5.81576 49.893L5.44205 50.2252C6.29046 51.1796 7.52525 51.75 9.00003 51.75V51.25ZM5.81576 49.893C5.08746 49.0736 4.74999 48.0165 4.74999 47H4.24999C4.24999 48.1228 4.62225 49.3029 5.44205 50.2252L5.81576 49.893ZM4.74999 47C4.74999 46.9692 4.75113 46.9384 4.7534 46.9077L4.25477 46.8707C4.25158 46.9137 4.24999 46.9569 4.24999 47H4.74999ZM4.7534 46.9077L5.80709 32.6832L5.30845 32.6463L4.25477 46.8707L4.7534 46.9077ZM5.51141 32.4191C5.2204 32.474 4.92789 32.5 4.64285 32.5V33C4.958 33 5.28159 32.9713 5.60413 32.9104L5.51141 32.4191ZM4.64285 32.5C3.76473 32.5 2.8243 32.2539 2.07159 31.6843L1.76986 32.083C2.62568 32.7306 3.6781 33 4.64285 33V32.5ZM2.07159 31.6843C1.28354 31.0879 0.75 30.1656 0.75 29H0.25C0.25 30.3323 0.865163 31.3983 1.76986 32.083L2.07159 31.6843ZM0.75 29C0.75 28.9654 0.75144 28.9307 0.754318 28.8962L0.256045 28.8547C0.252017 28.903 0.25 28.9515 0.25 29H0.75ZM0.754318 28.8962L1.75074 16.9389L1.25247 16.8974L0.256045 28.8547L0.754318 28.8962ZM1.75141 16.9281C1.77502 16.3327 2.08883 15.8689 2.34352 15.5765L1.96648 15.2481C1.68108 15.5758 1.28201 16.1464 1.2518 16.9083L1.75141 16.9281ZM2.34352 15.5765C2.628 15.2499 2.99404 14.9589 3.37411 14.704L3.09563 14.2887C2.69625 14.5566 2.29087 14.8756 1.96648 15.2481L2.34352 15.5765ZM3.37411 14.704C4.14032 14.1902 5.15229 13.6988 6.22933 13.2745L6.04607 12.8093C4.95068 13.2408 3.90268 13.7475 3.09563 14.2887L3.37411 14.704ZM6.22933 13.2745C7.10461 12.9297 8.07282 12.61 9.04791 12.3532L8.9206 11.8697C7.92631 12.1315 6.93942 12.4574 6.04607 12.8093L6.22933 13.2745ZM6.25003 7C6.25003 9.15402 7.25927 11.0725 8.82967 12.308L9.13883 11.915C7.68374 10.7702 6.75003 8.99422 6.75003 7H6.25003ZM39.7222 1.5C39.9983 1.50002 40.2222 1.7239 40.2221 2.00004L40.7221 2.00008C40.7222 1.4478 40.2745 1.00005 39.7222 1L39.7222 1.5ZM39.2221 1.99996C39.2222 1.72382 39.446 1.49998 39.7222 1.5L39.7222 1C39.1699 0.999955 38.7222 1.44763 38.7221 1.99992L39.2221 1.99996ZM39.222 3.34004L39.2221 1.99996L38.7221 1.99992L38.722 3.34L39.222 3.34004ZM39.722 3.84009C39.4458 3.84006 39.222 3.61619 39.222 3.34004L38.722 3.34C38.722 3.89229 39.1697 4.34004 39.7219 4.34009L39.722 3.84009ZM40.222 3.34013C40.222 3.61627 39.9981 3.84011 39.722 3.84009L39.7219 4.34009C40.2742 4.34013 40.722 3.89245 40.722 3.34017L40.222 3.34013ZM40.2221 2.00004L40.222 3.34013L40.722 3.34017L40.7221 2.00008L40.2221 2.00004ZM39.7218 5.52026C39.998 5.52028 40.2218 5.74416 40.2218 6.0203L40.7218 6.02034C40.7219 5.46805 40.2742 5.0203 39.7219 5.02026L39.7218 5.52026ZM39.2218 6.02021C39.2218 5.74407 39.4457 5.52023 39.7218 5.52026L39.7219 5.02026C39.1696 5.02021 38.7219 5.46789 38.7218 6.02018L39.2218 6.02021ZM39.2216 8.70039L39.2218 6.02022L38.7218 6.02017L38.7216 8.70035L39.2216 8.70039ZM39.7215 9.20043C39.4454 9.20041 39.2216 8.97653 39.2216 8.70039L38.7216 8.70035C38.7215 9.25263 39.1692 9.70038 39.7215 9.70043L39.7215 9.20043ZM40.2216 8.70047C40.2216 8.97661 39.9977 9.20045 39.7215 9.20043L39.7215 9.70043C40.2738 9.70047 40.7215 9.2528 40.7216 8.70051L40.2216 8.70047ZM40.2218 6.0203L40.2216 8.70047L40.7216 8.70051L40.7218 6.02034L40.2218 6.0203ZM39.7214 10.8806C39.9976 10.8806 40.2214 11.1045 40.2214 11.3806L40.7214 11.3807C40.7214 10.8284 40.2737 10.3806 39.7214 10.3806L39.7214 10.8806ZM39.2214 11.3806C39.2214 11.1044 39.4453 10.8806 39.7214 10.8806L39.7214 10.3806C39.1692 10.3806 38.7214 10.8282 38.7214 11.3805L39.2214 11.3806ZM39.2211 14.0607L39.2214 11.3806L38.7214 11.3805L38.7211 14.0607L39.2211 14.0607ZM39.7211 14.5608C39.445 14.5607 39.2211 14.3369 39.2211 14.0607L38.7211 14.0607C38.7211 14.613 39.1688 15.0607 39.7211 15.0608L39.7211 14.5608ZM40.2211 14.0608C40.2211 14.337 39.9972 14.5608 39.7211 14.5608L39.7211 15.0608C40.2734 15.0608 40.7211 14.6131 40.7211 14.0609L40.2211 14.0608ZM40.2214 11.3806L40.2211 14.0608L40.7211 14.0609L40.7214 11.3807L40.2214 11.3806ZM39.721 16.2409C39.9971 16.241 40.221 16.4648 40.2209 16.741L40.7209 16.741C40.721 16.1887 40.2733 15.741 39.721 15.7409L39.721 16.2409ZM39.2209 16.7409C39.221 16.4648 39.4448 16.2409 39.721 16.2409L39.721 15.7409C39.1687 15.7409 38.721 16.1886 38.7209 16.7409L39.2209 16.7409ZM39.2208 18.081L39.2209 16.7409L38.7209 16.7409L38.7208 18.0809L39.2208 18.081ZM39.7208 18.581C39.4446 18.581 39.2208 18.3571 39.2208 18.081L38.7208 18.0809C38.7208 18.6332 39.1685 19.081 39.7207 19.081L39.7208 18.581ZM40.2208 18.0811C40.2208 18.3572 39.9969 18.5811 39.7208 18.581L39.7207 19.081C40.273 19.0811 40.7208 18.6334 40.7208 18.0811L40.2208 18.0811ZM40.2209 16.741L40.2208 18.0811L40.7208 18.0811L40.7209 16.741L40.2209 16.741ZM44 27.75H35V28.25H44V27.75ZM43.75 26V28H44.25V26H43.75ZM35 26.25H44V25.75H35V26.25ZM35.25 28V26H34.75V28H35.25ZM36.8144 20.1675L39.4941 23.1372L39.8653 22.8023L37.1856 19.8325L36.8144 20.1675ZM42.6084 19.75H37V20.25H42.6084V19.75ZM39.8577 23.1453L42.7864 20.1755L42.4304 19.8245L39.5017 22.7942L39.8577 23.1453ZM33.25 32V35.1181H33.75V32H33.25ZM46.5 31.75H33.5V32.25H46.5V31.75ZM46.75 35.1181V32H46.25V35.1181H46.75ZM46.75 48.5V35.1181H46.25V48.5H46.75ZM33.5 48.75H46.5V48.25H33.5V48.75ZM33.25 35.1181V48.5H33.75V35.1181H33.25ZM33.5 29.25H46.5V28.75H33.5V29.25ZM32.8373 29.25H33.5V28.75H32.8373V29.25ZM31.5 29.25H32.8373V28.75H31.5V29.25ZM28.25 32.5C28.25 30.7051 29.7051 29.25 31.5 29.25V28.75C29.4289 28.75 27.75 30.4289 27.75 32.5H28.25ZM28.25 34V32.5H27.75V34H28.25ZM28.6667 34.9318C28.4106 34.7025 28.25 34.3702 28.25 34H27.75C27.75 34.5183 27.9757 34.9843 28.3333 35.3043L28.6667 34.9318ZM29.5 35.25C29.1797 35.25 28.888 35.1299 28.6667 34.9318L28.3333 35.3043C28.6427 35.5813 29.052 35.75 29.5 35.75V35.25ZM30.3333 34.9318C30.112 35.1299 29.8203 35.25 29.5 35.25V35.75C29.948 35.75 30.3573 35.5813 30.6667 35.3043L30.3333 34.9318ZM30.75 38.3879V35.1181H30.25V38.3879H30.75ZM30.75 48.5V38.3879H30.25V48.5H30.75ZM30.75 51.5V48.5H30.25V51.5H30.75ZM33.5 51.25H30.5V51.75H33.5V51.25ZM46.5 51.25H33.5V51.75H46.5V51.25ZM49.5 51.25H46.5V51.75H49.5V51.25ZM49.25 48.5V51.5H49.75V48.5H49.25ZM49.25 38.3879V48.5H49.75V38.3879H49.25ZM49.25 35.1181V38.3879H49.75V35.1181H49.25ZM50.5 35.25C50.1797 35.25 49.888 35.1298 49.6667 34.9318L49.3333 35.3043C49.6427 35.5813 50.0519 35.75 50.5 35.75L50.5 35.25ZM51.3333 34.9318C51.1119 35.1299 50.8203 35.25 50.5 35.25L50.5 35.75C50.948 35.75 51.3573 35.5813 51.6667 35.3043L51.3333 34.9318ZM51.75 34C51.75 34.3702 51.5894 34.7025 51.3333 34.9318L51.6667 35.3043C52.0243 34.9843 52.25 34.5183 52.25 34L51.75 34ZM51.75 32.4989L51.75 34L52.25 34L52.25 32.4989L51.75 32.4989ZM48.5001 29.25C50.2942 29.25 51.75 30.7032 51.75 32.4989L52.25 32.4989C52.25 30.4267 50.57 28.75 48.5001 28.75V29.25ZM47.1627 29.25H48.5001V28.75H47.1627V29.25ZM46.5 29.25H47.1627V28.75H46.5V29.25ZM4.36998 17.1659C4.42757 17.1608 4.52054 17.1755 4.58715 17.2588C4.64076 17.3258 4.64222 17.3964 4.64188 17.4187C4.64114 17.4668 4.62595 17.5028 4.6249 17.5055C4.61763 17.5241 4.60962 17.5376 4.6086 17.5394C4.60387 17.5476 4.59996 17.5531 4.59931 17.5541C4.5969 17.5575 4.59604 17.5585 4.59772 17.5564L4.20711 17.2443C4.20095 17.252 4.19464 17.2602 4.18885 17.2686C4.18651 17.2719 4.18142 17.2793 4.176 17.2887C4.17463 17.291 4.16639 17.305 4.159 17.324C4.1579 17.3268 4.14268 17.3628 4.14194 17.411C4.14159 17.4334 4.14306 17.504 4.19669 17.5711C4.26331 17.6544 4.3563 17.669 4.41391 17.664L4.36998 17.1659ZM4.19115 17.2667C4.19057 17.2676 4.19141 17.2662 4.19382 17.2629C4.19474 17.2616 4.19779 17.2575 4.20241 17.2521C4.20425 17.2499 4.20976 17.2435 4.21763 17.2358C4.22112 17.2324 4.22985 17.224 4.24224 17.2147C4.24837 17.2102 4.25981 17.202 4.27536 17.1938C4.28727 17.1875 4.32169 17.1702 4.36998 17.1659L4.41391 17.664C4.46223 17.6597 4.49669 17.6423 4.50863 17.636C4.52422 17.6278 4.53572 17.6196 4.5419 17.615C4.55439 17.6056 4.56326 17.5971 4.56691 17.5936C4.57511 17.5856 4.58104 17.5787 4.5834 17.5759C4.58907 17.5692 4.59356 17.5633 4.59628 17.5596C4.6023 17.5514 4.60815 17.5427 4.61368 17.534L4.19115 17.2667ZM4.65169 17.4994C4.72052 17.4334 4.8449 17.3298 5.04497 17.1956L4.76649 16.7804C4.54884 16.9263 4.40028 17.0477 4.30551 17.1386L4.65169 17.4994ZM3.75028 29.0694L4.72774 17.3398L4.22946 17.2983L3.25201 29.0279L3.75028 29.0694ZM3.88192 29.292C3.83246 29.2546 3.8052 29.2236 3.78781 29.1924C3.77076 29.1618 3.75468 29.1158 3.75085 29.0366L3.25144 29.0607C3.25824 29.2013 3.2896 29.3255 3.35108 29.4358C3.41223 29.5455 3.49461 29.626 3.58019 29.6907L3.88192 29.292ZM4.64285 29.5C4.28673 29.5 4.01755 29.3947 3.88192 29.292L3.5802 29.6907C3.81818 29.8708 4.19899 30 4.64285 30V29.5ZM5.40378 29.292C5.26816 29.3947 4.99897 29.5 4.64285 29.5V30C5.08671 30 5.46752 29.8708 5.7055 29.6907L5.40378 29.292ZM5.5357 29C5.5357 29.0965 5.51926 29.1508 5.50173 29.1852C5.48434 29.2193 5.45651 29.2521 5.40378 29.292L5.70551 29.6907C5.79747 29.6211 5.88517 29.5338 5.94713 29.4124C6.00896 29.2912 6.0357 29.1546 6.0357 29H5.5357ZM5.62825 28.4372C5.56818 28.6141 5.5357 28.8035 5.5357 29H6.0357C6.0357 28.8589 6.05898 28.7238 6.10171 28.5979L5.62825 28.4372ZM6.25481 19.8707L5.61566 28.4991L6.1143 28.536L6.75345 19.9077L6.25481 19.8707ZM8.12931 18.2548C7.16545 18.1834 6.32621 18.9069 6.25481 19.8707L6.75345 19.9077C6.80444 19.2192 7.4039 18.7024 8.09237 18.7534L8.12931 18.2548ZM9.74525 20.1293C9.81665 19.1654 9.09317 18.3262 8.12931 18.2548L8.09237 18.7534C8.78084 18.8044 9.29761 19.4039 9.24661 20.0923L9.74525 20.1293ZM7.74989 47.066L9.74525 20.1293L9.24661 20.0923L7.25126 47.029L7.74989 47.066ZM8.05796 47.8998C7.88419 47.7044 7.75945 47.4004 7.7505 47.0413L7.25066 47.0537C7.26219 47.5164 7.42279 47.9379 7.68426 48.232L8.05796 47.8998ZM9.00003 48.25C8.47517 48.25 8.20981 48.0707 8.05796 47.8998L7.68426 48.232C7.93529 48.5144 8.33895 48.75 9.00003 48.75V48.25ZM9.94203 47.8999C9.79021 48.0707 9.52488 48.25 9.00003 48.25V48.75C9.6611 48.75 10.0647 48.5144 10.3157 48.2321L9.94203 47.8999ZM10.25 47C10.25 47.3768 10.1225 47.6968 9.94203 47.8999L10.3157 48.2321C10.5871 47.9267 10.75 47.4841 10.75 47H10.25ZM10.2607 46.8067C10.2536 46.8709 10.25 46.9354 10.25 47H10.75C10.75 46.9539 10.7525 46.9078 10.7576 46.862L10.2607 46.8067ZM11.2515 37.8893L10.2607 46.8067L10.7576 46.862L11.7485 37.9445L11.2515 37.8893ZM11.25 30.5V37.9169H11.75V30.5H11.25ZM13 28.75C12.0335 28.75 11.25 29.5335 11.25 30.5H11.75C11.75 29.8096 12.3096 29.25 13 29.25V28.75ZM14.75 30.5C14.75 29.5335 13.9665 28.75 13 28.75V29.25C13.6903 29.25 14.25 29.8096 14.25 30.5H14.75ZM14.75 37.9169V30.5H14.25V37.9169H14.75ZM15.7393 46.8067L14.7485 37.8893L14.2515 37.9445L15.2424 46.862L15.7393 46.8067ZM15.75 47C15.75 46.9354 15.7465 46.8709 15.7393 46.8067L15.2424 46.862C15.2475 46.9078 15.25 46.9539 15.25 47H15.75ZM16.058 47.8999C15.8775 47.6968 15.75 47.3767 15.75 47H15.25C15.25 47.484 15.4129 47.9267 15.6843 48.232L16.058 47.8999ZM17 48.25C16.4752 48.25 16.2098 48.0707 16.058 47.8999L15.6843 48.232C15.9353 48.5144 16.339 48.75 17 48.75V48.25ZM17.942 47.8999C17.7902 48.0707 17.5249 48.25 17 48.25V48.75C17.6611 48.75 18.0647 48.5144 18.3157 48.2321L17.942 47.8999ZM18.2495 47.0413C18.2405 47.4004 18.1158 47.7044 17.942 47.8999L18.3157 48.2321C18.5772 47.9379 18.7378 47.5164 18.7493 47.0537L18.2495 47.0413ZM16.2548 20.1293L18.2501 47.066L18.7487 47.029L16.7534 20.0923L16.2548 20.1293ZM17.8708 18.2548C16.9069 18.3262 16.1834 19.1654 16.2548 20.1293L16.7534 20.0923C16.7024 19.4039 17.2192 18.8044 17.9077 18.7534L17.8708 18.2548ZM19.7452 19.8707C19.6739 18.9069 18.8346 18.1834 17.8708 18.2548L17.9077 18.7534C18.5962 18.7024 19.1956 19.2192 19.2466 19.9077L19.7452 19.8707ZM20.3844 28.4993L19.7452 19.8707L19.2466 19.9077L19.8858 28.5362L20.3844 28.4993ZM20.4643 29C20.4643 28.8036 20.4318 28.6143 20.3718 28.4374L19.8983 28.5981C19.941 28.7239 19.9643 28.859 19.9643 29H20.4643ZM20.5962 29.292C20.5435 29.2521 20.5156 29.2193 20.4982 29.1852C20.4807 29.1508 20.4643 29.0965 20.4643 29H19.9643C19.9643 29.1546 19.991 29.2912 20.0528 29.4124C20.1148 29.5338 20.2025 29.6211 20.2945 29.6907L20.5962 29.292ZM21.3571 29.5C21.001 29.5 20.7318 29.3947 20.5962 29.292L20.2945 29.6907C20.5325 29.8708 20.9133 30 21.3571 30V29.5ZM22.1181 29.292C21.9824 29.3947 21.7132 29.5 21.3571 29.5V30C21.801 30 22.1818 29.8708 22.4198 29.6907L22.1181 29.292ZM22.2491 29.0366C22.2453 29.1158 22.2292 29.1618 22.2122 29.1924C22.1948 29.2236 22.1675 29.2546 22.1181 29.292L22.4198 29.6907C22.5054 29.626 22.5878 29.5455 22.6489 29.4358C22.7104 29.3255 22.7417 29.2013 22.7485 29.0607L22.2491 29.0366ZM21.2722 17.3398L22.2497 29.0694L22.748 29.0279L21.7705 17.2983L21.2722 17.3398ZM20.955 17.1956C21.1551 17.3298 21.2795 17.4334 21.3483 17.4994L21.6945 17.1386C21.5997 17.0477 21.4511 16.9263 21.2335 16.7804L20.955 17.1956ZM18.6711 16.0657C19.6382 16.4467 20.434 16.8462 20.955 17.1956L21.2335 16.7804C20.6716 16.4035 19.8398 15.9887 18.8543 15.6005L18.6711 16.0657ZM13 14.75C14.4412 14.75 16.7091 15.2928 18.6711 16.0657L18.8543 15.6005C16.8636 14.8163 14.5295 14.25 13 14.25V14.75ZM7.3289 16.0657C9.29092 15.2928 11.5587 14.75 13 14.75V14.25C11.4705 14.25 9.13634 14.8163 7.14564 15.6005L7.3289 16.0657ZM5.04497 17.1956C5.56603 16.8462 6.36177 16.4467 7.3289 16.0657L7.14564 15.6005C6.16021 15.9887 5.32843 16.4035 4.76649 16.7804L5.04497 17.1956ZM21.632 17.1661C21.6796 17.1707 21.7135 17.1879 21.7252 17.1941C21.7406 17.2023 21.7519 17.2104 21.758 17.2149C21.7703 17.2241 21.7789 17.2325 21.7824 17.2359C21.7902 17.2435 21.7957 17.2499 21.7976 17.2521C21.8022 17.2575 21.8052 17.2616 21.8061 17.2629C21.8086 17.2661 21.8094 17.2676 21.8088 17.2667L21.3863 17.534C21.3918 17.5427 21.3977 17.5514 21.4037 17.5596C21.4064 17.5633 21.4109 17.5692 21.4166 17.5759C21.4189 17.5787 21.4248 17.5855 21.433 17.5935C21.4366 17.5971 21.4454 17.6055 21.4578 17.6148C21.464 17.6194 21.4753 17.6275 21.4907 17.6357C21.5025 17.642 21.5364 17.6592 21.584 17.6638L21.632 17.1661ZM21.4022 17.5564C21.4039 17.5585 21.4031 17.5575 21.4007 17.5541C21.4 17.5532 21.3961 17.5476 21.3914 17.5394C21.3904 17.5377 21.3823 17.5241 21.375 17.5053C21.374 17.5027 21.3587 17.4664 21.3581 17.4178C21.3578 17.3951 21.3596 17.3237 21.4147 17.2565C21.4825 17.1736 21.5758 17.1607 21.632 17.1661L21.584 17.6638C21.6403 17.6692 21.7336 17.6562 21.8014 17.5733C21.8565 17.5061 21.8583 17.4347 21.858 17.4119C21.8575 17.3632 21.8421 17.3268 21.841 17.3241C21.8336 17.305 21.8253 17.291 21.824 17.2887C21.8186 17.2793 21.8135 17.2719 21.8111 17.2685C21.8053 17.2602 21.799 17.252 21.7929 17.2443L21.4022 17.5564Z" fill="#002052"/>
</svg>
