<svg width="52" height="46" viewBox="0 0 52 46" fill="none" xmlns="http://www.w3.org/2000/svg">
<path fill-rule="evenodd" clip-rule="evenodd" d="M2 0.5C1.17157 0.5 0.5 1.17157 0.5 2V31V37C0.5 37.8284 1.17157 38.5 2 38.5H19.8986C19.4716 39.0539 19.1158 39.6717 18.8474 40.3425L17.6073 43.4429C17.4224 43.905 17.4789 44.4288 17.7579 44.8409C18.0369 45.2531 18.5023 45.5 19 45.5H33C33.4977 45.5 33.9631 45.2531 34.2421 44.8409C34.5211 44.4288 34.5776 43.905 34.3927 43.4429L33.1526 40.3425C32.8842 39.6717 32.5284 39.0539 32.1014 38.5H50C50.8284 38.5 51.5 37.8284 51.5 37V31V2C51.5 1.17157 50.8284 0.5 50 0.5H2ZM3.5 35.5V32.5H48.5V35.5H26H3.5ZM3.5 29.5H48.5V3.5H3.5V29.5ZM26 38.5C24.0767 38.5 22.3472 39.671 21.6329 41.4567L21.2155 42.5H30.7845L30.3671 41.4567C29.6528 39.6709 27.9233 38.5 26 38.5ZM7 21C6.17157 21 5.5 21.6716 5.5 22.5C5.5 23.3284 6.17157 24 7 24H24C24.8284 24 25.5 23.3284 25.5 22.5C25.5 21.6716 24.8284 21 24 21H7ZM5.5 16.5C5.5 15.6716 6.17157 15 7 15H24C24.8284 15 25.5 15.6716 25.5 16.5C25.5 17.3284 24.8284 18 24 18H7C6.17157 18 5.5 17.3284 5.5 16.5ZM7 9C6.17157 9 5.5 9.67157 5.5 10.5C5.5 11.3284 6.17157 12 7 12H24C24.8284 12 25.5 11.3284 25.5 10.5C25.5 9.67157 24.8284 9 24 9H7ZM36 9.66109C32.8548 10.3478 30.5 13.1489 30.5 16.5C30.5 20.366 33.634 23.5 37.5 23.5C40.8511 23.5 43.6522 21.1452 44.3389 18H37.5C36.6716 18 36 17.3284 36 16.5V9.66109ZM39 9.66109V15H44.3389C44.2959 14.8029 44.2445 14.6089 44.1853 14.4184C43.4443 12.036 41.4649 10.1992 39 9.66109ZM47.5 16.5C47.5 22.0228 43.0228 26.5 37.5 26.5C31.9772 26.5 27.5 22.0228 27.5 16.5C27.5 10.9772 31.9772 6.5 37.5 6.5C43.0228 6.5 47.5 10.9772 47.5 16.5Z" fill="#002052"/>
</svg>
