<svg width="52" height="56" viewBox="0 0 52 56" fill="none" xmlns="http://www.w3.org/2000/svg">
<path fill-rule="evenodd" clip-rule="evenodd" d="M14.426 0.614194C14.9865 0.382023 15.6317 0.510356 16.0607 0.939353C17.0603 1.93897 18.9105 2.84865 20.9501 3.59032C22.9324 4.31115 24.8653 4.79519 25.8638 5.0448C26.1316 5.11174 26.3944 5.15001 26.7371 5.19989L26.7371 5.1999L26.7372 5.1999C26.9406 5.22952 27.1722 5.26324 27.4497 5.30948C28.0988 5.41766 28.9031 5.58704 29.6708 5.97087C30.4709 6.37091 31.2162 6.99589 31.7411 7.96578C32.2531 8.91186 32.5 10.0835 32.5 11.5C32.5 14.2752 31.6491 16.2066 29.8893 17.1382C28.3199 17.9691 26.4686 17.7234 25.2058 17.4709C23.853 17.2003 21.127 16.4189 18.7171 15.3768C17.955 15.0472 17.1924 14.6781 16.5 14.274V30C16.5 34.4183 12.9183 38 8.5 38C4.08172 38 0.5 34.4183 0.5 30C0.5 25.5817 4.08172 22 8.5 22C10.3919 22 12.1304 22.6567 13.5 23.7546V10.5V2.00001C13.5 1.39332 13.8655 0.846366 14.426 0.614194ZM8.5 25C11.2614 25 13.5 27.2386 13.5 30C13.5 32.7614 11.2614 35 8.5 35C5.73858 35 3.5 32.7614 3.5 30C3.5 27.2386 5.73858 25 8.5 25ZM16.5 10.4523C16.5092 10.4711 16.5278 10.5045 16.5632 10.5534C16.6687 10.6989 16.8659 10.9006 17.191 11.1452C17.8422 11.6352 18.7963 12.1426 19.9079 12.6232C22.123 13.5811 24.647 14.2997 25.7942 14.5291C27.0314 14.7766 27.9301 14.7809 28.4857 14.4868C28.8509 14.2935 29.5 13.7248 29.5 11.5C29.5 10.4166 29.3094 9.77567 29.1027 9.39363C28.9088 9.03538 28.6541 8.81661 28.3292 8.65415C27.9719 8.47549 27.5262 8.36362 26.9565 8.26867C26.8231 8.24642 26.6659 8.22321 26.4961 8.19814C26.063 8.1342 25.548 8.05817 25.1362 7.95523L25.1265 7.95279C24.1213 7.70151 22.0607 7.18636 19.9249 6.4097C18.8113 6.00476 17.6081 5.50515 16.5 4.89898V10.4523ZM16.4921 10.4338L16.4929 10.4363L16.4924 10.4349C16.4922 10.4341 16.4921 10.4338 16.4921 10.4338ZM28 53C30.7614 53 33 50.7614 33 48C33 45.2386 30.7614 43 28 43C25.2386 43 23 45.2386 23 48C23 50.7614 25.2386 53 28 53ZM33 41.7546C31.6304 40.6567 29.8919 40 28 40C23.5817 40 20 43.5817 20 48C20 52.4183 23.5817 56 28 56C32.4183 56 36 52.4183 36 48V32.274C36.6924 32.6781 37.455 33.0472 38.2171 33.3768C40.627 34.4189 43.353 35.2003 44.7058 35.4709C45.9686 35.7234 47.8199 35.9691 49.3893 35.1382C51.1491 34.2066 52 32.2752 52 29.5C52 28.0835 51.7531 26.9119 51.2411 25.9658C50.7162 24.9959 49.9709 24.3709 49.1708 23.9709C48.4031 23.587 47.5988 23.4177 46.9497 23.3095C46.6724 23.2633 46.4409 23.2296 46.2375 23.1999L46.2372 23.1999C45.8945 23.15 45.6316 23.1117 45.3638 23.0448C44.3653 22.7952 42.4324 22.3112 40.4501 21.5903C38.4105 20.8486 36.5603 19.939 35.5607 18.9394C35.1317 18.5104 34.4865 18.382 33.926 18.6142C33.3655 18.8464 33 19.3933 33 20V28.5V41.7546ZM36.0632 28.5534C36.0278 28.5045 36.0092 28.4711 36 28.4523V22.899C37.1081 23.5051 38.3113 24.0048 39.4249 24.4097C41.5607 25.1864 43.6213 25.7015 44.6265 25.9528L44.6362 25.9552C45.048 26.0582 45.563 26.1342 45.9961 26.1981L45.9963 26.1982C46.166 26.2232 46.3231 26.2464 46.4565 26.2687C47.0262 26.3636 47.4719 26.4755 47.8292 26.6542C48.1541 26.8166 48.4088 27.0354 48.6027 27.3936C48.8094 27.7757 49 28.4166 49 29.5C49 31.7248 48.3509 32.2935 47.9857 32.4868C47.4301 32.7809 46.5314 32.7766 45.2942 32.5291C44.147 32.2997 41.623 31.5811 39.4079 30.6232C38.2963 30.1426 37.3422 29.6352 36.691 29.1452C36.3659 28.9006 36.1687 28.6989 36.0632 28.5534Z" fill="#002052"/>
</svg>
