<svg viewBox="0 0 800 800" data-name="Livello 1" id="Livello_1" xmlns="http://www.w3.org/2000/svg">
  <defs>
    <style>
      .cls-1 {
        fill: #0f2241;
      }
    </style>
  </defs>
  <g>
    <path d="M253.23,765.58h-84.76c-48.45,0-87.87-52.4-87.87-116.81s39.42-116.81,87.87-116.81h84.76c48.45,0,87.87,52.4,87.87,116.81s-39.42,116.81-87.87,116.81ZM168.47,538.17c-45.02,0-81.65,49.61-81.65,110.6s36.63,110.6,81.65,110.6h84.76c45.02,0,81.65-49.61,81.65-110.6s-36.63-110.6-81.65-110.6h-84.76Z" class="cls-1"></path>
    <path d="M180.35,590.73h-71.3c-3.64,7.07-6.64,14.72-8.88,22.82h72.47c1.95-8.04,4.54-15.68,7.71-22.82Z" class="cls-1"></path>
    <path d="M200.62,559.65h-67.15c-7.49,6.25-14.14,13.97-19.71,22.82h70.64c4.6-8.58,10.06-16.26,16.23-22.82Z" class="cls-1"></path>
    <path d="M170.89,621.82h-72.74c-1.51,7.33-2.41,14.96-2.64,22.82h73.04c.21-7.83,1.01-15.46,2.34-22.82Z" class="cls-1"></path>
    <path d="M224.11,541.95h-43.92c-12.41,0-24.18,3.39-34.81,9.43h64.09c4.61-3.74,9.51-6.91,14.64-9.43Z" class="cls-1"></path>
    <path d="M168.55,652.9h-73.04c.24,7.85,1.13,15.49,2.64,22.82h72.74c-1.33-7.35-2.13-14.98-2.34-22.82Z" class="cls-1"></path>
    <path d="M209.47,746.16h-64.09c10.62,6.04,22.4,9.43,34.81,9.43h43.92c-5.13-2.52-10.03-5.69-14.64-9.43Z" class="cls-1"></path>
    <path d="M184.39,715.07h-70.64c5.57,8.85,12.22,16.56,19.71,22.82h67.15c-6.16-6.56-11.63-14.24-16.23-22.82Z" class="cls-1"></path>
    <path d="M172.64,683.99h-72.47c2.24,8.1,5.24,15.74,8.88,22.82h71.3c-3.17-7.14-5.76-14.78-7.71-22.82Z" class="cls-1"></path>
    <path d="M260.81,576.66c-29.69,0-53.75,32.28-53.75,72.11s24.07,72.11,53.75,72.11,53.75-32.28,53.75-72.11-24.07-72.11-53.75-72.11ZM246.85,679.27c-12.56,0-22.74-13.66-22.74-30.51s10.18-30.51,22.74-30.51,22.74,13.66,22.74,30.51-10.18,30.51-22.74,30.51Z" class="cls-1"></path>
  </g>
  <g>
    <path d="M631.53,765.58h-84.76c-48.45,0-87.87-52.4-87.87-116.81s39.42-116.81,87.87-116.81h84.76c48.45,0,87.87,52.4,87.87,116.81s-39.42,116.81-87.87,116.81ZM546.76,538.17c-45.02,0-81.65,49.61-81.65,110.6s36.63,110.6,81.65,110.6h84.76c45.02,0,81.65-49.61,81.65-110.6s-36.63-110.6-81.65-110.6h-84.76Z" class="cls-1"></path>
    <path d="M558.64,590.73h-71.3c-3.64,7.07-6.64,14.72-8.88,22.82h72.47c1.95-8.04,4.54-15.68,7.71-22.82Z" class="cls-1"></path>
    <path d="M578.92,559.65h-67.15c-7.49,6.25-14.14,13.97-19.71,22.82h70.64c4.6-8.58,10.06-16.26,16.23-22.82Z" class="cls-1"></path>
    <path d="M549.18,621.82h-72.74c-1.51,7.33-2.41,14.96-2.64,22.82h73.04c.21-7.83,1.01-15.46,2.34-22.82Z" class="cls-1"></path>
    <path d="M602.4,541.95h-43.92c-12.41,0-24.18,3.39-34.81,9.43h64.09c4.61-3.74,9.51-6.91,14.64-9.43Z" class="cls-1"></path>
    <path d="M546.84,652.9h-73.04c.24,7.85,1.13,15.49,2.64,22.82h72.74c-1.33-7.35-2.13-14.98-2.34-22.82Z" class="cls-1"></path>
    <path d="M587.76,746.16h-64.09c10.62,6.04,22.4,9.43,34.81,9.43h43.92c-5.13-2.52-10.03-5.69-14.64-9.43Z" class="cls-1"></path>
    <path d="M562.69,715.07h-70.64c5.57,8.85,12.22,16.56,19.71,22.82h67.15c-6.16-6.56-11.63-14.24-16.23-22.82Z" class="cls-1"></path>
    <path d="M550.93,683.99h-72.47c2.24,8.1,5.24,15.74,8.88,22.82h71.3c-3.17-7.14-5.76-14.78-7.71-22.82Z" class="cls-1"></path>
    <path d="M639.11,576.66c-29.69,0-53.75,32.28-53.75,72.11s24.07,72.11,53.75,72.11,53.75-32.28,53.75-72.11-24.07-72.11-53.75-72.11ZM625.14,679.27c-12.56,0-22.74-13.66-22.74-30.51s10.18-30.51,22.74-30.51,22.74,13.66,22.74,30.51-10.18,30.51-22.74,30.51Z" class="cls-1"></path>
  </g>
  <path d="M338.75,594.84c4.71,11.71,7.92,24.66,9.32,38.38h104.44c1.4-13.72,4.61-26.67,9.32-38.38h-123.08Z" class="cls-1"></path>
  <path d="M451.7,648.77c0-2.45.08-4.88.19-7.3h-103.21c.11,2.42.19,4.84.19,7.3,0,10.78-1.14,21.2-3.23,31.08h8.84c-8.36,39.51-32.23,70.25-62.24,79.63,6.2,1.94,12.65,3,19.3,3,38.77,0,71.44-34.94,81.52-82.62h61.87c-2.09-9.88-3.23-20.3-3.23-31.08Z" class="cls-1"></path>
  <g>
    <path d="M397.93,141.26l-33.11-.21c-27.26,0-49.36,26.73-49.36,59.7s22.1,59.7,49.36,59.7l33.11-.21c25.42-2.43,45.42-28.12,45.42-59.49s-20.01-57.06-45.42-59.49ZM360.57,251.07c-20.63,0-37.36-22.53-37.36-50.32s16.72-50.32,37.36-50.32,37.36,22.53,37.36,50.32-16.72,50.32-37.36,50.32Z" class="cls-1"></path>
    <path d="M387.87,222.4c-8.88,0-16.07-9.69-16.07-21.65s7.2-21.65,16.07-21.65c1.2,0,2.37.2,3.5.54-2.95-8.57-7.63-15.84-13.44-20.98-2.42-.78-4.94-1.21-7.54-1.21-17.75,0-32.14,19.39-32.14,43.3s14.39,43.3,32.14,43.3c2.6,0,5.12-.43,7.54-1.21,5.81-5.14,10.49-12.41,13.44-20.98-1.13.34-2.29.54-3.5.54ZM365.1,237.94c-12.02-4.62-20.82-19.52-20.82-37.19,0-21.36,12.86-38.68,28.72-38.68,2.32,0,4.57.38,6.73,1.08.81.71,1.58,1.49,2.34,2.29-1.11-.18-2.24-.27-3.39-.27-15.86,0-28.72,17.32-28.72,38.68,0,14.75,6.13,27.56,15.14,34.09Z" class="cls-1"></path>
  </g>
  <g>
    <path d="M310.28,410.39l-23.89-.15c-19.67,0-35.62,19.29-35.62,43.08s15.95,43.08,35.62,43.08l23.89-.15c18.35-1.75,32.78-20.3,32.78-42.94s-14.44-41.18-32.78-42.94ZM283.32,489.65c-14.89,0-26.96-16.26-26.96-36.32s12.07-36.32,26.96-36.32,26.96,16.26,26.96,36.32-12.07,36.32-26.96,36.32Z" class="cls-1"></path>
    <path d="M303.02,468.95c-6.41,0-11.6-7-11.6-15.63s5.19-15.63,11.6-15.63c.87,0,1.71.14,2.52.39-2.13-6.18-5.51-11.43-9.7-15.14-1.75-.57-3.57-.87-5.44-.87-12.81,0-23.2,13.99-23.2,31.25s10.39,31.25,23.2,31.25c1.87,0,3.7-.31,5.44-.87,4.2-3.71,7.57-8.96,9.7-15.14-.81.24-1.65.39-2.52.39ZM286.59,480.17c-8.68-3.33-15.03-14.09-15.03-26.84,0-15.42,9.28-27.92,20.73-27.92,1.67,0,3.3.27,4.86.78.58.52,1.14,1.08,1.69,1.66-.8-.13-1.62-.2-2.45-.2-11.45,0-20.73,12.5-20.73,27.92,0,10.64,4.42,19.89,10.93,24.6Z" class="cls-1"></path>
  </g>
  <path d="M552.2,103.67h-281.2c-18.47,0-33.57,15.11-33.57,33.57v128.57c0,18.47,15.11,33.57,33.57,33.57h281.2c18.47,0,33.57-15.11,33.57-33.57v-128.57c0-18.47-15.11-33.57-33.57-33.57ZM512.19,258.41c0,16.83-13.64,30.46-30.46,30.46h-202.43c-16.83,0-30.46-13.64-30.46-30.46v-113.77c0-16.83,13.64-30.46,30.46-30.46h202.43c16.83,0,30.46,13.64,30.46,30.46v113.77Z" class="cls-1"></path>
  <rect ry="5.65" rx="5.65" height="17.57" width="117.84" y="328.21" x="351.12" class="cls-1"></rect>
  <rect ry="5.65" rx="5.65" height="17.57" width="117.84" y="304.89" x="351.12" class="cls-1"></rect>
  <g>
    <rect ry="2.65" rx="2.65" height="8.24" width="32.04" y="244.03" x="464.33" class="cls-1"></rect>
    <rect ry="2.65" rx="2.65" height="8.24" width="32.04" y="228.49" x="464.33" class="cls-1"></rect>
    <rect ry="2.65" rx="2.65" height="8.24" width="32.04" y="212.95" x="464.33" class="cls-1"></rect>
    <rect ry="2.65" rx="2.65" height="8.24" width="32.04" y="197.4" x="464.33" class="cls-1"></rect>
    <rect ry="2.65" rx="2.65" height="8.24" width="32.04" y="181.86" x="464.33" class="cls-1"></rect>
    <rect ry="2.65" rx="2.65" height="8.24" width="32.04" y="166.32" x="464.33" class="cls-1"></rect>
    <rect ry="2.65" rx="2.65" height="8.24" width="32.04" y="150.78" x="464.33" class="cls-1"></rect>
  </g>
  <rect ry="2.65" rx="2.65" height="8.24" width="32.04" y="523.72" x="358.85" class="cls-1"></rect>
  <rect ry="2.65" rx="2.65" height="8.24" width="32.04" y="501.96" x="358.85" class="cls-1"></rect>
  <rect ry="2.65" rx="2.65" height="8.24" width="32.04" y="480.2" x="358.85" class="cls-1"></rect>
  <circle r="9.63" cy="160.41" cx="280.85" class="cls-1"></circle>
  <circle r="9.63" cy="436.99" cx="374.87" class="cls-1"></circle>
  <circle r="9.63" cy="405.91" cx="374.87" class="cls-1"></circle>
  <path d="M417.23,86.49l-2.42-39.17c1.57-1.35,2.58-3.32,2.58-5.55,0-4.06-3.29-7.35-7.35-7.35s-7.35,3.29-7.35,7.35c0,2.23,1.01,4.2,2.58,5.55l-2.42,39.17c-12.89,1.77-23.87,8.22-30.28,17.18h74.93c-6.41-8.96-17.39-15.4-30.28-17.18Z" class="cls-1"></path>
  <ellipse ry="15.54" rx="8.04" cy="648.77" cx="238.37" class="cls-1"></ellipse>
  <ellipse ry="15.54" rx="8.04" cy="648.77" cx="616.66" class="cls-1"></ellipse>
  <path d="M579.03,351.42h-155.15c.1.09.19.18.28.26-1.4-.17-2.82-.26-4.26-.26h-177.14c-19.64,0-35.71,16.07-35.71,35.71v137.33h53.75s48.2-.68,73.53,56.45h85.56c1.44,0,2.86-.1,4.26-.26-.1.09-.19.18-.28.26h41.15c16.45-33.43,44.69-57.05,76.78-57.05h72.93v-136.73c0-19.64-16.07-35.71-35.71-35.71ZM412.64,539.67c0,17.49-11.2,28.7-28.7,28.7h-43.86c-22.56-50.89-73.26-54.94-73.26-54.94h-47.88v-120.76c0-17.49,11.2-28.7,28.7-28.7h136.3c17.49,0,28.7,11.2,28.7,28.7v147.01ZM591.73,496.06h-128.96c-2.13,0-3.88-1.74-3.88-3.88s1.74-3.88,3.88-3.88h128.96c2.13,0,3.88,1.74,3.88,3.88s-1.74,3.88-3.88,3.88ZM591.73,480.52h-128.96c-2.13,0-3.88-1.74-3.88-3.88s1.74-3.88,3.88-3.88h128.96c2.13,0,3.88,1.74,3.88,3.88s-1.74,3.88-3.88,3.88ZM591.73,464.98h-128.96c-2.13,0-3.88-1.74-3.88-3.88s1.74-3.88,3.88-3.88h128.96c2.13,0,3.88,1.74,3.88,3.88s-1.74,3.88-3.88,3.88ZM591.73,449.43h-128.96c-2.13,0-3.88-1.74-3.88-3.88s1.74-3.88,3.88-3.88h128.96c2.13,0,3.88,1.74,3.88,3.88s-1.74,3.88-3.88,3.88ZM591.73,433.89h-128.96c-2.13,0-3.88-1.74-3.88-3.88s1.74-3.88,3.88-3.88h128.96c2.13,0,3.88,1.74,3.88,3.88s-1.74,3.88-3.88,3.88ZM591.73,418.35h-128.96c-2.13,0-3.88-1.74-3.88-3.88s1.74-3.88,3.88-3.88h128.96c2.13,0,3.88,1.74,3.88,3.88s-1.74,3.88-3.88,3.88Z" class="cls-1"></path>
</svg>