<?xml version="1.0" encoding="UTF-8" standalone="no"?>
<svg
   width="46"
   height="53"
   viewBox="0 0 46 53"
   fill="none"
   version="1.1"
   id="svg133"
   sodipodi:docname="demo_neai4.svg"
   inkscape:version="1.2.2 (b0a8486, 2022-12-01)"
   xmlns:inkscape="http://www.inkscape.org/namespaces/inkscape"
   xmlns:sodipodi="http://sodipodi.sourceforge.net/DTD/sodipodi-0.dtd"
   xmlns="http://www.w3.org/2000/svg"
   xmlns:svg="http://www.w3.org/2000/svg">
  <defs
     id="defs137" />
  <sodipodi:namedview
     id="namedview135"
     pagecolor="#ffffff"
     bordercolor="#000000"
     borderopacity="0.25"
     inkscape:showpageshadow="2"
     inkscape:pageopacity="0.0"
     inkscape:pagecheckerboard="0"
     inkscape:deskcolor="#d1d1d1"
     showgrid="false"
     inkscape:zoom="4.4528302"
     inkscape:cx="-21.447034"
     inkscape:cy="59.625"
     inkscape:window-width="1920"
     inkscape:window-height="1027"
     inkscape:window-x="0"
     inkscape:window-y="25"
     inkscape:window-maximized="1"
     inkscape:current-layer="svg133" />
  <g
     transform="matrix(0.01521253,0,0,-0.01536917,-2.5104724,54.739737)"
     fill="#000000"
     stroke="none"
     id="g2701"
     style="fill:#03234b;fill-opacity:1">
    <path
       d="m 1568,3410 c -31,-11 -130,-62 -220,-114 -992,-571 -982,-565 -1035,-621 -31,-33 -60,-77 -75,-112 l -23,-58 -3,-670 c -2,-406 1,-695 7,-733 13,-84 45,-147 101,-202 29,-28 140,-99 294,-187 136,-79 252,-143 257,-143 5,0 9,283 9,728 0,785 -1,764 54,791 25,12 31,11 55,-6 28,-22 171,-177 589,-643 150,-168 293,-321 318,-341 55,-44 102,-59 180,-59 98,1 192,58 233,144 36,72 31,83 -72,158 l -92,66 -5,-63 c -6,-76 -27,-105 -76,-105 -32,0 -56,25 -371,372 -630,694 -612,678 -741,678 -114,0 -197,-53 -246,-160 -20,-44 -21,-63 -26,-632 l -5,-588 -68,41 c -88,53 -133,99 -166,168 l -26,56 v 610 c 0,566 1,614 18,663 37,104 67,126 582,423 577,333 578,334 671,334 65,0 79,-4 165,-47 52,-26 137,-74 189,-105 l 95,-58 5,-566 5,-566 62,-69 c 33,-38 77,-85 97,-104 l 36,-34 -2,729 -3,730 -245,142 c -140,80 -269,148 -301,157 -74,21 -151,20 -221,-4 z"
       id="path2697"
       style="fill:#03234b;fill-opacity:1" />
    <path
       d="m 2490,2308 c 0,-552 -3,-719 -13,-738 -18,-36 -54,-51 -87,-37 -15,7 -150,148 -299,315 -689,766 -645,725 -772,731 -60,2 -86,-1 -121,-17 -60,-26 -112,-74 -137,-126 -33,-66 -28,-90 21,-119 24,-14 64,-43 90,-66 25,-23 49,-41 52,-41 3,0 6,26 6,59 0,74 25,111 75,111 37,0 46,-9 612,-635 359,-396 381,-415 498,-415 111,0 194,51 242,148 l 28,57 3,568 c 1,312 6,567 9,567 21,0 145,-85 180,-123 76,-83 76,-81 81,-688 2,-328 0,-571 -7,-627 -12,-109 -44,-177 -106,-226 -34,-28 -894,-528 -1025,-597 -37,-19 -60,-24 -131,-24 -81,0 -90,2 -170,42 -46,24 -130,70 -186,103 l -103,61 v 580 579 l -79,88 c -43,48 -88,96 -100,106 l -21,19 v -739 c 0,-406 4,-744 8,-750 10,-14 400,-239 479,-276 106,-50 231,-53 324,-8 109,52 1168,670 1205,703 23,21 56,63 71,95 l 28,57 v 750 750 l -28,53 c -15,29 -45,69 -66,90 -30,28 -506,314 -552,330 -5,2 -9,-279 -9,-710 z"
       id="path2699"
       style="fill:#03234b;fill-opacity:1" />
  </g>
</svg>
