<svg width="48" height="48" viewBox="0 0 48 48" fill="none" xmlns="http://www.w3.org/2000/svg">
<path fill-rule="evenodd" clip-rule="evenodd" d="M12.8253 6.67159C10.2768 7.53631 7.47344 9.82805 5.45653 13.3214C2.97449 17.6205 2.66391 22.041 3.91839 24.6926C4.27267 25.4414 3.95281 26.3357 3.20396 26.69C2.45511 27.0443 1.56085 26.7244 1.20656 25.9756C-0.605736 22.1449 0.069057 16.6528 2.85845 11.8214C5.15583 7.84227 8.55854 4.88124 12.0471 3.76724L11.1575 0.447083L14.6216 2.44708L14.8317 2.5684L17.2197 3.94708L15.841 6.33503L15.7197 6.54516L13.7197 10.0093L12.8253 6.67159ZM23.7144 8.68106C23.2687 8.43965 22.7313 8.43965 22.2856 8.68106L10.2856 15.1811C9.80154 15.4433 9.5 15.9495 9.5 16.5V31.5C9.5 32.0505 9.80154 32.5567 10.2856 32.8189L22.2856 39.3189C22.7313 39.5604 23.2687 39.5604 23.7144 39.3189L35.7144 32.8189C36.1985 32.5567 36.5 32.0505 36.5 31.5V16.5C36.5 15.9495 36.1985 15.4433 35.7144 15.1811L23.7144 8.68106ZM12.5 30.6066V18.9271L21.5 23.427V35.4816L12.5 30.6066ZM24.5 35.4816L33.5 30.6066V18.9271L24.5 23.4271V35.4816ZM23 20.8229L31.7524 16.4468L23 11.7059L14.2477 16.4468L23 20.8229ZM13.5567 41.4433L16 39H12H11.7574H9V41.7574V42V46L11.4305 43.5695C14.1396 46.0337 18.4053 47.5 23 47.5C28.5788 47.5 33.6725 45.3384 36.0838 41.8535C36.5552 41.1723 36.385 40.2379 35.7038 39.7665C35.0226 39.2951 34.0882 39.4652 33.6168 40.1465C31.9477 42.5587 27.9641 44.5 23 44.5C18.9662 44.5 15.5798 43.2181 13.5567 41.4433ZM41.7628 21.1662L38.4252 20.2719L40.4252 23.736L40.5465 23.9461L41.9252 26.3341L44.3131 24.9554L44.5233 24.8341L47.9874 22.8341L44.6672 21.9444C45.4467 18.3662 44.5838 13.9389 42.2864 9.95972C39.497 5.12835 35.0781 1.79792 30.8545 1.45208C30.0288 1.38447 29.3047 1.999 29.2371 2.82466C29.1695 3.65032 29.784 4.37446 30.6097 4.44207C33.5333 4.68147 37.2063 7.1607 39.6883 11.4597C41.7052 14.9531 42.2883 18.5267 41.7628 21.1662Z" fill="#002052"/>
</svg>
