<?xml version="1.0" encoding="utf-8"?>
<svg viewBox="0 0 626 626" width="626" height="626" xmlns="http://www.w3.org/2000/svg">
  <path fill="#39A9DC" opacity="1.000000" stroke="none" d=" M74.951691,217.107544 C73.711731,216.307938 72.471779,215.508331 71.106216,214.008072 C69.948784,212.218796 68.916962,211.130203 67.885139,210.041595 C67.601242,206.329498 67.317345,202.617386 67.487564,198.450699 C69.035477,196.901993 70.666862,195.999847 71.137070,194.683060 C74.556847,185.106033 78.602859,175.960419 86.450493,169.042038 C89.549660,166.309845 92.992271,163.890594 97.224556,165.344894 C105.034477,168.028580 112.709221,171.119934 120.373535,174.207138 C124.321968,175.797592 127.473999,175.024353 130.171707,171.848587 C136.846588,163.990921 143.692551,156.269150 150.088501,148.190933 C151.597046,146.285614 152.729553,142.827652 152.054428,140.717682 C150.772079,136.709854 148.143478,133.107101 145.871643,129.462265 C145.392609,128.693726 144.042847,128.467911 143.094284,127.992035 C142.783997,127.543182 142.473694,127.094330 142.599457,126.339615 C145.671387,123.194557 144.313599,120.180954 139.885147,119.041611 C138.935242,116.952499 137.985336,114.863380 137.474701,112.385963 C139.329010,110.880959 141.439178,110.056488 142.050644,108.601982 C147.640533,95.305008 159.006775,89.493942 171.652969,85.273308 C176.621689,83.615013 180.701691,84.403481 184.415390,88.730896 C189.059906,94.142937 194.580872,98.792801 199.434921,104.038681 C202.535172,107.389198 205.850403,107.795013 209.733459,106.109131 C215.512848,103.599937 221.215378,100.906487 227.045273,98.523010 C231.783463,96.585869 236.774460,95.242996 241.438217,93.155876 C244.792496,91.654770 245.476974,89.499039 241.166443,88.001259 C241.121826,81.310455 241.077194,74.619659 241.460495,67.453827 C242.534470,66.475365 243.180511,65.971924 243.826538,65.468475 C242.846039,64.992821 241.865524,64.517174 240.885025,64.041527 C240.601639,62.616962 240.318237,61.192398 240.477249,59.382675 C242.551880,57.868965 244.174774,56.726650 245.817841,55.614113 C256.202759,48.582375 267.643921,45.265438 280.186432,46.020302 C290.512665,46.641785 294.468170,49.953415 297.402405,59.638321 C299.324860,65.983635 301.470978,72.270348 303.806000,78.474503 C304.333191,79.875290 305.988403,81.736679 307.248871,81.838097 C318.637512,82.754402 330.051117,83.380577 341.464111,83.958771 C344.162323,84.095459 347.047882,83.955719 347.369049,79.993179 C348.925751,78.783417 350.536957,77.784332 351.230438,76.343552 C354.946442,68.623085 358.433685,60.792519 362.397125,52.952225 C367.198181,52.281307 371.706543,50.734234 375.985382,51.217911 C386.480316,52.404243 396.393829,55.809101 404.807953,62.517365 C409.627380,66.359734 413.417389,70.524979 411.191528,77.778923 C409.511444,83.254158 409.219635,89.146835 408.185272,94.831039 C407.013855,101.268692 407.815094,102.771271 413.567017,105.837402 C420.891022,109.741577 428.178986,113.726776 435.334076,117.929710 C440.329010,120.863747 444.689697,120.800926 448.966156,116.926453 C452.615814,113.619789 456.198151,110.233170 459.701904,106.772217 C466.578766,99.979332 470.907471,99.403236 479.643494,103.240074 C490.373688,107.952766 498.027893,116.079994 504.897552,125.092377 C509.142395,130.661224 508.895660,137.608566 504.953491,143.577118 C501.204193,149.253693 497.590179,155.019760 493.828247,160.687759 C491.643585,163.979355 491.482819,166.595291 494.300140,170.020248 C499.839996,176.754868 505.493988,183.628311 509.552002,191.267075 C512.243713,196.334000 515.304199,196.546402 519.537109,195.622986 C526.651855,194.070847 533.683960,192.132584 540.813782,190.661621 C543.128296,190.184113 546.403076,189.688766 547.919189,190.880386 C552.670654,194.614807 558.038086,198.445557 560.905823,203.517441 C567.302551,214.830856 569.856323,227.387405 568.200623,240.531845 C568.200623,240.531845 567.869385,240.601990 567.351624,240.393585 C566.285706,240.974030 565.737549,241.762909 565.189392,242.551773 C565.189392,242.551773 564.856323,242.610046 564.345093,242.397598 C563.285706,242.974030 562.737549,243.762894 562.189392,244.551758 C562.189392,244.551773 561.862854,244.615524 561.339478,244.374939 C559.614807,245.271667 558.413452,246.408966 557.212158,247.546265 C557.212158,247.546265 556.869507,247.614944 556.351685,247.400055 C555.285706,247.974045 554.737549,248.762909 554.189392,249.551788 C554.189392,249.551773 553.862854,249.615524 553.339478,249.374939 C551.614746,250.271652 550.413452,251.408951 549.212158,252.546265 C549.212158,252.546265 548.873535,252.620926 548.356934,252.378479 C540.754822,253.253494 537.063049,258.473267 539.452454,265.480774 C542.437012,274.233704 543.739929,283.105865 544.214294,292.266876 C544.299622,293.914246 546.841248,296.367859 548.662659,296.834869 C557.951111,299.216156 567.396729,300.978088 576.728027,303.205292 C578.046631,303.520050 579.539917,304.980103 580.107483,306.279175 C586.860352,321.735718 586.913757,337.126312 579.343140,352.393524 C578.631287,353.828949 578.462952,355.533905 578.042297,357.113739 C572.223145,358.073364 566.423645,359.184692 560.578430,359.943573 C556.075806,360.528137 551.515747,360.669739 546.157837,361.017517 C543.882202,362.737762 541.734619,364.223572 541.095276,366.197815 C537.984863,375.802917 535.090637,385.490479 532.575867,395.266174 C532.028992,397.392059 532.520142,400.974884 533.965576,402.209045 C539.108826,406.600525 544.887634,410.243958 550.392761,414.216370 C555.459900,417.872681 559.821106,422.272095 557.842102,429.081696 C555.732178,436.342224 552.665955,443.323334 550.064514,450.443726 C549.478516,452.047668 549.088379,453.723175 548.608032,455.365723 C548.608032,455.365723 548.502380,455.492279 548.079712,455.369873 C546.513062,457.014099 545.369141,458.780792 544.225220,460.547485 C544.225220,460.547455 543.890503,460.621613 543.384583,460.401794 C542.266479,461.159241 541.654358,462.136505 541.042236,463.113800 C540.435425,463.638153 539.828613,464.162445 538.547974,464.412811 C536.583191,465.037079 535.292175,465.935333 534.001160,466.833588 C532.931335,466.877716 531.861572,466.921844 530.325623,466.558105 C523.154297,463.454346 516.479980,460.676941 509.723175,458.117126 C507.929962,457.437744 505.883423,457.426910 503.953217,457.109070 C503.243622,457.075775 502.533997,457.042480 501.090240,457.017334 C496.329956,458.351501 494.467651,461.168640 494.608246,465.366058 C494.608246,465.366058 494.502960,465.491577 494.081787,465.370270 C492.454498,467.203857 491.248413,469.158783 490.042328,471.113708 C486.266388,474.996918 482.490479,478.880127 478.028534,482.897217 C473.708069,483.804626 473.364594,486.266083 474.707214,489.005341 C478.118958,495.966248 481.632568,502.884155 485.346313,509.687775 C488.234375,514.978699 488.061951,519.696106 484.348663,524.591492 C482.738861,526.713745 482.114349,529.583435 481.042297,532.113708 C479.792114,533.302002 478.541901,534.490356 476.583496,535.430176 C475.248566,536.167908 474.621887,537.154236 473.995239,538.140625 C473.703461,538.312439 473.411713,538.484253 472.476990,538.420654 C471.285797,538.974060 470.737640,539.762939 470.189453,540.551758 C470.189423,540.551758 469.862396,540.615967 469.358185,540.376953 C466.903015,541.369812 464.952087,542.601685 463.001129,543.833618 C462.417542,544.118103 461.833923,544.402588 460.600220,544.427246 C459.300934,544.722839 458.651733,545.278259 458.002502,545.833618 C454.937195,546.544189 451.871887,547.254761 448.333191,547.559265 C445.201569,545.449280 442.543335,543.745422 439.885101,542.041504 C434.658966,536.930969 429.479523,531.770996 424.166107,526.752869 C423.138245,525.782104 421.586670,525.365845 419.613373,524.430664 C418.300903,524.722839 417.651703,525.278198 417.002502,525.833618 C416.416016,526.117920 415.829529,526.402222 414.548492,526.412231 C411.903015,527.369751 409.952057,528.601685 408.001129,529.833618 C407.417511,530.118103 406.833923,530.402588 405.600220,530.427246 C404.300903,530.722839 403.651703,531.278198 403.002502,531.833618 C402.418518,532.118103 401.834564,532.402649 400.600342,532.427307 C399.300934,532.722900 398.651733,533.278259 398.002502,533.833618 C397.418518,534.118103 396.834564,534.402649 395.600342,534.427307 C394.300934,534.722839 393.651703,535.278259 393.002502,535.833618 C391.454498,536.450623 389.906494,537.067627 387.610229,537.427124 C385.591125,539.149719 383.241608,541.123230 383.229462,543.110962 C383.164093,553.785400 383.680389,564.463318 383.995850,575.140076 C383.703979,575.312134 383.412109,575.484192 382.477112,575.420654 C381.285767,575.974060 380.737610,576.762878 380.189423,577.551758 C380.189423,577.551758 379.861359,577.615723 379.349609,577.375916 C376.225586,578.701904 373.613312,580.267761 371.001038,581.833618 C363.384888,585.616699 355.228760,586.253113 346.414368,585.614319 C345.260590,585.210754 344.606812,585.159790 343.953003,585.108887 C343.211700,585.061462 342.470428,585.014038 341.321777,584.614136 C340.260590,584.210754 339.606812,584.159851 338.953003,584.108887 C338.516144,584.062561 338.079285,584.016174 337.249786,583.559204 C334.817810,581.061646 332.019531,580.155762 331.088837,576.486145 C328.973419,568.145630 325.893646,560.042725 322.997406,551.917542 C322.691559,551.059570 320.997833,550.696411 319.947998,550.103638 C315.272400,550.058167 310.596802,550.012695 305.417786,549.614441 C304.260590,549.210693 303.606812,549.159790 302.953003,549.108887 C299.933716,549.061462 296.914429,549.014038 293.404785,548.614136 C292.260590,548.210754 291.606812,548.159851 290.953003,548.108887 C288.629639,548.075378 286.306274,548.041870 283.169403,548.016907 C281.267181,548.632141 279.589172,548.974854 279.180908,549.886353 C275.075012,559.052979 271.177429,568.312927 267.221252,577.546631 C267.221252,577.546631 266.886047,577.624451 266.418091,577.395996 C265.300934,577.722839 264.651733,578.278259 264.002502,578.833618 C260.607330,579.543152 257.212158,580.252686 253.365692,580.611938 C252.260635,580.210754 251.606842,580.159851 250.953033,580.108887 C249.248779,580.061340 247.544510,580.013733 245.377350,579.613892 C244.260635,579.210754 243.606842,579.159851 242.953033,579.109009 C242.516113,579.062622 242.079193,579.016235 241.246140,578.558105 C234.784683,575.248474 228.721329,572.346313 222.638229,569.486267 C222.530655,569.435730 222.186020,569.889465 221.952042,570.107910 C220.379776,568.976135 218.807510,567.844421 217.107910,566.010071 C215.948746,564.218811 214.916916,563.130127 213.885071,562.041504 C213.601547,559.643982 213.318024,557.246521 213.471039,554.423462 C214.885376,553.440979 215.863205,552.884094 216.841019,552.327148 C215.949493,551.551819 215.057968,550.776489 214.166443,550.001221 C214.122589,549.249207 214.078766,548.497131 214.471237,547.371460 C215.885376,546.440979 216.863190,545.884033 217.841003,545.327148 C216.949478,544.551819 216.057953,543.776550 215.166428,543.001221 C215.122269,541.932190 215.078125,540.863220 215.470764,539.395996 C216.885361,538.440918 217.863174,537.884033 218.841003,537.327148 C217.949478,536.551819 217.057953,535.776550 216.166428,535.001221 C216.122604,534.248474 216.078766,533.495789 216.405151,532.320984 C217.183563,531.265930 217.591782,530.632996 217.993164,529.631104 C216.786957,528.076233 215.771286,526.571533 214.357834,525.757141 C206.262009,521.092834 198.090347,516.558228 189.882095,512.094177 C189.130676,511.685547 187.939850,512.084839 186.953079,512.108948 C183.589722,509.989410 182.551956,513.880920 179.597565,514.429260 C178.266525,515.159241 177.654388,516.136475 177.042236,517.113770 C176.118835,517.969177 175.195435,518.824524 173.575348,519.430908 C172.266525,520.159241 171.654373,521.136475 171.042236,522.113770 C168.804230,524.301758 166.566208,526.489746 163.623932,528.426575 C162.279480,529.061523 161.639282,529.947693 160.999084,530.833801 C159.995270,531.169739 158.991440,531.505615 157.493622,531.477661 C156.317429,531.112244 155.635208,531.110596 154.952988,531.108948 C154.516083,531.062561 154.079163,531.016174 153.247147,530.559875 C147.120224,527.250427 141.390488,524.346741 135.639847,521.485046 C135.538910,521.434814 135.186905,521.889038 134.952042,522.107910 C132.380127,519.976624 129.808197,517.845398 127.108261,515.017517 C124.406136,509.013336 121.871750,503.685394 119.181740,498.437195 C118.968933,498.022003 117.675987,498.160400 116.885025,498.041534 C116.601646,496.936951 116.318260,495.832397 116.483826,494.361908 C117.968399,493.240173 119.330017,492.697845 119.987358,491.694244 C124.692192,484.511383 129.155106,477.169189 133.903076,470.015778 C136.208466,466.542450 135.229767,463.500793 130.908493,462.052246 C130.908493,462.052246 130.981644,462.005249 130.979401,461.644501 C129.954651,460.207184 128.932159,459.130585 127.909660,458.054016 C127.909660,458.054016 127.982208,458.004578 127.979675,457.644165 C126.954659,456.207153 125.932159,455.130585 124.909668,454.054016 C124.909660,454.054016 124.982101,454.004486 124.979393,453.649292 C121.741539,447.654633 118.542519,441.993500 115.200722,436.417969 C114.941391,435.985321 113.680527,436.153015 112.885178,436.041687 C110.268166,436.361450 107.594887,436.443146 105.044670,437.045685 C97.348648,438.863953 89.700447,440.884613 81.497391,442.441345 C79.625168,441.740570 78.289162,441.424805 76.953148,441.109070 C74.380875,438.977417 71.808601,436.845764 69.108208,434.019348 C66.124779,426.084534 63.300774,418.831604 60.337952,411.635834 C60.156204,411.194458 58.877285,411.204803 58.108856,411.004944 C57.794086,410.554901 57.479313,410.104858 57.599121,409.345276 C58.597858,408.416656 59.162014,407.797577 59.726158,407.178467 C58.779114,406.799500 57.832077,406.420532 56.885040,406.041534 C56.601254,402.659668 56.317463,399.277802 56.490585,395.445923 C57.854187,394.708282 59.529129,394.472321 59.552479,394.125214 C59.909191,388.822876 64.511536,388.057648 67.928291,386.031616 C73.632927,382.648865 79.507133,379.508331 84.932274,375.724304 C86.585350,374.571289 87.229256,371.700195 87.813820,369.478729 C87.958511,368.928864 86.066757,367.843140 85.111115,367.003754 C84.795563,366.552490 84.480026,366.101227 84.611412,365.338074 C87.587730,362.261688 86.807602,359.453796 83.107315,358.003998 C82.793022,357.554138 82.478729,357.104248 82.599052,356.345032 C83.597816,355.416626 84.161972,354.797546 84.726135,354.178467 C83.779106,353.799500 82.832069,353.420502 81.885033,353.041534 C81.601631,351.616913 81.318230,350.192291 81.461639,348.373230 C82.534477,347.475372 83.180496,346.971924 83.826515,346.468506 C82.846008,345.992859 81.865509,345.517212 80.885025,345.041565 C80.601624,343.616913 80.318222,342.192291 80.459564,340.373779 C81.322952,338.806122 82.349945,336.766388 82.104485,336.599640 C80.543777,335.539337 78.702248,334.892365 76.953262,334.109161 C76.211899,334.061646 75.470535,334.014130 74.321823,333.614136 C73.260666,333.210754 72.606857,333.159851 71.953049,333.108948 C71.516281,333.062561 71.079521,333.016174 70.278610,332.615723 C69.260666,332.210785 68.606857,332.159882 67.953049,332.108948 C66.895683,332.061371 65.838326,332.013794 64.347702,331.613953 C63.260647,331.210754 62.606842,331.159821 61.953037,331.108887 C61.211727,331.061462 60.470417,331.014038 59.321777,330.614136 C58.260647,330.210754 57.606842,330.159821 56.953037,330.108887 C56.211727,330.061493 55.470417,330.014069 54.321777,329.614197 C53.260647,329.210785 52.606842,329.159851 51.953037,329.108917 C51.516136,329.062531 51.079239,329.016174 50.255600,328.569733 C47.945015,324.019714 46.134865,319.810516 44.024529,315.757660 C43.430428,314.616730 41.955780,313.934265 40.885010,313.041534 C40.601612,311.294220 40.318218,309.546936 40.474220,307.387512 C41.533848,306.428192 42.154076,305.880981 42.774307,305.333801 C41.881237,304.888000 40.988163,304.442230 40.095093,303.996429 C39.784279,303.545868 39.473469,303.095306 39.609077,302.356384 C40.978664,301.460144 41.901829,300.852295 42.824993,300.244415 C41.938808,299.496674 41.052620,298.748962 40.166435,298.001221 C40.122208,296.609863 40.077976,295.218506 40.470711,293.412476 C41.794952,292.097107 42.782696,291.266968 43.499653,290.246582 C43.681416,289.987885 42.597954,288.911469 42.777832,288.569366 C44.867695,284.594666 46.817982,280.498138 49.391922,276.847504 C50.624584,275.099213 52.993111,273.380707 55.038658,273.113312 C62.892078,272.086639 70.893135,272.075317 78.689026,270.781067 C81.624695,270.293701 84.151985,267.346375 86.865448,265.520447 C84.941170,263.193481 87.374763,261.789154 87.957787,259.939911 C90.598289,251.564865 93.051826,243.131058 95.613747,234.730927 C96.382874,232.209106 95.806023,230.812164 92.908607,231.053757 C92.908607,231.053757 92.981621,231.005203 92.976639,230.704590 C92.298340,229.971817 91.625015,229.539673 90.951691,229.107529 C90.377396,228.955383 89.803101,228.803238 89.102272,228.040497 C88.301056,226.989105 87.626373,226.548309 86.951691,226.107513 C86.377396,225.955383 85.803101,225.803238 85.102264,225.040497 C84.301048,223.989120 83.626373,223.548325 82.951691,223.107529 C82.377396,222.955383 81.803101,222.803238 81.102264,222.040497 C80.301056,220.989120 79.626373,220.548325 78.951691,220.107529 C78.377396,219.955383 77.803101,219.803238 77.102264,219.040497 C76.301048,217.989120 75.626366,217.548325 74.951691,217.107544 M165.321716,191.029785 C162.076294,191.415726 160.983307,193.296326 161.504013,196.499374 C161.504013,196.499374 161.384094,196.615005 160.689926,196.257996 C159.708893,196.994278 158.489548,197.551315 157.781311,198.492813 C133.998032,230.108810 120.884781,265.786926 118.115761,305.146027 C116.996315,321.057953 118.147949,337.014557 121.161140,352.715576 C128.559036,391.264191 146.113861,424.668304 173.417908,452.755035 C186.064102,465.763733 200.681396,476.381683 216.530914,485.404541 C242.414444,500.139587 270.317596,507.899506 299.788910,509.841919 C315.499634,510.877411 331.246918,509.978027 346.887482,507.127533 C384.916962,500.196808 418.229004,484.071167 446.175781,457.252258 C452.963104,450.738861 459.475677,443.915863 465.772736,436.927155 C468.033295,434.418304 469.286865,431.002106 471.745575,427.983429 C472.501709,427.475800 473.509216,427.134155 473.972229,426.432983 C476.584229,422.477570 478.957489,418.362915 481.609619,414.435913 C493.866394,396.287292 500.565948,375.911865 505.431763,354.830414 C505.673248,353.784027 503.966156,352.287903 503.040619,350.338257 C503.082550,349.892334 503.124481,349.446411 503.907928,348.997894 C504.885681,348.440948 505.863434,347.884003 506.841156,347.327057 C505.949585,346.551758 505.058014,345.776459 504.040558,344.338257 C504.082520,343.892334 504.124451,343.446411 504.907928,342.997833 C505.885651,342.440918 506.863403,341.883972 507.841156,341.327057 C506.949585,340.551788 506.057983,339.776489 505.034027,338.207458 C505.078156,337.138458 505.122284,336.069489 505.907928,334.997833 C506.885651,334.440918 507.863403,333.883972 508.841156,333.327057 C507.949585,332.551758 507.057983,331.776489 506.032593,330.072388 C506.077209,319.381744 506.121826,308.691071 506.888855,297.978851 C507.534790,297.475372 508.180756,296.971863 508.826691,296.468384 C507.846130,295.992767 506.865570,295.517151 505.250824,294.607208 C505.222687,293.071625 505.194550,291.536011 505.888855,289.978851 C506.534790,289.475342 507.180756,288.971863 507.826691,288.468384 C506.846130,287.992767 505.865570,287.517151 504.269257,286.640594 C504.234985,285.427216 504.200684,284.213806 504.914124,282.975464 C505.534180,282.427979 506.154205,281.880493 506.774231,281.332977 C505.880676,280.887146 504.987122,280.441315 503.675232,279.627289 C503.519501,279.113800 503.363770,278.600342 504.053619,278.025665 C506.589569,275.265686 505.810120,272.455566 501.680267,270.637878 C501.522888,270.120789 501.365509,269.603699 502.046173,269.028290 C502.380951,267.585114 503.286377,265.998444 502.964996,264.720245 C498.082245,245.299301 489.665680,227.393555 479.077057,210.487289 C477.927002,208.651077 475.659119,207.514984 473.982208,206.004425 C473.982208,206.004425 473.945007,206.084030 473.976410,205.294250 C473.560577,202.180542 472.742218,199.393661 468.982300,199.004578 C468.982300,199.004578 468.944946,199.084106 468.976959,198.281311 C467.946350,197.201401 466.915741,196.121490 465.361664,194.832840 C464.893677,194.259796 464.425690,193.686768 463.980560,192.307556 C462.948730,191.218903 461.916931,190.130249 460.289948,188.767044 C458.179199,186.549255 456.068420,184.331482 453.979858,181.354004 C453.886658,178.753922 453.399139,176.527878 449.262115,177.000900 C446.493958,174.371841 443.725830,171.742798 440.975708,168.430191 C440.301239,167.989517 439.626740,167.548828 438.300049,167.005554 C437.185913,166.041626 436.071808,165.077682 434.975708,163.430191 C434.301239,162.989517 433.626740,162.548828 432.357788,162.010284 C431.891113,161.711426 431.424408,161.412567 430.969971,160.376038 C429.297516,159.286865 427.625092,158.197708 425.358124,157.010376 C424.891327,156.711502 424.424561,156.412628 423.968658,155.360153 C423.500946,154.582809 423.220398,153.525208 422.537903,153.069458 C408.665161,143.805283 394.000946,136.088303 378.084351,130.949158 C375.149078,130.001404 372.003021,129.706451 368.301453,129.016190 C367.867035,128.955322 367.432617,128.894440 366.914459,128.261551 C366.260895,128.210938 365.607330,128.160339 364.301056,128.016083 C363.866760,127.955246 363.432495,127.894409 362.914459,127.261536 C362.260895,127.210938 361.607330,127.160332 360.301056,127.016075 C359.866760,126.955238 359.432495,126.894402 358.914459,126.261528 C358.260895,126.210930 357.607330,126.160324 356.301056,126.016083 C355.866760,125.955246 355.432495,125.894409 354.914459,125.261536 C354.260895,125.210930 353.607330,125.160324 352.164154,125.022072 C351.108826,124.959244 350.053528,124.896408 348.914459,124.261543 C348.260895,124.210938 347.607330,124.160332 346.164154,124.022072 C345.108826,123.959236 344.053528,123.896400 342.914459,123.261536 C342.260895,123.210938 341.607330,123.160332 340.105652,123.022079 C338.403168,122.959244 336.700684,122.896408 334.914459,122.261536 C334.260895,122.210930 333.607330,122.160332 332.026062,122.021301 C327.546082,122.014198 323.061493,122.136192 318.586914,121.977013 C301.755280,121.378204 285.125885,122.847473 268.811127,127.054726 C260.367523,129.232147 252.051666,131.904922 242.954254,134.171280 C242.303711,134.725388 241.653168,135.279495 240.402725,136.081085 C239.826385,136.170807 239.250046,136.260529 237.879074,136.142395 C236.586441,137.039459 235.293823,137.936523 233.400787,139.082031 C232.824356,139.169174 232.247940,139.256317 230.836761,139.139069 C226.859985,140.114014 222.266327,140.163193 220.883514,145.624649 C220.883514,145.624649 220.672073,145.344238 219.834885,145.138885 C216.949997,145.316620 214.119568,145.563705 213.876617,149.619598 C213.876617,149.619598 213.676971,149.328064 212.836975,149.188858 C212.288971,149.978210 211.740967,150.767563 210.868179,151.620483 C210.868179,151.620483 210.677444,151.350021 209.834427,151.140244 C206.764709,150.755630 205.886566,152.474442 205.671387,155.585297 C205.339920,155.499557 205.008438,155.413818 203.836975,155.188858 C203.288971,155.978210 202.740982,156.767563 201.872650,157.616806 C201.872650,157.616806 201.688309,157.348068 200.880096,157.185440 C200.251740,158.170502 199.623383,159.155548 198.678085,160.581299 C198.348160,160.503555 198.018234,160.425812 196.880096,160.185440 C196.251740,161.170486 195.623383,162.155548 194.678513,163.580948 C194.348770,163.503555 194.019043,163.426163 192.883392,163.185806 C192.269714,164.161743 191.656036,165.137680 190.776382,166.699417 C189.414017,167.582535 188.051666,168.465668 185.883392,169.185806 C185.269714,170.161743 184.656036,171.137680 183.764236,172.713440 C179.547409,176.823059 175.330582,180.932678 170.344528,185.026321 C166.522003,185.351151 166.231171,188.176788 166.008362,191.008041 C166.008362,191.008041 166.083939,191.055145 165.321716,191.029785 z"/>
  <path fill="#39A9DC" opacity="1.000000" stroke="none" d=" M568.570435,240.444977 C569.856323,227.387405 567.302551,214.830856 560.905823,203.517441 C558.038086,198.445557 552.670654,194.614807 547.919189,190.880386 C546.403076,189.688766 543.128296,190.184113 540.813782,190.661621 C533.683960,192.132584 526.651855,194.070847 519.537109,195.622986 C515.304199,196.546402 512.243713,196.334000 509.552002,191.267075 C505.493988,183.628311 499.839996,176.754868 494.300140,170.020248 C491.482819,166.595291 491.643585,163.979355 493.828247,160.687759 C497.590179,155.019760 501.204193,149.253693 504.953491,143.577118 C508.895660,137.608566 509.142395,130.661224 504.897552,125.092377 C498.027893,116.079994 490.373688,107.952766 479.643494,103.240074 C470.907471,99.403236 466.578766,99.979332 459.701904,106.772217 C456.198151,110.233170 452.615814,113.619789 448.966156,116.926453 C444.689697,120.800926 440.329010,120.863747 435.334076,117.929710 C428.178986,113.726776 420.891022,109.741577 413.567017,105.837402 C407.815094,102.771271 407.013855,101.268692 408.185272,94.831039 C409.219635,89.146835 409.511444,83.254158 411.191528,77.778923 C413.417389,70.524979 409.627380,66.359734 404.807953,62.517365 C396.393829,55.809101 386.480316,52.404243 375.985382,51.217911 C371.706543,50.734234 367.198181,52.281307 362.234192,52.701157 C361.098633,51.964207 360.523193,51.430557 359.947723,50.896908 C365.522858,46.403500 372.226105,46.486908 378.655914,47.121181 C391.664825,48.404453 403.718353,52.556831 412.814514,62.506748 C415.502747,65.447281 416.335876,69.284447 414.982239,73.769646 C413.580383,78.414467 413.552124,83.484032 413.016663,88.378059 C411.851776,99.025604 411.915833,98.950897 421.667053,103.954025 C427.343201,106.866302 433.343689,109.461182 438.322021,113.327187 C442.974854,116.940437 445.872498,115.444939 449.277557,112.244095 C453.131073,108.621689 457.151215,105.174263 460.954865,101.501579 C467.353638,95.323189 474.365021,95.100304 482.165131,98.569412 C495.517792,104.508026 505.470459,113.801224 511.049530,127.381577 C512.842773,131.746613 512.861572,136.277405 509.993744,140.545334 C505.614380,147.062759 501.334595,153.654327 497.281677,160.376694 C496.621643,161.471451 496.779480,163.787537 497.523834,164.884750 C503.126678,173.143631 508.870392,181.313919 514.842529,189.308380 C515.802673,190.593658 518.309387,191.767181 519.777649,191.457657 C528.390869,189.641983 536.909790,187.377518 545.456909,185.250015 C550.227112,184.062622 553.368408,187.132111 556.258545,189.882935 C565.938232,199.096161 570.991821,210.581009 572.015320,223.883942 C572.254456,226.991760 573.299072,230.191574 572.806091,233.154892 C572.382629,235.699921 570.293030,237.967712 568.570435,240.444977 z"/>
  <path fill="#39A9DC" opacity="1.000000" stroke="none" d=" M347.000000,80.000000 C347.047882,83.955719 344.162323,84.095459 341.464111,83.958771 C330.051117,83.380577 318.637512,82.754402 307.248871,81.838097 C305.988403,81.736679 304.333191,79.875290 303.806000,78.474503 C301.470978,72.270348 299.324860,65.983635 297.402405,59.638321 C294.468170,49.953415 290.512665,46.641785 280.186432,46.020302 C267.643921,45.265438 256.202759,48.582375 245.817841,55.614113 C244.174774,56.726650 242.551880,57.868965 240.543030,58.999077 C241.347504,56.938370 242.025848,54.152225 243.788834,52.927761 C258.579895,42.654736 274.703857,39.075951 292.390778,43.947197 C296.975800,45.209988 299.517975,47.934647 300.811981,52.460888 C302.918335,59.828812 305.586853,67.038040 307.620209,74.423782 C308.406708,77.280663 309.706726,78.008690 312.452545,78.061508 C321.057587,78.227036 329.659576,78.622620 338.257507,79.037010 C340.194824,79.130379 342.111084,79.661438 344.813904,79.987000 C346.060516,79.988655 346.530273,79.994331 347.000000,80.000000 z"/>
  <path fill="#39A9DC" opacity="1.000000" stroke="none" d=" M578.352173,356.962433 C578.462952,355.533905 578.631287,353.828949 579.343140,352.393524 C586.913757,337.126312 586.860352,321.735718 580.107483,306.279175 C579.539917,304.980103 578.046631,303.520050 576.728027,303.205292 C567.396729,300.978088 557.951111,299.216156 548.662659,296.834869 C546.841248,296.367859 544.299622,293.914246 544.214294,292.266876 C543.739929,283.105865 542.437012,274.233704 539.452454,265.480774 C537.063049,258.473267 540.754822,253.253494 548.255249,252.238068 C540.817627,255.546249 543.264587,260.998047 544.891418,266.952484 C546.602661,273.215851 547.420837,279.806030 547.859192,286.305359 C548.154114,290.677155 549.072937,292.534210 553.968994,293.223816 C562.992920,294.494904 571.876770,296.886658 580.720764,299.189087 C582.274780,299.593689 583.938721,301.622253 584.552917,303.272644 C590.525024,319.320221 591.271606,335.295471 582.982056,350.880035 C581.844849,353.018127 580.116638,354.841858 578.352173,356.962433 z"/>
  <path fill="#39A9DC" opacity="1.000000" stroke="none" d=" M241.081421,88.376938 C245.476974,89.499039 244.792496,91.654770 241.438217,93.155876 C236.774460,95.242996 231.783463,96.585869 227.045273,98.523010 C221.215378,100.906487 215.512848,103.599937 209.733459,106.109131 C205.850403,107.795013 202.535172,107.389198 199.434921,104.038681 C194.580872,98.792801 189.059906,94.142937 184.415390,88.730896 C180.701691,84.403481 176.621689,83.615013 171.652969,85.273308 C159.006775,89.493942 147.640533,95.305008 142.050644,108.601982 C141.439178,110.056488 139.329010,110.880959 137.540192,111.999146 C140.481094,100.407356 148.246231,92.384262 158.555923,87.005234 C164.409988,83.950912 170.880798,81.734306 177.332825,80.331367 C180.111404,79.727196 184.240921,81.339218 186.549362,83.338478 C192.821106,88.770187 198.524796,94.872734 204.286743,100.869728 C206.193314,102.854065 207.702530,103.127190 210.309174,102.021332 C219.758041,98.012695 229.366806,94.381935 238.886703,90.537964 C239.697968,90.210388 240.298157,89.360085 241.081421,88.376938 z"/>
  <path fill="#39A9DC" opacity="1.000000" stroke="none" d=" M143.061844,128.291840 C144.042847,128.467911 145.392609,128.693726 145.871643,129.462265 C148.143478,133.107101 150.772079,136.709854 152.054428,140.717682 C152.729553,142.827652 151.597046,146.285614 150.088501,148.190933 C143.692551,156.269150 136.846588,163.990921 130.171707,171.848587 C127.473999,175.024353 124.321968,175.797592 120.373535,174.207138 C112.709221,171.119934 105.034477,168.028580 97.224556,165.344894 C92.992271,163.890594 89.549660,166.309845 86.450493,169.042038 C78.602859,175.960419 74.556847,185.106033 71.137070,194.683060 C70.666862,195.999847 69.035477,196.901993 67.554047,197.998383 C69.399338,184.001099 76.973816,173.174805 87.431870,164.113617 C92.219460,159.965485 97.665977,159.977890 103.547127,162.673798 C109.151726,165.242950 115.182083,166.881760 121.020081,168.944260 C122.703262,169.538925 124.368492,170.184418 125.830009,170.727798 C133.973038,161.668869 142.100113,152.627686 150.631485,143.136734 C148.265991,138.610825 145.647705,133.601242 143.061844,128.291840 z"/>
  <path fill="#39A9DC" opacity="1.000000" stroke="none" d=" M548.899109,455.260010 C549.088379,453.723175 549.478516,452.047668 550.064514,450.443726 C552.665955,443.323334 555.732178,436.342224 557.842102,429.081696 C559.821106,422.272095 555.459900,417.872681 550.392761,414.216370 C544.887634,410.243958 539.108826,406.600525 533.965576,402.209045 C532.520142,400.974884 532.028992,397.392059 532.575867,395.266174 C535.090637,385.490479 537.984863,375.802917 541.095276,366.197815 C541.734619,364.223572 543.882202,362.737762 545.724182,361.034546 C543.744507,369.311890 542.122559,377.896973 538.801453,385.764801 C535.291748,394.079346 536.395325,399.332550 544.730957,403.457214 C549.191528,405.664459 552.901978,409.391205 556.941650,412.444550 C560.975342,415.493408 562.566956,419.465515 562.041809,424.553680 C560.851562,436.086212 556.927734,446.404022 548.899109,455.260010 z"/>
  <path fill="#39A9DC" opacity="1.000000" stroke="none" d=" M92.930145,231.434113 C95.806023,230.812164 96.382874,232.209106 95.613747,234.730927 C93.051826,243.131058 90.598289,251.564865 87.957787,259.939911 C87.374763,261.789154 84.941170,263.193481 86.865448,265.520447 C84.151985,267.346375 81.624695,270.293701 78.689026,270.781067 C70.893135,272.075317 62.892078,272.086639 55.038658,273.113312 C52.993111,273.380707 50.624584,275.099213 49.391922,276.847504 C46.817982,280.498138 44.867695,284.594666 42.777832,288.569366 C42.597954,288.911469 43.681416,289.987885 43.499653,290.246582 C42.782696,291.266968 41.794952,292.097107 40.537041,292.999207 C41.446896,288.322876 42.441494,283.542725 44.071793,278.990265 C46.837387,271.267639 52.754707,268.055573 60.804348,267.949646 C67.061508,267.867249 73.339844,267.562164 79.547844,266.835571 C81.145187,266.648560 83.361336,264.763519 83.848564,263.206482 C87.101509,252.810883 89.963051,242.292801 92.930145,231.434113 z"/>
  <path fill="#39A9DC" opacity="1.000000" stroke="none" d=" M481.350586,531.963745 C482.114349,529.583435 482.738861,526.713745 484.348663,524.591492 C488.061951,519.696106 488.234375,514.978699 485.346313,509.687775 C481.632568,502.884155 478.118958,495.966248 474.707214,489.005341 C473.364594,486.266083 473.708069,483.804626 477.728760,483.036285 C478.084106,483.769592 478.053223,484.497711 477.818268,485.759460 C478.114624,486.848419 478.615051,487.403687 479.115479,487.958954 C481.749878,493.037872 484.384338,498.116821 486.816467,503.744446 C487.114594,504.848419 487.615021,505.403687 488.115448,505.958954 C489.072174,507.704865 490.028900,509.450775 491.004242,511.848450 C491.029083,512.703613 491.035309,512.906982 491.041504,513.110352 C490.702301,520.743591 486.730011,526.554321 481.350586,531.963745 z"/>
  <path fill="#39A9DC" opacity="1.000000" stroke="none" d=" M85.067924,367.341797 C86.066757,367.843140 87.958511,368.928864 87.813820,369.478729 C87.229256,371.700195 86.585350,374.571289 84.932274,375.724304 C79.507133,379.508331 73.632927,382.648865 67.928291,386.031616 C64.511536,388.057648 59.909191,388.822876 59.552479,394.125214 C59.529129,394.472321 57.854187,394.708282 56.556946,394.998260 C55.801529,388.545410 60.104675,385.885162 65.089478,383.338074 C71.305351,380.161957 77.343246,376.591125 83.193825,372.784698 C84.400475,371.999664 84.444725,369.428009 85.067924,367.341797 z"/>
  <path fill="#39A9DC" opacity="1.000000" stroke="none" d=" M384.326843,574.974915 C383.680389,564.463318 383.164093,553.785400 383.229462,543.110962 C383.241608,541.123230 385.591125,539.149719 387.272919,537.259888 C387.789246,540.207947 387.967743,543.065369 387.985443,545.923645 C388.029419,553.016785 387.811218,560.117615 388.083313,567.200562 C388.210602,570.513977 387.223785,572.912415 384.326843,574.974915 z"/>
  <path fill="#39A9DC" opacity="1.000000" stroke="none" d=" M130.946579,462.415222 C135.229767,463.500793 136.208466,466.542450 133.903076,470.015778 C129.155106,477.169189 124.692192,484.511383 119.987358,491.694244 C119.330017,492.697845 117.968399,493.240173 116.549599,493.998260 C118.501762,489.439117 120.696236,484.798065 123.215355,480.340515 C125.375549,476.518158 128.166779,473.038391 130.158768,469.141266 C131.075394,467.348022 130.747986,464.918945 130.946579,462.415222 z"/>
  <path fill="#39A9DC" opacity="1.000000" stroke="none" d=" M347.369049,79.993179 C346.530273,79.994331 346.060516,79.988655 345.238586,79.970291 C348.206818,73.434677 351.539948,66.918221 354.841919,60.385990 C356.372955,57.357197 357.843292,54.297714 359.644409,51.074524 C360.523193,51.430557 361.098633,51.964207 361.837036,52.748928 C358.433685,60.792519 354.946442,68.623085 351.230438,76.343552 C350.536957,77.784332 348.925751,78.783417 347.369049,79.993179 z"/>
  <path fill="#39A9DC" opacity="1.000000" stroke="none" d=" M319.970947,550.493286 C320.997833,550.696411 322.691559,551.059570 322.997406,551.917542 C325.893646,560.042725 328.973419,568.145630 331.088837,576.486145 C332.019531,580.155762 334.817810,581.061646 336.927216,583.491089 C333.369934,582.903809 330.059814,582.031860 328.750702,577.546021 C326.131531,568.570923 322.945770,559.761047 319.970947,550.493286 z"/>
  <path fill="#39A9DC" opacity="1.000000" stroke="none" d=" M267.567322,577.468994 C271.177429,568.312927 275.075012,559.052979 279.180908,549.886353 C279.589172,548.974854 281.267181,548.632141 282.734863,548.033813 C279.715515,555.425598 276.435425,562.867004 272.855652,570.161316 C271.582733,572.755127 269.581909,574.991699 267.567322,577.468994 z"/>
  <path fill="#39A9DC" opacity="1.000000" stroke="none" d=" M58.066101,411.343109 C58.877285,411.204803 60.156204,411.194458 60.337952,411.635834 C63.300774,418.831604 66.124779,426.084534 68.968941,433.719177 C62.720982,427.899719 59.493034,420.219025 58.066101,411.343109 z"/>
  <path fill="#39A9DC" opacity="1.000000" stroke="none" d=" M187.125244,512.404907 C187.939850,512.084839 189.130676,511.685547 189.882095,512.094177 C198.090347,516.558228 206.262009,521.092834 214.357834,525.757141 C215.771286,526.571533 216.786957,528.076233 217.712952,529.624146 C217.252884,529.978760 217.066177,529.971313 216.879456,529.963928 C215.804596,529.067261 214.837646,527.978333 213.637619,527.304626 C204.883850,522.389771 196.083237,517.558472 187.125244,512.404907 z"/>
  <path fill="#39A9DC" opacity="1.000000" stroke="none" d=" M40.931183,313.443298 C41.955780,313.934265 43.430428,314.616730 44.024529,315.757660 C46.134865,319.810516 47.945015,324.019714 49.932991,328.501648 C48.065155,327.390472 45.380283,326.342133 44.370289,324.415680 C42.677406,321.186707 42.051979,317.398132 40.931183,313.443298 z"/>
  <path fill="#39A9DC" opacity="1.000000" stroke="none" d=" M112.942596,436.399353 C113.680527,436.153015 114.941391,435.985321 115.200722,436.417969 C118.542519,441.993500 121.741539,447.654633 124.960876,453.689087 C120.963387,448.308380 116.981705,442.532715 112.942596,436.399353 z"/>
  <path fill="#39A9DC" opacity="1.000000" stroke="none" d=" M116.932434,498.418457 C117.675987,498.160400 118.968933,498.022003 119.181740,498.437195 C121.871750,503.685394 124.406136,509.013336 126.969025,514.717407 C123.631828,509.674347 120.305840,504.234863 116.932434,498.418457 z"/>
  <path fill="#39A9DC" opacity="1.000000" stroke="none" d=" M504.143219,457.417053 C505.883423,457.426910 507.929962,457.437744 509.723175,458.117126 C516.479980,460.676941 523.154297,463.454346 529.928467,466.491943 C521.442627,463.797394 512.887939,460.761200 504.143219,457.417053 z"/>
  <path fill="#39A9DC" opacity="1.000000" stroke="none" d=" M222.101639,570.417603 C222.186020,569.889465 222.530655,569.435730 222.638229,569.486267 C228.721329,572.346313 234.784683,575.248474 240.923523,578.489990 C234.748444,576.131531 228.499847,573.429443 222.101639,570.417603 z"/>
  <path fill="#39A9DC" opacity="1.000000" stroke="none" d=" M135.101242,522.417236 C135.186905,521.889038 135.538910,521.434814 135.639847,521.485046 C141.390488,524.346741 147.120224,527.250427 152.924530,530.491821 C147.081497,528.131287 141.165970,525.428894 135.101242,522.417236 z"/>
  <path fill="#39A9DC" opacity="1.000000" stroke="none" d=" M494.897766,465.261292 C494.467651,461.168640 496.329956,458.351501 500.734894,457.033905 C499.138214,459.747040 497.162720,462.451782 494.897766,465.261292 z"/>
  <path fill="#39A9DC" opacity="1.000000" stroke="none" d=" M83.065773,358.324890 C86.807602,359.453796 87.587730,362.261688 84.633087,365.056061 C83.813301,362.939209 83.418762,360.792480 83.065773,358.324890 z"/>
  <path fill="#39A9DC" opacity="1.000000" stroke="none" d=" M77.134674,334.412659 C78.702248,334.892365 80.543777,335.539337 82.104485,336.599640 C82.349945,336.766388 81.322952,338.806122 80.525360,339.990143 C79.216309,338.238983 78.266205,336.477539 77.134674,334.412659 z"/>
  <path fill="#39A9DC" opacity="1.000000" stroke="none" d=" M139.941833,119.395523 C144.313599,120.180954 145.671387,123.194557 142.621399,126.060257 C141.471024,123.974319 140.734772,121.861877 139.941833,119.395523 z"/>
  <path fill="#39A9DC" opacity="1.000000" stroke="none" d=" M371.364624,581.888794 C373.613312,580.267761 376.225586,578.701904 379.254700,577.238342 C377.023743,578.875061 374.375946,580.409485 371.364624,581.888794 z"/>
  <path fill="#39A9DC" opacity="1.000000" stroke="none" d=" M439.942749,542.394897 C442.543335,543.745422 445.201569,545.449280 447.928558,547.493408 C445.331665,546.138489 442.666046,544.443420 439.942749,542.394897 z"/>
  <path fill="#39A9DC" opacity="1.000000" stroke="none" d=" M408.360840,529.888977 C409.952057,528.601685 411.903015,527.369751 414.263000,526.240112 C412.688232,527.543030 410.704407,528.743652 408.360840,529.888977 z"/>
  <path fill="#39A9DC" opacity="1.000000" stroke="none" d=" M463.360840,543.888977 C464.952087,542.601685 466.903015,541.369812 469.263000,540.240112 C467.688232,541.543030 465.704407,542.743652 463.360840,543.888977 z"/>
  <path fill="#39A9DC" opacity="1.000000" stroke="none" d=" M490.348816,470.964996 C491.248413,469.158783 492.454498,467.203857 494.023926,465.428253 C493.143311,467.343781 491.899323,469.080017 490.348816,470.964996 z"/>
  <path fill="#39A9DC" opacity="1.000000" stroke="none" d=" M216.090317,535.349365 C217.057953,535.776550 217.949478,536.551819 218.841003,537.327148 C217.863174,537.884033 216.885361,538.440918 215.536972,538.999207 C215.449005,537.899536 215.731598,536.798523 216.090317,535.349365 z"/>
  <path fill="#39A9DC" opacity="1.000000" stroke="none" d=" M40.094917,298.312439 C41.052620,298.748962 41.938808,299.496674 42.824993,300.244415 C41.901829,300.852295 40.978664,301.460144 39.630379,302.076111 C39.477974,300.930695 39.750690,299.777161 40.094917,298.312439 z"/>
  <path fill="#39A9DC" opacity="1.000000" stroke="none" d=" M544.564941,460.472900 C545.369141,458.780792 546.513062,457.014099 548.020996,455.427734 C547.224915,457.204834 546.064758,458.801605 544.564941,460.472900 z"/>
  <path fill="#39A9DC" opacity="1.000000" stroke="none" d=" M215.090317,543.349365 C216.057953,543.776550 216.949478,544.551819 217.841003,545.327148 C216.863190,545.884033 215.885376,546.440979 214.536987,546.999207 C214.449005,545.899536 214.731598,544.798523 215.090317,543.349365 z"/>
  <path fill="#39A9DC" opacity="1.000000" stroke="none" d=" M214.090332,550.349365 C215.057968,550.776489 215.949493,551.551819 216.841019,552.327148 C215.863205,552.884094 214.885376,553.440979 213.536987,553.999207 C213.449020,552.899536 213.731628,551.798523 214.090332,550.349365 z"/>
  <path fill="#39A9DC" opacity="1.000000" stroke="none" d=" M213.939911,562.372925 C214.916916,563.130127 215.948746,564.218811 216.969193,565.710632 C215.970123,564.977295 214.982437,563.840820 213.939911,562.372925 z"/>
  <path fill="#39A9DC" opacity="1.000000" stroke="none" d=" M240.931549,64.410835 C241.865524,64.517174 242.846039,64.992821 243.826538,65.468475 C243.180511,65.971924 242.534470,66.475365 241.527420,66.989655 C241.103622,66.260376 241.040833,65.520264 240.931549,64.410835 z"/>
  <path fill="#39A9DC" opacity="1.000000" stroke="none" d=" M56.930305,406.348419 C57.832077,406.420532 58.779114,406.799500 59.726158,407.178467 C59.162014,407.797577 58.597858,408.416656 57.619858,409.064026 C57.129204,408.279968 57.052391,407.467651 56.930305,406.348419 z"/>
  <path fill="#39A9DC" opacity="1.000000" stroke="none" d=" M81.930313,353.348419 C82.832069,353.420502 83.779106,353.799500 84.726135,354.178467 C84.161972,354.797546 83.597816,355.416626 82.619843,356.064026 C82.129211,355.279968 82.052406,354.467651 81.930313,353.348419 z"/>
  <path fill="#39A9DC" opacity="1.000000" stroke="none" d=" M80.931541,345.410828 C81.865509,345.517212 82.846008,345.992859 83.826515,346.468506 C83.180496,346.971924 82.534477,347.475372 81.527435,347.989624 C81.103645,347.260315 81.040855,346.520233 80.931541,345.410828 z"/>
  <path fill="#39A9DC" opacity="1.000000" stroke="none" d=" M67.939957,210.372955 C68.916962,211.130203 69.948784,212.218796 70.969223,213.710632 C69.970146,212.977356 68.982460,211.840851 67.939957,210.372955 z"/>
  <path fill="#39A9DC" opacity="1.000000" stroke="none" d=" M534.356689,466.889465 C535.292175,465.935333 536.583191,465.037079 538.273926,464.242920 C537.353149,465.213104 536.032654,466.079193 534.356689,466.889465 z"/>
  <path fill="#39A9DC" opacity="1.000000" stroke="none" d=" M127.955231,458.384155 C128.932159,459.130585 129.954651,460.207184 130.961075,461.683929 C129.963608,460.960815 128.982208,459.837555 127.955231,458.384155 z"/>
  <path fill="#39A9DC" opacity="1.000000" stroke="none" d=" M557.558105,247.472214 C558.413452,246.408966 559.614807,245.271667 561.244568,244.238342 C560.416687,245.360931 559.160339,246.379547 557.558105,247.472214 z"/>
  <path fill="#39A9DC" opacity="1.000000" stroke="none" d=" M549.558105,252.472198 C550.413452,251.408951 551.614746,250.271652 553.244568,249.238312 C552.416687,250.360916 551.160339,251.379532 549.558105,252.472198 z"/>
  <path fill="#39A9DC" opacity="1.000000" stroke="none" d=" M124.955238,454.384155 C125.932159,455.130585 126.954659,456.207153 127.961090,457.683929 C126.963615,456.960815 125.982208,455.837555 124.955238,454.384155 z"/>
  <path fill="#39A9DC" opacity="1.000000" stroke="none" d=" M40.057007,304.289551 C40.988163,304.442230 41.881237,304.888000 42.774307,305.333801 C42.154076,305.880981 41.533848,306.428192 40.540024,306.987885 C40.117260,306.194489 40.068089,305.388611 40.057007,304.289551 z"/>
  <path fill="#39A9DC" opacity="1.000000" stroke="none" d=" M77.099716,441.385620 C78.289162,441.424805 79.625168,441.740570 81.070396,442.419006 C79.868507,442.408539 78.557404,442.035339 77.099716,441.385620 z"/>
  <path fill="#39A9DC" opacity="1.000000" stroke="none" d=" M474.297974,537.998230 C474.621887,537.154236 475.248566,536.167908 476.281677,535.262329 C475.992340,536.180664 475.296570,537.018250 474.297974,537.998230 z"/>
  <path fill="#39A9DC" opacity="1.000000" stroke="none" d=" M161.320435,530.799805 C161.639282,529.947693 162.279480,529.061523 163.304779,528.264893 C163.007202,529.158142 162.324493,529.961914 161.320435,530.799805 z"/>
  <path fill="#39A9DC" opacity="1.000000" stroke="none" d=" M171.339691,521.972534 C171.654373,521.136475 172.266525,520.159241 173.283936,519.263000 C173.005188,520.173157 172.321152,521.002258 171.339691,521.972534 z"/>
  <path fill="#39A9DC" opacity="1.000000" stroke="none" d=" M177.339661,516.972534 C177.654388,516.136475 178.266525,515.159241 179.283936,514.263000 C179.005157,515.173157 178.321121,516.002258 177.339661,516.972534 z"/>
  <path fill="#39A9DC" opacity="1.000000" stroke="none" d=" M75.063629,217.377411 C75.626366,217.548325 76.301048,217.989120 76.966743,218.771881 C76.363701,218.624985 75.769638,218.136139 75.063629,217.377411 z"/>
  <path fill="#39A9DC" opacity="1.000000" stroke="none" d=" M79.063629,220.377411 C79.626373,220.548325 80.301056,220.989120 80.966743,221.771881 C80.363693,221.624985 79.769630,221.136139 79.063629,220.377411 z"/>
  <path fill="#39A9DC" opacity="1.000000" stroke="none" d=" M87.063644,226.377411 C87.626373,226.548309 88.301056,226.989105 88.966751,227.771866 C88.363701,227.624985 87.769638,227.136139 87.063644,226.377411 z"/>
  <path fill="#39A9DC" opacity="1.000000" stroke="none" d=" M541.339600,462.972565 C541.654358,462.136505 542.266479,461.159241 543.283936,460.263062 C543.005066,461.173248 542.321045,462.002289 541.339600,462.972565 z"/>
  <path fill="#39A9DC" opacity="1.000000" stroke="none" d=" M83.063629,223.377411 C83.626373,223.548325 84.301048,223.989120 84.966743,224.771881 C84.363693,224.624985 83.769630,224.136139 83.063629,223.377411 z"/>
  <path fill="#39A9DC" opacity="1.000000" stroke="none" d=" M91.061989,229.375519 C91.625015,229.539673 92.298340,229.971817 92.958237,230.744385 C92.353981,230.604355 91.763130,230.123932 91.061989,229.375519 z"/>
  <path fill="#39A9DC" opacity="1.000000" stroke="none" d=" M344.094452,585.380493 C344.606812,585.159790 345.260590,585.210754 345.956116,585.547607 C345.410492,585.773132 344.823212,585.712646 344.094452,585.380493 z"/>
  <path fill="#39A9DC" opacity="1.000000" stroke="none" d=" M458.344604,545.888672 C458.651733,545.278259 459.300934,544.722839 460.314087,544.258911 C460.014221,544.881409 459.350433,545.412537 458.344604,545.888672 z"/>
  <path fill="#39A9DC" opacity="1.000000" stroke="none" d=" M291.094452,548.380493 C291.606812,548.159851 292.260590,548.210754 292.956116,548.547607 C292.410492,548.773010 291.823212,548.712524 291.094452,548.380493 z"/>
  <path fill="#39A9DC" opacity="1.000000" stroke="none" d=" M303.094452,549.380493 C303.606812,549.159790 304.260590,549.210693 304.956116,549.547607 C304.410492,549.773071 303.823212,549.712585 303.094452,549.380493 z"/>
  <path fill="#39A9DC" opacity="1.000000" stroke="none" d=" M380.532715,577.485596 C380.737610,576.762878 381.285767,575.974060 382.255371,575.254395 C382.076508,576.022156 381.476257,576.720764 380.532715,577.485596 z"/>
  <path fill="#39A9DC" opacity="1.000000" stroke="none" d=" M264.344604,578.888672 C264.651733,578.278259 265.300934,577.722839 266.314087,577.258911 C266.014252,577.881470 265.350464,578.412598 264.344604,578.888672 z"/>
  <path fill="#39A9DC" opacity="1.000000" stroke="none" d=" M243.094482,579.380493 C243.606842,579.159851 244.260635,579.210754 244.956085,579.547607 C244.410461,579.773071 243.823196,579.712585 243.094482,579.380493 z"/>
  <path fill="#39A9DC" opacity="1.000000" stroke="none" d=" M251.094482,580.380554 C251.606842,580.159851 252.260635,580.210754 252.956085,580.547607 C252.410461,580.773071 251.823181,580.712646 251.094482,580.380554 z"/>
  <path fill="#39A9DC" opacity="1.000000" stroke="none" d=" M339.094452,584.380493 C339.606812,584.159851 340.260590,584.210754 340.956116,584.547607 C340.410492,584.773071 339.823212,584.712585 339.094452,584.380493 z"/>
  <path fill="#39A9DC" opacity="1.000000" stroke="none" d=" M62.094482,331.380493 C62.606842,331.159821 63.260647,331.210754 63.956097,331.547638 C63.410469,331.773102 62.823196,331.712616 62.094482,331.380493 z"/>
  <path fill="#39A9DC" opacity="1.000000" stroke="none" d=" M479.063232,487.660217 C478.615051,487.403687 478.114624,486.848419 477.860474,486.122101 C478.408142,486.421173 478.709564,486.891327 479.063232,487.660217 z"/>
  <path fill="#39A9DC" opacity="1.000000" stroke="none" d=" M488.063202,505.660217 C487.615021,505.403687 487.114594,504.848419 486.860474,504.122101 C487.408142,504.421204 487.709534,504.891327 488.063202,505.660217 z"/>
  <path fill="#39A9DC" opacity="1.000000" stroke="none" d=" M565.532715,242.485535 C565.737549,241.762909 566.285706,240.974030 567.255310,240.254303 C567.076477,241.022049 566.476196,241.720688 565.532715,242.485535 z"/>
  <path fill="#39A9DC" opacity="1.000000" stroke="none" d=" M562.532715,244.485550 C562.737549,243.762894 563.285706,242.974030 564.255310,242.254303 C564.076477,243.022079 563.476257,243.720703 562.532715,244.485550 z"/>
  <path fill="#39A9DC" opacity="1.000000" stroke="none" d=" M554.532715,249.485565 C554.737549,248.762909 555.285706,247.974045 556.255310,247.254303 C556.076477,248.022064 555.476257,248.720703 554.532715,249.485565 z"/>
  <path fill="#39A9DC" opacity="1.000000" stroke="none" d=" M52.094479,329.380554 C52.606842,329.159851 53.260647,329.210785 53.956093,329.547668 C53.410465,329.773132 52.823193,329.712646 52.094479,329.380554 z"/>
  <path fill="#39A9DC" opacity="1.000000" stroke="none" d=" M417.344574,525.888672 C417.651703,525.278198 418.300903,524.722839 419.314056,524.258911 C419.014221,524.881409 418.350464,525.412598 417.344574,525.888672 z"/>
  <path fill="#39A9DC" opacity="1.000000" stroke="none" d=" M57.094482,330.380493 C57.606842,330.159821 58.260647,330.210754 58.956097,330.547638 C58.410469,330.773102 57.823196,330.712616 57.094482,330.380493 z"/>
  <path fill="#39A9DC" opacity="1.000000" stroke="none" d=" M470.532745,540.485596 C470.737640,539.762939 471.285797,538.974060 472.255371,538.254395 C472.076538,539.022156 471.476288,539.720764 470.532745,540.485596 z"/>
  <path fill="#39A9DC" opacity="1.000000" stroke="none" d=" M155.060257,531.355286 C155.635208,531.110596 156.317429,531.112244 157.088776,531.450928 C156.507767,531.725830 155.837646,531.663696 155.060257,531.355286 z"/>
  <path fill="#39A9DC" opacity="1.000000" stroke="none" d=" M216.609512,530.104248 C217.066177,529.971313 217.252884,529.978760 217.719788,529.993042 C217.591782,530.632996 217.183563,531.265930 216.470886,531.948364 C216.224136,531.413391 216.281845,530.828979 216.609512,530.104248 z"/>
  <path fill="#39A9DC" opacity="1.000000" stroke="none" d=" M403.344574,531.888672 C403.651703,531.278198 404.300903,530.722839 405.314056,530.258911 C405.014252,530.881470 404.350464,531.412598 403.344574,531.888672 z"/>
  <path fill="#39A9DC" opacity="1.000000" stroke="none" d=" M398.344604,533.888672 C398.651733,533.278259 399.300934,532.722900 400.314087,532.258911 C400.014221,532.881409 399.350433,533.412537 398.344604,533.888672 z"/>
  <path fill="#39A9DC" opacity="1.000000" stroke="none" d=" M393.344604,535.888672 C393.651703,535.278259 394.300934,534.722839 395.314087,534.258911 C395.014221,534.881409 394.350464,535.412598 393.344604,535.888672 z"/>
  <path fill="#39A9DC" opacity="1.000000" stroke="none" d=" M68.094498,332.380554 C68.606857,332.159882 69.260666,332.210785 69.956108,332.547638 C69.410477,332.773102 68.823212,332.712616 68.094498,332.380554 z"/>
  <path fill="#39A9DC" opacity="1.000000" stroke="none" d=" M72.094498,333.380524 C72.606857,333.159851 73.260666,333.210754 73.956108,333.547607 C73.410477,333.773102 72.823212,333.712616 72.094498,333.380524 z"/>
  <path fill="#39A9DC" opacity="1.000000" stroke="none" d=" M491.277893,513.010498 C491.035309,512.906982 491.029083,512.703613 491.032166,512.194885 C491.199036,512.229919 491.356659,512.570251 491.277893,513.010498 z"/>
  <path fill="#39A9DC" opacity="1.000000" stroke="none" d=" M161.037018,196.436493 C156.992996,203.501709 152.389709,210.263641 148.252243,217.299484 C137.633270,235.357162 130.155182,254.646133 125.978920,275.217499 C122.912552,290.321747 121.349991,305.554993 122.045425,320.941162 C123.097221,344.211639 128.078888,366.650421 137.035828,388.191620 C144.526337,406.206116 154.766800,422.596985 167.182434,437.520386 C180.217072,453.187775 195.683670,466.209839 213.010620,477.034332 C233.965363,490.125244 256.655884,498.493286 280.884552,503.056793 C295.769073,505.860291 310.808136,506.916534 325.801788,505.832153 C346.424194,504.340698 366.553314,500.106049 385.819855,492.104065 C413.178497,480.741180 436.937317,464.328278 456.914551,442.494781 C461.001495,438.028076 464.520020,433.041229 468.945679,428.138550 C470.060547,427.988647 470.530273,427.994324 471.000000,428.000000 C469.286865,431.002106 468.033295,434.418304 465.772736,436.927155 C459.475677,443.915863 452.963104,450.738861 446.175781,457.252258 C418.229004,484.071167 384.916962,500.196808 346.887482,507.127533 C331.246918,509.978027 315.499634,510.877411 299.788910,509.841919 C270.317596,507.899506 242.414444,500.139587 216.530914,485.404541 C200.681396,476.381683 186.064102,465.763733 173.417908,452.755035 C146.113861,424.668304 128.559036,391.264191 121.161140,352.715576 C118.147949,337.014557 116.996315,321.057953 118.115761,305.146027 C120.884781,265.786926 133.998032,230.108810 157.781311,198.492813 C158.489548,197.551315 159.708893,196.994278 161.037018,196.436493 z"/>
  <path fill="#39A9DC" opacity="1.000000" stroke="none" d=" M471.372803,427.991699 C470.530273,427.994324 470.060547,427.988647 469.238647,427.970276 C484.900330,405.907013 496.094666,381.669189 502.008362,355.029785 C502.253052,353.927551 502.666626,352.862823 503.083984,351.390930 C503.966156,352.287903 505.673248,353.784027 505.431763,354.830414 C500.565948,375.911865 493.866394,396.287292 481.609619,414.435913 C478.957489,418.362915 476.584229,422.477570 473.972229,426.432983 C473.509216,427.134155 472.501709,427.475800 471.372803,427.991699 z"/>
  <path fill="#39A9DC" opacity="1.000000" stroke="none" d=" M501.627136,269.057434 C496.336945,249.343002 488.642792,230.779984 477.969269,213.459061 C476.609436,211.252289 475.326172,208.998291 473.958588,206.410156 C475.659119,207.514984 477.927002,208.651077 479.077057,210.487289 C489.665680,227.393555 498.082245,245.299301 502.964996,264.720245 C503.286377,265.998444 502.380951,267.585114 501.627136,269.057434 z"/>
  <path fill="#39A9DC" opacity="1.000000" stroke="none" d=" M423.963196,155.736954 C407.110168,144.522324 388.985291,135.574188 369.157043,129.420914 C372.003021,129.706451 375.149078,130.001404 378.084351,130.949158 C394.000946,136.088303 408.665161,143.805283 422.537903,153.069458 C423.220398,153.525208 423.500946,154.582809 423.963196,155.736954 z"/>
  <path fill="#39A9DC" opacity="1.000000" stroke="none" d=" M231.254135,139.241272 C228.420761,141.355927 225.170029,143.368393 221.572266,145.462296 C222.266327,140.163193 226.859985,140.114014 231.254135,139.241272 z"/>
  <path fill="#39A9DC" opacity="1.000000" stroke="none" d=" M503.630829,278.056274 C502.813538,275.937531 502.419067,273.788239 502.065308,271.321533 C505.810120,272.455566 506.589569,275.265686 503.630829,278.056274 z"/>
  <path fill="#39A9DC" opacity="1.000000" stroke="none" d=" M473.960693,205.689133 C472.298401,203.972565 470.651794,201.861099 468.957458,199.401855 C472.742218,199.393661 473.560577,202.180542 473.960693,205.689133 z"/>
  <path fill="#39A9DC" opacity="1.000000" stroke="none" d=" M170.729126,185.034302 C169.630417,186.963196 168.147095,188.884094 166.359497,190.944397 C166.231171,188.176788 166.522003,185.351151 170.729126,185.034302 z"/>
  <path fill="#39A9DC" opacity="1.000000" stroke="none" d=" M220.253479,145.241562 C218.751541,146.692368 216.831009,148.040497 214.566345,149.467377 C214.119568,145.563705 216.949997,145.316620 220.253479,145.241562 z"/>
  <path fill="#39A9DC" opacity="1.000000" stroke="none" d=" M165.702820,191.042465 C164.778595,192.760986 163.473251,194.466827 161.889847,196.272507 C160.983307,193.296326 162.076294,191.415726 165.702820,191.042465 z"/>
  <path fill="#39A9DC" opacity="1.000000" stroke="none" d=" M453.968750,181.733856 C452.712311,180.645065 451.466949,179.176453 450.087158,177.408234 C453.399139,176.527878 453.886658,178.753922 453.968750,181.733856 z"/>
  <path fill="#39A9DC" opacity="1.000000" stroke="none" d=" M503.537170,348.999207 C503.448944,347.899475 503.731506,346.798462 504.090271,345.349304 C505.058014,345.776459 505.949585,346.551758 506.841156,347.327087 C505.863434,347.884003 504.885681,348.440948 503.537170,348.999207 z"/>
  <path fill="#39A9DC" opacity="1.000000" stroke="none" d=" M504.537170,342.999146 C504.448944,341.899475 504.731506,340.798462 505.090240,339.349304 C506.057983,339.776489 506.949585,340.551788 507.841156,341.327026 C506.863403,341.883972 505.885651,342.440918 504.537170,342.999146 z"/>
  <path fill="#39A9DC" opacity="1.000000" stroke="none" d=" M505.537170,334.999146 C505.448975,333.899475 505.731537,332.798462 506.090271,331.349304 C507.057983,331.776489 507.949585,332.551758 508.841156,333.327026 C507.863403,333.883972 506.885651,334.440918 505.537170,334.999146 z"/>
  <path fill="#39A9DC" opacity="1.000000" stroke="none" d=" M430.963837,160.744873 C429.381714,159.977234 427.805756,158.840759 426.091187,157.406403 C427.625092,158.197708 429.297516,159.286865 430.963837,160.744873 z"/>
  <path fill="#39A9DC" opacity="1.000000" stroke="none" d=" M210.255936,151.245132 C209.324829,152.513443 207.972214,153.676849 206.307404,154.990311 C205.886566,152.474442 206.764709,150.755630 210.255936,151.245132 z"/>
  <path fill="#39A9DC" opacity="1.000000" stroke="none" d=" M238.276398,136.246323 C237.353119,137.215302 236.032516,138.080353 234.356567,138.889496 C235.293823,137.936523 236.586441,137.039459 238.276398,136.246323 z"/>
  <path fill="#39A9DC" opacity="1.000000" stroke="none" d=" M506.527649,297.989624 C506.103668,297.260315 506.040894,296.520203 505.931580,295.410828 C506.865570,295.517151 507.846130,295.992767 508.826691,296.468384 C508.180756,296.971863 507.534790,297.475372 506.527649,297.989624 z"/>
  <path fill="#39A9DC" opacity="1.000000" stroke="none" d=" M463.969116,192.710632 C462.970093,191.977219 461.982483,190.840729 460.940002,189.372910 C461.916931,190.130249 462.948730,191.218903 463.969116,192.710632 z"/>
  <path fill="#39A9DC" opacity="1.000000" stroke="none" d=" M468.960938,198.682709 C467.961487,197.956696 466.978027,196.829269 465.939850,195.371704 C466.915741,196.121490 467.946350,197.201401 468.960938,198.682709 z"/>
  <path fill="#39A9DC" opacity="1.000000" stroke="none" d=" M504.540283,282.987946 C504.117157,282.192291 504.067932,281.384186 504.056122,280.285767 C504.987122,280.441315 505.880676,280.887146 506.774231,281.332977 C506.154205,281.880493 505.534180,282.427979 504.540283,282.987946 z"/>
  <path fill="#39A9DC" opacity="1.000000" stroke="none" d=" M505.527649,289.989624 C505.103638,289.260315 505.040863,288.520203 504.931580,287.410828 C505.865570,287.517151 506.846130,287.992767 507.826691,288.468384 C507.180756,288.971863 506.534790,289.475342 505.527649,289.989624 z"/>
  <path fill="#39A9DC" opacity="1.000000" stroke="none" d=" M201.284210,157.266754 C200.992386,158.183929 200.296448,159.019775 199.297775,159.998108 C199.623383,159.155548 200.251740,158.170502 201.284210,157.266754 z"/>
  <path fill="#39A9DC" opacity="1.000000" stroke="none" d=" M197.284210,160.266754 C196.992386,161.183914 196.296448,162.019760 195.297760,162.998108 C195.623383,162.155548 196.251740,161.170486 197.284210,160.266754 z"/>
  <path fill="#39A9DC" opacity="1.000000" stroke="none" d=" M193.286346,163.267303 C193.005112,164.176376 192.320908,165.003952 191.339539,165.972565 C191.656036,165.137680 192.269714,164.161743 193.286346,163.267303 z"/>
  <path fill="#39A9DC" opacity="1.000000" stroke="none" d=" M434.966675,163.771973 C434.363770,163.625061 433.769897,163.136383 433.064148,162.377930 C433.626740,162.548828 434.301239,162.989517 434.966675,163.771973 z"/>
  <path fill="#39A9DC" opacity="1.000000" stroke="none" d=" M440.966675,168.771973 C440.363770,168.625061 439.769897,168.136383 439.064148,167.377930 C439.626740,167.548828 440.301239,167.989517 440.966675,168.771973 z"/>
  <path fill="#39A9DC" opacity="1.000000" stroke="none" d=" M186.286346,169.267303 C186.005096,170.176361 185.320892,171.003937 184.339539,171.972565 C184.656036,171.137680 185.269714,170.161743 186.286346,169.267303 z"/>
  <path fill="#39A9DC" opacity="1.000000" stroke="none" d=" M204.256958,155.258453 C204.075684,156.025711 203.474411,156.723373 202.533051,157.488968 C202.740982,156.767563 203.288971,155.978210 204.256958,155.258453 z"/>
  <path fill="#39A9DC" opacity="1.000000" stroke="none" d=" M213.256973,149.258453 C213.075699,150.025726 212.474411,150.723373 211.533051,151.488983 C211.740967,150.767563 212.288971,149.978210 213.256973,149.258453 z"/>
  <path fill="#39A9DC" opacity="1.000000" stroke="none" d=" M243.316177,134.262589 C243.014114,134.883881 242.350143,135.413864 241.344391,135.888733 C241.653168,135.279495 242.303711,134.725388 243.316177,134.262589 z"/>
  <path fill="#39A9DC" opacity="1.000000" stroke="none" d=" M366.956329,128.547562 C366.411011,128.773285 365.823822,128.712997 365.095215,128.381226 C365.607330,128.160339 366.260895,128.210938 366.956329,128.547562 z"/>
  <path fill="#39A9DC" opacity="1.000000" stroke="none" d=" M362.956329,127.547562 C362.411011,127.773285 361.823822,127.712997 361.095215,127.381218 C361.607330,127.160332 362.260895,127.210938 362.956329,127.547562 z"/>
  <path fill="#39A9DC" opacity="1.000000" stroke="none" d=" M358.956329,126.547554 C358.411011,126.773293 357.823822,126.712997 357.095215,126.381210 C357.607330,126.160324 358.260895,126.210930 358.956329,126.547554 z"/>
  <path fill="#39A9DC" opacity="1.000000" stroke="none" d=" M354.956329,125.547546 C354.411011,125.773277 353.823822,125.712990 353.095215,125.381210 C353.607330,125.160324 354.260895,125.210930 354.956329,125.547546 z"/>
  <path fill="#39A9DC" opacity="1.000000" stroke="none" d=" M348.956329,124.547562 C348.411011,124.773285 347.823822,124.712997 347.095215,124.381226 C347.607330,124.160332 348.260895,124.210938 348.956329,124.547562 z"/>
  <path fill="#39A9DC" opacity="1.000000" stroke="none" d=" M342.956329,123.547554 C342.411011,123.773285 341.823822,123.712990 341.095215,123.381210 C341.607330,123.160332 342.260895,123.210938 342.956329,123.547554 z"/>
  <path fill="#39A9DC" opacity="1.000000" stroke="none" d=" M334.956329,122.547554 C334.411011,122.773285 333.823822,122.712997 333.095215,122.381210 C333.607330,122.160332 334.260895,122.210930 334.956329,122.547554 z"/>
  <path fill="#00ABDF" opacity="1.000000" stroke="none" d=" M186.884338,302.041382 C184.527344,302.352081 182.170364,302.662781 179.406769,302.498291 C179.903687,293.802002 185.099091,287.582947 189.076218,280.817383 C189.202087,280.603271 191.842209,281.174988 192.336411,281.978973 C196.354904,288.516327 200.140900,295.196625 203.997696,301.833374 C200.864594,301.833374 197.731491,301.833374 194.016678,301.833374 C194.016678,321.222870 194.016678,340.150757 193.792786,359.721619 C194.963638,364.623138 196.129807,368.980042 197.893234,373.080017 C198.417847,374.299713 200.021408,377.615479 202.371979,374.120392 C202.521179,374.201202 202.670380,374.281982 202.938293,374.964600 C206.083847,380.454834 207.413666,381.100983 210.367599,379.118713 C210.517639,379.199432 210.667664,379.280182 210.939850,379.971863 C212.153244,382.057831 212.436264,385.798737 215.366455,382.118195 C215.517120,382.199402 215.667786,382.280579 215.915924,382.986694 C216.380798,384.235687 216.748199,384.859833 217.115601,385.483948 C217.533997,385.029297 217.952377,384.574646 218.370758,384.119995 C218.520157,384.200714 218.669571,384.281464 218.940491,384.972504 C220.153244,387.057831 220.436264,390.798737 223.366455,387.118195 C223.516708,387.198914 223.666977,387.279663 223.939606,387.971619 C225.153244,390.057831 225.436264,393.798737 228.366455,390.118195 C228.517120,390.199402 228.667786,390.280579 228.915924,390.986694 C229.380798,392.235687 229.748199,392.859833 230.115601,393.483948 C230.533981,393.029297 230.952362,392.574646 231.370743,392.119965 C231.520187,392.200714 231.669632,392.281464 231.938049,392.964355 C235.083832,398.454834 236.413666,399.100983 239.367599,397.118713 C240.131470,397.502838 240.895325,397.886993 241.836304,398.941345 C242.380798,400.235687 242.748199,400.859833 243.115601,401.483948 C243.533981,401.029266 243.952362,400.574615 244.370743,400.119965 C244.520157,400.200714 244.669571,400.281464 244.940491,400.972504 C246.153244,403.057831 246.436264,406.798737 249.366455,403.118195 C249.517120,403.199402 249.667786,403.280579 249.915924,403.986694 C250.380783,405.235687 250.748184,405.859833 251.115601,406.483948 C251.533981,406.029297 251.952362,405.574615 252.370743,405.119965 C253.133743,405.503845 253.896744,405.887695 254.834106,406.946960 C256.361511,411.617554 257.653473,412.219360 260.368073,410.118896 C260.518433,410.200043 260.668762,410.281219 260.914764,410.982452 C262.931335,415.467224 265.838165,416.856476 268.366882,415.118378 C268.517120,415.199188 268.667328,415.279968 268.936157,415.957703 C270.491119,417.811676 270.229980,422.705444 274.038300,418.880859 C274.038300,418.880859 274.457428,418.959473 275.077393,418.890747 C276.131561,417.181519 276.931274,415.543488 276.942688,413.900024 C277.041992,399.600586 277.000000,385.300140 277.000000,370.543182 C276.441956,364.906677 276.191498,359.670013 275.245178,354.562286 C274.149567,348.648987 272.441956,342.849121 271.437317,336.959076 C272.401611,336.676025 272.928589,336.433899 273.455566,336.191772 C273.455566,336.191772 273.665619,336.349121 273.511353,336.780579 C274.182526,338.474396 275.007965,339.736755 275.833374,340.999084 C277.222168,347.119629 279.565552,353.200348 279.822968,359.368103 C280.635529,378.837524 280.653168,398.339813 281.022766,417.828583 C281.056213,419.592163 281.409180,421.349701 281.835419,423.838318 C285.083984,429.454895 286.413696,430.100983 289.367645,428.118713 C289.517700,428.199524 289.667786,428.280304 289.936279,428.955383 C292.024658,433.180511 292.448975,433.322235 294.037415,430.879852 C294.037415,430.879852 294.457336,430.959167 295.093994,430.957092 C296.487091,429.090424 297.902710,427.226715 297.905212,425.361115 C298.014923,343.052368 298.000122,260.743439 297.998627,178.434525 C297.998596,177.268478 298.342773,175.925674 297.882874,174.977432 C297.177399,173.522827 295.912109,172.339706 294.884369,171.041367 C292.545624,171.018860 290.206879,170.996338 287.434204,170.509583 C288.387817,161.336548 294.280151,155.174393 298.836151,146.995132 C303.693054,155.791367 307.845825,163.312363 311.998596,170.833374 C308.861481,170.833359 305.724304,170.833359 302.000000,170.833359 C302.000000,173.242966 302.000000,175.183868 302.000000,177.124771 C302.000000,279.122375 302.007660,381.119965 301.951599,483.117523 C301.950317,485.433502 303.353058,488.901459 298.412964,488.445312 C297.999939,473.666626 298.031464,459.415009 297.985809,445.163574 C297.964783,438.605347 289.230804,430.511810 282.954041,431.110443 C282.302704,432.439728 281.095032,433.764618 281.084534,435.098938 C280.954987,451.591858 281.053894,468.086670 280.907349,484.579315 C280.894287,486.048706 279.578613,487.506561 278.433960,488.443970 C277.999969,469.429474 278.100739,450.939514 277.863647,432.453827 C277.836151,430.308533 275.935364,428.187256 274.903076,426.054840 C274.903076,426.054840 274.981842,426.017609 274.935486,425.708435 C273.684784,424.311279 272.612823,423.010162 271.256165,422.167328 C251.514771,409.902618 231.725082,397.715698 211.969971,385.473022 C204.134155,380.617065 194.810608,376.953308 192.507217,366.730957 C190.741272,358.893768 189.452805,350.809296 189.223709,342.798462 C188.887131,331.028168 189.821228,319.225800 189.853363,307.436127 C189.858261,305.640594 187.922485,303.839752 186.884338,302.041382 z"/>
  <path fill="#00ABDF" opacity="1.000000" stroke="none" d=" M423.884369,258.041382 C420.064667,258.041382 416.244965,258.041382 411.083069,258.041382 C416.685333,248.179214 421.824524,239.132217 427.458038,229.214981 C433.123474,238.992523 438.340454,247.996124 444.082001,257.904968 C439.038879,257.904968 435.295990,257.904968 431.000000,257.904968 C431.000000,260.122040 431.000000,261.897430 431.000000,263.672821 C431.000000,292.337708 430.714447,321.006989 431.152985,349.665161 C431.309052,359.862885 426.843781,367.249786 418.894440,371.781738 C406.928070,378.603790 394.146088,383.996796 381.697021,389.968475 C380.085663,390.741394 378.391785,391.342377 376.679443,392.046295 C377.970245,404.510590 372.281067,413.324280 362.330292,419.942535 C352.433136,426.525177 342.613556,433.226776 332.643036,439.695984 C326.798920,443.487793 323.618774,448.281372 323.904663,455.583710 C324.289062,465.401398 324.078979,475.246826 323.905487,485.076477 C323.882355,486.385803 322.578613,487.672546 321.433960,488.443970 C321.000000,476.092743 321.510040,464.237640 320.824799,452.452057 C320.349945,444.285522 324.616455,439.751587 330.451508,435.835327 C341.185608,428.630981 352.218597,421.859131 362.778900,414.413300 C369.418945,409.731598 373.391479,403.169281 373.024689,394.539246 C372.587769,384.260162 372.011230,373.971527 372.064728,363.689972 C372.227386,332.419556 372.769470,301.151184 372.961945,269.880768 C373.121826,243.899063 373.052368,217.915161 372.863495,191.933853 C372.851593,190.295883 370.921875,188.671875 369.884369,187.041382 C367.216980,187.018906 364.549561,186.996429 361.441833,186.523788 C363.480560,177.748306 368.617737,171.019135 373.867584,163.091431 C378.641449,171.722946 382.820038,179.278152 386.998627,186.833359 C383.530914,186.833359 380.063171,186.833359 376.006165,186.833359 C376.006165,252.860428 376.006165,318.411194 376.063446,384.782867 C377.361359,385.790131 378.783264,386.468536 379.815277,386.088440 C393.681854,380.981354 407.511963,375.537598 419.292542,366.505219 C422.964844,363.689606 426.571411,358.117737 426.663544,353.733093 C427.299561,323.474487 427.045654,293.195831 426.864044,262.924896 C426.854248,261.291168 424.921814,259.668976 423.884369,258.041382 z"/>
  <path fill="#00ABDF" opacity="1.000000" stroke="none" d=" M348.166626,362.001282 C347.266083,361.001923 346.461670,359.274994 345.446777,359.140900 C342.505157,358.752197 339.479004,359.003204 335.425781,359.003204 C340.382629,349.592804 344.662598,340.640442 351.897125,331.737213 C357.566010,341.327881 362.545685,349.752563 367.962250,358.916351 C363.044464,358.916351 359.398773,358.916351 355.527618,358.916351 C355.006592,365.318420 354.785492,371.543121 353.938599,377.681427 C352.363861,389.095551 348.509644,399.324982 338.870178,406.775421 C331.595093,412.398315 324.682861,418.522919 317.944611,424.785156 C316.290375,426.322540 315.155273,429.259583 315.125671,431.570374 C314.897461,449.400696 314.986786,467.235291 315.016449,485.068481 C315.020172,487.306183 315.337921,489.614105 311.435516,488.446106 C311.000000,436.114929 311.018799,384.311676 310.922760,332.508606 C310.919342,330.671753 309.777771,328.837006 309.166626,327.001282 C310.080963,319.766479 314.746918,315.200928 320.131073,310.916626 C327.394806,305.136719 333.105347,298.055054 336.771606,288.967468 C332.733521,288.967468 329.107941,288.967468 323.822174,288.967468 C329.753326,279.405731 335.133179,270.732758 341.271942,260.836304 C346.448517,270.597443 351.232452,279.618225 356.757507,290.036438 C351.487457,289.684418 347.561279,289.422180 343.410767,289.144958 C340.349945,301.448151 331.847870,309.715118 322.375946,317.238007 C318.040436,320.681396 315.137909,325.236145 315.107300,330.636169 C314.943237,359.596558 315.120422,388.558868 315.748230,417.967041 C316.777679,418.461029 317.422760,418.730682 317.672638,418.523590 C324.422150,412.929382 331.205414,407.370453 337.778748,401.574005 C338.962555,400.530090 339.254028,398.474304 339.957489,396.885681 C342.579315,392.094543 345.330200,387.366302 347.720245,382.462189 C348.233032,381.410034 347.439972,379.721527 347.972198,378.074371 C349.118225,373.212494 349.614746,368.606537 349.875366,363.987305 C349.910797,363.359436 348.765320,362.664948 348.166626,362.001282 z"/>
  <path fill="#00ABDF" opacity="1.000000" stroke="none" d=" M369.933441,187.505035 C370.921875,188.671875 372.851593,190.295883 372.863495,191.933853 C373.052368,217.915161 373.121826,243.899063 372.961945,269.880768 C372.769470,301.151184 372.227386,332.419556 372.064728,363.689972 C372.011230,373.971527 372.587769,384.260162 373.024689,394.539246 C373.391479,403.169281 369.418945,409.731598 362.778900,414.413300 C352.218597,421.859131 341.185608,428.630981 330.451508,435.835327 C324.616455,439.751587 320.349945,444.285522 320.824799,452.452057 C321.510040,464.237640 321.000000,476.092743 321.000275,488.375793 C320.001434,488.042542 318.143036,487.263885 318.131653,486.459076 C317.950165,473.638306 317.571808,460.792542 318.209900,448.000977 C318.481476,442.556366 322.268494,438.129517 327.026093,434.989441 C339.244659,426.925018 351.758606,419.249695 363.445740,410.474854 C366.855560,407.914764 369.297546,402.311127 369.711121,397.872223 C370.634033,387.966003 370.079590,377.913849 369.983856,367.922516 C369.692413,337.513489 369.078949,307.105164 369.072540,276.696472 C369.066315,247.120605 369.655029,217.544632 369.933441,187.505035 z"/>
  <path fill="#00ABDF" opacity="1.000000" stroke="none" d=" M294.933472,171.505035 C295.912109,172.339706 297.177399,173.522827 297.882874,174.977432 C298.342773,175.925674 297.998596,177.268478 297.998627,178.434525 C298.000122,260.743439 298.014923,343.052368 297.905212,425.361115 C297.902710,427.226715 296.487091,429.090424 295.307678,430.956665 C294.923126,413.627106 294.992645,396.295837 294.994507,378.964600 C295.002014,309.965973 294.988373,240.967331 294.933472,171.505035 z"/>
  <path fill="#00ABDF" opacity="1.000000" stroke="none" d=" M249.884338,257.041382 C245.739380,257.041382 241.594421,257.041382 236.231964,257.041382 C241.773071,247.738235 246.873581,239.174820 252.842804,229.152908 C256.992279,236.095932 260.452911,241.484512 263.510712,247.092697 C268.672791,256.560303 268.565430,256.616028 257.927643,257.025391 C257.457123,257.043488 256.991821,257.196594 255.136215,257.554565 C256.092041,274.988556 257.054352,292.540955 257.792847,310.728760 C258.530975,315.056274 259.492889,318.748383 260.454803,322.440521 C259.980774,322.640900 259.506714,322.841278 259.032654,323.041656 C257.693817,319.760620 256.224670,316.525360 255.052811,313.185730 C253.880493,309.844757 253.005386,306.399536 252.000000,302.531342 C252.000000,288.041779 252.000000,274.020905 251.993896,259.638580 C251.286636,258.531891 250.585495,257.786652 249.884338,257.041382 z"/>
  <path fill="#00ABDF" opacity="1.000000" stroke="none" d=" M423.933472,258.505066 C424.921814,259.668976 426.854248,261.291168 426.864044,262.924896 C427.045654,293.195831 427.299561,323.474487 426.663544,353.733093 C426.571411,358.117737 422.964844,363.689606 419.292542,366.505219 C407.511963,375.537598 393.681854,380.981354 379.815277,386.088440 C378.783264,386.468536 377.361359,385.790131 376.080933,385.243958 C390.328888,379.961487 404.249878,374.180542 416.729126,365.551575 C421.431519,362.300018 424.165680,357.729095 424.112427,351.324097 C423.856567,320.540741 423.988373,289.754150 423.933472,258.505066 z"/>
  <path fill="#00ABDF" opacity="1.000000" stroke="none" d=" M186.933441,302.505066 C187.922485,303.839752 189.858261,305.640594 189.853363,307.436127 C189.821228,319.225800 188.887131,331.028168 189.223709,342.798462 C189.452805,350.809296 190.741272,358.893768 192.507217,366.730957 C194.810608,376.953308 204.134155,380.617065 211.969971,385.473022 C231.725082,397.715698 251.514771,409.902618 271.256165,422.167328 C272.612823,423.010162 273.684784,424.311279 274.916992,425.747894 C268.661255,422.403656 262.318146,418.807892 256.105194,414.999756 C237.677536,403.704987 219.411789,392.141113 200.852997,381.067505 C192.883972,376.312622 189.002121,369.008942 188.231247,360.664276 C187.029999,347.661224 187.287292,334.520050 187.020493,321.435486 C186.895035,315.282196 186.988373,309.124451 186.933441,302.505066 z"/>
  <path fill="#00ABDF" opacity="1.000000" stroke="none" d=" M309.095978,327.465149 C309.777771,328.837006 310.919342,330.671753 310.922760,332.508606 C311.018799,384.311676 311.000000,436.114929 311.000305,488.375793 C310.360291,488.537628 309.280487,488.357666 309.166107,487.923431 C308.878418,486.831146 309.003265,485.624054 309.003357,484.462982 C309.007935,432.285004 309.016907,380.107025 309.095978,327.465149 z"/>
  <path fill="#00ABDF" opacity="1.000000" stroke="none" d=" M252.000000,303.000000 C253.005386,306.399536 253.880493,309.844757 255.052811,313.185730 C256.224670,316.525360 257.693817,319.760620 259.032654,323.041656 C259.506714,322.841278 259.980774,322.640900 260.454803,322.440521 C259.492889,318.748383 258.530975,315.056274 257.838989,311.158386 C259.846558,314.918121 261.584229,318.883545 263.342987,323.266418 C263.364105,323.683868 263.000000,324.000000 262.659912,324.053833 C259.824524,326.787750 261.739777,327.953125 264.005524,329.345886 C264.374390,330.297607 264.737732,330.903442 265.101074,331.509247 C265.400696,330.672821 265.700348,329.836426 266.165649,328.825043 C266.331329,328.650085 266.616455,328.261627 266.616455,328.261627 C267.076355,328.925049 267.536255,329.588501 267.979614,330.921265 C266.586273,334.735016 267.772247,336.440643 271.000000,337.000000 C272.441956,342.849121 274.149567,348.648987 275.245178,354.562286 C276.191498,359.670013 276.441956,364.906677 276.694427,370.543213 C275.981445,370.999847 275.574036,370.999664 275.166626,370.999451 C273.455261,361.947937 272.402985,352.697845 269.759949,343.927063 C268.397827,339.406891 264.077271,335.824646 261.318604,331.669128 C255.714981,323.228088 251.574509,314.199768 251.210464,303.444580 C251.626175,303.009552 251.813095,303.004761 252.000000,303.000000 z"/>
  <path fill="#00ABDF" opacity="1.000000" stroke="none" d=" M274.944397,426.518066 C275.935364,428.187256 277.836151,430.308533 277.863647,432.453827 C278.100739,450.939514 277.999969,469.429474 278.000275,488.375793 C274.152496,489.747925 275.020294,486.925232 275.016968,484.959473 C274.984131,465.633453 274.990509,446.307373 274.944397,426.518066 z"/>
  <path fill="#00ABDF" opacity="1.000000" stroke="none" d=" M283.096222,431.424744 C289.230804,430.511810 297.964783,438.605347 297.985809,445.163574 C298.031464,459.415009 297.999939,473.666626 298.000275,488.375793 C294.792389,489.685791 294.979645,487.592743 294.984436,485.474152 C295.015289,471.846527 294.769226,458.212646 295.135498,444.594788 C295.250885,440.304443 293.609924,437.950378 290.271790,436.042114 C287.886749,434.678741 285.580048,433.178345 283.096222,431.424744 z"/>
  <path fill="#00ABDF" opacity="1.000000" stroke="none" d=" M204.357574,301.894623 C200.140900,295.196625 196.354904,288.516327 192.336411,281.978973 C191.842209,281.174988 189.202087,280.603271 189.076218,280.817383 C185.099091,287.582947 179.903687,293.802002 179.000381,302.428223 C177.725266,302.833374 176.449936,302.833374 173.988586,302.833374 C179.339630,292.989655 184.262619,283.933380 189.748032,273.842468 C194.228577,281.307129 198.183212,287.899261 202.142151,294.488800 C203.232178,296.303131 204.428696,298.063446 205.363678,299.953735 C205.586563,300.404297 204.955658,301.277191 204.357574,301.894623 z"/>
  <path fill="#00ABDF" opacity="1.000000" stroke="none" d=" M387.359924,186.894409 C382.820038,179.278152 378.641449,171.722946 373.867584,163.091431 C368.617737,171.019135 363.480560,177.748306 361.001038,186.453491 C359.727753,186.833359 358.454956,186.833359 356.461060,186.833359 C362.205353,177.143906 367.610260,168.026901 373.382019,158.291107 C378.625183,167.586349 383.422821,176.030273 388.107574,184.536392 C388.418365,185.100662 387.869995,186.138092 387.359924,186.894409 z"/>
  <path fill="#00ABDF" opacity="1.000000" stroke="none" d=" M312.359894,170.894409 C307.845825,163.312363 303.693054,155.791367 298.836151,146.995132 C294.280151,155.174393 288.387817,161.336548 287.000427,170.439331 C285.722076,170.833359 284.443634,170.833359 282.108124,170.833359 C285.606018,164.648605 288.664642,159.168320 291.797485,153.730820 C293.423615,150.908508 295.065277,148.078018 296.971619,145.448120 C297.378143,144.887283 299.674316,144.760361 299.898712,145.141220 C304.610474,153.139053 309.164001,161.230637 313.660675,169.352463 C313.813599,169.628723 313.054962,170.409714 312.359894,170.894409 z"/>
  <path fill="#00ABDF" opacity="1.000000" stroke="none" d=" M275.095978,371.463501 C275.574036,370.999664 275.981445,370.999847 276.694427,371.000000 C277.000000,385.300140 277.041992,399.600586 276.942688,413.900024 C276.931274,415.543488 276.131561,417.181519 275.290619,418.890564 C274.931030,403.281860 274.978180,387.604675 275.095978,371.463501 z"/>
  <path fill="#00ABDF" opacity="1.000000" stroke="none" d=" M252.000000,302.531342 C251.813095,303.004761 251.626175,303.009552 251.159027,303.025391 C250.585846,301.663910 250.044876,300.292480 250.038681,298.918640 C249.981537,286.255402 250.016876,273.591736 250.401535,260.464111 C251.185181,260.000000 251.592590,260.000000 252.000000,260.000000 C252.000000,274.020905 252.000000,288.041779 252.000000,302.531342 z"/>
  <path fill="#00ABDF" opacity="1.000000" stroke="none" d=" M339.649536,397.024780 C339.254028,398.474304 338.962555,400.530090 337.778748,401.574005 C331.205414,407.370453 324.422150,412.929382 317.672638,418.523590 C317.422760,418.730682 316.777679,418.461029 316.134338,418.152679 C323.748505,410.982513 331.545074,404.073181 339.649536,397.024780 z"/>
  <path fill="#00ABDF" opacity="1.000000" stroke="none" d=" M202.204559,373.860046 C200.021408,377.615479 198.417847,374.299713 197.893234,373.080017 C196.129807,368.980042 194.963638,364.623138 193.838959,360.158630 C196.751709,364.501709 199.394424,369.050690 202.204559,373.860046 z"/>
  <path fill="#00ABDF" opacity="1.000000" stroke="none" d=" M348.096039,362.463257 C348.765320,362.664948 349.910797,363.359436 349.875366,363.987305 C349.614746,368.606537 349.118225,373.212494 348.289917,377.890808 C347.931061,372.947784 347.978241,367.936523 348.096039,362.463257 z"/>
  <path fill="#00ABDF" opacity="1.000000" stroke="none" d=" M239.191467,396.853455 C236.413666,399.100983 235.083832,398.454834 232.027466,393.202972 C234.337082,394.089020 236.676208,395.338593 239.191467,396.853455 z"/>
  <path fill="#00ABDF" opacity="1.000000" stroke="none" d=" M289.191528,427.853455 C286.413696,430.100983 285.083984,429.454895 282.027527,424.203064 C284.337158,425.089081 286.676270,426.338623 289.191528,427.853455 z"/>
  <path fill="#00ABDF" opacity="1.000000" stroke="none" d=" M210.191467,378.853455 C207.413666,381.100983 206.083847,380.454834 203.027466,375.202972 C205.337067,376.089020 207.676208,377.338593 210.191467,378.853455 z"/>
  <path fill="#00ABDF" opacity="1.000000" stroke="none" d=" M268.190918,414.853058 C265.838165,416.856476 262.931335,415.467224 261.005554,411.222107 C263.338776,412.090393 265.676880,413.339081 268.190918,414.853058 z"/>
  <path fill="#00ABDF" opacity="1.000000" stroke="none" d=" M260.194153,409.856506 C257.653473,412.219360 256.361511,411.617554 255.004578,407.232056 C256.673889,407.759247 258.347076,408.676697 260.194153,409.856506 z"/>
  <path fill="#00ABDF" opacity="1.000000" stroke="none" d=" M273.898743,418.569733 C270.229980,422.705444 270.491119,417.811676 269.026367,416.197144 C270.585083,416.645905 272.172150,417.452240 273.898743,418.569733 z"/>
  <path fill="#00ABDF" opacity="1.000000" stroke="none" d=" M271.000000,337.000000 C267.772247,336.440643 266.586273,334.735016 268.002808,331.238159 C268.333069,330.965698 268.628662,331.014801 269.066528,331.546234 C269.954498,332.446533 270.705353,332.833649 271.456177,333.220734 C271.456177,333.220734 271.652740,333.365417 271.477386,333.848816 C271.201355,335.221466 271.100677,336.110718 271.000000,337.000000 z"/>
  <path fill="#00ABDF" opacity="1.000000" stroke="none" d=" M293.881256,430.578918 C292.448975,433.322235 292.024658,433.180511 290.026337,429.194611 C291.240326,429.319031 292.482727,429.798523 293.881256,430.578918 z"/>
  <path fill="#00ABDF" opacity="1.000000" stroke="none" d=" M228.192535,389.855164 C225.436264,393.798737 225.153244,390.057831 224.029816,388.211060 C225.337967,388.423584 226.678299,389.007843 228.192535,389.855164 z"/>
  <path fill="#00ABDF" opacity="1.000000" stroke="none" d=" M215.192535,381.855164 C212.436264,385.798737 212.153244,382.057831 211.029816,380.211060 C212.337967,380.423584 213.678299,381.007843 215.192535,381.855164 z"/>
  <path fill="#00ABDF" opacity="1.000000" stroke="none" d=" M223.192535,386.855164 C220.436264,390.798737 220.153244,387.057831 219.029816,385.211060 C220.337967,385.423584 221.678299,386.007843 223.192535,386.855164 z"/>
  <path fill="#00ABDF" opacity="1.000000" stroke="none" d=" M249.192535,402.855164 C246.436264,406.798737 246.153244,403.057831 245.029816,401.211060 C246.337967,401.423584 247.678299,402.007843 249.192535,402.855164 z"/>
  <path fill="#00ABDF" opacity="1.000000" stroke="none" d=" M263.566498,323.552856 C264.588043,324.865417 265.407196,326.308990 266.421387,328.007080 C266.616455,328.261627 266.331329,328.650085 265.832336,328.825043 C264.888885,329.000000 264.444458,329.000000 263.995667,328.630737 C263.660889,326.841003 263.330444,325.420502 263.000000,324.000000 C263.000000,324.000000 263.364105,323.683868 263.566498,323.552856 z"/>
  <path fill="#00ABDF" opacity="1.000000" stroke="none" d=" M275.897858,340.662781 C275.007965,339.736755 274.182526,338.474396 273.579102,336.893005 C274.521515,337.824768 275.241943,339.075592 275.897858,340.662781 z"/>
  <path fill="#00ABDF" opacity="1.000000" stroke="none" d=" M271.437317,336.959076 C271.100677,336.110718 271.201355,335.221466 271.548553,333.947937 C272.257904,334.284821 272.720764,335.005920 273.319580,335.959412 C272.928589,336.433899 272.401611,336.676025 271.437317,336.959076 z"/>
  <path fill="#00ABDF" opacity="1.000000" stroke="none" d=" M244.214127,399.879547 C243.952362,400.574615 243.533981,401.029266 243.115601,401.483948 C242.748199,400.859833 242.380798,400.235687 242.006958,399.226746 C242.686172,399.107635 243.371841,399.373383 244.214127,399.879547 z"/>
  <path fill="#00ABDF" opacity="1.000000" stroke="none" d=" M251.993896,259.638580 C251.592590,260.000000 251.185181,260.000000 250.472198,260.000244 C250.105255,259.260284 250.043884,258.520050 249.933426,257.410583 C250.585495,257.786652 251.286636,258.531891 251.993896,259.638580 z"/>
  <path fill="#00ABDF" opacity="1.000000" stroke="none" d=" M252.214127,404.879547 C251.952362,405.574615 251.533981,406.029297 251.115601,406.483948 C250.748184,405.859833 250.380783,405.235687 250.006943,404.226746 C250.686172,404.107666 251.371841,404.373383 252.214127,404.879547 z"/>
  <path fill="#00ABDF" opacity="1.000000" stroke="none" d=" M218.214142,383.879578 C217.952377,384.574646 217.533997,385.029297 217.115601,385.483948 C216.748199,384.859833 216.380798,384.235687 216.006958,383.226746 C216.686172,383.107666 217.371841,383.373413 218.214142,383.879578 z"/>
  <path fill="#00ABDF" opacity="1.000000" stroke="none" d=" M231.214127,391.879517 C230.952362,392.574646 230.533981,393.029297 230.115601,393.483948 C229.748199,392.859833 229.380798,392.235687 229.006958,391.226746 C229.686172,391.107635 230.371841,391.373383 231.214127,391.879517 z"/>
  <path fill="#00ABDF" opacity="1.000000" stroke="none" d=" M271.295837,332.975586 C270.705353,332.833649 269.954498,332.446533 269.273804,331.634003 C269.941101,331.715851 270.538300,332.223145 271.295837,332.975586 z"/>
  <path fill="#00ABDF" opacity="1.000000" stroke="none" d=" M262.659943,324.053833 C263.330444,325.420502 263.660889,326.841003 263.995667,328.630737 C261.739777,327.953125 259.824524,326.787750 262.659943,324.053833 z"/>
  <path fill="#00ABDF" opacity="1.000000" stroke="none" d=" M264.005524,329.345886 C264.444458,329.000000 264.888885,329.000000 265.666687,329.000000 C265.700348,329.836426 265.400696,330.672821 265.101074,331.509247 C264.737732,330.903442 264.374390,330.297607 264.005524,329.345886 z"/>
</svg>