<svg width="54" height="54" viewBox="0 0 54 54" fill="none" xmlns="http://www.w3.org/2000/svg">
<path fill-rule="evenodd" clip-rule="evenodd" d="M3.5 27C3.5 14.0213 14.0213 3.5 27 3.5C27.6337 3.5 28.2612 3.52505 28.8816 3.57416C29.7075 3.63953 30.43 3.02304 30.4953 2.1972C30.5607 1.37135 29.9442 0.648881 29.1184 0.583512C28.4192 0.528173 27.7128 0.5 27 0.5C12.3645 0.5 0.5 12.3645 0.5 27C0.5 41.6355 12.3645 53.5 27 53.5C41.6355 53.5 53.5 41.6355 53.5 27C53.5 26.5839 53.4904 26.17 53.4714 25.7584C53.4332 24.9308 52.7314 24.291 51.9038 24.3292C51.0763 24.3674 50.4364 25.0692 50.4746 25.8967C50.4915 26.2623 50.5 26.6301 50.5 27C50.5 39.9787 39.9787 50.5 27 50.5C14.0213 50.5 3.5 39.9787 3.5 27ZM35.4797 1.88617C34.6948 1.62123 33.8437 2.04276 33.5788 2.82768C33.3138 3.6126 33.7354 4.46368 34.5203 4.72861C41.6048 7.11987 47.1789 12.7999 49.4244 19.9495C49.6727 20.7398 50.5146 21.1793 51.305 20.9311C52.0953 20.6828 52.5348 19.8409 52.2866 19.0505C49.7532 10.9846 43.4709 4.58347 35.4797 1.88617ZM32.9851 9.48998C32.2011 9.2221 31.3485 9.64043 31.0806 10.4243C30.8127 11.2083 31.231 12.0609 32.015 12.3288C36.6914 13.9269 40.3627 17.7012 41.819 22.4406C42.0623 23.2325 42.9015 23.6772 43.6934 23.4338C44.4853 23.1905 44.93 22.3513 44.6866 21.5594C42.9473 15.8987 38.5687 11.3981 32.9851 9.48998ZM28.5492 18.0059C28.8221 17.2237 29.6774 16.8108 30.4596 17.0837C33.5811 18.1727 36.0291 20.6909 37.0213 23.8576C37.2689 24.6481 36.8289 25.4897 36.0383 25.7374C35.2478 25.9851 34.4062 25.545 34.1585 24.7545C33.4508 22.4956 31.6996 20.6936 29.4714 19.9163C28.6892 19.6434 28.2763 18.7881 28.5492 18.0059ZM27.5 27C27.5 27.2761 27.2761 27.5 27 27.5C26.7239 27.5 26.5 27.2761 26.5 27C26.5 26.7239 26.7239 26.5 27 26.5C27.2761 26.5 27.5 26.7239 27.5 27ZM30.5 27C30.5 28.933 28.933 30.5 27 30.5C25.067 30.5 23.5 28.933 23.5 27C23.5 25.067 25.067 23.5 27 23.5C28.933 23.5 30.5 25.067 30.5 27Z" fill="#002052"/>
</svg>
