<svg width="45" height="45" viewBox="0 0 45 45" fill="none" xmlns="http://www.w3.org/2000/svg">
<path fill-rule="evenodd" clip-rule="evenodd" d="M34.2531 6.00429L36.3744 3.88299L40.617 8.12563L38.4957 10.2469L34.2531 6.00429ZM32.1318 3.88297L34.9602 1.05456C35.7412 0.273515 37.0076 0.273515 37.7886 1.05456L43.4455 6.71142C44.2265 7.49247 44.2265 8.7588 43.4455 9.53985L40.617 12.3683L42.7384 14.4896C43.5194 15.2706 43.5194 16.537 42.7384 17.318L16.5754 43.481C15.7944 44.262 14.5281 44.262 13.747 43.481L1.01909 30.753C0.23804 29.972 0.238042 28.7057 1.01909 27.9246L14.1032 14.8406L14.1122 14.8314L27.182 1.76167C27.5504 1.39326 28.0268 1.19863 28.5093 1.17777C29.0497 1.15438 29.5978 1.34902 30.0105 1.76167L32.1318 3.88297ZM3.84752 29.3388L14.8077 18.3787L26.1214 29.6924L15.1612 40.6525L3.84752 29.3388ZM16.9407 16.2457L28.2543 27.5594L39.9099 15.9038L28.5962 4.59013L16.9407 16.2457ZM32.4854 12.0148C33.0712 12.6005 33.0712 13.5503 32.4854 14.1361L30.7176 15.9038L32.4853 17.6716C33.0711 18.2574 33.0711 19.2071 32.4853 19.7929C31.8996 20.3787 30.9498 20.3787 30.364 19.7929L28.5963 18.0252L26.8285 19.7929C26.2427 20.3787 25.293 20.3787 24.7072 19.7929C24.1214 19.2071 24.1214 18.2574 24.7072 17.6716L26.475 15.9038L24.7072 14.136C24.1214 13.5503 24.1214 12.6005 24.7072 12.0147C25.293 11.4289 26.2427 11.4289 26.8285 12.0147L28.5963 13.7825L30.3641 12.0148C30.9498 11.429 31.8996 11.429 32.4854 12.0148ZM13.3934 25.4497C12.8076 24.864 11.8579 24.864 11.2721 25.4497C10.6863 26.0355 10.6863 26.9853 11.2721 27.5711L16.929 33.2279C17.5147 33.8137 18.4645 33.8137 19.0503 33.2279C19.6361 32.6421 19.6361 31.6924 19.0503 31.1066L13.3934 25.4497Z" fill="#002052"/>
</svg>
