<svg width="49" height="49" viewBox="0 0 49 49" fill="none" xmlns="http://www.w3.org/2000/svg">
<path fill-rule="evenodd" clip-rule="evenodd" d="M8.96682 38.2511L7.3169 40.8438L8.15622 41.6831L10.7489 40.0332L8.96682 38.2511ZM10.2066 35.2482C9.30191 34.3435 7.79204 34.5092 7.10511 35.5887L4.35525 39.9099C3.85198 40.7008 3.96552 41.735 4.62836 42.3979L6.60212 44.3716C7.26496 45.0345 8.29923 45.148 9.09008 44.6447L13.4113 41.8949C14.4907 41.208 14.6565 39.6981 13.7518 38.7933L10.2066 35.2482ZM33.546 41.617L36.728 44.799L37.7887 43.7383L34.6067 40.5563L33.546 41.617ZM39.91 41.617L40.9707 40.5563L37.7887 37.3744L36.728 38.435L39.91 41.617ZM35.6674 35.253L33.1925 32.7782L32.1318 33.8388L34.6067 36.3137L35.6674 35.253ZM28.2428 33.4853L26.1214 35.6066C25.3404 36.3876 25.3404 37.654 26.1214 38.435L35.3138 47.6274C36.0949 48.4085 37.3612 48.4085 38.1422 47.6274L43.7991 41.9706C44.5801 41.1895 44.5801 39.9232 43.7991 39.1421L34.6067 29.9497C33.8257 29.1687 32.5593 29.1687 31.7783 29.9497L29.657 32.071L28.2428 30.6568L27.5357 29.9497L26.1215 31.364L26.8286 32.0711L28.2428 33.4853ZM30.0105 35.9602L32.4854 38.435L31.4247 39.4957L28.9499 37.0208L30.0105 35.9602ZM11.9793 20.0502L8.79732 16.8682L9.85799 15.8076L13.04 18.9896L11.9793 20.0502ZM16.222 15.8076L15.1613 16.8683L11.9793 13.6863L13.04 12.6256L16.222 15.8076ZM8.44378 8.02942L10.9186 10.5043L9.85798 11.5649L7.38312 9.09008L8.44378 8.02942ZM4.20113 12.2721L5.2618 11.2114L7.73666 13.6863L6.676 14.7469L4.20113 12.2721ZM17.6362 22.8787L15.5148 20.7574L13.3935 22.8787C12.6125 23.6597 11.3461 23.6597 10.5651 22.8787L1.37271 13.6863C0.59166 12.9052 0.59166 11.6389 1.37271 10.8579L7.02956 5.201C7.81061 4.41995 9.07694 4.41995 9.85799 5.201L19.0504 14.3934C19.8314 15.1744 19.8314 16.4408 19.0504 17.2218L16.929 19.3431L19.0504 21.4645L21.1717 19.3431C21.9527 18.5621 23.219 18.5621 24.0001 19.3431L29.6569 25C30.438 25.781 30.438 27.0474 29.6569 27.8284L18.3432 39.1421C17.5622 39.9232 16.2959 39.9232 15.5148 39.1421L9.85795 33.4853C9.0769 32.7042 9.0769 31.4379 9.85795 30.6568L17.6362 22.8787ZM27.5356 22.8787L28.9887 21.4256C31.72 23.6132 35.4304 23.9768 38.4872 22.5165C39.3852 22.0876 40.2268 21.5012 40.9706 20.7573L38.8493 18.636L30.364 10.1507L28.2427 8.02943C27.4989 8.77324 26.9125 9.61485 26.4835 10.5129C25.0233 13.5697 25.3869 17.2801 27.5745 20.0114L26.1214 21.4644L27.5356 22.8787ZM30.364 18.636C31.9344 20.2064 34.1587 20.7243 36.1604 20.1898L28.8103 12.8397C28.2758 14.8414 28.7937 17.0657 30.364 18.636ZM37.4351 11.5649C36.6541 10.7839 35.3878 10.7839 34.6067 11.5649C33.8257 12.346 33.8257 13.6123 34.6067 14.3934C35.3878 15.1744 36.6541 15.1744 37.4351 14.3934C38.2162 13.6123 38.2162 12.346 37.4351 11.5649ZM39.4958 14.454C40.8626 13.0872 40.8626 10.8711 39.4958 9.5043C38.129 8.13747 35.9129 8.13747 34.546 9.5043L32.4247 7.38298C34.9631 4.84457 39.0787 4.84457 41.6171 7.38298C44.1555 9.92139 44.1555 14.037 41.6171 16.5754L39.4958 14.454ZM43.3242 5.67588C46.2532 8.60481 46.2532 13.3535 43.3242 16.2825L45.4455 18.4038C49.5461 14.3033 49.5461 7.65506 45.4455 3.55456C41.345 -0.545949 34.6968 -0.545946 30.5963 3.55456L32.7176 5.67588C35.6466 2.74695 40.3953 2.74694 43.3242 5.67588ZM26.8285 26.4142L16.929 36.3137L12.6864 32.0711L22.5859 22.1716L26.8285 26.4142Z" fill="#002052"/>
</svg>
