<svg width="46" height="46" viewBox="0 0 46 46" fill="none" xmlns="http://www.w3.org/2000/svg">
<path fill-rule="evenodd" clip-rule="evenodd" d="M27.2426 10.2721L25.8284 8.85788L27.9497 6.73656L32.1924 2.49392L34.3137 0.372596L36.435 2.49392L43.5061 9.56498L45.6274 11.6863L43.5061 13.8076L13.8076 43.5061L11.6863 45.6274L9.56495 43.5061L2.49388 36.435L0.372559 34.3137L2.49388 32.1924L6.73652 27.9498L8.85784 25.8284L10.2721 27.2427L27.2426 10.2721ZM21.9393 19.8181L12.3934 29.364L14.1611 31.1317L16.2825 29.0104L23.7071 21.5858L23.7071 21.5858L21.9393 19.8181ZM33.253 12.0399L30.071 8.85788L34.3137 4.61524L41.3848 11.6863L11.6863 41.3848L4.6152 34.3137L8.85784 30.0711L12.0398 33.2531C13.2114 34.4246 15.1109 34.4246 16.2825 33.2531L33.253 16.2825C34.4246 15.1109 34.4246 13.2114 33.253 12.0399ZM35.7279 8.85789C36.3137 9.44367 36.3137 10.3934 35.7279 10.9792C35.1421 11.565 34.1923 11.565 33.6066 10.9792C33.0208 10.3934 33.0208 9.44367 33.6066 8.85789C34.1923 8.2721 35.1421 8.2721 35.7279 8.85789ZM10.9792 35.7279C11.5649 35.1421 11.5649 34.1924 10.9792 33.6066C10.3934 33.0208 9.44363 33.0208 8.85784 33.6066C8.27205 34.1924 8.27205 35.1421 8.85784 35.7279C9.44363 36.3137 10.3934 36.3137 10.9792 35.7279Z" fill="#002052"/>
</svg>
