<svg width="55" height="56" viewBox="0 0 55 56" fill="none" xmlns="http://www.w3.org/2000/svg">
<path fill-rule="evenodd" clip-rule="evenodd" d="M54.226 48.922C54.7355 48.2688 54.619 47.3263 53.9658 46.8167C53.3126 46.3072 52.3701 46.4237 51.8605 47.0769C50.5865 48.7101 46.5552 52.1516 41.1396 52.2776C40.3114 52.2969 39.6556 52.9839 39.6749 53.8121C39.6942 54.6403 40.3812 55.2961 41.2094 55.2768C47.7906 55.1236 52.5861 51.0243 54.226 48.922ZM48.7396 44.8125C49.4597 45.2221 49.7114 46.1379 49.3019 46.858C48.6094 48.0755 46.5096 50.1521 43.0925 50.2316C42.2643 50.2509 41.5772 49.5952 41.558 48.767C41.5387 47.9388 42.1944 47.2517 43.0226 47.2325C45.204 47.1817 46.4257 45.8467 46.6942 45.3748C47.1037 44.6547 48.0195 44.4029 48.7396 44.8125ZM17.0488 0.433359C17.427 0.581231 17.7291 0.876104 17.886 1.2506L17.8861 1.25077L17.8861 1.25085L17.887 1.25293L17.8912 1.26297L17.9094 1.30591C17.9258 1.34442 17.9506 1.40233 17.9831 1.47749C18.0482 1.62787 18.1443 1.84703 18.2663 2.11793C18.5106 2.66054 18.8573 3.40674 19.2665 4.22142C20.1094 5.89923 21.1347 7.69736 22.0272 8.68542C22.2794 8.96459 22.8981 9.33355 23.9553 9.69629C24.9556 10.0395 26.1464 10.3113 27.3179 10.5203C28.4822 10.728 29.5894 10.8671 30.4081 10.9543C30.8164 10.9977 31.1504 11.028 31.3808 11.0473C31.4959 11.057 31.585 11.0639 31.6444 11.0683L31.7106 11.0731L31.7261 11.0742L31.7293 11.0744L31.7294 11.0744L31.7297 11.0744C32.3703 11.117 32.9129 11.5625 33.0792 12.1826L34.2942 16.7132C34.3165 16.778 34.3346 16.845 34.3481 16.914L35.5262 21.3068C35.5501 21.3708 35.57 21.4371 35.5854 21.5056C35.5915 21.5329 35.5968 21.5602 35.6014 21.5874L36.7672 25.9344C36.9562 26.0248 37.1804 26.1339 37.4328 26.2602C38.2267 26.6576 39.3082 27.2298 40.4533 27.9275C41.5941 28.6225 42.8252 29.4586 43.9047 30.3878C44.966 31.3013 45.9782 32.3871 46.5638 33.6025C47.7489 36.062 47.1382 38.8799 46.4521 40.8072C46.0934 41.8147 45.6754 42.6858 45.3487 43.3035C45.1846 43.6138 45.0417 43.8638 44.9378 44.0392C44.8858 44.127 44.8434 44.1964 44.813 44.2456C44.7977 44.2702 44.7854 44.2897 44.7764 44.304L44.7653 44.3215L44.7616 44.3273L44.7602 44.3294L44.7597 44.3303C44.7594 44.3307 44.7592 44.331 43.4987 43.5179L44.7592 44.331C44.434 44.8351 43.8398 45.097 43.2484 44.9969C42.9329 44.9435 42.4897 44.8787 41.9459 44.7991L41.9456 44.7991L41.9455 44.7991C40.3802 44.5701 37.9811 44.2192 35.3917 43.6679C31.8851 42.9214 27.8054 41.7682 24.4837 39.9145C22.7637 38.9547 20.4363 37.0809 17.9876 34.9128C15.5085 32.7177 12.8059 30.1309 10.311 27.665C7.81403 25.1971 5.51477 22.8402 3.84032 21.101C3.00284 20.231 2.32103 19.515 1.84822 19.016C1.61179 18.7665 1.42759 18.5712 1.30226 18.4381L1.15924 18.2859L1.12241 18.2466L1.11292 18.2365L1.11046 18.2339L1.10979 18.2332C1.10962 18.233 1.10951 18.2329 2.20475 17.208L1.10951 18.2329C0.81881 17.9222 0.673702 17.5028 0.710311 17.0789C1.16538 11.8098 5.19591 7.62207 8.73297 4.8806C10.5432 3.47755 12.3206 2.37923 13.6425 1.6323C14.3049 1.25798 14.8568 0.969779 15.2463 0.773694C15.4411 0.675606 15.5955 0.600434 15.7031 0.548933C15.7569 0.523179 15.799 0.503332 15.8286 0.489487L15.8636 0.473228L15.8738 0.468494L15.8771 0.466979L15.8783 0.466435C15.8788 0.466223 15.8792 0.466034 16.5026 1.83036L15.8792 0.466034C16.2486 0.297254 16.6706 0.285464 17.0488 0.433359ZM30.0904 13.9374C30.2185 13.951 30.3399 13.9635 30.4538 13.9748L30.9917 15.9804L27.4311 16.5393C26.6127 16.6677 26.0534 17.4353 26.1818 18.2537C26.3103 19.0722 27.0779 19.6315 27.8963 19.503L31.7732 18.8944L32.2615 20.7153L29.0458 21.4381C28.2375 21.6198 27.7296 22.4223 27.9113 23.2306C28.0929 24.0388 28.8955 24.5468 29.7037 24.3651L33.0393 23.6154L34.0512 27.3886C34.169 27.8277 34.4795 28.1897 34.8956 28.3729L34.8957 28.3729L34.8959 28.373L34.8982 28.374L34.9117 28.38L34.9707 28.4065C35.0239 28.4306 35.1043 28.4674 35.2084 28.5159C35.4168 28.6131 35.7195 28.7575 36.0899 28.9428C36.8323 29.3145 37.8371 29.8465 38.8924 30.4894C39.952 31.135 41.035 31.876 41.9475 32.6615C42.8781 33.4625 43.5356 34.229 43.8612 34.9047C44.2068 35.622 44.2926 36.484 44.1987 37.4033C43.9711 37.3796 43.71 37.3512 43.4197 37.3177C42.2807 37.1862 40.6976 36.9765 38.9244 36.6643C35.3328 36.0318 31.1318 35.0064 28.2235 33.4474C26.8346 32.7029 24.733 31.0363 22.2786 28.8352C19.8588 26.665 17.2009 24.0721 14.7254 21.5708C12.2521 19.0717 9.97197 16.6755 8.30951 14.9032C7.47857 14.0174 6.8026 13.2882 6.33479 12.7808C6.10089 12.5272 5.91906 12.3291 5.79595 12.1946L5.74593 12.1399C7.0211 10.3101 8.75421 8.65975 10.5708 7.25177C12.2356 5.96141 13.8836 4.94182 15.1183 4.24419C15.3532 4.11143 15.5727 3.99064 15.7738 3.88217C15.9996 4.37075 16.2752 4.94989 16.5858 5.56805C17.4273 7.24326 18.6077 9.37541 19.801 10.6964C20.5918 11.5718 21.834 12.1401 22.9817 12.5339C24.1862 12.9472 25.5441 13.2512 26.791 13.4736C28.045 13.6973 29.2258 13.8453 30.0904 13.9374ZM4.24831 14.9435C4.71363 15.4475 5.35181 16.1351 6.1215 16.9557C7.79595 18.7407 10.0955 21.1574 12.5931 23.6811C15.0887 26.2026 17.7932 28.8423 20.2756 31.0686C22.7235 33.2638 25.0641 35.1576 26.8061 36.0914C30.1593 37.889 34.7598 38.977 38.4041 39.6188C40.249 39.9437 41.8926 40.1614 43.0757 40.2979C43.1962 40.3118 43.312 40.3249 43.4228 40.3372C43.1814 40.9393 42.9244 41.4689 42.7089 41.878C42.5641 41.8566 42.4125 41.8344 42.2546 41.8113L42.2545 41.8113L42.2542 41.8113L42.254 41.8113C40.6892 41.5824 38.4978 41.2619 36.0163 40.7337C32.6084 40.0082 28.8752 38.9297 25.9456 37.2948C24.5398 36.5104 22.4281 34.8375 19.9764 32.6667C17.5551 30.5228 14.8959 27.9785 12.4198 25.5313C9.94573 23.086 7.66466 20.7478 6.00154 19.0203C5.17025 18.1568 4.49396 17.4465 4.02588 16.9525L3.77988 16.6926C3.8773 16.0983 4.03639 15.5148 4.24831 14.9435Z" fill="#002052"/>
</svg>
