<svg xmlns="http://www.w3.org/2000/svg" version="1.1" width="3300" height="2000"><g id="Notes"><style>
    text {
      font-family: monospace;
      text-anchor: middle;
    }
    text.emphasis {
      font-weight:bold;
    }
    text.lanchor {
      text-anchor: start;
    }
  </style><rect height="2200" id="artboard" fill="white" width="3300" x="0" y="0"/><line id="" style="fill:none;stroke:black;stroke-width:0.5;" x1="263" x2="3036" y1="292" y2="292"/><text class="lanchor emphasis" transform="matrix(1 0 0 1 263 322)">Weight/Scale Variations</text><text transform="matrix(1 0 0 1 559.711 322)">Ultralight</text><text transform="matrix(1 0 0 1 856.422 322)">Thin</text><text transform="matrix(1 0 0 1 1153.13 322)">Light</text><text transform="matrix(1 0 0 1 1449.84 322)">Regular</text><text transform="matrix(1 0 0 1 1746.56 322)">Medium</text><text transform="matrix(1 0 0 1 2043.27 322)">Semibold</text><text transform="matrix(1 0 0 1 2339.98 322)">Bold</text><text transform="matrix(1 0 0 1 2636.69 322)">Heavy</text><text transform="matrix(1 0 0 1 2933.4 322)">Black</text><text id="template-version" style="text-anchor: end;" transform="matrix(1 0 0 1 3036 1933)">Template v.1.0</text><text class="lanchor" transform="matrix(1 0 0 1 263 726)">Small</text><text class="lanchor" transform="matrix(1 0 0 1 263 1156)">Medium</text><text class="lanchor" transform="matrix(1 0 0 1 263 1586)">Large</text></g><g id="Guides"><g id="H-reference" style="fill:#27AAE1;stroke:none;" transform="matrix(1 0 0 1 339 696)"><path d="M 54.9316 0 L 57.666 0 L 30.5664 -70.459 L 28.0762 -70.459 L 0.976562 0 L 3.66211 0 L 12.9395 -24.4629 L 45.7031 -24.4629 Z M 29.1992 -67.0898 L 29.4434 -67.0898 L 44.8242 -26.709 L 13.8184 -26.709 Z"/></g><line id="Baseline-S" style="fill:none;stroke:#27AAE1;opacity:1;stroke-width:0.577;" x1="263" x2="3036" y1="696" y2="696"/><line id="Capline-S" style="fill:none;stroke:#27AAE1;opacity:1;stroke-width:0.577;" x1="263" x2="3036" y1="625.541" y2="625.541"/><g id="H-reference" style="fill:#27AAE1;stroke:none;" transform="matrix(1 0 0 1 339 1126)"><path d="M 54.9316 0 L 57.666 0 L 30.5664 -70.459 L 28.0762 -70.459 L 0.976562 0 L 3.66211 0 L 12.9395 -24.4629 L 45.7031 -24.4629 Z M 29.1992 -67.0898 L 29.4434 -67.0898 L 44.8242 -26.709 L 13.8184 -26.709 Z"/></g><line id="Baseline-M" style="fill:none;stroke:#27AAE1;opacity:1;stroke-width:0.577;" x1="263" x2="3036" y1="1126" y2="1126"/><line id="Capline-M" style="fill:none;stroke:#27AAE1;opacity:1;stroke-width:0.577;" x1="263" x2="3036" y1="1055.54" y2="1055.54"/><g id="H-reference" style="fill:#27AAE1;stroke:none;" transform="matrix(1 0 0 1 339 1556)"><path d="M 54.9316 0 L 57.666 0 L 30.5664 -70.459 L 28.0762 -70.459 L 0.976562 0 L 3.66211 0 L 12.9395 -24.4629 L 45.7031 -24.4629 Z M 29.1992 -67.0898 L 29.4434 -67.0898 L 44.8242 -26.709 L 13.8184 -26.709 Z"/></g><line id="Baseline-L" style="fill:none;stroke:#27AAE1;opacity:1;stroke-width:0.577;" x1="263" x2="3036" y1="1556" y2="1556"/><line id="Capline-L" style="fill:none;stroke:#27AAE1;opacity:1;stroke-width:0.577;" x1="263" x2="3036" y1="1485.54" y2="1485.54"/><rect height="119.336" id="left-margin" style="fill:darkred;stroke:none;opacity:0.4;" width="12.4512" x="1394.06" y="1030.79"/><rect height="119.336" id="right-margin" style="fill:darkgreen;stroke:none;opacity:0.4;" width="12.4512" x="1502.5112" y="1030.79"/><rect x="1406.5112" y="1045" width="96" height="96" fill="none" stroke="blue" stroke-dasharray="5"/><rect x="1394.06" y="1030.79" width="120.9024" height="119.336" fill="none" stroke="blue"/></g><g id="Symbols"><g id="Bold-L" transform="matrix(1 0 0 1 2266 1556)"><path d="M139.643 -69.737 V11.694 Q139.643 17.991 135.165 22.421 Q130.687 26.851 124.324 26.851 H30.476 Q24.179 26.851 19.749 22.421 Q15.319 17.991 15.319 11.694 V-82.154 Q15.319 -88.517 19.749 -92.995 Q24.179 -97.472 30.476 -97.472 H111.907 L139.643 -69.737 Z M124.324 -62.965  105.135 -82.154 H30.476 Q30.476 -82.154 30.476 -82.154 Q30.476 -82.154 30.476 -82.154 V11.694 Q30.476 11.694 30.476 11.694 Q30.476 11.694 30.476 11.694 H124.324 Q124.324 11.694 124.324 11.694 Q124.324 11.694 124.324 11.694 V-62.965 Z M77.362 1.213 Q84.334 1.213 89.252 -3.668 Q94.17 -8.548 94.17 -15.52 Q94.17 -22.491 89.29 -27.409 Q84.41 -32.327 77.438 -32.327 Q70.466 -32.327 65.548 -27.447 Q60.63 -22.567 60.63 -15.595 Q60.63 -8.624 65.51 -3.706 Q70.39 1.213 77.362 1.213 Z M39.023 -50.549 H96.75 V-73.607 H39.023 V-50.549 Z"/></g><g id="Semibold-L" transform="matrix(1 0 0 1 1970.27 1556)"><path d="M137.82 -68.966 V12.325 Q137.82 17.566 134.027 21.332 Q130.234 25.099 124.955 25.099 H29.845 Q24.604 25.099 20.838 21.332 Q17.071 17.566 17.071 12.325 V-82.785 Q17.071 -88.064 20.838 -91.857 Q24.604 -95.65 29.845 -95.65 H111.136 L137.82 -68.966 Z M124.955 -63.245  105.415 -82.785 H29.845 Q29.845 -82.785 29.845 -82.785 Q29.845 -82.785 29.845 -82.785 V12.325 Q29.845 12.325 29.845 12.325 Q29.845 12.325 29.845 12.325 H124.955 Q124.955 12.325 124.955 12.325 Q124.955 12.325 124.955 12.325 V-63.245 Z M77.362 1.843 Q84.334 1.843 89.252 -3.037 Q94.17 -7.917 94.17 -14.889 Q94.17 -21.86 89.29 -26.778 Q84.41 -31.697 77.438 -31.697 Q70.466 -31.697 65.548 -26.816 Q60.63 -21.936 60.63 -14.965 Q60.63 -7.993 65.51 -3.075 Q70.39 1.843 77.362 1.843 Z M38.392 -51.18 H96.119 V-74.238 H38.392 V-51.18 Z"/></g><g id="Medium-L" transform="matrix(1 0 0 1 1674.31 1556)"><path d="M136.453 -68.388 V12.798 Q136.453 17.248 133.173 20.516 Q129.894 23.784 125.428 23.784 H29.372 Q24.922 23.784 21.654 20.516 Q18.386 17.248 18.386 12.798 V-83.258 Q18.386 -87.724 21.654 -91.003 Q24.922 -94.283 29.372 -94.283 H110.558 L136.453 -68.388 Z M125.428 -63.456  105.626 -83.258 H29.372 Q29.372 -83.258 29.372 -83.258 Q29.372 -83.258 29.372 -83.258 V12.798 Q29.372 12.798 29.372 12.798 Q29.372 12.798 29.372 12.798 H125.428 Q125.428 12.798 125.428 12.798 Q125.428 12.798 125.428 12.798 V-63.456 Z M77.362 2.317 Q84.334 2.317 89.252 -2.563 Q94.17 -7.444 94.17 -14.415 Q94.17 -21.387 89.29 -26.305 Q84.41 -31.223 77.438 -31.223 Q70.466 -31.223 65.548 -26.343 Q60.63 -21.463 60.63 -14.491 Q60.63 -7.52 65.51 -2.601 Q70.39 2.317 77.362 2.317 Z M37.918 -51.653 H95.646 V-74.712 H37.918 V-51.653 Z"/></g><g id="Regular-L" transform="matrix(1 0 0 1 1378.56 1556)"><path d="M135.45 -67.964 V13.145 Q135.45 17.015 132.548 19.918 Q129.645 22.82 125.775 22.82 H29.025 Q25.155 22.82 22.253 19.918 Q19.35 17.015 19.35 13.145 V-83.605 Q19.35 -87.475 22.253 -90.377 Q25.155 -93.28 29.025 -93.28 H110.134 L135.45 -67.964 Z M125.775 -63.61  105.78 -83.605 H29.025 Q29.025 -83.605 29.025 -83.605 Q29.025 -83.605 29.025 -83.605 V13.145 Q29.025 13.145 29.025 13.145 Q29.025 13.145 29.025 13.145 H125.775 Q125.775 13.145 125.775 13.145 Q125.775 13.145 125.775 13.145 V-63.61 Z M77.362 2.664 Q84.334 2.664 89.252 -2.216 Q94.17 -7.097 94.17 -14.068 Q94.17 -21.04 89.29 -25.958 Q84.41 -30.876 77.438 -30.876 Q70.466 -30.876 65.548 -25.996 Q60.63 -21.116 60.63 -14.144 Q60.63 -7.172 65.51 -2.254 Q70.39 2.664 77.362 2.664 Z M37.571 -52 H95.299 V-75.059 H37.571 V-52 Z"/></g><g id="Light-L" transform="matrix(1 0 0 1 1082.77 1556)"><path d="M132.225 -66.475 V10.292 Q132.225 14.086 129.47 16.84 Q126.716 19.595 122.922 19.595 H31.878 Q28.084 19.595 25.33 16.84 Q22.575 14.086 22.575 10.292 V-80.752 Q22.575 -84.546 25.33 -87.3 Q28.084 -90.055 31.878 -90.055 H108.645 L132.225 -66.475 Z M124.907 -63.176  105.346 -82.737 H31.878 Q31.01 -82.737 30.452 -82.178 Q29.893 -81.62 29.893 -80.752 V10.292 Q29.893 11.16 30.452 11.718 Q31.01 12.277 31.878 12.277 H122.922 Q123.79 12.277 124.348 11.718 Q124.907 11.16 124.907 10.292 V-63.176 Z M77.362 -1.864 Q83.254 -1.864 87.44 -6.013 Q91.627 -10.162 91.627 -16.053 Q91.627 -21.944 87.478 -26.131 Q83.329 -30.318 77.438 -30.318 Q71.546 -30.318 67.36 -26.169 Q63.173 -22.02 63.173 -16.129 Q63.173 -10.238 67.322 -6.051 Q71.471 -1.864 77.362 -1.864 Z M40.362 -51.69 H93.066 V-72.268 H40.362 V-51.69 Z"/></g><g id="Thin-L" transform="matrix(1 0 0 1 787.282 1556)"><path d="M129 -64.987 V7.439 Q129 11.157 126.394 13.764 Q123.787 16.37 120.069 16.37 H34.731 Q31.013 16.37 28.406 13.764 Q25.8 11.157 25.8 7.439 V-77.899 Q25.8 -81.617 28.406 -84.224 Q31.013 -86.83 34.731 -86.83 H107.157 L129 -64.987 Z M124.038 -62.742  104.912 -81.868 H34.731 Q32.994 -81.868 31.878 -80.752 Q30.762 -79.636 30.762 -77.899 V7.439 Q30.762 9.176 31.878 10.292 Q32.994 11.408 34.731 11.408 H120.069 Q121.806 11.408 122.922 10.292 Q124.038 9.176 124.038 7.439 V-62.742 Z M77.362 -6.391 Q82.173 -6.391 85.629 -9.809 Q89.084 -13.226 89.084 -18.038 Q89.084 -22.849 85.667 -26.304 Q82.249 -29.76 77.438 -29.76 Q72.627 -29.76 69.171 -26.342 Q65.716 -22.925 65.716 -18.113 Q65.716 -13.302 69.133 -9.847 Q72.551 -6.391 77.362 -6.391 Z M43.153 -51.38 H90.833 V-69.477 H43.153 V-51.38 Z"/></g><g id="Ultralight-L" transform="matrix(1 0 0 1 491.205 1556)"><path d="M127.065 -64.094 V5.728 Q127.065 9.4 124.548 11.917 Q122.03 14.435 118.358 14.435 H36.443 Q32.77 14.435 30.253 11.917 Q27.735 9.4 27.735 5.728 V-76.187 Q27.735 -79.86 30.253 -82.378 Q32.77 -84.895 36.443 -84.895 H106.264 L127.065 -64.094 Z M123.517 -62.481  104.651 -81.347 H36.443 Q34.185 -81.347 32.734 -79.896 Q31.283 -78.445 31.283 -76.187 V5.728 Q31.283 7.985 32.734 9.436 Q34.185 10.888 36.443 10.888 H118.358 Q120.615 10.888 122.066 9.436 Q123.517 7.985 123.517 5.728 V-62.481 Z M77.362 -9.107 Q81.525 -9.107 84.542 -12.086 Q87.559 -15.065 87.559 -19.228 Q87.559 -23.392 84.58 -26.408 Q81.601 -29.425 77.438 -29.425 Q73.275 -29.425 70.258 -26.446 Q67.241 -23.467 67.241 -19.304 Q67.241 -15.141 70.22 -12.124 Q73.199 -9.107 77.362 -9.107 Z M44.828 -51.194 H89.494 V-67.802 H44.828 V-51.194 Z"/></g><g id="Bold-M" transform="matrix(1 0 0 1 2281.8 1126)"><path d="M109.25 -61.98 V-1.73 Q109.25 4.895 104.688 9.458 Q100.125 14.02 93.5 14.02 H26.5 Q19.875 14.02 15.312 9.458 Q10.75 4.895 10.75 -1.73 V-68.73 Q10.75 -75.355 15.312 -79.917 Q19.875 -84.48 26.5 -84.48 H86.75 L109.25 -61.98 Z M93.5 -55.355  80.125 -68.73 H26.5 Q26.5 -68.73 26.5 -68.73 Q26.5 -68.73 26.5 -68.73 V-1.73 Q26.5 -1.73 26.5 -1.73 Q26.5 -1.73 26.5 -1.73 H93.5 Q93.5 -1.73 93.5 -1.73 Q93.5 -1.73 93.5 -1.73 V-55.355 Z M60 -6.73 Q66.25 -6.73 70.625 -11.105 Q75 -15.48 75 -21.73 Q75 -27.98 70.625 -32.355 Q66.25 -36.73 60 -36.73 Q53.75 -36.73 49.375 -32.355 Q45 -27.98 45 -21.73 Q45 -15.48 49.375 -11.105 Q53.75 -6.73 60 -6.73 Z M31.5 -43.73 H76.5 V-63.73 H31.5 V-43.73 Z"/></g><g id="Semibold-M" transform="matrix(1 0 0 1 1985.97 1126)"><path d="M107.402 -61.219 V-1.078 Q107.402 4.46 103.546 8.316 Q99.69 12.172 94.152 12.172 H25.848 Q20.31 12.172 16.454 8.316 Q12.598 4.46 12.598 -1.078 V-69.382 Q12.598 -74.92 16.454 -78.776 Q20.31 -82.632 25.848 -82.632 H85.989 L107.402 -61.219 Z M94.152 -55.627  80.397 -69.382 H25.848 Q25.848 -69.382 25.848 -69.382 Q25.848 -69.382 25.848 -69.382 V-1.078 Q25.848 -1.078 25.848 -1.078 Q25.848 -1.078 25.848 -1.078 H94.152 Q94.152 -1.078 94.152 -1.078 Q94.152 -1.078 94.152 -1.078 V-55.627 Z M60 -6.078 Q66.25 -6.078 70.625 -10.453 Q75 -14.828 75 -21.078 Q75 -27.328 70.625 -31.703 Q66.25 -36.078 60 -36.078 Q53.75 -36.078 49.375 -31.703 Q45 -27.328 45 -21.078 Q45 -14.828 49.375 -10.453 Q53.75 -6.078 60 -6.078 Z M30.848 -44.382 H75.848 V-64.382 H30.848 V-44.382 Z"/></g><g id="Medium-M" transform="matrix(1 0 0 1 1689.91 1126)"><path d="M106.016 -60.648 V-0.589 Q106.016 4.134 102.69 7.46 Q99.364 10.786 94.641 10.786 H25.359 Q20.636 10.786 17.31 7.46 Q13.984 4.134 13.984 -0.589 V-69.871 Q13.984 -74.594 17.31 -77.92 Q20.636 -81.246 25.359 -81.246 H85.418 L106.016 -60.648 Z M94.641 -55.83  80.6 -69.871 H25.359 Q25.359 -69.871 25.359 -69.871 Q25.359 -69.871 25.359 -69.871 V-0.589 Q25.359 -0.589 25.359 -0.589 Q25.359 -0.589 25.359 -0.589 H94.641 Q94.641 -0.589 94.641 -0.589 Q94.641 -0.589 94.641 -0.589 V-55.83 Z M60 -5.589 Q66.25 -5.589 70.625 -9.964 Q75 -14.339 75 -20.589 Q75 -26.839 70.625 -31.214 Q66.25 -35.589 60 -35.589 Q53.75 -35.589 49.375 -31.214 Q45 -26.839 45 -20.589 Q45 -14.339 49.375 -9.964 Q53.75 -5.589 60 -5.589 Z M30.359 -44.871 H75.359 V-64.871 H30.359 V-44.871 Z"/></g><g id="Regular-M" transform="matrix(1 0 0 1 1394.06 1126)"><path d="M105 -60.23 V-0.23 Q105 3.895 102.062 6.833 Q99.125 9.77 95 9.77 H25 Q20.875 9.77 17.938 6.833 Q15 3.895 15 -0.23 V-70.23 Q15 -74.355 17.938 -77.292 Q20.875 -80.23 25 -80.23 H85 L105 -60.23 Z M95 -55.98  80.75 -70.23 H25 Q25 -70.23 25 -70.23 Q25 -70.23 25 -70.23 V-0.23 Q25 -0.23 25 -0.23 Q25 -0.23 25 -0.23 H95 Q95 -0.23 95 -0.23 Q95 -0.23 95 -0.23 V-55.98 Z M60 -5.23 Q66.25 -5.23 70.625 -9.605 Q75 -13.98 75 -20.23 Q75 -26.48 70.625 -30.855 Q66.25 -35.23 60 -35.23 Q53.75 -35.23 49.375 -30.855 Q45 -26.48 45 -20.23 Q45 -13.98 49.375 -9.605 Q53.75 -5.23 60 -5.23 Z M30 -45.23 H75 V-65.23 H30 V-45.23 Z"/></g><g id="Light-M" transform="matrix(1 0 0 1 1098.18 1126)"><path d="M102.5 -59.172 V-1.769 Q102.5 2.02 99.875 4.645 Q97.25 7.27 93.461 7.27 H26.539 Q22.75 7.27 20.125 4.645 Q17.5 2.02 17.5 -1.769 V-68.691 Q17.5 -72.48 20.125 -75.105 Q22.75 -77.73 26.539 -77.73 H83.942 L102.5 -59.172 Z M95 -55.98  80.75 -70.23 H26.539 Q25.866 -70.23 25.433 -69.797 Q25 -69.364 25 -68.691 V-1.769 Q25 -1.095 25.433 -0.663 Q25.866 -0.23 26.539 -0.23 H93.461 Q94.135 -0.23 94.567 -0.663 Q95 -1.095 95 -1.769 V-55.98 Z M60 -8.884 Q65.192 -8.884 68.846 -12.538 Q72.5 -16.192 72.5 -21.384 Q72.5 -26.576 68.846 -30.23 Q65.192 -33.884 60 -33.884 Q54.808 -33.884 51.154 -30.23 Q47.5 -26.576 47.5 -21.384 Q47.5 -16.192 51.154 -12.538 Q54.808 -8.884 60 -8.884 Z M31.923 -45.807 H72.981 V-63.307 H31.923 V-45.807 Z"/></g><g id="Thin-M" transform="matrix(1 0 0 1 802.565 1126)"><path d="M100 -58.115 V-3.307 Q100 0.145 97.688 2.458 Q95.375 4.77 91.923 4.77 H28.077 Q24.625 4.77 22.312 2.458 Q20 0.145 20 -3.307 V-67.153 Q20 -70.605 22.312 -72.917 Q24.625 -75.23 28.077 -75.23 H82.885 L100 -58.115 Z M95 -55.98  80.75 -70.23 H28.077 Q26.731 -70.23 25.865 -69.365 Q25 -68.499 25 -67.153 V-3.307 Q25 -1.961 25.865 -1.095 Q26.731 -0.23 28.077 -0.23 H91.923 Q93.269 -0.23 94.135 -1.095 Q95 -1.961 95 -3.307 V-55.98 Z M60 -12.538 Q64.135 -12.538 67.067 -15.47 Q70 -18.403 70 -22.538 Q70 -26.672 67.067 -29.605 Q64.135 -32.538 60 -32.538 Q55.865 -32.538 52.933 -29.605 Q50 -26.672 50 -22.538 Q50 -18.403 52.933 -15.47 Q55.865 -12.538 60 -12.538 Z M33.846 -46.384 H70.962 V-61.384 H33.846 V-46.384 Z"/></g><g id="Ultralight-M" transform="matrix(1 0 0 1 506.415 1126)"><path d="M98.5 -57.48 V-4.23 Q98.5 -0.98 96.375 1.145 Q94.25 3.27 91 3.27 H29 Q25.75 3.27 23.625 1.145 Q21.5 -0.98 21.5 -4.23 V-66.23 Q21.5 -69.48 23.625 -71.605 Q25.75 -73.73 29 -73.73 H82.25 L98.5 -57.48 Z M95 -55.98  80.75 -70.23 H29 Q27.25 -70.23 26.125 -69.105 Q25 -67.98 25 -66.23 V-4.23 Q25 -2.48 26.125 -1.355 Q27.25 -0.23 29 -0.23 H91 Q92.75 -0.23 93.875 -1.355 Q95 -2.48 95 -4.23 V-55.98 Z M60 -14.73 Q63.5 -14.73 66 -17.23 Q68.5 -19.73 68.5 -23.23 Q68.5 -26.73 66 -29.23 Q63.5 -31.73 60 -31.73 Q56.5 -31.73 54 -29.23 Q51.5 -26.73 51.5 -23.23 Q51.5 -19.73 54 -17.23 Q56.5 -14.73 60 -14.73 Z M35 -46.73 H69.75 V-60.23 H35 V-46.73 Z"/></g><g id="Bold-S" transform="matrix(1 0 0 1 2294.23 696)"><path d="M83.831 -55.547 V-10.376 Q83.831 -5.475 80.463 -2.107 Q77.095 1.261 72.194 1.261 H22.486 Q17.585 1.261 14.217 -2.107 Q10.849 -5.475 10.849 -10.376 V-60.083 Q10.849 -64.985 14.217 -68.353 Q17.585 -71.721 22.486 -71.721 H67.657 L83.831 -55.547 Z M72.194 -50.714  62.824 -60.083 H22.486 Q22.486 -60.083 22.486 -60.083 Q22.486 -60.083 22.486 -60.083 V-10.376 Q22.486 -10.376 22.486 -10.376 Q22.486 -10.376 22.486 -10.376 H72.194 Q72.194 -10.376 72.194 -10.376 Q72.194 -10.376 72.194 -10.376 V-50.714 Z M47.34 -13.927 Q51.778 -13.927 54.885 -17.034 Q57.992 -20.14 57.992 -24.578 Q57.992 -29.017 54.885 -32.123 Q51.778 -35.23 47.34 -35.23 Q42.902 -35.23 39.795 -32.123 Q36.689 -29.017 36.689 -24.578 Q36.689 -20.14 39.795 -17.034 Q42.902 -13.927 47.34 -13.927 Z M27.221 -41.147 H60.358 V-55.349 H27.221 V-41.147 Z"/></g><g id="Semibold-S" transform="matrix(1 0 0 1 1998.1 696)"><path d="M82.373 -54.946 V-9.862 Q82.373 -5.818 79.563 -3.007 Q76.752 -0.197 72.708 -0.197 H21.972 Q17.928 -0.197 15.117 -3.007 Q12.307 -5.818 12.307 -9.862 V-60.598 Q12.307 -64.642 15.117 -67.453 Q17.928 -70.263 21.972 -70.263 H67.056 L82.373 -54.946 Z M72.708 -50.929  63.039 -60.598 H21.972 Q21.972 -60.598 21.972 -60.598 Q21.972 -60.598 21.972 -60.598 V-9.862 Q21.972 -9.862 21.972 -9.862 Q21.972 -9.862 21.972 -9.862 H72.708 Q72.708 -9.862 72.708 -9.862 Q72.708 -9.862 72.708 -9.862 V-50.929 Z M47.34 -13.412 Q51.778 -13.412 54.885 -16.519 Q57.992 -19.626 57.992 -24.064 Q57.992 -28.502 54.885 -31.609 Q51.778 -34.715 47.34 -34.715 Q42.902 -34.715 39.795 -31.609 Q36.689 -28.502 36.689 -24.064 Q36.689 -19.626 39.795 -16.519 Q42.902 -13.412 47.34 -13.412 Z M26.706 -41.662 H59.844 V-55.864 H26.706 V-41.662 Z"/></g><g id="Medium-S" transform="matrix(1 0 0 1 1701.85 696)"><path d="M81.28 -54.496 V-9.476 Q81.28 -6.075 78.887 -3.683 Q76.495 -1.29 73.094 -1.29 H21.586 Q18.185 -1.29 15.793 -3.683 Q13.4 -6.075 13.4 -9.476 V-60.984 Q13.4 -64.385 15.793 -66.777 Q18.185 -69.17 21.586 -69.17 H66.606 L81.28 -54.496 Z M73.094 -51.089  63.199 -60.984 H21.586 Q21.586 -60.984 21.586 -60.984 Q21.586 -60.984 21.586 -60.984 V-9.476 Q21.586 -9.476 21.586 -9.476 Q21.586 -9.476 21.586 -9.476 H73.094 Q73.094 -9.476 73.094 -9.476 Q73.094 -9.476 73.094 -9.476 V-51.089 Z M47.34 -13.027 Q51.778 -13.027 54.885 -16.133 Q57.992 -19.24 57.992 -23.678 Q57.992 -28.116 54.885 -31.223 Q51.778 -34.33 47.34 -34.33 Q42.902 -34.33 39.795 -31.223 Q36.689 -28.116 36.689 -23.678 Q36.689 -19.24 39.795 -16.133 Q42.902 -13.027 47.34 -13.027 Z M26.32 -42.048 H59.458 V-56.25 H26.32 V-42.048 Z"/></g><g id="Regular-S" transform="matrix(1 0 0 1 1405.73 696)"><path d="M80.478 -54.166 V-9.193 Q80.478 -6.264 78.392 -4.178 Q76.306 -2.092 73.377 -2.092 H21.303 Q18.374 -2.092 16.288 -4.178 Q14.202 -6.264 14.202 -9.193 V-61.267 Q14.202 -64.196 16.288 -66.282 Q18.374 -68.368 21.303 -68.368 H66.276 L80.478 -54.166 Z M73.377 -51.207  63.317 -61.267 H21.303 Q21.303 -61.267 21.303 -61.267 Q21.303 -61.267 21.303 -61.267 V-9.193 Q21.303 -9.193 21.303 -9.193 Q21.303 -9.193 21.303 -9.193 H73.377 Q73.377 -9.193 73.377 -9.193 Q73.377 -9.193 73.377 -9.193 V-51.207 Z M47.34 -12.743 Q51.778 -12.743 54.885 -15.85 Q57.992 -18.957 57.992 -23.395 Q57.992 -27.833 54.885 -30.94 Q51.778 -34.046 47.34 -34.046 Q42.902 -34.046 39.795 -30.94 Q36.689 -27.833 36.689 -23.395 Q36.689 -18.957 39.795 -15.85 Q42.902 -12.743 47.34 -12.743 Z M26.037 -42.331 H59.175 V-56.533 H26.037 V-42.331 Z"/></g><g id="Light-S" transform="matrix(1 0 0 1 1109.75 696)"><path d="M78.505 -53.331 V-10.407 Q78.505 -7.743 76.666 -5.904 Q74.827 -4.065 72.163 -4.065 H22.517 Q19.853 -4.065 18.014 -5.904 Q16.175 -7.743 16.175 -10.407 V-60.053 Q16.175 -62.717 18.014 -64.556 Q19.853 -66.395 22.517 -66.395 H65.441 L78.505 -53.331 Z M73.377 -51.207  63.317 -61.267 H22.517 Q21.986 -61.267 21.644 -60.926 Q21.303 -60.584 21.303 -60.053 V-10.407 Q21.303 -9.876 21.644 -9.534 Q21.986 -9.193 22.517 -9.193 H72.163 Q72.694 -9.193 73.036 -9.534 Q73.377 -9.876 73.377 -10.407 V-51.207 Z M47.34 -15.627 Q50.944 -15.627 53.481 -18.164 Q56.019 -20.702 56.019 -24.305 Q56.019 -27.909 53.481 -30.447 Q50.944 -32.984 47.34 -32.984 Q43.736 -32.984 41.199 -30.447 Q38.661 -27.909 38.661 -24.305 Q38.661 -20.702 41.199 -18.164 Q43.736 -15.627 47.34 -15.627 Z M27.554 -42.786 H57.582 V-55.016 H27.554 V-42.786 Z"/></g><g id="Thin-S" transform="matrix(1 0 0 1 814.015 696)"><path d="M76.533 -52.497 V-11.621 Q76.533 -9.223 74.94 -7.63 Q73.347 -6.037 70.949 -6.037 H23.731 Q21.333 -6.037 19.74 -7.63 Q18.147 -9.223 18.147 -11.621 V-58.839 Q18.147 -61.237 19.74 -62.83 Q21.333 -64.423 23.731 -64.423 H64.607 L76.533 -52.497 Z M73.377 -51.207  63.317 -61.267 H23.731 Q22.669 -61.267 21.986 -60.584 Q21.303 -59.901 21.303 -58.839 V-11.621 Q21.303 -10.559 21.986 -9.876 Q22.669 -9.193 23.731 -9.193 H70.949 Q72.011 -9.193 72.694 -9.876 Q73.377 -10.559 73.377 -11.621 V-51.207 Z M47.34 -18.509 Q50.109 -18.509 52.078 -20.478 Q54.047 -22.447 54.047 -25.216 Q54.047 -27.985 52.078 -29.954 Q50.109 -31.922 47.34 -31.922 Q44.571 -31.922 42.602 -29.954 Q40.634 -27.985 40.634 -25.216 Q40.634 -22.447 42.602 -20.478 Q44.571 -18.509 47.34 -18.509 Z M29.072 -43.241 H55.989 V-53.498 H29.072 V-43.241 Z"/></g><g id="Ultralight-S" transform="matrix(1 0 0 1 517.792 696)"><path d="M75.35 -51.996 V-12.349 Q75.35 -10.11 73.905 -8.665 Q72.46 -7.22 70.221 -7.22 H24.459 Q22.22 -7.22 20.775 -8.665 Q19.331 -10.11 19.331 -12.349 V-58.111 Q19.331 -60.35 20.775 -61.795 Q22.22 -63.239 24.459 -63.239 H64.106 L75.35 -51.996 Z M73.377 -51.207  63.317 -61.267 H24.459 Q23.078 -61.267 22.191 -60.379 Q21.303 -59.492 21.303 -58.111 V-12.349 Q21.303 -10.968 22.191 -10.081 Q23.078 -9.193 24.459 -9.193 H70.221 Q71.602 -9.193 72.489 -10.081 Q73.377 -10.968 73.377 -12.349 V-51.207 Z M47.34 -20.239 Q49.608 -20.239 51.236 -21.866 Q52.863 -23.494 52.863 -25.762 Q52.863 -28.03 51.236 -29.658 Q49.608 -31.285 47.34 -31.285 Q45.072 -31.285 43.444 -29.658 Q41.817 -28.03 41.817 -25.762 Q41.817 -23.494 43.444 -21.866 Q45.072 -20.239 47.34 -20.239 Z M29.982 -43.514 H55.033 V-52.588 H29.982 V-43.514 Z"/></g></g></svg>