<svg width="44" height="42" viewBox="0 0 44 42" fill="none" xmlns="http://www.w3.org/2000/svg">
<path fill-rule="evenodd" clip-rule="evenodd" d="M2 0.5C1.17157 0.5 0.5 1.17157 0.5 2C0.5 2.82843 1.17157 3.5 2 3.5H34C34.8284 3.5 35.5 2.82843 35.5 2C35.5 1.17157 34.8284 0.5 34 0.5H2ZM0.5 8C0.5 7.17157 1.17157 6.5 2 6.5H34C34.8284 6.5 35.5 7.17157 35.5 8C35.5 8.82843 34.8284 9.5 34 9.5H2C1.17157 9.5 0.5 8.82843 0.5 8ZM2 12.5C1.17157 12.5 0.5 13.1716 0.5 14C0.5 14.8284 1.17157 15.5 2 15.5H34C34.8284 15.5 35.5 14.8284 35.5 14C35.5 13.1716 34.8284 12.5 34 12.5H2ZM25 17.5H23.5V19V23V24.5H25H30V40V41.5H31.5H35.5H37V40V24.5H42H43.5V23V19V17.5H42H25ZM34 24.5H33V38.5H34V24.5ZM37 21.5H40.5V20.5H26.5V21.5H30H31.5H35.5H37ZM0.5 32C0.5 31.1716 1.17157 30.5 2 30.5H26C26.8284 30.5 27.5 31.1716 27.5 32C27.5 32.8284 26.8284 33.5 26 33.5H2C1.17157 33.5 0.5 32.8284 0.5 32ZM2 24.5C1.17157 24.5 0.5 25.1716 0.5 26C0.5 26.8284 1.17157 27.5 2 27.5H20C20.8284 27.5 21.5 26.8284 21.5 26C21.5 25.1716 20.8284 24.5 20 24.5H2ZM0.5 20C0.5 19.1716 1.17157 18.5 2 18.5H20C20.8284 18.5 21.5 19.1716 21.5 20C21.5 20.8284 20.8284 21.5 20 21.5H2C1.17157 21.5 0.5 20.8284 0.5 20Z" fill="#002052"/>
</svg>
