<svg width="56" height="54" viewBox="0 0 56 54" fill="none" xmlns="http://www.w3.org/2000/svg">
<path fill-rule="evenodd" clip-rule="evenodd" d="M41.5109 1.95047C41.5769 1.12468 42.2999 0.5088 43.1257 0.574862C45.7834 0.787473 51.845 2.53632 55.594 7.94744C56.0658 8.6284 55.8963 9.56289 55.2153 10.0347C54.5344 10.5065 53.5999 10.3369 53.1281 9.65595C50.0431 5.2032 44.9513 3.73049 42.8865 3.56531C42.0607 3.49925 41.4448 2.77626 41.5109 1.95047ZM44.1115 5.82225C43.2848 5.87646 42.6586 6.59054 42.7128 7.41719C42.767 8.24384 43.4811 8.87003 44.3078 8.81582C44.8496 8.78029 46.6365 9.06595 47.8791 10.8595C48.3509 11.5404 49.2854 11.71 49.9664 11.2382C50.6473 10.7664 50.8169 9.83193 50.3451 9.15098C48.3985 6.34137 45.5091 5.7306 44.1115 5.82225ZM13.6668 17.2363C13.6807 18.0646 13.0205 18.7473 12.1922 18.7613C10.4463 18.7906 8.62476 19.8929 6.94671 21.5775C5.3027 23.2279 4.01863 25.2173 3.35651 26.5175C2.98058 27.2557 2.07738 27.5494 1.33916 27.1735C0.600946 26.7975 0.307256 25.8943 0.683189 25.1561C1.46007 23.6306 2.91751 21.3715 4.82127 19.4603C6.69101 17.5833 9.2235 15.8108 12.1417 15.7617C12.97 15.7478 13.6528 16.4079 13.6668 17.2363ZM13.4792 21.8627C13.7806 22.6344 13.3995 23.5043 12.6279 23.8057C10.6871 24.564 9.1462 26.4936 8.64901 27.3547C8.2348 28.0722 7.31741 28.318 6.59998 27.9038C5.88254 27.4896 5.63672 26.5722 6.05094 25.8547C6.72041 24.6952 8.70572 22.1173 11.5362 21.0114C12.3078 20.71 13.1777 21.0911 13.4792 21.8627ZM29.6278 10.8572C29.6278 10.351 29.7928 10.0411 29.9799 9.85805C30.17 9.67212 30.5035 9.50001 31.0488 9.50001C31.594 9.50001 31.9276 9.67212 32.1177 9.85805C32.3048 10.0411 32.4698 10.351 32.4698 10.8572V12V28C32.4698 28.8284 33.1414 29.5 33.9698 29.5C34.7982 29.5 35.4698 28.8284 35.4698 28V12C35.4698 11.8745 35.5693 11.5027 35.891 11.143C36.1858 10.8135 36.5338 10.6429 36.8908 10.6429C37.2478 10.6429 37.5959 10.8135 37.8906 11.143C38.2124 11.5026 38.3118 11.8745 38.3118 12V17.7143V30.2857C38.3118 31.1142 38.9834 31.7857 39.8118 31.7857C40.6403 31.7857 41.3118 31.1142 41.3118 30.2857V17.7143C41.3118 17.5474 41.4143 17.1739 41.7035 16.8411C41.9617 16.544 42.2986 16.3572 42.7328 16.3572C43.1671 16.3572 43.504 16.544 43.7622 16.8411C44.0514 17.1739 44.1539 17.5474 44.1539 17.7143C44.1539 17.7422 44.1546 17.77 44.1562 17.7978C44.4472 23.0165 44.7061 30.8311 44.2593 37.6592C44.0354 41.0804 43.6382 44.1871 43.0046 46.5742C42.6878 47.7678 42.3257 48.7277 41.9295 49.4395C41.5273 50.162 41.1508 50.5206 40.8584 50.6766C40.1275 51.0666 39.8511 51.9752 40.241 52.7061C40.631 53.437 41.5396 53.7134 42.2705 53.3234C43.2634 52.7937 43.9968 51.894 44.5508 50.8985C45.1108 49.8923 45.551 48.6745 45.9042 47.3437C46.6107 44.682 47.024 41.353 47.2529 37.8551C47.7106 30.861 47.4459 22.9243 47.1535 17.6665C47.14 16.704 46.7191 15.6701 46.0266 14.8733C45.2916 14.0274 44.168 13.3572 42.7328 13.3572C42.2179 13.3572 41.743 13.4435 41.3118 13.5932V12C41.3118 10.9827 40.8271 9.92595 40.1265 9.14279C39.3989 8.3294 38.2864 7.64287 36.8908 7.64287C36.0465 7.64287 35.3058 7.89415 34.6913 8.27278C34.5514 8.07407 34.3928 7.88693 34.2154 7.71341C33.3831 6.89934 32.2561 6.50001 31.0488 6.50001C29.8414 6.50001 28.7145 6.89934 27.8822 7.71341C27.4795 8.10725 27.1736 8.57119 26.9647 9.08147C26.4205 8.88156 25.8259 8.78573 25.2068 8.78573C23.9623 8.78573 22.8166 9.17295 21.9809 10.0144C21.1483 10.8528 20.7858 11.9786 20.7858 13.1429V32.4002L18.3327 28.4012C17.7898 27.3876 16.8352 26.823 15.8901 26.6086C14.9337 26.3917 13.8849 26.5014 12.9686 26.9231C12.0357 27.3526 11.1948 28.1301 10.7744 29.2645C10.3542 30.3983 10.4182 31.7116 10.9537 33.1084C12.6664 37.5755 17.5035 47.1131 22.9345 53.0157C23.4955 53.6253 24.4444 53.6648 25.054 53.1038C25.6637 52.5429 25.7031 51.594 25.1422 50.9844C20.0576 45.4583 15.3894 36.2976 13.7549 32.0345C13.4141 31.1455 13.4782 30.6017 13.5874 30.307C13.6964 30.0128 13.9144 29.7903 14.223 29.6483C14.5481 29.4987 14.9233 29.4655 15.2265 29.5343C15.5229 29.6015 15.6452 29.7334 15.6923 29.8256C15.71 29.8602 15.729 29.8941 15.7493 29.9272L21.0072 38.4986C21.3583 39.071 22.047 39.3403 22.6933 39.1579C23.3395 38.9755 23.7858 38.3858 23.7858 37.7143V13.1429C23.7858 12.5929 23.949 12.2901 24.1095 12.1284C24.267 11.9699 24.5818 11.7857 25.2068 11.7857C25.8317 11.7857 26.1466 11.9699 26.304 12.1284C26.4646 12.2901 26.6278 12.5929 26.6278 13.1429V30.8572C26.6278 31.6856 27.2994 32.3572 28.1278 32.3572C28.9562 32.3572 29.6278 31.6856 29.6278 30.8572V13.1429V10.8572ZM29.5594 38.1909C28.8759 37.7229 27.9423 37.8976 27.4743 38.5812C27.0063 39.2647 27.181 40.1982 27.8646 40.6663C28.6567 41.2086 29.5907 42.0653 30.2942 43.6295C31.0073 45.2152 31.5273 47.6265 31.3041 51.3385C31.2544 52.1655 31.8844 52.8762 32.7114 52.9259C33.5383 52.9756 34.249 52.3456 34.2987 51.5186C34.5428 47.4592 33.9918 44.5372 33.0302 42.3991C32.059 40.2395 30.7147 38.9819 29.5594 38.1909Z" fill="#002052"/>
</svg>
