<svg width="19" height="19" viewBox="0 0 19 19" fill="none" xmlns="http://www.w3.org/2000/svg">
<path d="M14.3072 13.5399L18.0763 17.2866L16.8311 18.5247L13.0629 14.7771C11.6608 15.8947 9.91691 16.5025 8.11995 16.5C3.74811 16.5 0.199951 12.972 0.199951 8.625C0.199951 4.278 3.74811 0.75 8.11995 0.75C12.4918 0.75 16.04 4.278 16.04 8.625C16.0425 10.4117 15.4312 12.1457 14.3072 13.5399ZM12.542 12.8906C13.6588 11.7487 14.2825 10.2178 14.28 8.625C14.28 5.2405 11.5229 2.5 8.11995 2.5C4.71611 2.5 1.95995 5.2405 1.95995 8.625C1.95995 12.0086 4.71611 14.75 8.11995 14.75C9.7219 14.7525 11.2615 14.1323 12.41 13.0219L12.542 12.8906Z" fill="white"/>
</svg>
