<?xml version="1.0" encoding="UTF-8" standalone="no"?>
<svg
   xmlns:dc="http://purl.org/dc/elements/1.1/"
   xmlns:cc="http://creativecommons.org/ns#"
   xmlns:rdf="http://www.w3.org/1999/02/22-rdf-syntax-ns#"
   xmlns:svg="http://www.w3.org/2000/svg"
   xmlns="http://www.w3.org/2000/svg"
   version="1.1"
   id="Layer_1"
   x="0px"
   y="0px"
   viewBox="0 0 200 226.66667"
   xml:space="preserve"
   width="150pt"
   height="170pt"><metadata
     id="metadata102"><rdf:RDF><cc:Work
         rdf:about=""><dc:format>image/svg+xml</dc:format><dc:type
           rdf:resource="http://purl.org/dc/dcmitype/StillImage" /><dc:title></dc:title></cc:Work></rdf:RDF></metadata><defs
     id="defs100"><clipPath
       clipPathUnits="userSpaceOnUse"
       id="clipPath67"><path
         d="M 0,150 V 0 h 150 v 150 z"
         id="path65-9" /></clipPath><clipPath
       clipPathUnits="userSpaceOnUse"
       id="clipPath75"><path
         d="M 0,150 H 150 V 0 H 0 Z"
         id="path73-9" /></clipPath><clipPath
       clipPathUnits="userSpaceOnUse"
       id="clipPath81"><path
         d="M 0,150 H 150 V -2e-5 H 0 Z"
         id="path79" /></clipPath><clipPath
       clipPathUnits="userSpaceOnUse"
       id="clipPath91"><path
         d="M 0,150 V 0 h 150 v 150 z"
         id="path89-0" /></clipPath><clipPath
       clipPathUnits="userSpaceOnUse"
       id="clipPath101"><path
         d="M 0,150 V 0 h 150 v 150 z"
         id="path99" /></clipPath><clipPath
       clipPathUnits="userSpaceOnUse"
       id="clipPath111"><path
         d="M 0,150 V 0 h 150 v 150 z"
         id="path109" /></clipPath><clipPath
       clipPathUnits="userSpaceOnUse"
       id="clipPath121"><path
         d="M 0,150 V 0 h 150 v 150 z"
         id="path119" /></clipPath><clipPath
       clipPathUnits="userSpaceOnUse"
       id="clipPath131"><path
         d="M 0,150 V 0 h 150 v 150 z"
         id="path129" /></clipPath><clipPath
       clipPathUnits="userSpaceOnUse"
       id="clipPath141"><path
         d="M 0,150 V 0 h 150 v 150 z"
         id="path139" /></clipPath><clipPath
       clipPathUnits="userSpaceOnUse"
       id="clipPath151"><path
         d="M 0,150 V 0 h 150 v 150 z"
         id="path149" /></clipPath><clipPath
       clipPathUnits="userSpaceOnUse"
       id="clipPath161"><path
         d="M 0,150 V 0 h 150 v 150 z"
         id="path159" /></clipPath><clipPath
       clipPathUnits="userSpaceOnUse"
       id="clipPath171"><path
         d="M 0,150 V 0 h 150 v 150 z"
         id="path169" /></clipPath><clipPath
       clipPathUnits="userSpaceOnUse"
       id="clipPath181"><path
         d="M 0,150 V 0 h 150 v 150 z"
         id="path179" /></clipPath><clipPath
       clipPathUnits="userSpaceOnUse"
       id="clipPath191"><path
         d="M 0,150 V 0 h 150 v 150 z"
         id="path189" /></clipPath><clipPath
       clipPathUnits="userSpaceOnUse"
       id="clipPath201"><path
         d="M 0,150 V 0 h 150 v 150 z"
         id="path199" /></clipPath><clipPath
       clipPathUnits="userSpaceOnUse"
       id="clipPath211"><path
         d="M 0,150 V 0 h 150 v 150 z"
         id="path209" /></clipPath><clipPath
       clipPathUnits="userSpaceOnUse"
       id="clipPath221"><path
         d="M 0,150 V 0 h 150 v 150 z"
         id="path219" /></clipPath><clipPath
       clipPathUnits="userSpaceOnUse"
       id="clipPath231"><path
         d="M 0,150 V 0 h 150 v 150 z"
         id="path229" /></clipPath><clipPath
       clipPathUnits="userSpaceOnUse"
       id="clipPath241"><path
         d="M 0,150 V 0 h 150 v 150 z"
         id="path239" /></clipPath><clipPath
       clipPathUnits="userSpaceOnUse"
       id="clipPath249"><path
         d="M 0,150 V 0 h 150 v 150 z"
         id="path247" /></clipPath><clipPath
       clipPathUnits="userSpaceOnUse"
       id="clipPath257"><path
         d="M 0,150 V 0 h 150 v 150 z"
         id="path255" /></clipPath><clipPath
       clipPathUnits="userSpaceOnUse"
       id="clipPath265"><path
         d="M 0,150 V 0 h 150 v 150 z"
         id="path263" /></clipPath><clipPath
       clipPathUnits="userSpaceOnUse"
       id="clipPath273"><path
         d="M 0,150 V 0 h 150 v 150 z"
         id="path271" /></clipPath><clipPath
       clipPathUnits="userSpaceOnUse"
       id="clipPath281"><path
         d="M 0,150 V 0 h 150 v 150 z"
         id="path279" /></clipPath></defs><style
     type="text/css"
     id="style33">
	.st0{fill:#BBCC00;}
	.st1{fill:#D4007A;}
	.st2{fill:#002052;}
	.st3{fill:#39A9DC;}
	.st4{fill:#FFFFFF;}
</style><g
     id="g95"
     transform="matrix(1.0090461,0,0,1.0203913,24.324288,30.772471)"><g
       id="g672"
       transform="translate(-35.601724,-8.8201488)"><g
         transform="matrix(1.1973451,0.43408202,-0.44389809,1.1973451,63.641666,-82.334254)"
         id="g37"><polygon
           style="fill:#bbcc00"
           id="polygon35"
           points="1,78.54 3.25,70.84 14.47,80.47 "
           class="st0" /></g><g
         transform="matrix(1.329146,0,0,1.329146,-1.5468151,-36.742173)"
         id="g639"><g
           id="g51"><g
             id="g41"><path
               class="st1"
               d="M 46.45,83.83 C 42.58,76.19 40.73,67.63 41.1,59.06 42.24,32.59 63.84,11.88 90.28,11.88 c 0.04,0 0.07,0 0.11,0 0.6,0 1.24,0.02 2.02,0.05 L 92.3,14.5 c -0.73,-0.03 -1.34,-0.05 -1.91,-0.05 -0.03,0 -0.07,0 -0.1,0 -25.06,0 -45.53,19.62 -46.61,44.71 -0.35,8.12 1.4,16.25 5.08,23.49 z"
               id="path39"
               style="fill:#d4007a" /></g><g
             id="g45"><path
               class="st2"
               d="m 133.06,88.3 -2.72,-1.72 c 3.96,-6.25 6.37,-13.13 7.15,-20.45 0.09,-0.83 0.15,-1.64 0.2,-2.42 0.04,-0.79 0.07,-1.61 0.07,-2.43 C 137.87,37.06 119.79,17.13 95.7,14.93 95.13,14.88 94.5,14.84 93.79,14.8 l 0.16,-3.21 c 0.75,0.04 1.42,0.08 2.04,0.14 12.4,1.14 23.82,6.82 32.15,16.01 8.33,9.19 12.89,21.11 12.83,33.57 -0.01,0.88 -0.03,1.75 -0.08,2.59 -0.04,0.83 -0.11,1.7 -0.21,2.59 -0.82,7.8 -3.39,15.14 -7.62,21.81 z"
               id="path43"
               style="fill:#002052" /></g><g
             id="g49"><path
               class="st0"
               d="m 50.19,59.48 -1.93,-0.11 c 0.03,-0.47 0.07,-1.1 0.13,-1.73 1,-10.56 5.86,-20.29 13.7,-27.41 7.82,-7.1 17.94,-11 28.52,-11 0.03,0 0.06,0 0.09,0 0.74,0 1.48,0.02 2.2,0.06 0.74,0.04 1.49,0.1 2.2,0.17 6.66,0.69 12.91,2.86 18.58,6.45 l -1.03,1.63 c -5.42,-3.43 -11.39,-5.5 -17.75,-6.16 -0.68,-0.07 -1.39,-0.13 -2.11,-0.17 -0.69,-0.04 -1.4,-0.06 -2.11,-0.06 -0.03,0 -0.06,0 -0.09,0 -21.01,0 -38.32,15.74 -40.3,36.66 -0.03,0.61 -0.07,1.21 -0.1,1.67 z"
               id="path47"
               style="fill:#bbcc00" /></g></g><g
           id="g55"><path
             class="st3"
             d="M 93.5,85.32 C 79.32,78.79 73.17,61.89 79.76,47.59 86.35,33.29 103.19,27 117.37,33.54 c 14.18,6.54 20.33,23.43 13.74,37.72 -6.58,14.3 -23.43,20.59 -37.61,14.06"
             id="path53"
             style="fill:#39a9dc" /></g><g
           id="g59"><path
             class="st3"
             d="M 108.74,106.63 C 94.56,100.09 88.41,83.2 95,68.9 c 6.59,-14.3 23.43,-20.59 37.61,-14.05 14.18,6.54 20.33,23.43 13.74,37.73 -6.59,14.3 -23.43,20.59 -37.61,14.05"
             id="path57"
             style="fill:#39a9dc" /></g><g
           id="g63"><path
             class="st3"
             d="M 94.68,124.69 C 81.77,118.74 76.12,103.47 82.06,90.58 88,77.7 103.29,72.08 116.19,78.03 c 12.91,5.95 18.56,21.22 12.62,34.11 -5.94,12.88 -21.22,18.51 -34.13,12.55"
             id="path61"
             style="fill:#39a9dc" /></g><g
           id="g67"><path
             class="st3"
             d="M 49.66,133.69 C 23.87,121.8 12.6,91.25 24.49,65.46 36.38,39.66 66.93,28.4 92.72,40.28 c 25.79,11.89 37.06,42.44 25.17,68.24 -11.89,25.79 -42.44,37.06 -68.23,25.17"
             id="path65"
             style="fill:#39a9dc" /></g><g
           id="g71"><path
             class="st4"
             d="M 51.45,126.08 C 29.55,115.99 19.98,90.06 30.08,68.16 40.17,46.26 66.1,36.69 88,46.79 c 21.9,10.09 31.47,36.03 21.37,57.93 -10.1,21.89 -36.03,31.46 -57.92,21.36"
             id="path69"
             style="fill:#ffffff" /></g><g
           id="g93"><g
             id="g75"><path
               class="st1"
               d="m 74.37,54.74 h -9.38 c -3.59,0 -6.53,2.94 -6.53,6.53 v 1.12 c 0,3.59 2.94,6.53 6.53,6.53 h 9.38 c 3.59,0 6.53,-2.94 6.53,-6.53 v -1.12 c 0.01,-3.59 -2.94,-6.53 -6.53,-6.53 z m 1.92,7.66 c 0,1.04 -0.88,1.92 -1.92,1.92 h -9.38 c -1.04,0 -1.92,-0.88 -1.92,-1.92 v -1.12 c 0,-1.04 0.88,-1.92 1.92,-1.92 h 9.38 c 1.04,0 1.92,0.88 1.92,1.92 z"
               id="path73"
               style="fill:#d4007a" /></g><g
             id="g79"><path
               class="st1"
               d="m 74.37,79.34 h -9.38 c -3.59,0 -6.53,2.94 -6.53,6.53 V 87 c 0,3.59 2.94,6.53 6.53,6.53 h 9.38 c 3.59,0 6.53,-2.94 6.53,-6.53 v -1.12 c 0.01,-3.6 -2.94,-6.54 -6.53,-6.54 z M 76.29,87 c 0,1.04 -0.88,1.92 -1.92,1.92 h -9.38 c -1.04,0 -1.92,-0.88 -1.92,-1.92 v -1.12 c 0,-1.04 0.88,-1.92 1.92,-1.92 h 9.38 c 1.04,0 1.92,0.88 1.92,1.92 z"
               id="path77"
               style="fill:#d4007a" /></g><g
             id="g83"><path
               class="st1"
               d="m 74.37,103.93 h -9.38 c -3.59,0 -6.53,2.94 -6.53,6.53 v 1.12 c 0,3.59 2.94,6.53 6.53,6.53 h 9.38 c 3.59,0 6.53,-2.94 6.53,-6.53 v -1.12 c 0.01,-3.59 -2.94,-6.53 -6.53,-6.53 z m 1.92,7.66 c 0,1.04 -0.88,1.92 -1.92,1.92 h -9.38 c -1.04,0 -1.92,-0.88 -1.92,-1.92 v -1.12 c 0,-1.04 0.88,-1.92 1.92,-1.92 h 9.38 c 1.04,0 1.92,0.88 1.92,1.92 z"
               id="path81"
               style="fill:#d4007a" /></g><g
             id="g87"><path
               class="st1"
               d="m 106.03,74.22 c 0,-8.1 -7.44,-14.7 -16.57,-14.7 h -2.73 v 4.61 h 2.73 c 6.6,0 11.96,4.52 11.96,10.09 0,5.2 -4.65,9.49 -10.62,10.06 v -2.23 l -7.96,4.6 7.96,4.6 V 88.9 c 8.51,-0.61 15.23,-6.96 15.23,-14.68 z"
               id="path85"
               style="fill:#d4007a" /></g><g
             id="g91"><path
               class="st1"
               d="m 48.64,108.89 c -5.97,-0.57 -10.62,-4.86 -10.62,-10.06 0,-5.56 5.37,-10.09 11.96,-10.09 h 2.73 v -4.61 h -2.73 c -9.14,0 -16.57,6.59 -16.57,14.7 0,7.72 6.72,14.07 15.23,14.69 v 2.35 l 7.96,-4.6 -7.96,-4.6 z"
               id="path89"
               style="fill:#d4007a" /></g></g></g></g></g></svg>