<?xml version="1.0" encoding="UTF-8" standalone="no"?>
<svg
   xmlns:dc="http://purl.org/dc/elements/1.1/"
   xmlns:cc="http://creativecommons.org/ns#"
   xmlns:rdf="http://www.w3.org/1999/02/22-rdf-syntax-ns#"
   xmlns:svg="http://www.w3.org/2000/svg"
   xmlns="http://www.w3.org/2000/svg"
   xmlns:sodipodi="http://sodipodi.sourceforge.net/DTD/sodipodi-0.dtd"
   xmlns:inkscape="http://www.inkscape.org/namespaces/inkscape"
   width="23.999998pt"
   height="24pt"
   viewBox="0 0 29.999999 30"
   id="svg2"
   version="1.1"
   inkscape:version="0.91 r13725"
   sodipodi:docname="radioButton_off.svg">
  <sodipodi:namedview
     pagecolor="#ffffff"
     bordercolor="#666666"
     borderopacity="1"
     objecttolerance="10"
     gridtolerance="10"
     guidetolerance="10"
     inkscape:pageopacity="0"
     inkscape:pageshadow="2"
     inkscape:window-width="1280"
     inkscape:window-height="709"
     id="namedview4200"
     showgrid="false"
     fit-margin-top="0"
     fit-margin-left="0"
     fit-margin-right="0"
     fit-margin-bottom="0"
     inkscape:zoom="13.935855"
     inkscape:cx="0.2870266"
     inkscape:cy="19.482123"
     inkscape:window-x="0"
     inkscape:window-y="1"
     inkscape:window-maximized="1"
     inkscape:current-layer="svg2" />
  <defs
     id="defs4" />
  <metadata
     id="metadata7">
    <rdf:RDF>
      <cc:Work
         rdf:about="">
        <dc:format>image/svg+xml</dc:format>
        <dc:type
           rdf:resource="http://purl.org/dc/dcmitype/StillImage" />
        <dc:title></dc:title>
      </cc:Work>
    </rdf:RDF>
  </metadata>
  <g
     id="layer1"
     transform="matrix(0.76993672,0,0,0.76993672,-271.45283,-390.12614)">
    <circle
       style="opacity:1;fill:#39a9dc;fill-opacity:1;fill-rule:evenodd;stroke:none;stroke-width:1.03575838;stroke-linecap:round;stroke-linejoin:round;stroke-miterlimit:4;stroke-dasharray:none;stroke-opacity:1"
       id="path3336"
       cx="372.04724"
       cy="526.18109"
       r="19.482121" />
  </g>
  <path
     style="fill:#ffffff;fill-opacity:1;stroke:none;stroke-opacity:1"
     d="M 14.014245,24.935367 C 12.383379,24.778858 10.655984,24.145285 9.2544225,23.18956 8.5154237,22.685636 7.2158262,21.372491 6.7179238,20.626618 5.5476203,18.873471 4.9999987,17.073794 4.9999987,14.980916 c 0,-2.353826 0.6709199,-4.299824 2.1324319,-6.1851023 2.6985266,-3.4809664 7.5432414,-4.7434329 11.7027644,-3.049582 1.300212,0.5294749 2.362251,1.261839 3.405015,2.3480394 1.831406,1.9076959 2.762719,4.2316519 2.759782,6.8866449 -0.0019,1.70429 -0.320988,3.061145 -1.061973,4.515654 -0.501792,0.984986 -0.929997,1.580117 -1.735796,2.412459 -1.737299,1.794523 -3.837212,2.796797 -6.349837,3.030729 -0.871517,0.08114 -0.948807,0.08094 -1.838141,-0.0044 l 0,-3e-6 z"
     id="path4204"
     inkscape:connector-curvature="0" />
</svg>
