<svg xmlns="http://www.w3.org/2000/svg" version="1.1" width="3300" height="2000"><g id="Notes"><style>
    text {
      font-family: monospace;
      text-anchor: middle;
    }
    text.emphasis {
      font-weight:bold;
    }
    text.lanchor {
      text-anchor: start;
    }
  </style><rect height="2200" id="artboard" fill="white" width="3300" x="0" y="0"/><line id="" style="fill:none;stroke:black;stroke-width:0.5;" x1="263" x2="3036" y1="292" y2="292"/><text class="lanchor emphasis" transform="matrix(1 0 0 1 263 322)">Weight/Scale Variations</text><text transform="matrix(1 0 0 1 559.711 322)">Ultralight</text><text transform="matrix(1 0 0 1 856.422 322)">Thin</text><text transform="matrix(1 0 0 1 1153.13 322)">Light</text><text transform="matrix(1 0 0 1 1449.84 322)">Regular</text><text transform="matrix(1 0 0 1 1746.56 322)">Medium</text><text transform="matrix(1 0 0 1 2043.27 322)">Semibold</text><text transform="matrix(1 0 0 1 2339.98 322)">Bold</text><text transform="matrix(1 0 0 1 2636.69 322)">Heavy</text><text transform="matrix(1 0 0 1 2933.4 322)">Black</text><text id="template-version" style="text-anchor: end;" transform="matrix(1 0 0 1 3036 1933)">Template v.1.0</text><text class="lanchor" transform="matrix(1 0 0 1 263 726)">Small</text><text class="lanchor" transform="matrix(1 0 0 1 263 1156)">Medium</text><text class="lanchor" transform="matrix(1 0 0 1 263 1586)">Large</text></g><g id="Guides"><g id="H-reference" style="fill:#27AAE1;stroke:none;" transform="matrix(1 0 0 1 339 696)"><path d="M 54.9316 0 L 57.666 0 L 30.5664 -70.459 L 28.0762 -70.459 L 0.976562 0 L 3.66211 0 L 12.9395 -24.4629 L 45.7031 -24.4629 Z M 29.1992 -67.0898 L 29.4434 -67.0898 L 44.8242 -26.709 L 13.8184 -26.709 Z"/></g><line id="Baseline-S" style="fill:none;stroke:#27AAE1;opacity:1;stroke-width:0.577;" x1="263" x2="3036" y1="696" y2="696"/><line id="Capline-S" style="fill:none;stroke:#27AAE1;opacity:1;stroke-width:0.577;" x1="263" x2="3036" y1="625.541" y2="625.541"/><g id="H-reference" style="fill:#27AAE1;stroke:none;" transform="matrix(1 0 0 1 339 1126)"><path d="M 54.9316 0 L 57.666 0 L 30.5664 -70.459 L 28.0762 -70.459 L 0.976562 0 L 3.66211 0 L 12.9395 -24.4629 L 45.7031 -24.4629 Z M 29.1992 -67.0898 L 29.4434 -67.0898 L 44.8242 -26.709 L 13.8184 -26.709 Z"/></g><line id="Baseline-M" style="fill:none;stroke:#27AAE1;opacity:1;stroke-width:0.577;" x1="263" x2="3036" y1="1126" y2="1126"/><line id="Capline-M" style="fill:none;stroke:#27AAE1;opacity:1;stroke-width:0.577;" x1="263" x2="3036" y1="1055.54" y2="1055.54"/><g id="H-reference" style="fill:#27AAE1;stroke:none;" transform="matrix(1 0 0 1 339 1556)"><path d="M 54.9316 0 L 57.666 0 L 30.5664 -70.459 L 28.0762 -70.459 L 0.976562 0 L 3.66211 0 L 12.9395 -24.4629 L 45.7031 -24.4629 Z M 29.1992 -67.0898 L 29.4434 -67.0898 L 44.8242 -26.709 L 13.8184 -26.709 Z"/></g><line id="Baseline-L" style="fill:none;stroke:#27AAE1;opacity:1;stroke-width:0.577;" x1="263" x2="3036" y1="1556" y2="1556"/><line id="Capline-L" style="fill:none;stroke:#27AAE1;opacity:1;stroke-width:0.577;" x1="263" x2="3036" y1="1485.54" y2="1485.54"/><rect height="119.336" id="left-margin" style="fill:darkred;stroke:none;opacity:0.4;" width="12.4512" x="1394.06" y="1030.79"/><rect height="119.336" id="right-margin" style="fill:darkgreen;stroke:none;opacity:0.4;" width="12.4512" x="1502.5112" y="1030.79"/><rect x="1406.5112" y="1045" width="96" height="96" fill="none" stroke="blue" stroke-dasharray="5"/><rect x="1394.06" y="1030.79" width="120.9024" height="119.336" fill="none" stroke="blue"/></g><g id="Symbols"><g id="Bold-L" transform="matrix(1 0 0 1 2266 1556)"><path d="M77.239 28.141  67.886 19.756 Q50.347 3.612 38.961 -8.069 Q27.574 -19.75 20.801 -29.022 Q14.029 -38.294 11.368 -45.953 Q8.707 -53.612 8.707 -61.53 Q8.707 -77.852 19.618 -88.791 Q30.528 -99.73 46.601 -99.73 Q55.678 -99.73 63.394 -95.86 Q71.111 -91.99 77.239 -84.411 Q84.334 -92.474 91.757 -96.102 Q99.18 -99.73 107.876 -99.73 Q124.224 -99.73 135.158 -88.786 Q146.093 -77.843 146.093 -61.514 Q146.093 -53.617 143.432 -46.036 Q140.771 -38.455 133.999 -29.183 Q127.226 -19.911 115.78 -8.132 Q104.334 3.648 86.752 19.756 L77.239 28.141 Z M77.158 8.146 Q93.402 -6.849 103.783 -17.331 Q114.165 -27.812 120.212 -35.633 Q126.259 -43.454 128.597 -49.546 Q130.935 -55.639 130.935 -61.486 Q130.935 -71.511 124.507 -78.042 Q118.08 -84.572 107.991 -84.572 Q100.088 -84.572 93.259 -79.412 Q86.43 -74.252 82.076 -65.222 H72.401 Q68.249 -74.252 61.286 -79.412 Q54.323 -84.572 46.591 -84.572 Q36.721 -84.572 30.374 -78.146 Q24.026 -71.719 24.026 -61.463 Q24.026 -55.372 26.435 -49.152 Q28.844 -42.932 34.901 -35.05 Q40.958 -27.167 51.197 -16.767 Q61.436 -6.366 77.158 8.146 Z"/></g><g id="Semibold-L" transform="matrix(1 0 0 1 1970.27 1556)"><path d="M77.309 25.758  69.148 18.424 Q51.82 2.49 40.538 -9.051 Q29.256 -20.591 22.554 -29.723 Q15.852 -38.855 13.191 -46.339 Q10.53 -53.823 10.53 -61.523 Q10.53 -77.069 20.938 -87.488 Q31.347 -97.907 46.671 -97.907 Q55.798 -97.907 63.56 -93.827 Q71.322 -89.747 77.309 -81.888 Q84.264 -90.23 91.754 -94.069 Q99.245 -97.907 107.946 -97.907 Q123.426 -97.907 133.848 -87.485 Q144.27 -77.064 144.27 -61.514 Q144.27 -53.826 141.609 -46.386 Q138.948 -38.946 132.246 -29.814 Q125.544 -20.682 114.229 -9.086 Q102.914 2.511 85.561 18.424 L77.309 25.758 Z M77.263 8.917 Q93.542 -6.078 103.994 -16.665 Q114.445 -27.252 120.562 -35.177 Q126.679 -43.103 129.088 -49.291 Q131.496 -55.478 131.496 -61.488 Q131.496 -71.792 124.918 -78.463 Q118.341 -85.133 108.027 -85.133 Q99.948 -85.133 93.014 -80.008 Q86.079 -74.883 81.726 -65.783 H72.822 Q68.652 -74.813 61.642 -79.973 Q54.632 -85.133 46.65 -85.133 Q36.46 -85.133 29.928 -78.521 Q23.395 -71.909 23.395 -61.463 Q23.395 -55.308 25.844 -49.023 Q28.292 -42.738 34.414 -34.743 Q40.537 -26.747 50.951 -16.241 Q61.366 -5.735 77.263 8.917 Z"/></g><g id="Medium-L" transform="matrix(1 0 0 1 1674.31 1556)"><path d="M77.361 23.97  70.095 17.425 Q52.924 1.649 41.721 -9.787 Q30.518 -21.222 23.869 -30.249 Q17.219 -39.275 14.558 -46.628 Q11.897 -53.981 11.897 -61.517 Q11.897 -76.482 21.929 -86.511 Q31.961 -96.54 46.724 -96.54 Q55.888 -96.54 63.684 -92.302 Q71.479 -88.064 77.361 -79.994 Q84.211 -88.548 91.753 -92.544 Q99.294 -96.54 107.999 -96.54 Q122.828 -96.54 132.865 -86.51 Q142.903 -76.48 142.903 -61.514 Q142.903 -53.982 140.242 -46.648 Q137.581 -39.314 130.931 -30.287 Q124.282 -21.261 113.065 -9.802 Q101.848 1.657 84.667 17.425 L77.361 23.97 Z M77.342 9.496 Q93.647 -5.5 104.152 -16.165 Q114.656 -26.831 120.825 -34.836 Q126.995 -42.84 129.456 -49.099 Q131.917 -55.357 131.917 -61.49 Q131.917 -72.002 125.226 -78.778 Q118.536 -85.554 108.054 -85.554 Q99.843 -85.554 92.83 -80.455 Q85.817 -75.357 81.463 -66.204 H73.137 Q68.955 -75.234 61.91 -80.394 Q54.865 -85.554 46.694 -85.554 Q36.264 -85.554 29.593 -78.803 Q22.922 -72.052 22.922 -61.463 Q22.922 -55.26 25.4 -48.927 Q27.878 -42.593 34.05 -34.512 Q40.221 -26.431 50.767 -15.847 Q61.314 -5.262 77.342 9.496 Z"/></g><g id="Regular-L" transform="matrix(1 0 0 1 1378.56 1556)"><path d="M77.4 22.659  70.789 16.693 Q53.734 1.032 42.589 -10.327 Q31.444 -21.685 24.832 -30.634 Q18.221 -39.584 15.561 -46.84 Q12.9 -54.096 12.9 -61.514 Q12.9 -76.051 22.656 -85.794 Q32.411 -95.537 46.763 -95.537 Q55.954 -95.537 63.774 -91.184 Q71.595 -86.83 77.4 -78.606 Q84.172 -87.314 91.751 -91.426 Q99.33 -95.537 108.038 -95.537 Q122.389 -95.537 132.144 -85.794 Q141.9 -76.051 141.9 -61.514 Q141.9 -54.096 139.239 -46.84 Q136.579 -39.584 129.968 -30.634 Q123.356 -21.685 112.211 -10.327 Q101.066 1.032 84.011 16.693 L77.4 22.659 Z M77.4 9.92 Q93.724 -5.075 104.267 -15.799 Q114.81 -26.522 121.018 -34.585 Q127.226 -42.647 129.726 -48.958 Q132.225 -55.269 132.225 -61.49 Q132.225 -72.156 125.453 -79.009 Q118.68 -85.862 108.074 -85.862 Q99.766 -85.862 92.695 -80.783 Q85.624 -75.704 81.27 -66.512 H73.369 Q69.176 -75.542 62.105 -80.702 Q55.034 -85.862 46.726 -85.862 Q36.12 -85.862 29.348 -79.009 Q22.575 -72.156 22.575 -61.463 Q22.575 -55.225 25.074 -48.856 Q27.574 -42.486 33.782 -34.343 Q39.99 -26.2 50.633 -15.557 Q61.275 -4.915 77.4 9.92 Z"/></g><g id="Light-L" transform="matrix(1 0 0 1 1082.77 1556)"><path d="M77.4 18.379  72.277 13.715 Q55.656 -1.511 44.822 -12.497 Q33.987 -23.484 27.593 -31.999 Q21.198 -40.514 18.662 -47.378 Q16.125 -54.242 16.125 -61.142 Q16.125 -74.411 25.075 -83.362 Q34.024 -92.312 47.197 -92.312 Q56.202 -92.312 63.898 -87.773 Q71.595 -83.233 77.4 -74.575 Q83.924 -83.592 91.401 -87.952 Q98.878 -92.312 107.603 -92.312 Q120.776 -92.312 129.725 -83.362 Q138.675 -74.411 138.675 -61.142 Q138.675 -54.242 136.138 -47.378 Q133.602 -40.514 127.214 -32.012 Q120.828 -23.51 109.986 -12.511 Q99.144 -1.511 82.523 13.715 L77.4 18.379 Z M77.4 8.68 Q93.48 -6.04 103.865 -16.553 Q114.249 -27.066 120.366 -34.95 Q126.482 -42.834 128.919 -48.968 Q131.357 -55.102 131.357 -61.118 Q131.357 -71.474 124.646 -78.234 Q117.936 -84.994 107.64 -84.994 Q99.393 -84.994 92.478 -80.07 Q85.562 -75.146 80.402 -65.52 H74.299 Q69.176 -75.046 62.262 -80.02 Q55.347 -84.994 47.16 -84.994 Q36.926 -84.994 30.185 -78.234 Q23.443 -71.474 23.443 -61.07 Q23.443 -55.063 25.891 -48.896 Q28.338 -42.729 34.412 -34.806 Q40.486 -26.882 50.974 -16.426 Q61.461 -5.969 77.4 8.68 Z"/></g><g id="Thin-L" transform="matrix(1 0 0 1 787.282 1556)"><path d="M77.4 14.1  73.766 10.739 Q57.579 -4.054 47.054 -14.668 Q36.529 -25.282 30.352 -33.363 Q24.175 -41.444 21.762 -47.916 Q19.35 -54.387 19.35 -60.77 Q19.35 -72.772 27.493 -80.93 Q35.636 -89.087 47.631 -89.087 Q56.45 -89.087 64.022 -84.362 Q71.595 -79.636 77.4 -70.544 Q83.676 -79.871 91.051 -84.479 Q98.426 -89.087 107.169 -89.087 Q119.164 -89.087 127.307 -80.93 Q135.45 -72.772 135.45 -60.77 Q135.45 -54.387 133.038 -47.916 Q130.625 -41.444 124.462 -33.39 Q118.299 -25.336 107.76 -14.695 Q97.221 -4.054 81.034 10.739 L77.4 14.1 Z M77.4 7.439 Q93.235 -7.005 103.462 -17.307 Q113.689 -27.609 119.713 -35.314 Q125.738 -43.02 128.113 -48.977 Q130.488 -54.935 130.488 -60.746 Q130.488 -70.792 123.84 -77.459 Q117.192 -84.126 107.205 -84.126 Q99.021 -84.126 92.26 -79.357 Q85.5 -74.587 79.533 -64.528 H75.229 Q69.176 -74.55 62.418 -79.338 Q55.66 -84.126 47.595 -84.126 Q37.733 -84.126 31.022 -77.459 Q24.312 -70.792 24.312 -60.678 Q24.312 -54.902 26.707 -48.937 Q29.102 -42.972 35.042 -35.268 Q40.982 -27.564 51.315 -17.294 Q61.647 -7.024 77.4 7.439 Z"/></g><g id="Ultralight-L" transform="matrix(1 0 0 1 491.205 1556)"><path d="M77.4 11.533  74.659 8.953 Q58.732 -5.58 48.394 -15.97 Q38.055 -26.361 32.008 -34.182 Q25.961 -42.002 23.623 -48.238 Q21.285 -54.474 21.285 -60.546 Q21.285 -71.788 28.944 -79.47 Q36.604 -87.152 47.891 -87.152 Q56.599 -87.152 64.097 -82.315 Q71.595 -77.477 77.4 -68.125 Q83.528 -77.639 90.841 -82.396 Q98.155 -87.152 106.909 -87.152 Q118.196 -87.152 125.856 -79.47 Q133.515 -71.788 133.515 -60.546 Q133.515 -54.474 131.177 -48.238 Q128.839 -42.002 122.81 -34.217 Q116.782 -26.431 106.425 -16.005 Q96.068 -5.58 80.141 8.953 L77.4 11.533 Z M77.4 6.695 Q93.088 -7.584 103.22 -17.76 Q113.352 -27.936 119.322 -35.533 Q125.291 -43.131 127.629 -48.983 Q129.968 -54.835 129.968 -60.523 Q129.968 -70.382 123.356 -76.994 Q116.745 -83.605 106.945 -83.605 Q98.798 -83.605 92.13 -78.929 Q85.463 -74.252 79.013 -63.932 H75.788 Q69.176 -74.252 62.512 -78.929 Q55.847 -83.605 47.855 -83.605 Q38.216 -83.605 31.524 -76.994 Q24.832 -70.382 24.832 -60.442 Q24.832 -54.805 27.196 -48.961 Q29.56 -43.118 35.42 -35.546 Q41.28 -27.974 51.519 -17.815 Q61.759 -7.656 77.4 6.695 Z"/></g><g id="Bold-M" transform="matrix(1 0 0 1 2281.8 1126)"><path d="M59.875 15.52  49.75 6.395 Q36.625 -5.355 28.062 -13.98 Q19.5 -22.605 14.562 -29.48 Q9.625 -36.355 7.625 -42.23 Q5.625 -48.105 5.625 -54.48 Q5.625 -68.099 14.717 -77.227 Q23.809 -86.355 37.375 -86.355 Q43.742 -86.355 49.496 -84.105 Q55.25 -81.855 59.875 -77.48 Q64.5 -81.855 70.254 -84.105 Q76.008 -86.355 82.375 -86.355 Q96.048 -86.355 105.211 -77.227 Q114.375 -68.099 114.375 -54.48 Q114.375 -48.23 112.438 -42.355 Q110.5 -36.48 105.5 -29.667 Q100.5 -22.855 91.875 -14.167 Q83.25 -5.48 70 6.395 L59.875 15.52 Z M59.875 -5.605 Q71.625 -16.355 79.188 -23.73 Q86.75 -31.105 91.062 -36.605 Q95.375 -42.105 97 -46.248 Q98.625 -50.392 98.625 -54.477 Q98.625 -61.48 93.999 -66.042 Q89.374 -70.605 82.435 -70.605 Q77 -70.605 72.25 -67.292 Q67.5 -63.98 65.625 -58.855 H54.25 Q52.434 -63.98 47.592 -67.292 Q42.75 -70.605 37.409 -70.605 Q30.591 -70.605 26.046 -66.042 Q21.5 -61.48 21.5 -54.48 Q21.5 -50.26 23.18 -45.981 Q24.86 -41.701 29.18 -36.215 Q33.5 -30.73 40.938 -23.417 Q48.375 -16.105 59.875 -5.605 Z"/></g><g id="Semibold-M" transform="matrix(1 0 0 1 1985.97 1126)"><path d="M59.929 13.02  51.054 5.036 Q38.147 -6.551 29.72 -15.012 Q21.293 -23.474 16.383 -30.214 Q11.473 -36.953 9.5 -42.665 Q7.527 -48.377 7.527 -54.48 Q7.527 -67.287 16.09 -75.87 Q24.653 -84.453 37.429 -84.453 Q43.854 -84.453 49.661 -81.986 Q55.467 -79.518 59.929 -74.871 Q64.391 -79.518 70.198 -81.986 Q76.005 -84.453 82.429 -84.453 Q95.266 -84.453 103.87 -75.87 Q112.473 -67.287 112.473 -54.48 Q112.473 -48.447 110.535 -42.735 Q108.598 -37.023 103.652 -30.32 Q98.707 -23.616 90.245 -15.118 Q81.783 -6.621 68.804 5.036 L59.929 13.02 Z M59.929 -4.79 Q71.788 -15.54 79.432 -23.051 Q87.076 -30.561 91.47 -36.143 Q95.864 -41.725 97.543 -45.996 Q99.223 -50.267 99.223 -54.478 Q99.223 -61.697 94.434 -66.45 Q89.646 -71.203 82.463 -71.203 Q76.837 -71.203 71.978 -67.89 Q67.12 -64.578 65.245 -59.453 H54.685 Q52.843 -64.578 47.932 -67.89 Q43.022 -71.203 37.449 -71.203 Q30.334 -71.203 25.591 -66.45 Q20.848 -61.697 20.848 -54.48 Q20.848 -50.193 22.558 -45.844 Q24.269 -41.496 28.667 -35.923 Q33.065 -30.35 40.639 -22.874 Q48.212 -15.398 59.929 -4.79 Z"/></g><g id="Medium-M" transform="matrix(1 0 0 1 1689.91 1126)"><path d="M59.97 11.145  52.033 4.017 Q39.288 -7.447 30.963 -15.787 Q22.639 -24.127 17.749 -30.764 Q12.859 -37.401 10.906 -42.991 Q8.954 -48.58 8.954 -54.48 Q8.954 -66.677 17.12 -74.852 Q25.286 -83.026 37.47 -83.026 Q43.938 -83.026 49.784 -80.396 Q55.63 -77.765 59.97 -72.915 Q64.31 -77.765 70.156 -80.396 Q76.002 -83.026 82.47 -83.026 Q94.68 -83.026 102.863 -74.852 Q111.046 -66.677 111.046 -54.48 Q111.046 -48.61 109.109 -43.021 Q107.171 -37.431 102.266 -30.809 Q97.361 -24.186 89.022 -15.832 Q80.682 -7.477 67.908 4.017 L59.97 11.145 Z M59.97 -4.178 Q71.91 -14.928 79.615 -22.541 Q87.321 -30.154 91.776 -35.797 Q96.231 -41.439 97.951 -45.806 Q99.671 -50.174 99.671 -54.479 Q99.671 -61.86 94.761 -66.756 Q89.85 -71.651 82.484 -71.651 Q76.715 -71.651 71.775 -68.339 Q66.834 -65.026 64.959 -59.901 H55.011 Q53.15 -65.026 48.188 -68.339 Q43.225 -71.651 37.478 -71.651 Q30.141 -71.651 25.25 -66.756 Q20.359 -61.86 20.359 -54.48 Q20.359 -50.142 22.092 -45.742 Q23.825 -41.343 28.282 -35.703 Q32.739 -30.064 40.414 -22.466 Q48.09 -14.869 59.97 -4.178 Z"/></g><g id="Regular-M" transform="matrix(1 0 0 1 1394.06 1126)"><path d="M60 9.77  52.75 3.27 Q40.125 -8.105 31.875 -16.355 Q23.625 -24.605 18.75 -31.167 Q13.875 -37.73 11.938 -43.23 Q10 -48.73 10 -54.48 Q10 -66.23 17.875 -74.105 Q25.75 -81.98 37.5 -81.98 Q44 -81.98 49.875 -79.23 Q55.75 -76.48 60 -71.48 Q64.25 -76.48 70.125 -79.23 Q76 -81.98 82.5 -81.98 Q94.25 -81.98 102.125 -74.105 Q110 -66.23 110 -54.48 Q110 -48.73 108.062 -43.23 Q106.125 -37.73 101.25 -31.167 Q96.375 -24.605 88.125 -16.355 Q79.875 -8.105 67.25 3.27 L60 9.77 Z M60 -3.73 Q72 -14.48 79.75 -22.167 Q87.5 -29.855 92 -35.542 Q96.5 -41.23 98.25 -45.667 Q100 -50.105 100 -54.48 Q100 -61.98 95 -66.98 Q90 -71.98 82.5 -71.98 Q76.625 -71.98 71.625 -68.667 Q66.625 -65.355 64.75 -60.23 H55.25 Q53.375 -65.355 48.375 -68.667 Q43.375 -71.98 37.5 -71.98 Q30 -71.98 25 -66.98 Q20 -61.98 20 -54.48 Q20 -50.105 21.75 -45.667 Q23.5 -41.23 28 -35.542 Q32.5 -29.855 40.25 -22.167 Q48 -14.48 60 -3.73 Z"/></g><g id="Light-M" transform="matrix(1 0 0 1 1098.18 1126)"><path d="M60 6.404  54.481 1.443 Q42.048 -9.836 33.918 -17.942 Q25.789 -26.047 21.034 -32.369 Q16.279 -38.692 14.39 -43.903 Q12.5 -49.115 12.5 -54.48 Q12.5 -65.124 19.678 -72.302 Q26.856 -79.48 37.5 -79.48 Q44.048 -79.48 49.875 -76.417 Q55.702 -73.355 60 -67.634 Q64.298 -73.355 70.125 -76.417 Q75.952 -79.48 82.5 -79.48 Q93.144 -79.48 100.322 -72.302 Q107.5 -65.124 107.5 -54.48 Q107.5 -49.115 105.61 -43.903 Q103.721 -38.692 98.966 -32.369 Q94.211 -26.047 86.106 -17.942 Q78 -9.836 65.519 1.443 L60 6.404 Z M60 -3.73 Q72 -14.528 79.75 -22.24 Q87.5 -29.951 92 -35.639 Q96.5 -41.326 98.25 -45.74 Q100 -50.153 100 -54.48 Q100 -61.98 95 -66.98 Q90 -71.98 82.5 -71.98 Q76.577 -71.98 71.553 -68.619 Q66.529 -65.259 63.596 -59.268 H56.404 Q53.423 -65.307 48.423 -68.643 Q43.423 -71.98 37.5 -71.98 Q30.048 -71.98 25.024 -66.98 Q20 -61.98 20 -54.48 Q20 -50.153 21.75 -45.74 Q23.5 -41.326 28 -35.639 Q32.5 -29.951 40.25 -22.264 Q48 -14.576 60 -3.73 Z"/></g><g id="Thin-M" transform="matrix(1 0 0 1 802.565 1126)"><path d="M60 3.039  56.212 -0.384 Q43.971 -11.566 35.962 -19.528 Q27.952 -27.49 23.317 -33.571 Q18.683 -39.653 16.841 -44.576 Q15 -49.499 15 -54.48 Q15 -64.018 21.481 -70.499 Q27.962 -76.98 37.5 -76.98 Q44.096 -76.98 49.875 -73.605 Q55.654 -70.23 60 -63.788 Q64.346 -70.23 70.125 -73.605 Q75.904 -76.98 82.5 -76.98 Q92.038 -76.98 98.519 -70.499 Q105 -64.018 105 -54.48 Q105 -49.499 103.159 -44.576 Q101.317 -39.653 96.683 -33.571 Q92.048 -27.49 84.087 -19.528 Q76.125 -11.566 63.788 -0.384 L60 3.039 Z M60 -3.73 Q72 -14.576 79.75 -22.312 Q87.5 -30.047 92 -35.735 Q96.5 -41.422 98.25 -45.812 Q100 -50.201 100 -54.48 Q100 -61.98 95 -66.98 Q90 -71.98 82.5 -71.98 Q76.529 -71.98 71.481 -68.571 Q66.433 -65.163 62.442 -58.307 H57.558 Q53.471 -65.259 48.471 -68.619 Q43.471 -71.98 37.5 -71.98 Q30.096 -71.98 25.048 -66.98 Q20 -61.98 20 -54.48 Q20 -50.201 21.75 -45.812 Q23.5 -41.422 28 -35.735 Q32.5 -30.047 40.25 -22.36 Q48 -14.672 60 -3.73 Z"/></g><g id="Ultralight-M" transform="matrix(1 0 0 1 506.415 1126)"><path d="M60 1.02  57.25 -1.48 Q45.125 -12.605 37.188 -20.48 Q29.25 -28.355 24.688 -34.292 Q20.125 -40.23 18.312 -44.98 Q16.5 -49.73 16.5 -54.48 Q16.5 -63.355 22.562 -69.417 Q28.625 -75.48 37.5 -75.48 Q44.125 -75.48 49.875 -71.917 Q55.625 -68.355 60 -61.48 Q64.375 -68.355 70.125 -71.917 Q75.875 -75.48 82.5 -75.48 Q91.375 -75.48 97.438 -69.417 Q103.5 -63.355 103.5 -54.48 Q103.5 -49.73 101.688 -44.98 Q99.875 -40.23 95.312 -34.292 Q90.75 -28.355 82.875 -20.48 Q75 -12.605 62.75 -1.48 L60 1.02 Z M60 -3.73 Q72 -14.605 79.75 -22.355 Q87.5 -30.105 92 -35.792 Q96.5 -41.48 98.25 -45.855 Q100 -50.23 100 -54.48 Q100 -61.98 95 -66.98 Q90 -71.98 82.5 -71.98 Q76.5 -71.98 71.438 -68.542 Q66.375 -65.105 61.75 -57.73 H58.25 Q53.5 -65.23 48.5 -68.605 Q43.5 -71.98 37.5 -71.98 Q30.125 -71.98 25.062 -66.98 Q20 -61.98 20 -54.48 Q20 -50.23 21.75 -45.855 Q23.5 -41.48 28 -35.792 Q32.5 -30.105 40.25 -22.417 Q48 -14.73 60 -3.73 Z"/></g><g id="Bold-S" transform="matrix(1 0 0 1 2294.23 696)"><path d="M47.241 2.445  40.042 -4.064 Q29.785 -13.138 23.128 -19.697 Q16.47 -26.255 12.723 -31.384 Q8.975 -36.512 7.496 -40.852 Q6.016 -45.191 6.016 -49.925 Q6.016 -60.178 12.992 -67.182 Q19.969 -74.187 30.179 -74.187 Q34.907 -74.187 39.348 -72.51 Q43.79 -70.834 47.241 -67.579 Q50.693 -70.834 55.135 -72.51 Q59.576 -74.187 64.303 -74.187 Q74.598 -74.187 81.631 -67.182 Q88.664 -60.178 88.664 -49.925 Q88.664 -45.29 87.283 -41.049 Q85.902 -36.808 82.105 -31.778 Q78.308 -26.748 71.552 -20.042 Q64.797 -13.335 54.244 -3.867 L47.241 2.445 Z M47.241 -13.138 Q56.216 -21.324 61.986 -26.847 Q67.755 -32.37 71.109 -36.512 Q74.462 -40.654 75.744 -43.776 Q77.026 -46.897 77.026 -49.923 Q77.026 -55.349 73.377 -58.949 Q69.727 -62.549 64.351 -62.549 Q61.246 -62.549 58.435 -61.119 Q55.625 -59.689 53.455 -57.125 L50.003 -53.081 H44.579 L41.127 -57.125 Q39.004 -59.689 36.021 -61.119 Q33.039 -62.549 30.206 -62.549 Q24.925 -62.549 21.339 -58.949 Q17.753 -55.349 17.753 -49.925 Q17.753 -46.793 18.979 -43.712 Q20.206 -40.631 23.467 -36.55 Q26.727 -32.468 32.448 -26.945 Q38.168 -21.422 47.241 -13.138 Z"/></g><g id="Semibold-S" transform="matrix(1 0 0 1 1998.1 696)"><path d="M47.284 0.472  41.071 -5.136 Q30.985 -14.081 24.435 -20.511 Q17.885 -26.941 14.159 -31.962 Q10.433 -36.984 8.975 -41.195 Q7.517 -45.406 7.517 -49.925 Q7.517 -59.536 14.076 -66.111 Q20.635 -72.686 30.222 -72.686 Q34.995 -72.686 39.478 -70.838 Q43.961 -68.99 47.284 -65.521 Q50.607 -68.99 55.09 -70.838 Q59.573 -72.686 64.346 -72.686 Q73.981 -72.686 80.572 -66.111 Q87.163 -59.536 87.163 -49.925 Q87.163 -45.461 85.782 -41.349 Q84.402 -37.237 80.647 -32.293 Q76.893 -27.349 70.266 -20.792 Q63.639 -14.236 53.3 -4.939 L47.284 0.472 Z M47.284 -12.495 Q56.345 -20.681 62.179 -26.311 Q68.013 -31.941 71.43 -36.148 Q74.848 -40.354 76.173 -43.576 Q77.498 -46.798 77.498 -49.924 Q77.498 -55.521 73.72 -59.271 Q69.942 -63.021 64.373 -63.021 Q61.118 -63.021 58.221 -61.591 Q55.324 -60.161 53.155 -57.596 L49.703 -53.553 H44.922 L41.47 -57.596 Q39.326 -60.161 36.29 -61.591 Q33.254 -63.021 30.237 -63.021 Q24.723 -63.021 20.98 -59.271 Q17.238 -55.521 17.238 -49.925 Q17.238 -46.74 18.489 -43.605 Q19.74 -40.47 23.062 -36.319 Q26.384 -32.168 32.212 -26.517 Q38.039 -20.865 47.284 -12.495 Z"/></g><g id="Medium-S" transform="matrix(1 0 0 1 1701.85 696)"><path d="M47.316 -1.007  41.843 -5.941 Q31.886 -14.789 25.416 -21.122 Q18.947 -27.456 15.236 -32.397 Q11.526 -37.338 10.084 -41.452 Q8.643 -45.566 8.643 -49.925 Q8.643 -59.055 14.888 -65.308 Q21.134 -71.56 30.254 -71.56 Q35.062 -71.56 39.576 -69.584 Q44.09 -67.607 47.316 -63.977 Q50.543 -67.607 55.057 -69.584 Q59.571 -71.56 64.379 -71.56 Q73.519 -71.56 79.778 -65.308 Q86.037 -59.055 86.037 -49.925 Q86.037 -45.59 84.657 -41.574 Q83.276 -37.558 79.554 -32.679 Q75.832 -27.799 69.301 -21.355 Q62.771 -14.911 52.593 -5.743 L47.316 -1.007 Z M47.316 -12.012 Q56.441 -20.198 62.324 -25.909 Q68.206 -31.619 71.671 -35.874 Q75.137 -40.129 76.494 -43.427 Q77.852 -46.725 77.852 -49.925 Q77.852 -55.65 73.977 -59.512 Q70.103 -63.375 64.39 -63.375 Q61.021 -63.375 58.06 -61.945 Q55.099 -60.514 52.929 -57.95 L49.478 -53.907 H45.179 L41.727 -57.95 Q39.568 -60.514 36.491 -61.945 Q33.415 -63.375 30.261 -63.375 Q24.57 -63.375 20.711 -59.512 Q16.852 -55.65 16.852 -49.925 Q16.852 -46.7 18.121 -43.524 Q19.39 -40.349 22.758 -36.146 Q26.127 -31.943 32.035 -26.195 Q37.943 -20.447 47.316 -12.012 Z"/></g><g id="Regular-S" transform="matrix(1 0 0 1 1405.73 696)"><path d="M47.34 -2.092  42.409 -6.53 Q32.546 -15.308 26.136 -21.57 Q19.725 -27.833 16.027 -32.715 Q12.328 -37.597 10.898 -41.641 Q9.468 -45.684 9.468 -49.925 Q9.468 -58.703 15.484 -64.719 Q21.5 -70.735 30.278 -70.735 Q35.111 -70.735 39.647 -68.664 Q44.184 -66.593 47.34 -62.845 Q50.496 -66.593 55.033 -68.664 Q59.57 -70.735 64.402 -70.735 Q73.18 -70.735 79.196 -64.719 Q85.212 -58.703 85.212 -49.925 Q85.212 -45.684 83.831 -41.739 Q82.451 -37.794 78.752 -32.962 Q75.054 -28.129 68.594 -21.768 Q62.134 -15.406 52.074 -6.333 L47.34 -2.092 Z M47.34 -11.659 Q56.512 -19.844 62.43 -25.614 Q68.347 -31.384 71.848 -35.674 Q75.35 -39.964 76.73 -43.317 Q78.111 -46.67 78.111 -49.925 Q78.111 -55.744 74.166 -59.689 Q70.221 -63.634 64.402 -63.634 Q60.95 -63.634 57.942 -62.204 Q54.934 -60.774 52.764 -58.21 L49.312 -54.166 H45.367 L41.916 -58.21 Q39.746 -60.774 36.639 -62.204 Q33.532 -63.634 30.278 -63.634 Q24.459 -63.634 20.514 -59.689 Q16.569 -55.744 16.569 -49.925 Q16.569 -46.67 17.851 -43.465 Q19.133 -40.26 22.536 -36.019 Q25.938 -31.778 31.905 -25.959 Q37.872 -20.14 47.34 -11.659 Z"/></g><g id="Light-S" transform="matrix(1 0 0 1 1109.75 696)"><path d="M47.34 -4.747  43.774 -7.972 Q34.064 -16.673 27.748 -22.822 Q21.432 -28.971 17.829 -33.663 Q14.225 -38.356 12.833 -42.172 Q11.441 -45.988 11.441 -49.925 Q11.441 -57.83 16.907 -63.296 Q22.373 -68.762 30.278 -68.762 Q35.148 -68.762 39.647 -66.445 Q44.146 -64.127 47.34 -59.81 Q50.534 -64.127 55.033 -66.445 Q59.532 -68.762 64.402 -68.762 Q72.307 -68.762 77.773 -63.296 Q83.239 -57.83 83.239 -49.925 Q83.239 -45.988 81.897 -42.27 Q80.554 -38.553 76.95 -33.91 Q73.347 -29.267 67 -23.02 Q60.654 -16.772 50.708 -7.774 L47.34 -4.747 Z M47.34 -11.659 Q56.512 -19.882 62.43 -25.671 Q68.347 -31.459 71.848 -35.75 Q75.35 -40.04 76.73 -43.374 Q78.111 -46.708 78.111 -49.925 Q78.111 -55.744 74.166 -59.689 Q70.221 -63.634 64.402 -63.634 Q60.912 -63.634 57.885 -62.166 Q54.858 -60.698 51.854 -57.451 L48.402 -53.407 H46.278 L42.826 -57.451 Q39.784 -60.736 36.677 -62.185 Q33.57 -63.634 30.278 -63.634 Q24.497 -63.634 20.533 -59.689 Q16.569 -55.744 16.569 -49.925 Q16.569 -46.708 17.851 -43.522 Q19.133 -40.336 22.536 -36.095 Q25.938 -31.854 31.905 -26.035 Q37.872 -20.216 47.34 -11.659 Z"/></g><g id="Thin-S" transform="matrix(1 0 0 1 814.015 696)"><path d="M47.34 -7.403  45.14 -9.413 Q35.581 -18.039 29.36 -24.074 Q23.139 -30.109 19.63 -34.612 Q16.121 -39.114 14.767 -42.703 Q13.413 -46.291 13.413 -49.925 Q13.413 -56.958 18.329 -61.874 Q23.245 -66.79 30.278 -66.79 Q35.186 -66.79 39.647 -64.226 Q44.108 -61.661 47.34 -56.776 Q50.572 -61.661 55.033 -64.226 Q59.494 -66.79 64.402 -66.79 Q71.435 -66.79 76.351 -61.874 Q81.267 -56.958 81.267 -49.925 Q81.267 -46.291 79.962 -42.801 Q78.657 -39.312 75.149 -34.858 Q71.64 -30.405 65.407 -24.271 Q59.175 -18.137 49.343 -9.216 L47.34 -7.403 Z M47.34 -11.659 Q56.512 -19.92 62.43 -25.728 Q68.347 -31.535 71.848 -35.825 Q75.35 -40.116 76.73 -43.431 Q78.111 -46.746 78.111 -49.925 Q78.111 -55.744 74.166 -59.689 Q70.221 -63.634 64.402 -63.634 Q60.874 -63.634 57.828 -62.128 Q54.782 -60.622 50.944 -56.692 L47.492 -52.649 H47.188 L43.736 -56.692 Q39.822 -60.698 36.715 -62.166 Q33.608 -63.634 30.278 -63.634 Q24.535 -63.634 20.552 -59.689 Q16.569 -55.744 16.569 -49.925 Q16.569 -46.746 17.851 -43.579 Q19.133 -40.412 22.536 -36.171 Q25.938 -31.93 31.905 -26.111 Q37.872 -20.292 47.34 -11.659 Z"/></g><g id="Ultralight-S" transform="matrix(1 0 0 1 517.792 696)"><path d="M47.34 -8.996  45.959 -10.278 Q36.491 -18.858 30.327 -24.825 Q24.163 -30.792 20.711 -35.181 Q17.259 -39.569 15.928 -43.021 Q14.597 -46.473 14.597 -49.925 Q14.597 -56.434 19.183 -61.02 Q23.769 -65.606 30.278 -65.606 Q35.209 -65.606 39.647 -62.894 Q44.085 -60.182 47.34 -54.955 Q50.595 -60.182 55.033 -62.894 Q59.471 -65.606 64.402 -65.606 Q70.911 -65.606 75.497 -61.02 Q80.084 -56.434 80.084 -49.925 Q80.084 -46.473 78.801 -43.12 Q77.519 -39.767 74.067 -35.427 Q70.615 -31.088 64.451 -25.022 Q58.287 -18.957 48.524 -10.081 L47.34 -8.996 Z M47.34 -11.659 Q56.512 -19.943 62.43 -25.762 Q68.347 -31.581 71.848 -35.871 Q75.35 -40.161 76.73 -43.465 Q78.111 -46.769 78.111 -49.925 Q78.111 -55.744 74.166 -59.689 Q70.221 -63.634 64.402 -63.634 Q60.852 -63.634 57.794 -62.105 Q54.737 -60.577 50.397 -56.237 L46.946 -52.193 H47.735 L44.283 -56.237 Q39.845 -60.675 36.738 -62.155 Q33.631 -63.634 30.278 -63.634 Q24.558 -63.634 20.563 -59.689 Q16.569 -55.744 16.569 -49.925 Q16.569 -46.769 17.851 -43.613 Q19.133 -40.457 22.536 -36.216 Q25.938 -31.975 31.905 -26.156 Q37.872 -20.338 47.34 -11.659 Z"/></g></g></svg>