<svg width="50" height="51" viewBox="0 0 50 51" fill="none" xmlns="http://www.w3.org/2000/svg">
<path fill-rule="evenodd" clip-rule="evenodd" d="M31.5 0C32.3284 0 33 0.671573 33 1.5V6C33 6.82843 32.3284 7.5 31.5 7.5C30.6716 7.5 30 6.82843 30 6V1.5C30 0.671573 30.6716 0 31.5 0ZM18.5238 4.86111C19.1528 4.32198 20.0998 4.39482 20.6389 5.02381L23.6389 8.52381C24.178 9.1528 24.1052 10.0998 23.4762 10.6389C22.8472 11.178 21.9002 11.1052 21.3611 10.4762L18.3611 6.97619C17.822 6.3472 17.8948 5.40025 18.5238 4.86111ZM22.818 15.3649C24.6224 16.5292 25.5 18.2828 25.5 20C25.5 20.8284 26.1716 21.5 27 21.5C29.3238 21.5 31.336 21.9299 32.8252 22.5409C33.1515 22.6747 33.4412 22.8122 33.6971 22.9497C34.385 23.3658 34.9734 23.8879 35.4291 24.5439L35.4327 24.549C35.4802 24.6176 35.5262 24.6876 35.5708 24.7591C36.1202 25.6406 36.5 26.8381 36.5 28.5C36.5 31.8801 35.3147 33.4759 33.9535 34.329C32.4553 35.2678 30.4447 35.5 28.5 35.5C27.6716 35.5 27 36.1716 27 37C27 37.8284 27.6716 38.5 28.5 38.5C30.5553 38.5 33.2947 38.2822 35.5465 36.8711C37.9353 35.3741 39.5 32.72 39.5 28.5C39.5 26.704 39.1506 25.1712 38.5124 23.8823C40.2651 21.7443 41.1289 19.1407 40.8875 16.5799C40.6091 13.6254 38.8741 10.9045 35.7183 9.18316C32.9592 7.67823 30.1196 8.04006 27.7971 9.03245C25.9689 9.81358 24.3714 11.016 23.1919 12.17C21.5797 11.4233 19.6561 11 17.5 11C14.5162 11 12.1326 12.3514 10.5193 14.1114C9.30686 15.4341 8.47227 17.0503 8.14914 18.6072C6.6168 18.8438 4.89876 19.4875 3.42709 20.6875C1.44599 22.3028 0 24.858 0 28.5C0 32.0881 1.28186 34.6653 3.30209 36.3125C5.26999 37.9171 7.76602 38.5 10 38.5C10.8284 38.5 11.5 37.8284 11.5 37C11.5 36.1716 10.8284 35.5 10 35.5C8.23398 35.5 6.48001 35.0329 5.19791 33.9875C3.96814 32.9847 3 31.3119 3 28.5C3 25.742 4.05401 24.0472 5.32291 23.0125C6.64781 21.9322 8.30113 21.5 9.5 21.5C10.3284 21.5 11 20.8284 11 20C11 18.9405 11.5615 17.4141 12.7307 16.1386C13.8674 14.8986 15.4838 14 17.5 14C19.6464 14 21.3479 14.4795 22.6201 15.2419C22.6659 15.275 22.7137 15.3057 22.7634 15.3337C22.7813 15.3438 22.7995 15.3542 22.818 15.3649ZM36.6656 21.346C37.6315 19.9134 38.0393 18.3309 37.9008 16.8614C37.7226 14.9703 36.6259 13.0955 34.2817 11.8168C32.5712 10.8839 30.7442 11.0355 28.9758 11.7912C27.7809 12.3017 26.6798 13.065 25.7911 13.8488C26.8774 14.8337 28.0177 16.3566 28.3813 18.5359C30.2944 18.6387 32.6429 18.9991 34.6944 20.0704C34.8628 20.1583 35.0296 20.2513 35.1944 20.3496C35.732 20.6441 36.2308 20.9767 36.6656 21.346ZM43.5607 5.43934C44.1464 6.02513 44.1464 6.97487 43.5607 7.56066L40.5607 10.5607C39.9749 11.1464 39.0251 11.1464 38.4393 10.5607C37.8536 9.97487 37.8536 9.02513 38.4393 8.43934L41.4393 5.43934C42.0251 4.85355 42.9749 4.85355 43.5607 5.43934ZM43 16.5C42.1716 16.5 41.5 17.1716 41.5 18C41.5 18.8284 42.1716 19.5 43 19.5H48C48.8284 19.5 49.5 18.8284 49.5 18C49.5 17.1716 48.8284 16.5 48 16.5H43ZM42.5607 26.9393L45.0607 29.4393C45.6464 30.0251 45.6464 30.9749 45.0607 31.5607C44.4749 32.1464 43.5251 32.1464 42.9393 31.5607L40.4393 29.0607C39.8536 28.4749 39.8536 27.5251 40.4393 26.9393C41.0251 26.3536 41.9749 26.3536 42.5607 26.9393ZM21.4908 31.1656C21.5823 30.3423 20.989 29.6007 20.1656 29.5092C19.3423 29.4177 18.6007 30.011 18.5092 30.8344L16.5092 48.8344C16.4177 49.6577 17.011 50.3993 17.8344 50.4908C18.6577 50.5823 19.3993 49.989 19.4908 49.1656L21.4908 31.1656ZM25.1656 29.5092C25.989 29.6007 26.5823 30.3423 26.4908 31.1656L24.7686 46.6656C24.6771 47.489 23.9355 48.0823 23.1121 47.9908C22.2888 47.8993 21.6955 47.1577 21.7869 46.3344L23.5092 30.8344C23.6007 30.011 24.3423 29.4177 25.1656 29.5092ZM16.4908 31.1656C16.5823 30.3423 15.989 29.6007 15.1656 29.5092C14.3423 29.4177 13.6006 30.011 13.5092 30.8344L12.0647 43.8344C11.9732 44.6577 12.5665 45.3993 13.3899 45.4908C14.2133 45.5823 14.9549 44.989 15.0464 44.1656L16.4908 31.1656Z" fill="#002052"/>
</svg>
