<svg width="51" height="51" viewBox="0 0 51 51" fill="none" xmlns="http://www.w3.org/2000/svg">
<path fill-rule="evenodd" clip-rule="evenodd" d="M34.8395 7.09402L34.839 7.09287C34.4527 6.25471 34.309 5.33321 34.4125 4.43047C34.4309 4.26986 34.4571 4.10984 34.4912 3.95099C34.5363 3.74059 34.5953 3.53225 34.668 3.32729C35.1046 2.09745 36.0047 1.08704 37.1762 0.511847C38.3476 -0.0633452 39.6975 -0.157733 40.9376 0.248842C42.1777 0.655416 43.2097 1.53073 43.8132 2.68785C44.4167 3.84497 44.5439 5.19218 44.1675 6.44179C43.7912 7.69139 42.9412 8.74434 41.7991 9.37578C40.657 10.0072 39.3133 10.1671 38.0549 9.82124C37.8452 9.76361 37.6406 9.69269 37.4423 9.6093C37.2925 9.54634 37.1462 9.47628 37.004 9.39945C36.2041 8.96747 35.5305 8.32182 35.0642 7.52485L35.6525 7.18068L37.6536 6.00994L37.9285 5.84914L38.2365 5.66893L38.2419 5.66577L38.2422 5.66616C38.4051 5.94451 38.6641 6.15281 38.9692 6.25283C38.9894 6.25947 39.0099 6.26563 39.0305 6.27131C39.3417 6.35682 39.6727 6.32507 39.961 6.18348C39.9802 6.17408 39.9991 6.1642 40.0178 6.15384C40.3003 5.9977 40.5149 5.74381 40.6224 5.44108C40.6295 5.42099 40.6362 5.40069 40.6424 5.38018C40.7354 5.07118 40.7117 4.73954 40.5772 4.44784C40.5682 4.42848 40.5588 4.4093 40.5489 4.39032C40.539 4.37133 40.5287 4.35263 40.5179 4.33423C40.3557 4.05695 40.0973 3.84772 39.7907 3.74718C39.7703 3.74051 39.7499 3.73435 39.7293 3.7287C39.4196 3.64356 39.0885 3.6743 38.7988 3.81653C38.7796 3.82597 38.7607 3.83585 38.742 3.84616C38.4609 4.00158 38.2454 4.25481 38.1375 4.55893C38.1303 4.57911 38.1236 4.59941 38.1175 4.61982C38.0248 4.92742 38.0475 5.25912 38.1827 5.55217L38.177 5.55479L37.8529 5.70425L37.5638 5.83761L35.4584 6.80858L34.8395 7.09402ZM0.603162 26.7747C0.579372 26.751 -0.991108 25.0189 1.0337 23.94L38.5356 5.44503L2.3413 25.1569C2.1776 25.246 2.21412 25.4909 2.39671 25.5284L33.9073 32.0015C34.1102 32.0432 34.2349 31.7867 34.0767 31.6529L33.3495 31.0376C33.284 30.9715 33.2791 30.8853 33.316 30.8163C33.3222 30.8047 33.3307 30.7944 33.3406 30.7857C33.4098 30.7251 33.4969 30.7074 33.5632 30.752L36.1361 32.4266C36.157 32.4402 36.1803 32.4498 36.2048 32.4549L37.1383 32.6474C37.2819 32.677 37.4075 32.5471 37.3731 32.4046L34.4075 20.1269C34.386 20.0398 34.4238 19.9528 34.5028 19.9203C34.518 19.914 34.5346 19.9126 34.5511 19.9126L34.5737 19.9127C34.6448 19.9128 34.7158 19.9605 34.7394 20.032L38.5899 33.0094C38.6314 33.1492 38.8037 33.1991 38.9134 33.103L49.7123 23.6506C49.7759 23.5869 49.8773 23.5802 49.9318 23.6475C49.9388 23.656 49.9454 23.6649 49.9518 23.6739C49.958 23.6824 49.964 23.6911 49.9699 23.6997C50.0157 23.7661 50.0131 23.8561 49.9621 23.9027C49.9539 23.9102 49.9448 23.9169 49.9367 23.9245L39.9657 33.3302C39.8237 33.464 39.9379 33.7011 40.131 33.6737L47.1402 32.677C47.235 32.6533 47.3297 32.7249 47.3533 32.8203C47.3768 32.9156 47.3056 33.0108 47.2108 33.0345L40.6738 34.5041C40.4674 34.5505 40.465 34.8438 40.6706 34.8936L48.7459 36.8488C48.8325 36.8707 48.8795 36.9522 48.8868 37.0389C48.8882 37.0551 48.8863 37.0715 48.8804 37.0867C48.8481 37.1699 48.7611 37.228 48.6743 37.206L39.5443 35.452C39.3673 35.418 39.2391 35.6173 39.3436 35.7643L47.8206 47.6986C47.827 47.7076 47.8343 47.7157 47.8411 47.7243C47.8919 47.7885 47.8769 47.8815 47.81 47.933C47.7929 47.9461 47.7753 47.9591 47.7571 47.9705C47.6905 48.0124 47.6004 47.9904 47.5546 47.9184C47.548 47.908 47.5418 47.8973 47.5344 47.8874L39.387 37.0519C39.2531 36.8739 38.9722 37.0151 39.0353 37.2287L42.8735 50.2306C42.8971 50.326 42.8495 50.4212 42.7547 50.4449C42.6599 50.4686 42.5651 50.4208 42.5416 50.3255L38.3366 37.0782C38.268 36.862 37.9494 36.9089 37.946 37.1358L37.912 39.4551C37.9118 39.4705 37.9103 39.486 37.9046 39.5003C37.8726 39.5807 37.7854 39.6192 37.6982 39.5971C37.6149 39.576 37.5683 39.4998 37.5745 39.4169C37.5747 39.4132 37.575 39.4094 37.5753 39.4057C37.5769 39.3864 37.5785 39.3671 37.5765 39.3478L37.2708 36.2977C37.2606 36.1956 37.1746 36.1198 37.0721 36.1147C37.0099 36.1116 36.9447 36.1056 36.8736 36.0936L35.4234 35.7443C35.3955 35.7376 35.3665 35.7369 35.3384 35.7424L24.6898 37.8158C24.595 37.8395 24.5003 37.7679 24.4768 37.6726C24.4532 37.5773 24.5244 37.4821 24.6193 37.4584L32.8855 35.4691C33.0887 35.4202 33.0902 35.1317 32.8875 35.0807L1.40839 27.1571C1.24696 27.1223 0.868857 27.0399 0.603162 26.7747Z" fill="#002052"/>
</svg>
