<svg width="52" height="35" viewBox="0 0 52 35" fill="none" xmlns="http://www.w3.org/2000/svg">
<path fill-rule="evenodd" clip-rule="evenodd" d="M23.5 0.5C22.3807 0.5 21.3915 1.05095 20.7142 1.73663C20.6862 1.76488 20.6586 1.79365 20.6312 1.82293C20.031 1.41314 19.2987 1.13265 18.5 1.13265C17.3807 1.13265 16.3915 1.6836 15.7142 2.36928C15.0356 3.0561 14.5 4.04918 14.5 5.16327V9.5H14V5C14 3.89543 13.1046 3 12 3H7C5.89543 3 5 3.89543 5 5V10H2C0.895431 10 0 10.8954 0 12V17C0 18.1046 0.895431 19 2 19H5V24C5 25.1046 5.89543 26 7 26H12C13.1046 26 14 25.1046 14 24V19.5H14.5465C14.8782 23.182 16.9129 25.2778 18.25 26.2381V33V34.5H19.75H32.25H33.75V33V26.3156C35.2876 25.372 37.5 23.2934 37.5 19.7143V19.6935V19.6726V19.6516V19.6305V19.6094V19.5881V19.5668V19.5454V19.5239V19.5023V19.5H38V24C38 25.1046 38.8954 26 40 26H45C46.1046 26 47 25.1046 47 24V19H50C51.1046 19 52 18.1046 52 17V12C52 10.8954 51.1046 10 50 10H47V5C47 3.89543 46.1046 3 45 3H40C38.8954 3 38 3.89543 38 5V9.5H37.5V9.47449V9.44379V9.41313V9.3825V9.35191V9.32134V9.29082V9.26032V9.22986V9.19943V9.16904V9.13869V9.10837V9.07809V9.04784V9.01763V8.98746V8.95732V8.92722V8.89716V8.86714V8.83716V8.80722V8.77731V8.74745V8.71763V8.68784V8.6581V8.6284V8.59874V8.56913V8.53955V8.51002V8.48053V8.45108V8.42168V8.39232V8.36301V8.33374V8.30452V8.27534V8.24621V8.21712V8.18808V8.15909V8.13014V8.10124V8.07239V8.04359V8.01483V7.98613V7.95747V7.92887V7.90031V7.8718V7.84335V7.81494V7.78659V7.75829V7.73004V7.70184V7.67369V7.6456V7.61756V7.58958V7.56165V7.53377V7.50595V7.47818V7.45047V7.42281V7.39521V7.36767V7.34018V7.31275V7.28538V7.25807V7.23081V7.20361V7.17648V7.1494V7.12238V7.09542V7.06852V7.04168V7.0149V6.98818V6.96153V6.93494V6.90841V6.88194V6.85553V6.82919V6.80291V6.7767V6.75055V6.72446V6.69844V6.67249V6.6466V6.62078V6.59502V6.56933V6.54371V6.51816V6.49267V6.46725V6.4419V6.41662V6.39141V6.36626V6.34119V6.31619V6.29126V6.2664V6.24161V6.21689V6.19224V6.16767V6.14317V6.11874V6.09439V6.07011V6.0459V6.02177V5.99771V5.97373V5.94982V5.92599V5.90223V5.87855V5.85495V5.83143V5.80798V5.78461V5.76132V5.7381V5.71497V5.69192V5.66894V5.64605V5.62323V5.6005V5.57784V5.55527V5.53278V5.51037V5.48804V5.4658V5.44364V5.42156V5.39957V5.37766V5.35584V5.3341V5.31244V5.29087V5.26939V5.24799V5.22668V5.20545V5.18432V5.16327C37.5 4.12453 36.931 3.14341 36.3155 2.48371C35.6907 1.81419 34.6969 1.13265 33.5 1.13265C32.6771 1.13265 31.9351 1.4315 31.3506 1.80358C31.3292 1.78095 31.3076 1.75863 31.2858 1.73663C30.6085 1.05095 29.6193 0.5 28.5 0.5C27.5293 0.5 26.6565 0.914373 26 1.47164C25.3435 0.914373 24.4707 0.5 23.5 0.5ZM38 12.5H37.5V12.519V12.5512V12.5833V12.6155V12.6477V12.6799V12.7121V12.7442V12.7764V12.8086V12.8407V12.8729V12.905V12.9372V12.9693V13.0014V13.0336V13.0657V13.0978V13.1299V13.162V13.1941V13.2262V13.2583V13.2903V13.3224V13.3544V13.3865V13.4185V13.4505V13.4825V13.5145V13.5465V13.5784V13.6104V13.6423V13.6743V13.7062V13.7381V13.77V13.8018V13.8337V13.8655V13.8974V13.9292V13.961V13.9927V14.0245V14.0562V14.088V14.1197V14.1514V14.183V14.2147V14.2463V14.2779V14.3095V14.3411V14.3726V14.4042V14.4357V14.4671V14.4986V14.53V14.5615V14.5929V14.6242V14.6556V14.6869V14.7182V14.7495V14.7807V14.8119V14.8431V14.8743V14.9054V14.9366V14.9676V14.9987V15.0297V15.0607V15.0917V15.1227V15.1536V15.1845V15.2153V15.2461V15.2769V15.3077V15.3384V15.3691V15.3998V15.4304V15.461V15.4916V15.5221V15.5526V15.5831V15.6135V15.6439V15.6743V15.7046V15.7349V15.7652V15.7954V15.8256V15.8557V15.8858V15.9159V15.9459V15.9759V16.0059V16.0358V16.0656V16.0955V16.1253V16.155V16.1847V16.2144V16.244V16.2736V16.3031V16.3326V16.3621V16.3915V16.4209V16.4502V16.4795V16.5H38V12.5ZM47 13V16H49V13H47ZM5 16V13H3V16H5ZM8 17V23H11V6H8V12V17ZM22.9346 16.5H14V12.5H15.3423C15.5024 12.7065 15.673 12.8916 15.8425 13.0523C16.4882 13.6651 17.465 14.2551 18.5 14.2551C19.535 14.2551 20.5118 13.6651 21.1575 13.0523C21.2256 12.9877 21.2939 12.9192 21.3616 12.847C21.618 13.0286 21.9191 13.2094 22.2518 13.3508C22.1792 13.6261 22.1364 13.9181 22.1364 14.2222C22.1364 15.1287 22.5166 15.9272 22.9346 16.5ZM17.5649 19.5H21.2183C20.7746 20.2232 20.5 21.0559 20.5 22C20.5 22.8284 21.1716 23.5 22 23.5C22.8284 23.5 23.5 22.8284 23.5 22C23.5 21.2003 24.1588 20.247 25.7418 19.4513C27.259 18.6888 29.153 18.3398 30.5674 18.4915C31.3801 18.5786 32.113 17.9989 32.2155 17.188C32.3179 16.377 31.7522 15.6333 30.9433 15.5156L30.7114 15.4818C29.48 15.3015 27.2812 14.9796 25.5489 14.9471C25.5092 14.9108 25.4615 14.862 25.4109 14.8001C25.3198 14.6888 25.2447 14.5662 25.1956 14.4509C25.1461 14.3345 25.1364 14.2573 25.1364 14.2222C25.1364 14.1871 25.1461 14.1099 25.1956 13.9935C25.2447 13.8782 25.3198 13.7556 25.4109 13.6443C25.4603 13.584 25.5069 13.536 25.546 13.5H34.5V13.5145V13.5465V13.5784V13.6104V13.6423V13.6743V13.7062V13.7381V13.77V13.8018V13.8337V13.8655V13.8974V13.9292V13.961V13.9927V14.0245V14.0562V14.088V14.1197V14.1514V14.183V14.2147V14.2463V14.2779V14.3095V14.3411V14.3726V14.4042V14.4357V14.4671V14.4986V14.53V14.5615V14.5929V14.6242V14.6556V14.6869V14.7182V14.7495V14.7807V14.8119V14.8431V14.8743V14.9054V14.9366V14.9676V14.9987V15.0297V15.0607V15.0917V15.1227V15.1536V15.1845V15.2153V15.2461V15.2769V15.3077V15.3384V15.3691V15.3998V15.4304V15.461V15.4916V15.5221V15.5526V15.5831V15.6135V15.6439V15.6743V15.7046V15.7349V15.7652V15.7954V15.8256V15.8557V15.8858V15.9159V15.9459V15.9759V16.0059V16.0358V16.0656V16.0955V16.1253V16.155V16.1847V16.2144V16.244V16.2736V16.3031V16.3326V16.3621V16.3915V16.4209V16.4502V16.4795V16.5087V16.5379V16.567V16.5961V16.6252V16.6542V16.6831V16.712V16.7409V16.7697V16.7985V16.8272V16.8559V16.8845V16.913V16.9416V16.97V16.9984V17.0268V17.0551V17.0834V17.1116V17.1397V17.1679V17.1959V17.2239V17.2518V17.2797V17.3076V17.3353V17.3631V17.3907V17.4183V17.4459V17.4734V17.5008V17.5282V17.5555V17.5828V17.61V17.6372V17.6643V17.6913V17.7183V17.7452V17.772V17.7988V17.8255V17.8522V17.8788V17.9054V17.9318V17.9583V17.9846V18.0109V18.0371V18.0633V18.0894V18.1154V18.1414V18.1673V18.1931V18.2189V18.2446V18.2702V18.2958V18.3213V18.3467V18.3721V18.3974V18.4226V18.4478V18.4729V18.4979V18.5228V18.5477V18.5725V18.5972V18.6219V18.6465V18.671V18.6955V18.7198V18.7441V18.7683V18.7925V18.8166V18.8406V18.8645V18.8883V18.9121V18.9358V18.9594V18.983V19.0064V19.0298V19.0531V19.0763V19.0995V19.1226V19.1455V19.1685V19.1913V19.214V19.2367V19.2593V19.2818V19.3042V19.3266V19.3488V19.371V19.3931V19.4151V19.437V19.4589V19.4806V19.5023V19.5239V19.5454V19.5668V19.5881V19.6094V19.6305V19.6516V19.6726V19.6935V19.7143C34.5 22.3773 32.4616 23.7042 31.687 24.0178L30.75 24.3972V25.4082V31.5H21.25V25.4082V24.4862L20.4274 24.0698C19.9495 23.828 17.9515 22.5366 17.5649 19.5ZM34.5 10.5V10.4717V10.4401V10.4086V10.3771V10.3456V10.3142V10.2827V10.2513V10.2199V10.1886V10.1572V10.1259V10.0946V10.0633V10.0321V10.0009V9.9697V9.93853V9.9074V9.87629V9.8452V9.81415V9.78312V9.75212V9.72116V9.69022V9.65931V9.62843V9.59758V9.56676V9.53597V9.50521V9.47449V9.44379V9.41313V9.3825V9.35191V9.32134V9.29082V9.26032V9.22986V9.19943V9.16904V9.13869V9.10837V9.07809V9.04784V9.01763V8.98746V8.95732V8.92722V8.89716V8.86714V8.83716V8.80722V8.77731V8.74745V8.71763V8.68784V8.6581V8.6284V8.59874V8.56913V8.53955V8.51002V8.48053V8.45108V8.42168V8.39232V8.36301V8.33374V8.30452V8.27534V8.24621V8.21712V8.18808V8.15909V8.13014V8.10124V8.07239V8.04359V8.01483V7.98613V7.95747V7.92887V7.90031V7.8718V7.84335V7.81494V7.78659V7.75829V7.73004V7.70184V7.67369V7.6456V7.61756V7.58958V7.56165V7.53377V7.50595V7.47818V7.45047V7.42281V7.39521V7.36767V7.34018V7.31275V7.28538V7.25807V7.23081V7.20361V7.17648V7.1494V7.12238V7.09542V7.06852V7.04168V7.0149V6.98818V6.96153V6.93494V6.90841V6.88194V6.85553V6.82919V6.80291V6.7767V6.75055V6.72446V6.69844V6.67249V6.6466V6.62078V6.59502V6.56933V6.54371V6.51816V6.49267V6.46725V6.4419V6.41662V6.39141V6.36626V6.34119V6.31619V6.29126V6.2664V6.24161V6.21689V6.19224V6.16767V6.14317V6.11874V6.09439V6.07011V6.0459V6.02177V5.99771V5.97373V5.94982V5.92599V5.90223V5.87855V5.85495V5.83143V5.80798V5.78461V5.76132V5.7381V5.71497V5.69192V5.66894V5.64605V5.62323V5.6005V5.57784V5.55527V5.53278V5.51037V5.48804V5.4658V5.44364V5.42156V5.39957V5.37766V5.35584V5.3341V5.31244V5.29087V5.26939V5.24799V5.22668V5.20545V5.18432V5.16784L34.4999 5.1683L34.4994 5.16567C34.497 5.15224 34.4857 5.08765 34.4317 4.97483C34.3655 4.83616 34.2597 4.67787 34.122 4.5304C33.8093 4.19522 33.5531 4.13265 33.5 4.13265C33.4379 4.13265 33.3314 4.14952 33.1846 4.2139C33.039 4.27776 32.8866 4.3744 32.7484 4.49094C32.6352 4.58648 32.5523 4.67779 32.5 4.74663V10.5H34.5ZM29.5 10.5V4.53061C29.5 4.37939 29.4106 4.10717 29.1517 3.845C28.8915 3.5817 28.6307 3.5 28.5 3.5C28.3693 3.5 28.1085 3.5817 27.8483 3.845C27.5894 4.10717 27.5 4.37939 27.5 4.53061V10.2245V10.5H29.5ZM19.1517 4.47766C19.4106 4.73982 19.5 5.01204 19.5 5.16327V10.2245C19.5 10.2895 19.4303 10.5556 19.0925 10.8762C18.9435 11.0176 18.7855 11.1252 18.6502 11.1917C18.5748 11.2289 18.5245 11.2446 18.5 11.2511C18.4755 11.2446 18.4252 11.2289 18.3498 11.1917C18.2145 11.1252 18.0565 11.0176 17.9075 10.8762C17.5697 10.5556 17.5 10.2895 17.5 10.2245V5.16327C17.5 5.01204 17.5894 4.73982 17.8483 4.47766C18.1085 4.21436 18.3693 4.13265 18.5 4.13265C18.6307 4.13265 18.8915 4.21436 19.1517 4.47766ZM22.5093 9.8511L22.5 9.83932V5.16327V4.53061C22.5 4.37939 22.5894 4.10717 22.8483 3.845C23.1085 3.5817 23.3693 3.5 23.5 3.5C23.6307 3.5 23.8915 3.5817 24.1517 3.845C24.4106 4.10717 24.5 4.37939 24.5 4.53061V10.2245C24.5 10.3003 24.4905 10.3442 24.4847 10.3645C24.4791 10.384 24.474 10.3922 24.4719 10.3954C24.4688 10.4002 24.4457 10.4338 24.3597 10.4794C24.2695 10.5273 24.1406 10.5711 23.9831 10.5988C23.8265 10.6262 23.6823 10.6305 23.587 10.625L23.5436 10.6224H23.5195C23.5079 10.6197 23.4595 10.608 23.3714 10.5652C23.2394 10.5012 23.0795 10.3969 22.914 10.2589C22.75 10.1221 22.6092 9.97598 22.5093 9.8511ZM41 23V6H44V12V17V23H41Z" fill="#0E2050"/>
</svg>
