<?xml version="1.0" encoding="iso-8859-1"?>
<!-- Generator: Adobe Illustrator 24.1.1, SVG Export Plug-In . SVG Version: 6.00 Build 0)  -->
<svg version="1.1" xmlns="http://www.w3.org/2000/svg" xmlns:xlink="http://www.w3.org/1999/xlink" x="0px" y="0px"
	 viewBox="0 0 500 500" style="enable-background:new 0 0 500 500;" xml:space="preserve">
<g id="Layer_1">
	<path style="fill:#03234B;" d="M476.997,210.787l4.727-28.831c0.796-4.871-0.662-9.748-4-13.379l-57.437-62.476
		c-2.116-2.3-4.839-3.917-7.869-4.676L285.458,69.629c0.036-0.468,0.072-0.936,0.072-1.414c0-10.051-8.178-18.229-18.229-18.229
		c-9.185,0-16.784,6.836-18.03,15.683c-21.18,3.201-64.295,10.051-81.248,15.179c-10.403,3.146-31.883,12.695-48.99,20.593
		c-3.334-3.624-8.099-5.913-13.4-5.913c-10.051,0-18.229,8.178-18.229,18.229c0,2.429,0.487,4.744,1.353,6.865l-23.818,19.237
		c-1.282,1.038-2.391,2.26-3.296,3.634l-30.696,46.6c-1.139,1.731-1.92,3.635-2.323,5.658l-11.218,56.326
		c-0.134,0.677-0.223,1.36-0.273,2.053l-4.599,69.219c-0.202,3.064,0.479,6.104,1.967,8.79l17.878,32.27
		c3.249,5.864,9.875,9.09,16.502,8.02l21.723-3.51c2.853-0.452,5.714,0.822,7.266,3.272l15.229,24.044
		c-2.74,3.191-4.407,7.327-4.407,11.853c0,10.051,8.177,18.229,18.229,18.229c6.586,0,12.35-3.523,15.553-8.771l13.936,2.856
		c1.761,0.36,3.558,0.421,5.329,0.181l43.411-5.843c2.691-0.358,5.239,0.734,6.83,2.932c1.588,2.197,1.829,4.966,0.645,7.405
		l-0.956,1.966c-2.898,5.96-1.944,12.723,2.491,17.65c3.123,3.472,7.337,5.32,11.733,5.32c1.844,0,3.717-0.325,5.559-0.99
		c4.152-1.503,7.526-4.699,9.255-8.767l11.572-27.249c1.254,0.273,2.552,0.427,3.887,0.427c10.051,0,18.229-8.178,18.229-18.229
		c0-5.498-2.457-10.424-6.319-13.769l15.617-27.075c1.516-2.63,4.552-4.039,7.532-3.509l10.407,1.845
		c3.8,0.676,7.722-0.054,11.028-2.05l53.712-32.414c4.82-2.91,7.775-8.212,7.712-13.838l-0.154-13.92
		c8.165-1.804,14.297-9.09,14.297-17.79c0-0.156-0.02-0.307-0.023-0.461l46.456-11.007c1.503-0.356,2.942-0.927,4.275-1.694
		l36.171-20.8c3.345,4.129,8.449,6.778,14.164,6.778c10.051,0,18.229-8.178,18.229-18.229
		C487.5,219.986,483.192,213.702,476.997,210.787z M473.118,180.546l-4.679,28.54c-2.407,0.11-4.691,0.681-6.768,1.64
		l-24.957-47.476c3.203-3.287,5.186-7.768,5.186-12.708c0-9.919-7.969-17.998-17.838-18.209l-1.213-10.559l48.455,52.705
		C472.818,176.126,473.48,178.338,473.118,180.546z M386.571,212.537l32.154-44.466c0.454,0.128,0.911,0.252,1.379,0.345
		l-4.639,80.444L386.571,212.537z M383.427,205.721c-0.498-0.578-1.044-1.122-1.694-1.582L318.4,159.302
		c1.105-2.008,1.835-4.247,2.114-6.622h85.065c0.598,5.084,3.297,9.523,7.202,12.446L383.427,205.721z M378.822,213.306
		c-0.004,0.007-0.003,0.014-0.007,0.021l-23.728,41.866c-1.617-0.471-3.32-0.736-5.087-0.736c-3.299,0-6.387,0.894-9.059,2.433
		l-37.151-0.132c-0.543-0.668-1.141-1.286-1.772-1.872l46.821-66.021l29.115,20.612c0.738,0.522,1.122,1.326,1.189,2.167
		l-0.783,1.082L378.822,213.306z M289.643,275.561c-4.041,0-7.328-3.287-7.328-7.328s3.287-7.328,7.328-7.328
		c4.041,0,7.328,3.287,7.328,7.328S293.684,275.561,289.643,275.561z M218.425,391.092l-10.335,9.318l2.14-55.413
		c6.27-0.65,11.593-4.499,14.338-9.874l8.068,2.488l-3.308,40.709C223.896,380.529,219.772,385.281,218.425,391.092z
		 M92.042,354.598c-0.489,0.071-1.54,0.09-2.429-0.819l-13.267-19.132c2.195-3.01,3.507-6.704,3.507-10.706
		c0-4.695-1.8-8.968-4.726-12.203l37.634-23.301c1.303,1.067,2.757,1.955,4.323,2.632l-22.781,61.791
		c-0.39,0.942-1.082,1.366-1.621,1.569L92.042,354.598z M21.241,324.715c-0.011-0.262-0.022-0.525-0.005-0.789l3.48-52.369
		l25.949,37.853c-3.949,2.986-6.66,7.524-7.177,12.711L21.241,324.715z M84.724,194.696l32.675-4.332
		c0.924-0.126,1.827,0.149,2.531,0.765c0.703,0.616,1.09,1.472,1.09,2.408v62.876c-1.773,0.323-3.454,0.902-5.009,1.699
		L80.77,205.666c2.421-3.051,3.887-6.887,3.943-11.063L84.724,194.696z M314.254,164.382l29.246,20.705l-46.998,66.269
		c-0.268-0.109-0.543-0.203-0.817-0.3c0.008-0.067,0.028-0.131,0.034-0.199l7.436-82.123
		C307.383,168.565,311.242,166.962,314.254,164.382z M208.337,334.195c-4.041,0-7.328-3.287-7.328-7.328
		c0-4.041,3.287-7.329,7.328-7.329c4.041,0,7.328,3.288,7.328,7.329C215.665,330.908,212.378,334.195,208.337,334.195z
		 M194.365,315.18l-53.542-33.217c1.078-2.325,1.696-4.904,1.696-7.631c0-1.165-0.121-2.301-0.331-3.406l54.585-24.034
		c0.087-0.039,0.162-0.094,0.248-0.135l7.423,62.307C200.435,309.942,196.914,312.138,194.365,315.18z M284.372,152.957
		c-0.34,0.118-0.689,0.209-1.014,0.368l-72.778,34.553c-1.765-2.918-4.316-5.299-7.368-6.85l21.354-64.568l60.058,30.178
		c-0.276,1.259-0.432,2.564-0.432,3.905C284.193,151.363,284.266,152.165,284.372,152.957z M136.034,260.413l48.721-95.209
		l3.552,15.128c-6.751,2.673-11.545,9.252-11.545,16.943c0,9.189,6.841,16.791,15.693,18.031l3.32,22.643
		c0.183,1.238-0.49,2.455-1.635,2.958l-54.324,23.92C138.791,263.162,137.52,261.668,136.034,260.413z M194.99,204.602
		c-4.041,0-7.328-3.287-7.328-7.328c0-4.041,3.287-7.328,7.328-7.328c4.041,0,7.328,3.287,7.328,7.328
		C202.318,201.315,199.031,204.602,194.99,204.602z M196.945,179.154c-0.643-0.069-1.294-0.109-1.955-0.109
		c-0.09,0-0.176,0.012-0.266,0.014l-20.657-87.973l44.593,22.406L196.945,179.154z M130.352,257.162
		c-0.901-0.319-1.831-0.573-2.791-0.748v-62.876c0-0.683-0.077-1.357-0.217-2.014c0.565-0.157,1.128-0.349,1.679-0.608
		l48.312-25.569L130.352,257.162z M124.291,281.661c-4.041,0-7.328-3.287-7.328-7.328c0-4.041,3.287-7.328,7.328-7.328
		c4.041,0,7.328,3.287,7.328,7.328C131.619,278.374,128.332,281.661,124.291,281.661z M213.219,197.274
		c0-1.115-0.116-2.202-0.309-3.262l73.286-34.794c0.055-0.027,0.117-0.026,0.173-0.049c2.188,4.054,5.87,7.179,10.3,8.658
		l-7.443,82.199c-4.216,0.096-8.085,1.616-11.131,4.116c-0.102-0.057-0.208-0.106-0.303-0.176l-66.388-48.816
		C212.555,202.761,213.219,200.097,213.219,197.274z M302.422,157.871c-4.041,0-7.328-3.287-7.328-7.328
		c0-4.041,3.287-7.328,7.328-7.328s7.328,3.287,7.328,7.328C309.75,154.583,306.463,157.871,302.422,157.871z M287.167,140.594
		l-59.43-29.862l27.452-28.932c3.224,2.878,7.461,4.644,12.112,4.644c1.255,0,2.481-0.128,3.665-0.37l20.903,49.633
		C290.014,137.03,288.416,138.685,287.167,140.594z M251.153,76.643c-0.236,0.203-0.472,0.407-0.688,0.635l-28.834,30.387
		l-41.618-20.913c19.637-4.522,52.347-9.705,70.146-12.398C250.442,75.142,250.768,75.909,251.153,76.643z M181.831,152.751
		c-1.004-0.66-2.123-1.182-3.394-1.447l-60.258-9.153c-1.001-0.211-1.469-0.49-1.657-0.632c0.079-0.22,0.319-0.706,1.037-1.414
		l49.875-48.668L181.831,152.751z M117.014,148.584l60.258,9.153c0.099,0.021,0.188,0.063,0.282,0.094l-51.449,27.233
		c-0.871,0.41-1.871,0.404-2.742-0.016c-0.832-0.402-1.444-1.137-1.688-2.027l-5.112-34.56
		C116.719,148.499,116.849,148.549,117.014,148.584z M66.496,201.691c-4.041,0-7.328-3.287-7.328-7.328
		c0-4.041,3.287-7.328,7.328-7.328s7.328,3.287,7.328,7.328C73.824,198.403,70.536,201.691,66.496,201.691z M56.35,209.498
		c2.903,1.952,6.393,3.094,10.146,3.094c3.404,0,6.581-0.955,9.311-2.586l35.006,52.098c-2.085,2.296-3.597,5.116-4.299,8.246
		l-80.612-16.133c0.02-0.147,0.03-0.298,0.059-0.442l0.742-3.724L56.35,209.498z M25.431,260.793l80.844,16.181
		c0.337,2.306,1.099,4.471,2.217,6.414l-38.989,24.141c-2.389-1.151-5.054-1.816-7.878-1.816c-1.758,0-3.454,0.264-5.064,0.731
		l-31.143-45.432L25.431,260.793z M54.296,323.942c0-3.933,3.121-7.127,7.013-7.296l3.241,0.587c2.587,1.132,4.402,3.71,4.402,6.71
		c0,4.041-3.287,7.328-7.328,7.328C57.583,331.27,54.296,327.983,54.296,323.942z M123.519,292.523
		c0.258,0.011,0.512,0.039,0.772,0.039c4.969,0,9.475-2.004,12.766-5.239l54.083,33.553c-0.656,1.88-1.032,3.89-1.032,5.991
		c0,0.629,0.033,1.251,0.095,1.864l-88.649,23.36L123.519,292.523z M218.071,311.48c-2.104-1.336-4.496-2.246-7.064-2.625
		l-8.243-69.19l-0.544,0.065c0.135-0.891,0.163-1.807,0.027-2.731l-3.22-21.962c3.264-0.742,6.194-2.359,8.536-4.596l66.282,48.739
		c-1.537,2.671-2.429,5.757-2.429,9.053c0,2.333,0.457,4.557,1.259,6.609L218.071,311.48z M423.671,157.871
		c-4.041,0-7.329-3.287-7.329-7.328c0-4.041,3.287-7.328,7.329-7.328c4.041,0,7.328,3.287,7.328,7.328
		C430.999,154.583,427.712,157.871,423.671,157.871z M415.325,113.59l2.272,19.786c-5.712,2.028-10.111,6.817-11.595,12.763h-85.912
		c-0.119-0.478-0.251-0.949-0.407-1.411l90.127-34.967l0.485,0.122c1.375,0.345,2.612,1.079,3.57,2.122L415.325,113.59z
		 M398.821,107.009l-82.338,31.945c-3.346-4.053-8.407-6.641-14.061-6.641c-1.6,0-3.144,0.228-4.623,0.617l-20.773-49.324
		c2.287-1.45,4.226-3.391,5.674-5.679L398.821,107.009z M267.301,60.887c4.041,0,7.328,3.287,7.328,7.328
		c0,4.041-3.287,7.328-7.328,7.328c-4.041,0-7.328-3.287-7.328-7.328C259.973,64.174,263.26,60.887,267.301,60.887z M153.884,95.52
		l-39.458,38.501l-0.593-4.007c5.939-3.008,10.029-9.158,10.029-16.258c0-1.61-0.23-3.164-0.624-4.652
		C131.969,105.08,143.702,99.774,153.884,95.52z M105.634,106.429c4.041,0,7.328,3.287,7.328,7.328c0,4.041-3.287,7.328-7.328,7.328
		c-4.041,0-7.328-3.287-7.328-7.328C98.306,109.716,101.593,106.429,105.634,106.429z M70.422,146.641l23.474-18.96
		c3.174,2.68,7.268,4.304,11.738,4.304c0.631,0,1.254-0.033,1.868-0.095l7.715,52.166l-31.353,4.156l0.159,1.201
		c-0.557-1.968-1.428-3.802-2.569-5.44l-12.104-36.232C69.673,147.343,70.021,146.965,70.422,146.641z M64.754,154.623l7.504,22.459
		c-1.814-0.607-3.747-0.948-5.762-0.948c-9.238,0-16.874,6.913-18.053,15.834l-8.722,0.656L64.754,154.623z M36.79,199.403
		l11.969-0.901c0.543,2.327,1.528,4.481,2.869,6.372l-21.892,29.945L36.79,199.403z M23.837,330.997l20.195-2.355
		c1.093,4.086,3.566,7.604,6.897,10.029l-10.846,21.628c-0.023-0.041-0.054-0.075-0.077-0.117L23.837,330.997z M69.212,360.31
		l-21.721,3.509c-0.63,0.102-1.259,0.1-1.876,0.037l11.206-22.349c1.533,0.42,3.138,0.663,4.802,0.663
		c3.661,0,7.068-1.095,9.927-2.96l12.188,17.576l-12.288,3.238l0.023,0.089C70.724,360.127,69.968,360.187,69.212,360.31z
		 M106.922,415.416c-4.041,0-7.328-3.287-7.328-7.328c0-4.041,3.287-7.329,7.328-7.329c4.041,0,7.328,3.288,7.328,7.329
		c0,0.254-0.049,0.494-0.075,0.741l-0.298,1.452C112.939,413.247,110.194,415.416,106.922,415.416z M183.989,406.099l-43.415,5.843
		c-0.801,0.11-1.614,0.081-2.414-0.083l-13.064-2.678c0.022-0.363,0.055-0.724,0.055-1.093c0-10.052-8.178-18.23-18.229-18.23
		c-2.373,0-4.635,0.469-6.716,1.298l-14.968-23.631c-0.858-1.356-1.898-2.549-3.072-3.561l11.49-3.028
		c0.318-0.069,0.631-0.147,0.936-0.247l97.46-25.683c2.323,4.627,6.55,8.125,11.654,9.469l-2.345,60.709l-3.337,6.144
		C194.52,407.385,189.298,405.382,183.989,406.099z M208.484,440.823c-2.87,1.037-5.8,0.304-7.842-1.964
		c-2.04-2.267-2.463-5.26-1.128-8.004l0.956-1.967c1.624-3.343,2-7.066,1.194-10.558l1.758-3.236l8.145,23.515
		C210.75,439.593,209.705,440.381,208.484,440.823z M215.544,430.109l-7.286-21.043l10.288-9.275
		c0.965,3.705,3.054,6.958,5.901,9.355L215.544,430.109z M236.168,402.534c-4.041,0-7.328-3.287-7.328-7.328
		c0-4.041,3.287-7.328,7.328-7.328c4.041,0,7.328,3.287,7.328,7.328C243.496,399.246,240.209,402.534,236.168,402.534z
		 M256.141,350.005L240.3,377.467c-1.33-0.31-2.709-0.49-4.132-0.49c-0.057,0-0.112,0.008-0.168,0.009l3.038-37.4l20.523,6.33
		C258.226,347.065,257.052,348.424,256.141,350.005z M272.749,342.266c-1.15-0.204-2.295-0.234-3.43-0.188l-42.867-13.221
		c0.072-0.655,0.114-1.318,0.114-1.99c0-4.048-1.342-7.779-3.582-10.807l53.132-35.651c2.962,3.288,7.088,5.506,11.733,5.962
		l-3.355,57.848c-0.446,0.005-0.894-0.029-1.341-0.108L272.749,342.266z M341.869,310.767l-50.658,30.571l3.22-55.536
		c7.732-2.111,13.44-9.177,13.44-17.569c0-1.707-0.253-3.354-0.694-4.923l27.159,0.096c-1.619,2.722-2.566,5.889-2.566,9.28
		c0,8.391,5.706,15.457,13.437,17.569l0.157,14.239C345.395,307.045,344.053,309.448,341.869,310.767z M350,280.014
		c-4.041,0-7.328-3.287-7.328-7.328c0-4.041,3.287-7.329,7.328-7.329s7.328,3.288,7.328,7.329
		C357.328,276.727,354.041,280.014,350,280.014z M360.936,258.136l22.279-39.307l27.364,34.395l-44.673,10.583
		C364.661,261.585,362.959,259.66,360.936,258.136z M422.083,247.654l4.564-79.148c1.645-0.272,3.214-0.761,4.681-1.444
		l24.945,47.454c-3.23,3.291-5.23,7.793-5.23,12.757c0,1.207,0.124,2.385,0.349,3.528L422.083,247.654z M469.271,234.601
		c-4.041,0-7.328-3.287-7.328-7.328c0-4.041,3.287-7.328,7.328-7.328c4.041,0,7.328,3.287,7.328,7.328
		C476.599,231.314,473.312,234.601,469.271,234.601z"/>
</g>
<g id="Layer_4">
</g>
</svg>
