<svg width="56" height="56" viewBox="0 0 56 56" fill="none" xmlns="http://www.w3.org/2000/svg">
<path fill-rule="evenodd" clip-rule="evenodd" d="M28 0.5C28.8284 0.5 29.5 1.17157 29.5 2V4.04616C31.2892 4.1566 33.0267 4.46328 34.6908 4.94542C36.4702 5.461 38.1642 6.17679 39.7466 7.06655C40.9331 5.79501 42.6237 5 44.5 5C48.0899 5 51 7.91015 51 11.5C51 13.3763 50.205 15.0669 48.9335 16.2534C49.6874 17.5942 50.3164 19.0152 50.8046 20.5004C51.4313 22.4073 51.8254 24.4186 51.9538 26.5H54C54.8284 26.5 55.5 27.1716 55.5 28C55.5 28.8284 54.8284 29.5 54 29.5H51.9539C51.2102 41.56 41.56 51.2102 29.5 51.9539V54C29.5 54.8284 28.8284 55.5 28 55.5C27.1716 55.5 26.5 54.8284 26.5 54V51.9539C14.44 51.2102 4.78982 41.56 4.04611 29.5H2C1.17157 29.5 0.5 28.8284 0.5 28C0.5 27.1716 1.17157 26.5 2 26.5H4.04611C4.78982 14.44 14.44 4.78982 26.5 4.04611V2C26.5 1.17157 27.1716 0.5 28 0.5ZM7.05275 29.5C7.7869 39.9025 16.0975 48.2131 26.5 48.9473V41.9206C19.9662 41.2246 14.7754 36.0338 14.0794 29.5H7.05275ZM14.0794 26.5H7.05275C7.7869 16.0975 16.0975 7.7869 26.5 7.05275V14.0794C19.9662 14.7754 14.7754 19.9662 14.0794 26.5ZM17.1014 29.5C17.7661 34.3751 21.6249 38.2339 26.5 38.8986V32.7711C24.945 32.2827 23.7173 31.055 23.2289 29.5H17.1014ZM23.2289 26.5H17.1014C17.7661 21.6249 21.6249 17.7661 26.5 17.1014V23.2289C24.945 23.7173 23.7173 24.945 23.2289 26.5ZM32.7711 29.5C32.2827 31.055 31.055 32.2827 29.5 32.7711V38.8986C34.3751 38.2339 38.2339 34.3751 38.8986 29.5H32.7711ZM38.8986 26.5H32.7711C32.2827 24.945 31.055 23.7173 29.5 23.2289V17.1014C34.3751 17.7661 38.2339 21.6249 38.8986 26.5ZM41.9206 29.5C41.2246 36.0338 36.0338 41.2246 29.5 41.9206V48.9473C39.9025 48.2131 48.2131 39.9025 48.9473 29.5H41.9206ZM48.9473 26.5H41.9206C41.2246 19.9662 36.0338 14.7754 29.5 14.0794V7.05268C31.0021 7.15859 32.4594 7.42229 33.8559 7.82691C35.405 8.27574 36.8806 8.89839 38.2604 9.67261C38.0909 10.2523 38 10.8655 38 11.5C38 15.0899 40.9101 18 44.5 18C45.1345 18 45.7477 17.9091 46.3274 17.7396C46.983 18.9079 47.5299 20.145 47.9546 21.4371C48.4835 23.0464 48.8234 24.7426 48.9473 26.5ZM48 11.5C48 13.433 46.433 15 44.5 15C42.567 15 41 13.433 41 11.5C41 9.567 42.567 8 44.5 8C46.433 8 48 9.567 48 11.5Z" fill="#002052"/>
</svg>
