<svg width="54" height="52" viewBox="0 0 54 52" fill="none" xmlns="http://www.w3.org/2000/svg">
<path fill-rule="evenodd" clip-rule="evenodd" d="M40.5757 9.88125C41.4641 8.83497 42 7.48007 42 6C42 2.68629 39.3137 0 36 0C33.0359 0 30.5738 2.14934 30.0873 4.9745L17.6525 5.98273C16.8239 3.66137 14.606 2 12 2C8.68629 2 6 4.68629 6 8C6 10.3488 7.34966 12.3824 9.31575 13.3675L5.75056 30.0051C2.55253 30.1359 0 32.7698 0 36C0 39.3137 2.68629 42 6 42C8.06582 42 9.8878 40.956 10.9671 39.3668L28.0241 45.4586C28.0081 45.6369 28 45.8175 28 46C28 49.3137 30.6863 52 34 52C37.3137 52 40 49.3137 40 46C40 44.3735 39.3528 42.8982 38.3019 41.8175L46.2598 28.7438C46.8106 28.9104 47.3948 29 48 29C51.3137 29 54 26.3137 54 23C54 19.6863 51.3137 17 48 17C47.2515 17 46.535 17.1371 45.8742 17.3875L40.5757 9.88125ZM12.2494 13.9949L8.68423 30.6324C9.49426 31.0383 10.1997 31.6222 10.7491 32.3327L20.1234 28.3152C20.0424 27.8892 20 27.4495 20 27C20 25.3158 20.5948 23.7705 21.5858 22.5627L14.4234 13.4904C13.7541 13.7863 13.0205 13.9634 12.2494 13.9949ZM23.9396 20.7027L16.7773 11.6306C17.3587 10.8667 17.7611 9.95927 17.9219 8.97073L30.3291 7.96474C30.7147 9.07802 31.4189 10.0425 32.3327 10.7491L28.3152 20.1234C27.8892 20.0424 27.4495 20 27 20C25.9026 20 24.8641 20.2526 23.9396 20.7027ZM31.0723 21.3058C32.1067 22.0469 32.9308 23.0628 33.4378 24.2468L42.0122 22.6136C42.0967 21.2846 42.6138 20.0733 43.4242 19.1188L38.1257 11.6126C37.465 11.8629 36.7485 12 36 12C35.6906 12 35.3867 11.9766 35.0899 11.9314L31.0723 21.3058ZM33.9974 27.1941C33.9321 29.5907 32.6623 31.6865 30.7715 32.8981L33.399 40.0297C33.5966 40.0101 33.7971 40 34 40C34.6052 40 35.1894 40.0896 35.7402 40.2562L43.6981 27.1825C43.2391 26.7105 42.857 26.1631 42.5724 25.5608L33.9974 27.1941ZM27.9565 33.9352C27.6438 33.9779 27.3245 34 27 34C24.653 34 22.5758 32.845 21.3058 31.0723L11.9314 35.0899C11.9766 35.3867 12 35.6906 12 36C12 36.1825 11.9919 36.3631 11.9759 36.5415L29.0329 42.6333C29.449 42.0205 29.9756 41.4888 30.5839 41.0668L27.9565 33.9352ZM39 6C39 7.65685 37.6569 9 36 9C34.3431 9 33 7.65685 33 6C33 4.34315 34.3431 3 36 3C37.6569 3 39 4.34315 39 6ZM12 11C13.6569 11 15 9.65685 15 8C15 6.34315 13.6569 5 12 5C10.3431 5 9 6.34315 9 8C9 9.65685 10.3431 11 12 11ZM48 26C49.6569 26 51 24.6569 51 23C51 21.3431 49.6569 20 48 20C46.3431 20 45 21.3431 45 23C45 24.6569 46.3431 26 48 26ZM37 46C37 47.6569 35.6569 49 34 49C32.3431 49 31 47.6569 31 46C31 44.3431 32.3431 43 34 43C35.6569 43 37 44.3431 37 46ZM6 39C7.65685 39 9 37.6569 9 36C9 34.3431 7.65685 33 6 33C4.34315 33 3 34.3431 3 36C3 37.6569 4.34315 39 6 39ZM31 27C31 29.2091 29.2091 31 27 31C24.7909 31 23 29.2091 23 27C23 24.7909 24.7909 23 27 23C29.2091 23 31 24.7909 31 27Z" fill="#002052"/>
</svg>
