<svg width="42" height="49" viewBox="0 0 42 49" fill="none" xmlns="http://www.w3.org/2000/svg">
<path fill-rule="evenodd" clip-rule="evenodd" d="M3 10.2426L10.2426 3H31V5H30.9823H30.9579H30.9334H30.9086H30.8838H30.8587H30.8335H30.8081H30.7825H30.7568H30.7309H30.7049H30.6787H30.6523H30.6258H30.5991H30.5722H30.5452H30.518H30.4907H30.4632H30.4356H30.4078H30.3798H30.3517H30.3234H30.295H30.2664H30.2377H30.2088H30.1798H30.1506H30.1212H30.0917H30.0621H30.0323H30.0024H29.9723H29.9421H29.9117H29.8812H29.8505H29.8197H29.7887H29.7576H29.7264H29.695H29.6635H29.6318H29.6H29.5681H29.536H29.5038H29.4714H29.4389H29.4063H29.3735H29.3406H29.3076H29.2744H29.2411H29.2076H29.1741H29.1404H29.1065H29.0726H29.0385H29.0043H28.9699H28.9354H28.9008H28.8661H28.8312H28.7962H28.7611H28.7259H28.6905H28.655H28.6194H28.5837H28.5479H28.5119H28.4758H28.4396H28.4033H28.3668H28.3303H28.2936H28.2568H28.2199H28.1829H28.1457H28.1085H28.0711H28.0336H27.996H27.9583H27.9205H27.8826H27.8446H27.8064H27.7682H27.7298H27.6914H27.6528H27.6141H27.5753H27.5365H27.4975H27.4584H27.4192H27.3799H27.3405H27.301H27.2614H27.2217H27.1819H27.142H27.102H27.0619H27.0217H26.9814H26.941H26.9006H26.86H26.8193H26.7786H26.7377H26.6968H26.6558H26.6146H26.5734H26.5321H26.4907H26.4493H26.4077H26.366H26.3243H26.2825H26.2406H26.1986H26.1565H26.1144H26.0721H26.0298H25.9874H25.9449H25.9023H25.8597H25.817H25.7742H25.7313H25.6883H25.6453H25.6022H25.559H25.5158H25.4724H25.429H25.3855H25.342H25.2984H25.2547H25.2109H25.1671H25.1232H25.0792H25.0352H24.9911H24.9469H24.9027H24.8584H24.814H24.7696H24.7251H24.6805H24.6359H24.5912H24.5465H24.5017H24.4568H24.4119H24.3669H24.3219H24.2768H24.2317H24.1865H24.1412H24.0959H24.0505H24.0051H23.9596H23.9141H23.8685H23.8229H23.7772H23.7314H23.6857H23.6398H23.594H23.548H23.5021H23.456H23.41H23.3639H23.3177H23.2715H23.2253H23.179H23.1327H23.0863H23.0399H22.9934H22.947H22.9004H22.8539H22.8073H22.7606H22.7139H22.6672H22.6205H22.5737H22.5269H22.4801H22.4332H22.3863H22.3393H22.2923H22.2453H22.1983H22.1512H22.1041H22.057H22.0099H21.9627H21.9155H21.8683H21.821H21.7738H21.7265H21.6791H21.6318H21.5844H21.537H21.4896H21.4422H21.3948H21.3473H21.2998H21.2523H21.2048H21.1573H21.1097H21.0622H21.0146H20.967H20.9194H20.8718H20.8242H20.7765H20.7289H20.6812H20.6336H20.5859H20.5382H20.4905H20.4428H20.3951H20.3474H20.2997H20.2519H20.2042H20.1565H20.1088H20.061H20.0133H19.9656H19.9178H19.8701H19.8224H19.7746H19.7269H19.6792H19.6314H19.5837H19.536H19.4883H19.4406H19.3929H19.3452H19.2975H19.2499H19.2022H19.1545H19.1069H19.0593H19.0117H18.964H18.9164H18.8689H18.8213H18.7737H18.7262H18.6787H18.6312H18.5837H18.5362H18.4888H18.4413H18.3939H18.3465H18.2991H18.2518H18.2045H18.1571H18.1099H18.0626H18.0154H17.9681H17.921H17.8738H17.8267H17.7796H17.7325H17.6854H17.6384H17.5914H17.5445H17.4975H17.4506H17.4038H17.3569H17.3102H17.2634H17.2167H17.17H17.1233H17.0767H17.0301H16.9836H16.9371H16.8906H16.8442H16.7978H16.7514H16.7051H16.6589H16.6126H16.5665H16.5203H16.4743H16.4282H16.3822H16.3363H16.2904H16.2445H16.1987H16.1529H16.1072H16.0616H16.016H15.9704H15.9249H15.8795H15.8341H15.7887H15.7434H15.6982H15.653H15.6079H15.5628H15.5178H15.4729H15.428H15.3832H15.3384H15.2937H15.249H15.2045H15.1599H15.1155H15.0711H15.0267H14.9825H14.9383H14.8941H14.8501H14.8061H14.7621H14.7183H14.6745H14.6308H14.5871H14.5435H14.5H13.8284C13.298 5 12.7893 5.21072 12.4142 5.58579L4.58579 13.4142C4.21072 13.7893 4 14.298 4 14.8284V15V36H3V10.2426ZM4 39H2C0.895355 39 0 38.1045 0 37V9.82843C0 9.29799 0.210717 8.78928 0.58579 8.41421L8.41421 0.58579C8.78928 0.210717 9.29799 0 9.82843 0H32C33.1044 0 34 0.895355 34 2V5H36C37.1044 5 38 5.89535 38 7V10H40C41.1046 10 42 10.8954 42 12V47C42 48.1046 41.1046 49 40 49H10C8.89543 49 8 48.1046 8 47V44H6C4.89535 44 4 43.1045 4 42V39ZM35 8V10H34.9823H34.9579H34.9334H34.9086H34.8838H34.8587H34.8335H34.8081H34.7825H34.7568H34.7309H34.7049H34.6787H34.6523H34.6258H34.5991H34.5722H34.5452H34.518H34.4907H34.4632H34.4356H34.4078H34.3798H34.3517H34.3234H34.295H34.2664H34.2377H34.2088H34.1798H34.1506H34.1212H34.0917H34.0621H34.0323H34.0024H33.9723H33.9421H33.9117H33.8812H33.8505H33.8197H33.7887H33.7576H33.7264H33.695H33.6635H33.6318H33.6H33.5681H33.536H33.5038H33.4714H33.4389H33.4063H33.3735H33.3406H33.3076H33.2744H33.2411H33.2076H33.1741H33.1404H33.1065H33.0726H33.0385H33.0043H32.9699H32.9354H32.9008H32.8661H32.8312H32.7962H32.7611H32.7259H32.6905H32.655H32.6194H32.5837H32.5479H32.5119H32.4758H32.4396H32.4033H32.3668H32.3303H32.2936H32.2568H32.2199H32.1829H32.1457H32.1085H32.0711H32.0336H31.996H31.9583H31.9205H31.8826H31.8446H31.8064H31.7682H31.7298H31.6914H31.6528H31.6141H31.5753H31.5365H31.4975H31.4584H31.4192H31.3799H31.3405H31.301H31.2614H31.2217H31.1819H31.142H31.102H31.0619H31.0217H30.9814H30.941H30.9006H30.86H30.8193H30.7786H30.7377H30.6968H30.6558H30.6146H30.5734H30.5321H30.4907H30.4493H30.4077H30.366H30.3243H30.2825H30.2406H30.1986H30.1565H30.1144H30.0721H30.0298H29.9874H29.9449H29.9023H29.8597H29.817H29.7742H29.7313H29.6883H29.6453H29.6022H29.559H29.5158H29.4724H29.429H29.3855H29.342H29.2984H29.2547H29.2109H29.1671H29.1232H29.0792H29.0352H28.9911H28.9469H28.9027H28.8584H28.814H28.7696H28.7251H28.6805H28.6359H28.5912H28.5465H28.5017H28.4568H28.4119H28.3669H28.3219H28.2768H28.2317H28.1865H28.1412H28.0959H28.0505H28.0051H27.9596H27.9141H27.8685H27.8229H27.7772H27.7314H27.6857H27.6398H27.594H27.548H27.5021H27.456H27.41H27.3639H27.3177H27.2715H27.2253H27.179H27.1327H27.0863H27.0399H26.9934H26.947H26.9004H26.8539H26.8073H26.7606H26.7139H26.6672H26.6205H26.5737H26.5269H26.4801H26.4332H26.3863H26.3393H26.2923H26.2453H26.1983H26.1512H26.1041H26.057H26.0099H25.9627H25.9155H25.8683H25.821H25.7738H25.7265H25.6791H25.6318H25.5844H25.537H25.4896H25.4422H25.3948H25.3473H25.2998H25.2523H25.2048H25.1573H25.1097H25.0622H25.0146H24.967H24.9194H24.8718H24.8242H24.7765H24.7289H24.6812H24.6336H24.5859H24.5382H24.4905H24.4428H24.3951H24.3474H24.2997H24.2519H24.2042H24.1565H24.1088H24.061H24.0133H23.9656H23.9178H23.8701H23.8224H23.7746H23.7269H23.6792H23.6314H23.5837H23.536H23.4883H23.4406H23.3929H23.3452H23.2975H23.2499H23.2022H23.1545H23.1069H23.0593H23.0117H22.964H22.9164H22.8689H22.8213H22.7737H22.7262H22.6787H22.6312H22.5837H22.5362H22.4888H22.4413H22.3939H22.3465H22.2991H22.2518H22.2045H22.1571H22.1099H22.0626H22.0154H21.9681H21.921H21.8738H21.8267H21.7796H21.7325H21.6854H21.6384H21.5914H21.5445H21.4975H21.4506H21.4038H21.3569H21.3102H21.2634H21.2167H21.17H21.1233H21.0767H21.0301H20.9836H20.9371H20.8906H20.8442H20.7978H20.7514H20.7051H20.6589H20.6126H20.5665H20.5203H20.4743H20.4282H20.3822H20.3363H20.2904H20.2445H20.1987H20.1529H20.1072H20.0616H20.016H19.9704H19.9249H19.8795H19.8341H19.7887H19.7434H19.6982H19.653H19.6079H19.5628H19.5178H19.4729H19.428H19.3832H19.3384H19.2937H19.249H19.2045H19.1599H19.1155H19.0711H19.0267H18.9825H18.9383H18.8941H18.8501H18.8061H18.7621H18.7183H18.6745H18.6308H18.5871H18.5435H18.5H17.8284C17.298 10 16.7893 10.2107 16.4142 10.5858L8.58579 18.4142C8.21071 18.7893 8 19.298 8 19.8284V20V41H7V37.5V15.2426L14.2426 8H14.5H14.5435H14.5871H14.6308H14.6745H14.7183H14.7621H14.8061H14.8501H14.8941H14.9383H14.9825H15.0267H15.0711H15.1155H15.1599H15.2045H15.249H15.2937H15.3384H15.3832H15.428H15.4729H15.5178H15.5628H15.6079H15.653H15.6982H15.7434H15.7887H15.8341H15.8795H15.9249H15.9704H16.016H16.0616H16.1072H16.1529H16.1987H16.2445H16.2904H16.3363H16.3822H16.4282H16.4743H16.5203H16.5665H16.6126H16.6589H16.7051H16.7514H16.7978H16.8442H16.8906H16.9371H16.9836H17.0301H17.0767H17.1233H17.17H17.2167H17.2634H17.3102H17.3569H17.4038H17.4506H17.4975H17.5445H17.5914H17.6384H17.6854H17.7325H17.7796H17.8267H17.8738H17.921H17.9681H18.0154H18.0626H18.1099H18.1571H18.2045H18.2518H18.2991H18.3465H18.3939H18.4413H18.4888H18.5362H18.5837H18.6312H18.6787H18.7262H18.7737H18.8213H18.8689H18.9164H18.964H19.0117H19.0593H19.1069H19.1545H19.2022H19.2499H19.2975H19.3452H19.3929H19.4406H19.4883H19.536H19.5837H19.6314H19.6792H19.7269H19.7746H19.8224H19.8701H19.9178H19.9656H20.0133H20.061H20.1088H20.1565H20.2042H20.2519H20.2997H20.3474H20.3951H20.4428H20.4905H20.5382H20.5859H20.6336H20.6812H20.7289H20.7765H20.8242H20.8718H20.9194H20.967H21.0146H21.0622H21.1097H21.1573H21.2048H21.2523H21.2998H21.3473H21.3948H21.4422H21.4896H21.537H21.5844H21.6318H21.6791H21.7265H21.7738H21.821H21.8683H21.9155H21.9627H22.0099H22.057H22.1041H22.1512H22.1983H22.2453H22.2923H22.3393H22.3863H22.4332H22.4801H22.5269H22.5737H22.6205H22.6672H22.7139H22.7606H22.8073H22.8539H22.9004H22.947H22.9934H23.0399H23.0863H23.1327H23.179H23.2253H23.2715H23.3177H23.3639H23.41H23.456H23.5021H23.548H23.594H23.6398H23.6857H23.7314H23.7772H23.8229H23.8685H23.9141H23.9596H24.0051H24.0505H24.0959H24.1412H24.1865H24.2317H24.2768H24.3219H24.3669H24.4119H24.4568H24.5017H24.5465H24.5912H24.6359H24.6805H24.7251H24.7696H24.814H24.8584H24.9027H24.9469H24.9911H25.0352H25.0792H25.1232H25.1671H25.2109H25.2547H25.2984H25.342H25.3855H25.429H25.4724H25.5158H25.559H25.6022H25.6453H25.6883H25.7313H25.7742H25.817H25.8597H25.9023H25.9449H25.9874H26.0298H26.0721H26.1144H26.1565H26.1986H26.2406H26.2825H26.3243H26.366H26.4077H26.4493H26.4907H26.5321H26.5734H26.6146H26.6558H26.6968H26.7377H26.7786H26.8193H26.86H26.9006H26.941H26.9814H27.0217H27.0619H27.102H27.142H27.1819H27.2217H27.2614H27.301H27.3405H27.3799H27.4192H27.4584H27.4975H27.5365H27.5753H27.6141H27.6528H27.6914H27.7298H27.7682H27.8064H27.8446H27.8826H27.9205H27.9583H27.996H28.0336H28.0711H28.1085H28.1457H28.1829H28.2199H28.2568H28.2936H28.3303H28.3668H28.4033H28.4396H28.4758H28.5119H28.5479H28.5837H28.6194H28.655H28.6905H28.7259H28.7611H28.7962H28.8312H28.8661H28.9008H28.9354H28.9699H29.0043H29.0385H29.0726H29.1065H29.1404H29.1741H29.2076H29.2411H29.2744H29.3076H29.3406H29.3735H29.4063H29.4389H29.4714H29.5038H29.536H29.5681H29.6H29.6318H29.6635H29.695H29.7264H29.7576H29.7887H29.8197H29.8505H29.8812H29.9117H29.9421H29.9723H30.0024H30.0323H30.0621H30.0917H30.1212H30.1506H30.1798H30.2088H30.2377H30.2664H30.295H30.3234H30.3517H30.3798H30.4078H30.4356H30.4632H30.4907H30.518H30.5452H30.5722H30.5991H30.6258H30.6523H30.6787H30.7049H30.7309H30.7568H30.7825H30.8081H30.8335H30.8587H30.8838H30.9086H30.9334H30.9579H30.9823H31.0065H31.0306H31.0544H31.0781H31.1017H31.125H31.1482H31.1712H31.194H31.2167H31.2392H31.2615H31.2836H31.3056H31.3273H31.3489H31.3703H31.3916H31.4126H31.4335H31.4542H31.4747H31.495H31.5152H31.5351H31.5549H31.5745H31.5939H31.6131H31.6321H31.651H31.6696H31.6881H31.7063H31.7244H31.7423H31.76H31.7775H31.7948H31.8119H31.8289H31.8456H31.8621H31.8785H31.8946H31.9105H31.9263H31.9418H31.9572H31.9723H31.9873H32.002H32.0166H32.0309H32.045H32.059H32.0727H32.0862H32.0995H32.1127H32.1256H32.1383H32.1508H32.1631H32.1751H32.187H32.1987H32.2101H32.2213H32.2324H32.2432H32.2538H32.2641H32.2743H32.2843H32.294H32.3035H32.3128H32.3219H32.3308H32.3394H32.3479H32.3561H32.3641H32.3718H32.3794H32.3867H32.3938H32.4007H32.4073H32.4137H32.42H32.4259H32.4317H32.4372H32.4425H32.4476H32.4524H32.457H32.4614H32.4655H32.4694H32.4731H32.4765H32.4798H32.4827H32.4855H32.488H32.4903H32.4923H32.4941H32.4957H32.497H32.4981H32.4989H32.4995H32.4999H32.5H35ZM18.2426 13H18.5H18.5435H18.5871H18.6308H18.6745H18.7183H18.7621H18.8061H18.8501H18.8941H18.9383H18.9825H19.0267H19.0711H19.1155H19.1599H19.2045H19.249H19.2937H19.3384H19.3832H19.428H19.4729H19.5178H19.5628H19.6079H19.653H19.6982H19.7434H19.7887H19.8341H19.8795H19.9249H19.9704H20.016H20.0616H20.1072H20.1529H20.1987H20.2445H20.2904H20.3363H20.3822H20.4282H20.4743H20.5203H20.5665H20.6126H20.6589H20.7051H20.7514H20.7978H20.8442H20.8906H20.9371H20.9836H21.0301H21.0767H21.1233H21.17H21.2167H21.2634H21.3102H21.3569H21.4038H21.4506H21.4975H21.5445H21.5914H21.6384H21.6854H21.7325H21.7796H21.8267H21.8738H21.921H21.9681H22.0154H22.0626H22.1099H22.1571H22.2045H22.2518H22.2991H22.3465H22.3939H22.4413H22.4888H22.5362H22.5837H22.6312H22.6787H22.7262H22.7737H22.8213H22.8689H22.9164H22.964H23.0117H23.0593H23.1069H23.1545H23.2022H23.2499H23.2975H23.3452H23.3929H23.4406H23.4883H23.536H23.5837H23.6314H23.6792H23.7269H23.7746H23.8224H23.8701H23.9178H23.9656H24.0133H24.061H24.1088H24.1565H24.2042H24.2519H24.2997H24.3474H24.3951H24.4428H24.4905H24.5382H24.5859H24.6336H24.6812H24.7289H24.7765H24.8242H24.8718H24.9194H24.967H25.0146H25.0622H25.1097H25.1573H25.2048H25.2523H25.2998H25.3473H25.3948H25.4422H25.4896H25.537H25.5844H25.6318H25.6791H25.7265H25.7738H25.821H25.8683H25.9155H25.9627H26.0099H26.057H26.1041H26.1512H26.1983H26.2453H26.2923H26.3393H26.3863H26.4332H26.4801H26.5269H26.5737H26.6205H26.6672H26.7139H26.7606H26.8073H26.8539H26.9004H26.947H26.9934H27.0399H27.0863H27.1327H27.179H27.2253H27.2715H27.3177H27.3639H27.41H27.456H27.5021H27.548H27.594H27.6398H27.6857H27.7314H27.7772H27.8229H27.8685H27.9141H27.9596H28.0051H28.0505H28.0959H28.1412H28.1865H28.2317H28.2768H28.3219H28.3669H28.4119H28.4568H28.5017H28.5465H28.5912H28.6359H28.6805H28.7251H28.7696H28.814H28.8584H28.9027H28.9469H28.9911H29.0352H29.0792H29.1232H29.1671H29.2109H29.2547H29.2984H29.342H29.3855H29.429H29.4724H29.5158H29.559H29.6022H29.6453H29.6883H29.7313H29.7742H29.817H29.8597H29.9023H29.9449H29.9874H30.0298H30.0721H30.1144H30.1565H30.1986H30.2406H30.2825H30.3243H30.366H30.4077H30.4493H30.4907H30.5321H30.5734H30.6146H30.6558H30.6968H30.7377H30.7786H30.8193H30.86H30.9006H30.941H30.9814H31.0217H31.0619H31.102H31.142H31.1819H31.2217H31.2614H31.301H31.3405H31.3799H31.4192H31.4584H31.4975H31.5365H31.5753H31.6141H31.6528H31.6914H31.7298H31.7682H31.8064H31.8446H31.8826H31.9205H31.9583H31.996H32.0336H32.0711H32.1085H32.1457H32.1829H32.2199H32.2568H32.2936H32.3303H32.3668H32.4033H32.4396H32.4758H32.5119H32.5479H32.5837H32.6194H32.655H32.6905H32.7259H32.7611H32.7962H32.8312H32.8661H32.9008H32.9354H32.9699H33.0043H33.0385H33.0726H33.1065H33.1404H33.1741H33.2076H33.2411H33.2744H33.3076H33.3406H33.3735H33.4063H33.4389H33.4714H33.5038H33.536H33.5681H33.6H33.6318H33.6635H33.695H33.7264H33.7576H33.7887H33.8197H33.8505H33.8812H33.9117H33.9421H33.9723H34.0024H34.0323H34.0621H34.0917H34.1212H34.1506H34.1798H34.2088H34.2377H34.2664H34.295H34.3234H34.3517H34.3798H34.4078H34.4356H34.4632H34.4907H34.518H34.5452H34.5722H34.5991H34.6258H34.6523H34.6787H34.7049H34.7309H34.7568H34.7825H34.8081H34.8335H34.8587H34.8838H34.9086H34.9334H34.9579H34.9823H35.0065H35.0306H35.0544H35.0781H35.1017H35.125H35.1482H35.1712H35.194H35.2167H35.2392H35.2615H35.2836H35.3056H35.3273H35.3489H35.3703H35.3916H35.4126H35.4335H35.4542H35.4747H35.495H35.5152H35.5351H35.5549H35.5745H35.5939H35.6131H35.6321H35.651H35.6696H35.6881H35.7063H35.7244H35.7423H35.76H35.7775H35.7948H35.8119H35.8289H35.8456H35.8621H35.8785H35.8946H35.9105H35.9263H35.9418H35.9572H35.9723H35.9873H36.002H36.0166H36.0309H36.045H36.059H36.0727H36.0862H36.0995H36.1127H36.1256H36.1383H36.1508H36.1631H36.1751H36.187H36.1987H36.2101H36.2213H36.2324H36.2432H36.2538H36.2641H36.2743H36.2843H36.294H36.3035H36.3128H36.3219H36.3308H36.3394H36.3479H36.3561H36.3641H36.3718H36.3794H36.3867H36.3938H36.4007H36.4073H36.4137H36.42H36.4259H36.4317H36.4372H36.4425H36.4476H36.4524H36.457H36.4614H36.4655H36.4694H36.4731H36.4765H36.4798H36.4827H36.4855H36.488H36.4903H36.4923H36.4941H36.4957H36.497H36.4981H36.4989H36.4995H36.4999H36.5H39V46H11V42.5V20.2426L18.2426 13ZM16.5098 27.877C16.5605 27.959 16.6406 28 16.75 28H20.793C20.9023 28 20.9824 27.959 21.0332 27.877C21.084 27.791 21.1094 27.6582 21.1094 27.4785V27.3027C21.1094 27.123 21.084 26.9922 21.0332 26.9102C20.9824 26.8242 20.9023 26.7812 20.793 26.7812H19.6797V20.916C19.6797 20.8574 19.6289 20.8008 19.5273 20.7461C19.4297 20.6914 19.3379 20.6641 19.252 20.6641L16.6562 21.1445C16.5703 21.1602 16.5039 21.1934 16.457 21.2441C16.4102 21.291 16.3867 21.3535 16.3867 21.4316C16.3867 21.6387 16.4121 21.8379 16.4629 22.0293C16.5176 22.2168 16.6035 22.3105 16.7207 22.3105L18.1387 22.0996V26.7812H16.75C16.6406 26.7812 16.5605 26.8223 16.5098 26.9043C16.4629 26.9863 16.4395 27.1191 16.4395 27.3027V27.4785C16.4395 27.6621 16.4629 27.7949 16.5098 27.877ZM23.0371 27.6426C23.4082 27.9395 23.8496 28.0879 24.3613 28.0879C24.873 28.0879 25.3125 27.9395 25.6797 27.6426C26.0508 27.3457 26.334 26.918 26.5293 26.3594C26.7285 25.7969 26.8281 25.127 26.8281 24.3496C26.8281 23.5762 26.7285 22.9102 26.5293 22.3516C26.334 21.793 26.0508 21.3652 25.6797 21.0684C25.3125 20.7715 24.873 20.623 24.3613 20.623C23.8496 20.623 23.4082 20.7715 23.0371 21.0684C22.666 21.3652 22.3809 21.793 22.1816 22.3516C21.9863 22.9102 21.8887 23.5762 21.8887 24.3496C21.8887 25.127 21.9863 25.7969 22.1816 26.3594C22.3809 26.918 22.666 27.3457 23.0371 27.6426ZM25.0352 26.2246C24.8789 26.6504 24.6543 26.8633 24.3613 26.8633C24.0684 26.8633 23.8438 26.6504 23.6875 26.2246C23.5312 25.7988 23.4531 25.1738 23.4531 24.3496C23.4531 23.5293 23.5312 22.9062 23.6875 22.4805C23.8438 22.0547 24.0684 21.8418 24.3613 21.8418C24.6543 21.8418 24.8789 22.0547 25.0352 22.4805C25.1914 22.9062 25.2695 23.5293 25.2695 24.3496C25.2695 25.1738 25.1914 25.7988 25.0352 26.2246ZM27.666 27.877C27.7168 27.959 27.7969 28 27.9062 28H31.9492C32.0586 28 32.1387 27.959 32.1895 27.877C32.2402 27.791 32.2656 27.6582 32.2656 27.4785V27.3027C32.2656 27.123 32.2402 26.9922 32.1895 26.9102C32.1387 26.8242 32.0586 26.7812 31.9492 26.7812H30.8359V20.916C30.8359 20.8574 30.7852 20.8008 30.6836 20.7461C30.5859 20.6914 30.4941 20.6641 30.4082 20.6641L27.8125 21.1445C27.7266 21.1602 27.6602 21.1934 27.6133 21.2441C27.5664 21.291 27.543 21.3535 27.543 21.4316C27.543 21.6387 27.5684 21.8379 27.6191 22.0293C27.6738 22.2168 27.7598 22.3105 27.877 22.3105L29.2949 22.0996V26.7812H27.9062C27.7969 26.7812 27.7168 26.8223 27.666 26.9043C27.6191 26.9863 27.5957 27.1191 27.5957 27.3027V27.4785C27.5957 27.6621 27.6191 27.7949 27.666 27.877ZM17.459 39.6426C17.8301 39.9395 18.2715 40.0879 18.7832 40.0879C19.2949 40.0879 19.7344 39.9395 20.1016 39.6426C20.4727 39.3457 20.7559 38.918 20.9512 38.3594C21.1504 37.7969 21.25 37.127 21.25 36.3496C21.25 35.5762 21.1504 34.9102 20.9512 34.3516C20.7559 33.793 20.4727 33.3652 20.1016 33.0684C19.7344 32.7715 19.2949 32.623 18.7832 32.623C18.2715 32.623 17.8301 32.7715 17.459 33.0684C17.0879 33.3652 16.8027 33.793 16.6035 34.3516C16.4082 34.9102 16.3105 35.5762 16.3105 36.3496C16.3105 37.127 16.4082 37.7969 16.6035 38.3594C16.8027 38.918 17.0879 39.3457 17.459 39.6426ZM19.457 38.2246C19.3008 38.6504 19.0762 38.8633 18.7832 38.8633C18.4902 38.8633 18.2656 38.6504 18.1094 38.2246C17.9531 37.7988 17.875 37.1738 17.875 36.3496C17.875 35.5293 17.9531 34.9062 18.1094 34.4805C18.2656 34.0547 18.4902 33.8418 18.7832 33.8418C19.0762 33.8418 19.3008 34.0547 19.457 34.4805C19.6133 34.9062 19.6914 35.5293 19.6914 36.3496C19.6914 37.1738 19.6133 37.7988 19.457 38.2246ZM22.0879 39.877C22.1387 39.959 22.2188 40 22.3281 40H26.3711C26.4805 40 26.5605 39.959 26.6113 39.877C26.6621 39.791 26.6875 39.6582 26.6875 39.4785V39.3027C26.6875 39.123 26.6621 38.9922 26.6113 38.9102C26.5605 38.8242 26.4805 38.7812 26.3711 38.7812H25.2578V32.916C25.2578 32.8574 25.207 32.8008 25.1055 32.7461C25.0078 32.6914 24.916 32.6641 24.8301 32.6641L22.2344 33.1445C22.1484 33.1602 22.082 33.1934 22.0352 33.2441C21.9883 33.291 21.9648 33.3535 21.9648 33.4316C21.9648 33.6387 21.9902 33.8379 22.041 34.0293C22.0957 34.2168 22.1816 34.3105 22.2988 34.3105L23.7168 34.0996V38.7812H22.3281C22.2188 38.7812 22.1387 38.8223 22.0879 38.9043C22.041 38.9863 22.0176 39.1191 22.0176 39.3027V39.4785C22.0176 39.6621 22.041 39.7949 22.0879 39.877ZM27.666 39.877C27.7168 39.959 27.7969 40 27.9062 40H31.9492C32.0586 40 32.1387 39.959 32.1895 39.877C32.2402 39.791 32.2656 39.6582 32.2656 39.4785V39.3027C32.2656 39.123 32.2402 38.9922 32.1895 38.9102C32.1387 38.8242 32.0586 38.7812 31.9492 38.7812H30.8359V32.916C30.8359 32.8574 30.7852 32.8008 30.6836 32.7461C30.5859 32.6914 30.4941 32.6641 30.4082 32.6641L27.8125 33.1445C27.7266 33.1602 27.6602 33.1934 27.6133 33.2441C27.5664 33.291 27.543 33.3535 27.543 33.4316C27.543 33.6387 27.5684 33.8379 27.6191 34.0293C27.6738 34.2168 27.7598 34.3105 27.877 34.3105L29.2949 34.0996V38.7812H27.9062C27.7969 38.7812 27.7168 38.8223 27.666 38.9043C27.6191 38.9863 27.5957 39.1191 27.5957 39.3027V39.4785C27.5957 39.6621 27.6191 39.7949 27.666 39.877Z" fill="#002052"/>
</svg>
