<svg width="50" height="47" viewBox="0 0 50 47" fill="none" xmlns="http://www.w3.org/2000/svg">
<path fill-rule="evenodd" clip-rule="evenodd" d="M13.8893 4.77923C14.7967 2.28295 17.1901 0.5 20 0.5C23.5898 0.5 26.5 3.41015 26.5 7V10.5H27.6507L29.6441 7.17761C29.2367 6.551 29 5.80314 29 5C29 2.79086 30.7909 1 33 1C35.2091 1 37 2.79086 37 5C37 7.20914 35.2091 9 33 9C32.6938 9 32.3955 8.96558 32.109 8.90041L29.7862 12.7717L29.3493 13.5H28.5H26.5V16.5H31.6507L34.2138 12.2283L34.6507 11.5H35.5H37.2908C37.8841 10.0341 39.3213 9 41 9C43.2091 9 45 10.7909 45 13C45 15.2091 43.2091 17 41 17C39.3213 17 37.8841 15.9659 37.2908 14.5H36.3493L33.7862 18.7717L33.3493 19.5H32.5H26.5V22.5H42.2908C42.8841 21.0341 44.3213 20 46 20C48.2091 20 50 21.7909 50 24C50 26.2091 48.2091 28 46 28C44.3213 28 42.8841 26.9659 42.2908 25.5H26.5V28.5H32.5H33.3493L33.7862 29.2283L36.3493 33.5H37.2908C37.8841 32.0341 39.3213 31 41 31C43.2091 31 45 32.7909 45 35C45 37.2091 43.2091 39 41 39C39.3213 39 37.8841 37.9659 37.2908 36.5H35.5H34.6507L34.2138 35.7717L31.6507 31.5H26.5V34.5H28.5H29.3493L29.7862 35.2283L32.109 39.0996C32.3955 39.0344 32.6938 39 33 39C35.2091 39 37 40.7909 37 43C37 45.2091 35.2091 47 33 47C30.7909 47 29 45.2091 29 43C29 42.1969 29.2367 41.449 29.6441 40.8224L27.6507 37.5H26.5V39C26.5 42.5899 23.5898 45.5 20 45.5C17.1901 45.5 14.7967 43.7171 13.8893 41.2208C13.291 41.4023 12.6565 41.5 12 41.5C8.76235 41.5 6.07758 39.1329 5.58193 36.0349C3.18963 35.0754 1.5 32.7363 1.5 30C1.5 29.1152 1.6775 28.2698 1.99897 27.4991C1.05859 26.2463 0.5 24.6875 0.5 23C0.5 21.3125 1.05859 19.7537 1.99897 18.5009C1.6775 17.7302 1.5 16.8848 1.5 16C1.5 13.2637 3.18963 10.9246 5.58193 9.96513C6.07757 6.86713 8.76235 4.5 12 4.5C12.6565 4.5 13.291 4.59768 13.8893 4.77923ZM20 3.5C18.0671 3.5 16.5001 5.06687 16.5 6.99975C16.5 7.56808 16.1787 8.08758 15.6703 8.34155C15.1619 8.59551 14.5536 8.54032 14.0991 8.19899C13.5143 7.75971 12.7896 7.5 12 7.5C10.067 7.5 8.5 9.067 8.5 11C8.5 11.0236 8.50023 11.047 8.50069 11.0705C8.51487 11.7949 8.0092 12.4259 7.29908 12.5699C5.7018 12.8938 4.5 14.3082 4.5 16C4.5 16.7028 4.70557 17.353 5.05939 17.8992C5.44716 18.4978 5.35977 19.2867 4.8504 19.786C4.01531 20.6045 3.5 21.7407 3.5 23C3.5 24.2593 4.01531 25.3956 4.8504 26.214C5.35977 26.7133 5.44716 27.5022 5.0594 28.1008C4.70557 28.647 4.5 29.2972 4.5 30C4.5 31.6918 5.70181 33.1062 7.29908 33.4301C8.0092 33.5741 8.51487 34.2051 8.50069 34.9295C8.50023 34.953 8.5 34.9765 8.5 35C8.5 36.933 10.067 38.5 12 38.5C12.7896 38.5 13.5143 38.2403 14.0991 37.801C14.5536 37.4597 15.1619 37.4045 15.6703 37.6585C16.1787 37.9124 16.5 38.4319 16.5 39.0003C16.5001 40.9331 18.0671 42.5 20 42.5C21.933 42.5 23.5 40.933 23.5 39V7C23.5 5.067 21.933 3.5 20 3.5ZM34 5C34 5.55228 33.5523 6 33 6C32.4477 6 32 5.55228 32 5C32 4.44772 32.4477 4 33 4C33.5523 4 34 4.44772 34 5ZM41 14C41.5523 14 42 13.5523 42 13C42 12.4477 41.5523 12 41 12C40.4477 12 40 12.4477 40 13C40 13.5523 40.4477 14 41 14ZM47 24C47 24.5523 46.5523 25 46 25C45.4477 25 45 24.5523 45 24C45 23.4477 45.4477 23 46 23C46.5523 23 47 23.4477 47 24ZM33 44C33.5523 44 34 43.5523 34 43C34 42.4477 33.5523 42 33 42C32.4477 42 32 42.4477 32 43C32 43.5523 32.4477 44 33 44ZM42 35C42 35.5523 41.5523 36 41 36C40.4477 36 40 35.5523 40 35C40 34.4477 40.4477 34 41 34C41.5523 34 42 34.4477 42 35Z" fill="#002052"/>
</svg>
