<svg width="48" height="54" viewBox="0 0 48 54" fill="none" xmlns="http://www.w3.org/2000/svg">
<path fill-rule="evenodd" clip-rule="evenodd" d="M7.16533 3.59499C6.50068 4.08949 6.36274 5.02917 6.85724 5.69382C7.35174 6.35847 8.29142 6.49641 8.95607 6.00191L9.77969 5.38913L6.40385 25.8371C6.31389 26.382 6.6827 26.8967 7.2276 26.9867C7.77251 27.0766 8.28718 26.7078 8.37714 26.1629L11.7722 5.59878L12.4541 6.51539C12.9486 7.18004 13.8883 7.31798 14.5529 6.82348C15.2176 6.32898 15.3555 5.38931 14.861 4.72465L12.4734 1.51543C11.9789 0.850777 11.0392 0.71284 10.3746 1.20734L7.16533 3.59499ZM14.7748 10.595C14.1102 11.0895 13.9722 12.0292 14.4667 12.6938C14.9612 13.3585 15.9009 13.4964 16.5656 13.0019L17.4367 12.3538L15.809 23.4421C15.7288 23.9885 16.1068 24.4965 16.6532 24.5767C17.1996 24.6569 17.7076 24.279 17.7878 23.7325L19.4155 12.6443L20.0636 13.5154C20.5581 14.18 21.4978 14.318 22.1624 13.8235C22.8271 13.329 22.965 12.3893 22.4705 11.7247L20.0829 8.51543C19.5884 7.85078 18.6487 7.71284 17.9841 8.20734L14.7748 10.595ZM17.7643 38.2602C17.0997 38.7547 16.9617 39.6943 17.4562 40.359C17.9507 41.0236 18.8904 41.1616 19.5551 40.6671L20.4262 40.0189L18.7985 51.1072C18.7183 51.6537 19.0963 52.1617 19.6427 52.2419C20.1891 52.3221 20.6971 51.9441 20.7773 51.3977L22.405 40.3094L23.0531 41.1806C23.5476 41.8452 24.4873 41.9831 25.1519 41.4886C25.8166 40.9941 25.9545 40.0545 25.46 39.3898L23.0724 36.1806C22.5779 35.5159 21.6382 35.378 20.9736 35.8725L17.7643 38.2602ZM16.3817 30.5988L17.0636 31.5154C17.5581 32.18 18.4978 32.318 19.1624 31.8235C19.8271 31.329 19.965 30.3893 19.4705 29.7247L17.0829 26.5154C16.5884 25.8508 15.6487 25.7128 14.9841 26.2073L11.7748 28.595C11.1102 29.0895 10.9722 30.0292 11.4667 30.6938C11.9612 31.3585 12.9009 31.4964 13.5656 31.0019L14.3892 30.3891L11.0133 50.8371C10.9234 51.382 11.2922 51.8967 11.8371 51.9867C12.382 52.0766 12.8967 51.7078 12.9866 51.1629L16.3817 30.5988ZM5.69365 35.5184L6.43538 36.5154C6.92988 37.18 7.86955 37.318 8.53421 36.8235C9.19886 36.329 9.3368 35.3893 8.8423 34.7247L6.45465 31.5154C5.96015 30.8508 5.02047 30.7128 4.35582 31.2073L1.14659 33.595C0.481942 34.0895 0.344005 35.0292 0.838504 35.6938C1.333 36.3585 2.27268 36.4964 2.93733 36.0019L3.66585 35.4599L1.00062 48.8042C0.892451 49.3457 1.24381 49.8725 1.78539 49.9806C2.32698 50.0888 2.85371 49.7375 2.96189 49.1959L5.69365 35.5184ZM35 5.50001C33.067 5.50001 31.5 7.06701 31.5 9.00001C31.5 10.933 33.067 12.5 35 12.5C36.933 12.5 38.5 10.933 38.5 9.00001C38.5 7.06701 36.933 5.50001 35 5.50001ZM28.5 9.00001C28.5 5.41016 31.4102 2.50001 35 2.50001C38.5899 2.50001 41.5 5.41016 41.5 9.00001C41.5 11.0741 40.5285 12.9214 39.0158 14.1115C40.0004 14.3708 40.978 14.6935 41.8623 15.0419C42.9485 15.4698 43.9785 15.9689 44.7651 16.4964C45.1548 16.7577 45.5405 17.0628 45.845 17.4123C46.115 17.7224 46.4715 18.2396 46.4984 18.9182L47.4948 30.8754C47.4983 30.9169 47.5 30.9584 47.5 31C47.5 32.249 46.9256 33.2431 46.0793 33.8836C45.275 34.4923 44.2786 34.75 43.3571 34.75C43.057 34.75 42.749 34.7227 42.4422 34.6648L43.4959 48.8892C43.4986 48.9261 43.5 48.963 43.5 49C43.5 50.0696 43.1452 51.1882 42.3711 52.059C41.5726 52.9575 40.4071 53.5 39 53.5C37.593 53.5 36.4275 52.9575 35.6289 52.0591C35.3749 51.7733 35.166 51.4608 35 51.1321C34.834 51.4608 34.6251 51.7733 34.3711 52.059C33.5726 52.9575 32.4071 53.5 31 53.5C29.593 53.5 28.4275 52.9575 27.6289 52.0591C26.8548 51.1883 26.5 50.0696 26.5 49C26.5 48.963 26.5013 48.9261 26.5041 48.8892L27.5578 34.6648C27.251 34.7227 26.9429 34.75 26.6428 34.75C25.7214 34.75 24.725 34.4923 23.9207 33.8836C23.0743 33.2431 22.5 32.249 22.5 31C22.5 30.9584 22.5017 30.9169 22.5052 30.8754L23.5016 18.9182C23.5285 18.2396 23.885 17.7223 24.155 17.4123C24.4594 17.0628 24.8451 16.7577 25.2349 16.4964C26.0215 15.9689 27.0515 15.4698 28.1377 15.0419C29.022 14.6935 29.9996 14.3707 30.9842 14.1115C29.4715 12.9214 28.5 11.0741 28.5 9.00001ZM26.4024 19.4003C26.3946 19.4101 26.3915 19.415 26.3919 19.4149C26.3923 19.4149 26.3946 19.4121 26.3983 19.4066C26.3995 19.4048 26.4009 19.4027 26.4024 19.4003ZM26.9057 18.988C26.6969 19.1281 26.5604 19.2405 26.4786 19.319L25.5011 31.0487C25.5118 31.2684 25.596 31.3892 25.731 31.4914C25.9179 31.6328 26.2429 31.75 26.6428 31.75C27.0428 31.75 27.3678 31.6328 27.5546 31.4914C27.6993 31.3819 27.7857 31.251 27.7857 31C27.7857 30.8312 27.8136 30.669 27.865 30.5175L28.5041 21.8892C28.5653 21.063 29.2847 20.4429 30.1108 20.5041C30.937 20.5653 31.5571 21.2847 31.4959 22.1108L29.5006 49.0475C29.5108 49.4584 29.6535 49.8211 29.8711 50.066C30.0725 50.2926 30.4071 50.5 31 50.5C31.593 50.5 31.9275 50.2926 32.1289 50.066C32.3548 49.8118 32.5 49.4304 32.5 49C32.5 48.9447 32.503 48.8894 32.5092 48.8344L33.5 39.9169V32.5C33.5 31.6716 34.1716 31 35 31C35.8284 31 36.5 31.6716 36.5 32.5V39.9169L37.4908 48.8344C37.497 48.8894 37.5 48.9447 37.5 49C37.5 49.4304 37.6452 49.8118 37.8711 50.066C38.0726 50.2926 38.4071 50.5 39 50.5C39.593 50.5 39.9275 50.2926 40.1289 50.066C40.3465 49.8212 40.4891 49.4584 40.4994 49.0475L38.5041 22.1108C38.4429 21.2847 39.0631 20.5653 39.8892 20.5041C40.7154 20.4429 41.4347 21.063 41.4959 21.8892L42.1351 30.5178C42.1864 30.6691 42.2143 30.8313 42.2143 31C42.2143 31.251 42.3006 31.3819 42.4453 31.4914C42.6321 31.6328 42.9571 31.75 43.3571 31.75C43.7571 31.75 44.0821 31.6328 44.2689 31.4914C44.404 31.3892 44.4882 31.2684 44.4988 31.0487L43.5214 19.319C43.4396 19.2405 43.3031 19.1281 43.0942 18.988C42.5527 18.6249 41.739 18.2177 40.7627 17.8331C38.7863 17.0546 36.4853 16.5 35 16.5C33.5146 16.5 31.2136 17.0546 29.2373 17.8331C28.261 18.2177 27.4472 18.6249 26.9057 18.988ZM43.608 19.4149C43.6076 19.4149 43.6037 19.41 43.5975 19.4003C43.6054 19.4101 43.6085 19.415 43.608 19.4149Z" fill="#002052"/>
</svg>
