<svg width="53" height="54" viewBox="0 0 53 54" fill="none" xmlns="http://www.w3.org/2000/svg">
<path fill-rule="evenodd" clip-rule="evenodd" d="M11.9787 2.81296C13.0525 1.47066 14.7273 0.5 17 0.5C19.2727 0.5 20.9475 1.47066 22.0213 2.81296C22.681 3.63755 23.1011 4.58359 23.3187 5.5H26C26.8284 5.5 27.5 6.17157 27.5 7V8.5H32C32.8284 8.5 33.5 9.17157 33.5 10V17.6024C39.0029 19.3072 43 24.4368 43 30.5C43 33.868 41.7667 36.9479 39.727 39.3128L40.7678 40.3536L41.4749 39.6465C42.4512 38.6701 44.0341 38.6701 45.0104 39.6465L51.3744 46.0104C53.1317 47.7678 53.1317 50.617 51.3744 52.3744C49.617 54.1317 46.7678 54.1317 45.0104 52.3744L38.6464 46.0104C37.6701 45.0341 37.6701 43.4512 38.6464 42.4749L39.3536 41.7678L38.3128 40.727C36.9258 41.9233 35.2928 42.8422 33.5 43.3976V51C33.5 51.8284 32.8284 52.5 32 52.5H2C1.17157 52.5 0.5 51.8284 0.5 51V10C0.5 9.17157 1.17157 8.5 2 8.5H6.5V7C6.5 6.17157 7.17157 5.5 8 5.5H10.6813C10.8989 4.58359 11.319 3.63755 11.9787 2.81296ZM30.5 43.9635C30.1698 43.9877 29.8363 44 29.5 44C25.2288 44 21.4209 42.0165 18.9472 38.9203L16.8873 40.0533C16.961 40.3568 17 40.6738 17 41C17 43.2091 15.2091 45 13 45C10.7909 45 9 43.2091 9 41C9 39.4016 9.93758 38.0221 11.2928 37.3816L8.74237 23.9918C6.65329 23.859 5 22.1226 5 20C5 17.7909 6.79086 16 9 16C11.2091 16 13 17.7909 13 20C13 21.5984 12.0624 22.9779 10.7072 23.6184L13.2576 37.0082C14.3179 37.0756 15.2659 37.556 15.9425 38.2904L17.8128 37.2617C16.66 35.2734 16 32.9638 16 30.5C16 23.0442 22.0442 17 29.5 17C29.8363 17 30.1698 17.0123 30.5 17.0365V11.5H27.5V13C27.5 13.8284 26.8284 14.5 26 14.5H8C7.17157 14.5 6.5 13.8284 6.5 13V11.5H3.5V49.5H30.5V43.9635ZM20.4428 35.8152C19.5258 34.2562 19 32.4395 19 30.5C19 24.701 23.701 20 29.5 20C35.299 20 40 24.701 40 30.5C40 36.299 35.299 41 29.5 41C26.3647 41 23.5503 39.6258 21.6263 37.4468L22.3868 37.0285C23.0878 37.6339 24.0011 38 25 38C27.2091 38 29 36.2091 29 34C29 33.2582 28.7981 32.5635 28.4462 31.968L30.968 29.4462C31.5635 29.7981 32.2582 30 33 30C35.2091 30 37 28.2091 37 26C37 23.7909 35.2091 22 33 22C30.7909 22 29 23.7909 29 26C29 26.7418 29.2019 27.4365 29.5538 28.032L27.032 30.5538C26.4365 30.2019 25.7418 30 25 30C22.7909 30 21 31.7909 21 34C21 34.4832 21.0857 34.9464 21.2427 35.3753L20.4428 35.8152ZM14.3213 4.68704C13.7543 5.3958 13.5 6.30677 13.5 7C13.5 7.82843 12.8284 8.5 12 8.5H9.5V11.5H24.5V8.5H22C21.1716 8.5 20.5 7.82843 20.5 7C20.5 6.30677 20.2457 5.3958 19.6787 4.68704C19.1525 4.02934 18.3273 3.5 17 3.5C15.6727 3.5 14.8475 4.02934 14.3213 4.68704ZM41.1213 44.2426L47.1317 50.2531C47.7175 50.8388 48.6673 50.8388 49.253 50.2531C49.8388 49.6673 49.8388 48.7175 49.253 48.1317L43.2426 42.1213L41.1213 44.2426ZM9 21C9.55228 21 10 20.5523 10 20C10 19.4477 9.55228 19 9 19C8.44772 19 8 19.4477 8 20C8 20.5523 8.44772 21 9 21ZM14 41C14 41.5523 13.5523 42 13 42C12.4477 42 12 41.5523 12 41C12 40.4477 12.4477 40 13 40C13.5523 40 14 40.4477 14 41ZM25 35C25.5523 35 26 34.5523 26 34C26 33.4477 25.5523 33 25 33C24.4477 33 24 33.4477 24 34C24 34.5523 24.4477 35 25 35ZM34 26C34 26.5523 33.5523 27 33 27C32.4477 27 32 26.5523 32 26C32 25.4477 32.4477 25 33 25C33.5523 25 34 25.4477 34 26Z" fill="#002052"/>
</svg>
