<svg width="50" height="50" viewBox="0 0 50 50" fill="none" xmlns="http://www.w3.org/2000/svg">
<path fill-rule="evenodd" clip-rule="evenodd" d="M22.5 0.5C20.567 0.5 19 2.067 19 4V5.39243C17.7366 5.77859 16.5253 6.28337 15.3789 6.89365L14.3934 5.90811C13.0266 4.54128 10.8105 4.54128 9.44365 5.90811L5.90812 9.44365C4.54128 10.8105 4.54128 13.0266 5.90812 14.3934L6.89366 15.3789C6.28337 16.5252 5.77859 17.7366 5.39243 19H4C2.067 19 0.5 20.567 0.5 22.5V27.5C0.5 29.433 2.067 31 4 31H5.39243C5.77859 32.2634 6.28337 33.4747 6.89365 34.6211L5.90811 35.6066C4.54127 36.9734 4.54127 39.1895 5.90811 40.5564L9.44364 44.0919C10.8105 45.4587 13.0266 45.4587 14.3934 44.0919L15.3789 43.1063C16.5252 43.7166 17.7366 44.2214 19 44.6076V46C19 47.933 20.567 49.5 22.5 49.5H27.5C29.433 49.5 31 47.933 31 46V44.6076C32.2634 44.2214 33.4747 43.7166 34.6211 43.1063L35.6066 44.0919C36.9734 45.4587 39.1895 45.4587 40.5564 44.0919L44.0919 40.5564C45.4587 39.1895 45.4587 36.9734 44.0919 35.6066L43.1063 34.6211C43.7166 33.4748 44.2214 32.2634 44.6076 31H46C47.933 31 49.5 29.433 49.5 27.5V22.5C49.5 20.567 47.933 19 46 19H44.6076C44.2214 17.7366 43.7166 16.5253 43.1063 15.3789L44.0919 14.3934C45.4587 13.0266 45.4587 10.8105 44.0919 9.44365L40.5564 5.90812L39.5183 6.94621L40.5564 5.90812C39.1895 4.54128 36.9734 4.54128 35.6066 5.90812L36.648 6.94949L35.6066 5.90812L34.6211 6.89366C33.4748 6.28337 32.2634 5.77859 31 5.39243V4C31 2.067 29.433 0.5 27.5 0.5H22.5ZM22 4C22 3.72386 22.2239 3.5 22.5 3.5H27.5C27.7761 3.5 28 3.72386 28 4V6.53606V7.71536L29.146 7.99368C30.9147 8.42324 32.5786 9.1218 34.0923 10.0442L35.0995 10.6579L35.9335 9.8239L37.7279 8.02944C37.9232 7.83418 38.2398 7.83418 38.435 8.02944L41.9706 11.565C42.1658 11.7602 42.1658 12.0768 41.9706 12.2721L40.1761 14.0665L39.3421 14.9005L39.9558 15.9077C40.8782 17.4214 41.5768 19.0853 42.0063 20.854L42.2846 22H43.4639H46C46.2761 22 46.5 22.2239 46.5 22.5V27.5C46.5 27.7761 46.2761 28 46 28H43.4639H42.2846L42.0063 29.146C41.5768 30.9147 40.8782 32.5786 39.9558 34.0923L39.3421 35.0995L40.1761 35.9335L41.9706 37.7279C42.1658 37.9232 42.1658 38.2398 41.9706 38.435L38.435 41.9706C38.2398 42.1658 37.9232 42.1658 37.7279 41.9706L35.9335 40.1761L35.0995 39.3421L34.0923 39.9558C32.5786 40.8782 30.9147 41.5768 29.146 42.0063L28 42.2846V43.4639V46C28 46.2761 27.7761 46.5 27.5 46.5H22.5C22.2239 46.5 22 46.2761 22 46V43.4639V42.2846L20.854 42.0063C19.0853 41.5768 17.4214 40.8782 15.9077 39.9558L14.9005 39.3421L14.0665 40.1761L12.2721 41.9706C12.0768 42.1658 11.7602 42.1658 11.565 41.9706L8.02943 38.435C7.83417 38.2398 7.83417 37.9232 8.02943 37.7279L9.82389 35.9335L10.6579 35.0995L10.0442 34.0923C9.1218 32.5786 8.42324 30.9147 7.99368 29.146L7.71536 28H6.53606H4C3.72386 28 3.5 27.7761 3.5 27.5V22.5C3.5 22.2239 3.72386 22 4 22H6.53606H7.71536L7.99368 20.854C8.42324 19.0853 9.1218 17.4214 10.0442 15.9077L10.6579 14.9005L9.8239 14.0665L8.02944 12.2721C7.83418 12.0768 7.83418 11.7602 8.02944 11.565L11.565 8.02943C11.7602 7.83417 12.0768 7.83417 12.2721 8.02943L14.0665 9.82389L14.9005 10.6579L15.9077 10.0442C17.4214 9.1218 19.0853 8.42324 20.854 7.99368L22 7.71536V6.53606V4ZM31 25C31 28.3137 28.3137 31 25 31C21.6863 31 19 28.3137 19 25C19 21.6863 21.6863 19 25 19C28.3137 19 31 21.6863 31 25ZM34 25C34 29.9706 29.9706 34 25 34C20.0294 34 16 29.9706 16 25C16 20.0294 20.0294 16 25 16C29.9706 16 34 20.0294 34 25Z" fill="#002052"/>
</svg>
