<svg width="50" height="50" viewBox="0 0 50 50" fill="none" xmlns="http://www.w3.org/2000/svg">
<path fill-rule="evenodd" clip-rule="evenodd" d="M3 3H47V47H3V3ZM0 0H3H47H50V3V47V50H47H3H0V47V3V0ZM17 5.5H15.5V7V25.9954V26.0048V43.9885V44.0099V45.5H16.9886H17.0098H33H33.8028L34.2481 44.8321L38.2463 38.8347C38.504 38.45 38.57 37.9667 38.423 37.5257L34.5 25.7566V7V5.5H33H17ZM20.2026 42.5H32.1972L34.1972 39.5H22.7026L20.2026 42.5ZM20.14 37.8889L18.5 33.7889V39.8569L20.14 37.8889ZM18.5 8.5V24.5H31.5V8.5H18.5ZM19.2155 27.5L22.8155 36.5H34.9189L31.9189 27.5H19.2155ZM45 6.5C45 7.32843 44.3284 8 43.5 8C42.6716 8 42 7.32843 42 6.5C42 5.67157 42.6716 5 43.5 5C44.3284 5 45 5.67157 45 6.5ZM43.5 45C44.3284 45 45 44.3284 45 43.5C45 42.6716 44.3284 42 43.5 42C42.6716 42 42 42.6716 42 43.5C42 44.3284 42.6716 45 43.5 45ZM8 6.5C8 7.32843 7.32843 8 6.5 8C5.67157 8 5 7.32843 5 6.5C5 5.67157 5.67157 5 6.5 5C7.32843 5 8 5.67157 8 6.5ZM6.5 45C7.32843 45 8 44.3284 8 43.5C8 42.6716 7.32843 42 6.5 42C5.67157 42 5 42.6716 5 43.5C5 44.3284 5.67157 45 6.5 45Z" fill="#002052"/>
</svg>
