<svg width="50" height="48" viewBox="0 0 50 48" fill="none" xmlns="http://www.w3.org/2000/svg">
<path fill-rule="evenodd" clip-rule="evenodd" d="M9.29387 23.5628L13.218 27.5337C13.492 27.8109 13.9397 27.8109 14.2138 27.5337L18.1378 23.5628C18.5748 23.1207 18.2616 22.3708 17.6399 22.3708H9.79176C9.17013 22.3708 8.85691 23.1207 9.29387 23.5628ZM14.2138 0.207963C13.9397 -0.0693211 13.492 -0.0693207 13.218 0.207963L9.29387 4.17877C8.85691 4.62093 9.17012 5.37081 9.79176 5.37081H17.6399C18.2616 5.37081 18.5748 4.62093 18.1378 4.17877L14.2138 0.207963ZM11.736 15.8743C12.2611 16.4056 12.9733 16.7041 13.7159 16.7041C14.4584 16.7041 15.1706 16.4056 15.6957 15.8743C16.2209 15.3429 16.5159 14.6222 16.5159 13.8708C16.5159 13.1194 16.2209 12.3987 15.6957 11.8674C15.1706 11.336 14.4584 11.0375 13.7159 11.0375C12.9733 11.0375 12.2611 11.336 11.736 11.8674C11.2108 12.3987 10.9159 13.1194 10.9159 13.8708C10.9159 14.6222 11.2108 15.3429 11.736 15.8743ZM0.202105 13.3788C-0.0673685 13.6515 -0.0673683 14.0902 0.202105 14.3628L4.11796 18.3253C4.55772 18.7703 5.31586 18.4589 5.31586 17.8333V9.90833C5.31586 9.2827 4.55772 8.9713 4.11796 9.4163L0.202105 13.3788ZM23.3138 18.3253L27.2296 14.3628C27.4991 14.0902 27.4991 13.6515 27.2296 13.3788L23.3138 9.4163C22.874 8.9713 22.1159 9.2827 22.1159 9.90833V17.8333C22.1159 18.4589 22.874 18.7703 23.3138 18.3253ZM33.2159 12.8708C32.0127 12.8708 31.1088 13.4853 30.5194 14.3354C29.9785 15.1153 29.6815 16.1083 29.499 17.0885C29.1315 19.0625 29.1225 21.6326 29.1535 24.0773C29.1591 24.523 29.1661 24.9654 29.173 25.4022C29.2052 27.4382 29.2354 29.3533 29.1184 30.9234C29.0474 31.8769 28.9278 32.5966 28.7649 33.0837L28.7602 33.0976C28.6974 33.0442 28.6274 32.9803 28.5499 32.9039C28.2365 32.5951 27.9606 32.2544 27.6355 31.8529L27.6354 31.8528C27.4765 31.6565 27.3058 31.4458 27.1132 31.2171C26.6324 30.6461 25.9145 29.8367 24.9882 29.4689C24.4664 29.2617 23.8639 29.1853 23.2279 29.353C22.6147 29.5147 22.095 29.8704 21.6552 30.3102C20.9586 31.0068 20.7639 31.9194 20.7598 32.7039C20.7558 33.4926 20.9391 34.3359 21.2024 35.1518C21.7318 36.7921 22.6918 38.6436 23.755 40.3512C24.8243 42.0686 26.0466 43.7178 27.1515 44.9556C27.7009 45.5711 28.2507 46.1181 28.762 46.5245C29.017 46.7272 29.2936 46.9201 29.5811 47.0684C29.8467 47.2055 30.2465 47.3708 30.7159 47.3708H44.7159C45.7913 47.3708 46.487 46.6054 46.8419 46.1107C47.247 45.546 47.5778 44.8222 47.8517 44.0708C48.4065 42.549 48.8474 40.5759 49.137 38.6301C49.4271 36.6812 49.5786 34.671 49.5195 33.0622C49.4903 32.2671 49.4076 31.4963 49.2309 30.8576C49.1426 30.5386 49.0141 30.1897 48.8139 29.872C48.6152 29.5566 48.2822 29.1738 47.7543 28.9708C44.4104 27.6847 42.5797 27.2895 41.3374 27.028C40.1978 26.7881 39.8455 26.7134 39.142 26.1903C39.078 26.134 38.9387 25.9718 38.7637 25.5997C38.5853 25.2203 38.415 24.7212 38.2507 24.1077C37.976 23.0822 37.7567 21.894 37.5254 20.6404C37.4769 20.3776 37.4278 20.112 37.3777 19.8444C37.1003 18.3651 36.7819 16.7901 36.3088 15.5762C36.0723 14.9694 35.7547 14.3368 35.297 13.8357C34.8111 13.3038 34.1138 12.8708 33.2159 12.8708ZM29.8067 36.2495C30.8425 35.8056 31.3447 34.8288 31.6101 34.0349C31.8907 33.1958 32.0328 32.185 32.1101 31.1463C32.2382 29.4271 32.2048 27.3393 32.1721 25.3021L32.1721 25.3014C32.1653 24.8772 32.1585 24.4553 32.1532 24.0393C32.1217 21.5465 32.1439 19.2728 32.4483 17.6375C32.6018 16.813 32.8009 16.3099 32.9846 16.0449C33.0406 15.9641 33.0819 15.9204 33.1143 15.8969C33.2131 16.0196 33.3543 16.2568 33.5135 16.6655C33.8686 17.5766 34.1439 18.8766 34.429 20.3972C34.4749 20.6417 34.5209 20.8915 34.5675 21.1445L34.5676 21.1446C34.7986 22.3985 35.0443 23.7319 35.3529 24.8839C35.5401 25.583 35.7644 26.2713 36.0489 26.8763C36.3261 27.4658 36.7118 28.0885 37.2788 28.5421L37.2971 28.5568L37.3159 28.5708C38.5703 29.5117 39.4632 29.6995 40.6496 29.949L40.7193 29.9636C41.8103 30.1933 43.399 30.531 46.3346 31.6401L46.3395 31.6577C46.4265 31.9719 46.4961 32.4781 46.5216 33.1723C46.5718 34.5418 46.4421 36.3585 46.1697 38.1884C45.8968 40.0215 45.494 41.7791 45.0331 43.0434C44.7992 43.6851 44.5793 44.1181 44.4043 44.362L44.3979 44.3708H30.901C30.8394 44.3334 30.7489 44.2716 30.6287 44.1761C30.3021 43.9165 29.8793 43.5065 29.3896 42.9579C28.4163 41.8675 27.2949 40.3606 26.3017 38.7655C25.3024 37.1606 24.4811 35.5433 24.0574 34.2304C23.8442 33.5697 23.758 33.0654 23.7598 32.7194C23.7608 32.5316 23.7861 32.4419 23.7983 32.41C23.8601 32.3501 23.9082 32.3117 23.9424 32.2876C24.0953 32.3762 24.3675 32.6139 24.8185 33.1495C24.9274 33.2788 25.0504 33.4305 25.1834 33.5945L25.1837 33.5949C25.5555 34.0535 26.0055 34.6084 26.4443 35.0409C27.0446 35.6323 27.9758 36.3708 29.2159 36.3708H29.5237L29.8067 36.2495ZM33.2159 15.8708C33.2087 15.8708 33.2018 15.8706 33.1951 15.8702L33.2036 15.8705L33.2037 15.8705C33.2078 15.8707 33.2118 15.8708 33.2159 15.8708ZM44.3053 44.4851C44.2914 44.4957 44.2845 44.5028 44.2846 44.5037C44.2846 44.5043 44.2871 44.5026 44.2919 44.4983C44.2953 44.4952 44.2997 44.4909 44.3053 44.4851ZM30.9706 44.4093C30.9789 44.4133 30.983 44.4148 30.9829 44.4146C30.9829 44.4144 30.9815 44.4137 30.9787 44.4125C30.9767 44.4116 30.974 44.4106 30.9706 44.4093ZM23.8048 32.3959C23.8049 32.396 23.8042 32.3976 23.8023 32.4005C23.8038 32.3972 23.8048 32.3958 23.8048 32.3959Z" fill="#002052"/>
</svg>
