<svg xmlns="http://www.w3.org/2000/svg" version="1.1" width="3300" height="2000"><g id="Notes"><style>
    text {
      font-family: monospace;
      text-anchor: middle;
    }
    text.emphasis {
      font-weight:bold;
    }
    text.lanchor {
      text-anchor: start;
    }
  </style><rect height="2200" id="artboard" fill="white" width="3300" x="0" y="0"/><line id="" style="fill:none;stroke:black;stroke-width:0.5;" x1="263" x2="3036" y1="292" y2="292"/><text class="lanchor emphasis" transform="matrix(1 0 0 1 263 322)">Weight/Scale Variations</text><text transform="matrix(1 0 0 1 559.711 322)">Ultralight</text><text transform="matrix(1 0 0 1 856.422 322)">Thin</text><text transform="matrix(1 0 0 1 1153.13 322)">Light</text><text transform="matrix(1 0 0 1 1449.84 322)">Regular</text><text transform="matrix(1 0 0 1 1746.56 322)">Medium</text><text transform="matrix(1 0 0 1 2043.27 322)">Semibold</text><text transform="matrix(1 0 0 1 2339.98 322)">Bold</text><text transform="matrix(1 0 0 1 2636.69 322)">Heavy</text><text transform="matrix(1 0 0 1 2933.4 322)">Black</text><text id="template-version" style="text-anchor: end;" transform="matrix(1 0 0 1 3036 1933)">Template v.1.0</text><text class="lanchor" transform="matrix(1 0 0 1 263 726)">Small</text><text class="lanchor" transform="matrix(1 0 0 1 263 1156)">Medium</text><text class="lanchor" transform="matrix(1 0 0 1 263 1586)">Large</text></g><g id="Guides"><g id="H-reference" style="fill:#27AAE1;stroke:none;" transform="matrix(1 0 0 1 339 696)"><path d="M 54.9316 0 L 57.666 0 L 30.5664 -70.459 L 28.0762 -70.459 L 0.976562 0 L 3.66211 0 L 12.9395 -24.4629 L 45.7031 -24.4629 Z M 29.1992 -67.0898 L 29.4434 -67.0898 L 44.8242 -26.709 L 13.8184 -26.709 Z"/></g><line id="Baseline-S" style="fill:none;stroke:#27AAE1;opacity:1;stroke-width:0.577;" x1="263" x2="3036" y1="696" y2="696"/><line id="Capline-S" style="fill:none;stroke:#27AAE1;opacity:1;stroke-width:0.577;" x1="263" x2="3036" y1="625.541" y2="625.541"/><g id="H-reference" style="fill:#27AAE1;stroke:none;" transform="matrix(1 0 0 1 339 1126)"><path d="M 54.9316 0 L 57.666 0 L 30.5664 -70.459 L 28.0762 -70.459 L 0.976562 0 L 3.66211 0 L 12.9395 -24.4629 L 45.7031 -24.4629 Z M 29.1992 -67.0898 L 29.4434 -67.0898 L 44.8242 -26.709 L 13.8184 -26.709 Z"/></g><line id="Baseline-M" style="fill:none;stroke:#27AAE1;opacity:1;stroke-width:0.577;" x1="263" x2="3036" y1="1126" y2="1126"/><line id="Capline-M" style="fill:none;stroke:#27AAE1;opacity:1;stroke-width:0.577;" x1="263" x2="3036" y1="1055.54" y2="1055.54"/><g id="H-reference" style="fill:#27AAE1;stroke:none;" transform="matrix(1 0 0 1 339 1556)"><path d="M 54.9316 0 L 57.666 0 L 30.5664 -70.459 L 28.0762 -70.459 L 0.976562 0 L 3.66211 0 L 12.9395 -24.4629 L 45.7031 -24.4629 Z M 29.1992 -67.0898 L 29.4434 -67.0898 L 44.8242 -26.709 L 13.8184 -26.709 Z"/></g><line id="Baseline-L" style="fill:none;stroke:#27AAE1;opacity:1;stroke-width:0.577;" x1="263" x2="3036" y1="1556" y2="1556"/><line id="Capline-L" style="fill:none;stroke:#27AAE1;opacity:1;stroke-width:0.577;" x1="263" x2="3036" y1="1485.54" y2="1485.54"/><rect height="119.336" id="left-margin" style="fill:darkred;stroke:none;opacity:0.4;" width="12.4512" x="1394.06" y="1030.79"/><rect height="119.336" id="right-margin" style="fill:darkgreen;stroke:none;opacity:0.4;" width="12.4512" x="1502.5112" y="1030.79"/><rect x="1406.5112" y="1045" width="96" height="96" fill="none" stroke="blue" stroke-dasharray="5"/><rect x="1394.06" y="1030.79" width="120.9024" height="119.336" fill="none" stroke="blue"/></g><g id="Symbols"><g id="Bold-L" transform="matrix(1 0 0 1 2266 1556)"><path d="M109.3275 26.851250000000014  107.715 15.725000000000016 Q105.29625 15.080000000000016 102.796875 13.709375000000016 Q100.2975 12.338750000000015 98.685 10.565000000000015 L89.17125 12.822500000000016 L83.68875 3.3087500000000176 L91.75125 -4.108749999999986 Q91.2675 -5.0762499999999875 91.348125 -7.4143749999999855 Q91.42875000000001 -9.752499999999984 91.75125 -10.558749999999982 L83.68875 -18.13749999999999 L89.17125 -27.48999999999998 L98.685 -25.393749999999983 Q100.2975 -27.00624999999998 102.796875 -28.457499999999982 Q105.29625 -29.908749999999984 107.715 -30.392499999999984 L109.3275 -41.67999999999999 H121.09875000000001 L122.8725 -30.392499999999984 Q125.13000000000001 -29.908749999999984 127.71000000000001 -28.457499999999982 Q130.29 -27.00624999999998 131.9025 -25.393749999999983 L141.255 -27.48999999999998 L146.89875 -18.13749999999999 L138.675 -10.558749999999982 Q139.32 -9.591249999999988 139.239375 -7.333749999999988 Q139.15875 -5.0762499999999875 138.675 -4.108749999999986 L146.89875 3.3087500000000176 L141.255 12.822500000000016 L131.9025 10.565000000000015 Q130.29 12.338750000000015 127.71000000000001 13.709375000000016 Q125.13000000000001 15.080000000000016 122.8725 15.725000000000016 L121.09875000000001 26.851250000000014 H109.3275 Z M8.86875 21.852500000000017 V2.3412500000000165 Q8.86875 -5.0762499999999875 12.819375 -10.397499999999987 Q16.77 -15.718749999999986 22.091250000000002 -18.298749999999984 Q33.70125 -23.45874999999998 44.505 -25.877499999999984 Q55.30875 -28.296249999999986 64.5 -28.296249999999986 Q65.4675 -28.296249999999986 67.4025 -28.296249999999986 Q69.3375 -28.296249999999986 70.78875000000001 -28.296249999999986 Q64.8225 -17.653749999999988 65.30625 -2.173749999999984 Q65.79 13.306250000000016 73.8525 21.852500000000017 H8.86875 Z M115.29375 4.598750000000017 Q120.61500000000001 4.598750000000017 123.920625 1.2931250000000176 Q127.22625000000001 -2.0124999999999886 127.22625000000001 -7.494999999999983 Q127.22625000000001 -12.816249999999982 123.920625 -16.12187499999999 Q120.61500000000001 -19.427499999999988 115.29375 -19.427499999999988 Q109.9725 -19.427499999999988 106.58625 -16.12187499999999 Q103.2 -12.816249999999982 103.2 -7.494999999999983 Q103.2 -2.0124999999999886 106.58625 1.2931250000000176 Q109.9725 4.598750000000017 115.29375 4.598750000000017 Z M64.5 -38.13249999999999 Q52.08375 -38.13249999999999 44.182500000000005 -46.03374999999998 Q36.28125 -53.93499999999999 36.28125 -66.35125 Q36.28125 -78.76749999999998 44.182500000000005 -86.66874999999999 Q52.08375 -94.57 64.5 -94.57 Q76.91625 -94.57 84.89812500000001 -86.66874999999999 Q92.88 -78.76749999999998 92.88 -66.35125 Q92.88 -53.93499999999999 84.89812500000001 -46.03374999999998 Q76.91625 -38.13249999999999 64.5 -38.13249999999999 Z"/></g><g id="Semibold-L" transform="matrix(1 0 0 1 1970.27 1556)"><path d="M108.55640249999999 25.098623750000016  106.9439025 14.182643750000015 Q104.38486499999999 13.467661250000017 101.74536375000001 12.026892500000017 Q99.10570125000001 10.586123750000016 97.353075 8.742230000000013 L88.11973875000001 10.859603750000016 L83.26804874999999 2.5376525000000143 L91.12027875 -4.739721249999988 Q90.70667250000001 -5.917491249999983 90.75230624999999 -8.360751249999993 Q90.79777875 -10.804011249999988 91.12027875 -11.890674999999987 L83.26804874999999 -19.259154999999986 L88.11973875000001 -27.48999999999998 L97.353075 -25.463893749999983 Q99.10570125000001 -27.21651999999999 101.74536375000001 -28.702922499999985 Q104.38486499999999 -30.189163749999977 106.9439025 -30.813201249999977 L108.55640249999999 -41.82028749999999 H118.99556625 L120.69933375000001 -30.813201249999977 Q123.16710375000001 -30.189163749999977 125.85223875000001 -28.702922499999985 Q128.53737375 -27.21651999999999 130.29016125 -25.463893749999983 L139.43223 -27.48999999999998 L144.37502625000002 -19.259154999999986 L136.43169 -11.890674999999987 Q136.93640249999999 -10.712904999999985 136.89093 -8.315278749999983 Q136.84529625000002 -5.917491249999983 136.43169 -4.739721249999988 L144.37502625000002 2.5376525000000143 L139.43223 10.859603750000016 L130.29016125 8.742230000000013 Q128.53737375 10.586123750000016 125.85223875000001 12.026892500000017 Q123.16710375000001 13.467661250000017 120.69933375000001 14.182643750000015 L118.99556625 25.098623750000016 H108.55640249999999 Z M10.62137625 19.18848875000002 V1.5701525000000132 Q10.62137625 -5.0762499999999875 14.081317499999999 -10.046942499999986 Q17.5410975 -15.017634999999984 22.862347500000002 -17.527652499999988 Q34.472347500000005 -22.687652499999984 44.89054875000001 -25.036258749999988 Q55.30875 -27.38486499999999 64.5 -27.38486499999999 Q65.4675 -27.38486499999999 66.94680749999999 -27.38486499999999 Q68.42611500000001 -27.38486499999999 69.667095 -27.38486499999999 Q64.8225 -17.794037499999988 65.23610625 -3.190269999999984 Q65.6497125 11.413497500000016 72.45043125000001 19.18848875000002 H10.62137625 Z M113.8215375 4.037922500000015 Q119.3530575 4.037922500000015 122.76397875 0.6271625000000185 Q126.17473875000002 -2.783597499999985 126.17473875000002 -8.406384999999986 Q126.17473875000002 -13.937904999999986 122.76397875 -17.34866499999999 Q119.3530575 -20.759424999999986 113.8215375 -20.759424999999986 Q108.2900175 -20.759424999999986 104.83362375 -17.34866499999999 Q101.37723000000001 -13.937904999999986 101.37723000000001 -8.406384999999986 Q101.37723000000001 -2.783597499999985 104.83362375 0.6271625000000185 Q108.2900175 4.037922500000015 113.8215375 4.037922500000015 Z M64.5 -37.22111499999998 Q52.8548475 -37.22111499999998 45.44444250000001 -44.63168124999997 Q38.03387625 -52.042247499999974 38.03387625 -63.68723874999999 Q38.03387625 -75.33239124999999 45.44444250000001 -82.74295749999999 Q52.8548475 -90.15352374999998 64.5 -90.15352374999998 Q76.14515250000001 -90.15352374999998 83.60119125 -82.74295749999999 Q91.05723 -75.33239124999999 91.05723 -63.68723874999999 Q91.05723 -52.042247499999974 83.60119125 -44.63168124999997 Q76.14515250000001 -37.22111499999998 64.5 -37.22111499999998 Z"/></g><g id="Medium-L" transform="matrix(1 0 0 1 1674.31 1556)"><path d="M107.9778375 23.783952500000016  106.3653375 13.025836250000015 Q103.70132625000001 12.258125000000014 100.95652875 10.764788750000015 Q98.21173125000001 9.271452500000017 96.35397 7.375152500000013 L87.33090375 9.387230000000017 L82.95264375 1.9590875000000167 L90.64701000000001 -5.212989999999991 Q90.28597125 -6.548462499999985 90.30532125 -9.070734999999985 Q90.32451 -11.592846249999987 90.64701000000001 -12.889779999999988 L82.95264375 -20.10055749999998 L87.33090375 -27.48999999999998 L96.35397 -25.516461249999992 Q98.21173125000001 -27.374383749999993 100.95652875 -28.88690874999999 Q103.70132625000001 -30.399433749999986 106.3653375 -31.12860624999999 L107.9778375 -41.925422499999996 H117.4180575 L119.06909625 -31.12860624999999 Q121.69473 -30.399433749999986 124.45871625 -28.88690874999999 Q127.2227025 -27.374383749999993 129.080625 -25.516461249999992 L138.0651525 -27.48999999999998 L142.48195125 -20.10055749999998 L134.748885 -12.889779999999988 Q135.14862375 -11.554307499999979 135.12927375 -9.051384999999982 Q135.10992375 -6.548462499999985 134.748885 -5.212989999999991 L142.48195125 1.9590875000000167 L138.0651525 9.387230000000017 L129.080625 7.375152500000013 Q127.2227025 9.271452500000017 124.45871625 10.764788750000015 Q121.69473 12.258125000000014 119.06909625 13.025836250000015 L117.4180575 23.783952500000016 H107.9778375 Z M11.9360475 17.190278750000015 V0.9915875000000156 Q11.9360475 -5.0762499999999875 15.027855 -9.78410499999999 Q18.1196625 -14.491798749999987 23.440912500000003 -16.949087499999983 Q35.0509125 -22.109087499999987 45.17983125 -24.405287499999986 Q55.30875 -26.70132624999998 64.5 -26.70132624999998 Q65.4675 -26.70132624999998 66.6049575 -26.70132624999998 Q67.74257625 -26.70132624999998 68.8256925 -26.70132624999998 Q64.8225 -17.899172499999985 65.18353875 -3.9528212499999853 Q65.5445775 9.993691250000012 71.39875875 17.190278750000015 H11.9360475 Z M112.71729750000002 3.6172212500000143 Q118.40652 3.6172212500000143 121.8962925 0.12761000000001133 Q125.38590375 -3.3621624999999895 125.38590375 -9.08992374999999 Q125.38590375 -14.77930749999998 121.8962925 -18.268918749999983 Q118.40652 -21.758529999999986 112.71729750000002 -21.758529999999986 Q107.02791375000001 -21.758529999999986 103.5189525 -18.268918749999983 Q100.01015249999999 -14.77930749999998 100.01015249999999 -9.08992374999999 Q100.01015249999999 -3.3621624999999895 103.5189525 0.12761000000001133 Q107.02791375000001 3.6172212500000143 112.71729750000002 3.6172212500000143 Z M64.5 -36.53757624999999 Q53.4334125 -36.53757624999999 46.390980000000006 -43.58000874999999 Q39.3485475 -50.62244124999998 39.3485475 -61.68902874999999 Q39.3485475 -72.75577749999998 46.390980000000006 -79.79821 Q53.4334125 -86.8406425 64.5 -86.8406425 Q75.5665875 -86.8406425 82.62837 -79.79821 Q89.6901525 -72.75577749999998 89.6901525 -61.68902874999999 Q89.6901525 -50.62244124999998 82.62837 -43.58000874999999 Q75.5665875 -36.53757624999999 64.5 -36.53757624999999 Z"/></g><g id="Regular-L" transform="matrix(1 0 0 1 1378.56 1556)"><path d="M107.55375000000001 22.820000000000014  105.94125 12.177500000000016 Q103.2 11.371250000000014 100.378125 9.839375000000018 Q97.55625 8.307500000000012 95.62125 6.3725000000000165 L86.7525 8.307500000000012 L82.72125 1.535000000000018 L90.3 -5.559999999999988 Q89.9775 -7.011249999999983 89.9775 -9.591249999999988 Q89.9775 -12.171249999999986 90.3 -13.622499999999988 L82.72125 -20.717499999999987 L86.7525 -27.48999999999998 L95.62125 -25.554999999999993 Q97.55625 -27.48999999999998 100.378125 -29.02187499999998 Q103.2 -30.55374999999998 105.94125 -31.359999999999985 L107.55375000000001 -42.00249999999998 H116.26125 L117.87375 -31.359999999999985 Q120.61500000000001 -30.55374999999998 123.436875 -29.02187499999998 Q126.25875 -27.48999999999998 128.19375 -25.554999999999993 L137.0625 -27.48999999999998 L141.09375 -20.717499999999987 L133.51500000000001 -13.622499999999988 Q133.8375 -12.171249999999986 133.8375 -9.591249999999988 Q133.8375 -7.011249999999983 133.51500000000001 -5.559999999999988 L141.09375 1.535000000000018 L137.0625 8.307500000000012 L128.19375 6.3725000000000165 Q126.25875 8.307500000000012 123.436875 9.839375000000018 Q120.61500000000001 11.371250000000014 117.87375 12.177500000000016 L116.26125 22.820000000000014 H107.55375000000001 Z M12.9 15.725000000000016 V0.5675000000000168 Q12.9 -5.0762499999999875 15.721875 -9.591249999999988 Q18.54375 -14.106249999999989 23.865000000000002 -16.524999999999984 Q35.475 -21.684999999999988 45.391875 -23.94249999999998 Q55.30875 -26.19999999999999 64.5 -26.19999999999999 Q65.4675 -26.19999999999999 66.354375 -26.19999999999999 Q67.24125000000001 -26.19999999999999 68.20875 -26.19999999999999 Q64.8225 -17.976249999999986 65.145 -4.511874999999982 Q65.4675 8.952500000000015 70.6275 15.725000000000016 H12.9 Z M111.9075 3.3087500000000176 Q117.7125 3.3087500000000176 121.26 -0.2387499999999818 Q124.8075 -3.7862499999999883 124.8075 -9.591249999999988 Q124.8075 -15.396249999999988 121.26 -18.943749999999987 Q117.7125 -22.49124999999998 111.9075 -22.49124999999998 Q106.1025 -22.49124999999998 102.555 -18.943749999999987 Q99.00750000000001 -15.396249999999988 99.00750000000001 -9.591249999999988 Q99.00750000000001 -3.7862499999999883 102.555 -0.2387499999999818 Q106.1025 3.3087500000000176 111.9075 3.3087500000000176 Z M64.5 -36.03624999999998 Q53.8575 -36.03624999999998 47.085 -42.80874999999999 Q40.3125 -49.58124999999998 40.3125 -60.22374999999998 Q40.3125 -70.86625 47.085 -77.63874999999999 Q53.8575 -84.41124999999998 64.5 -84.41124999999998 Q75.1425 -84.41124999999998 81.915 -77.63874999999999 Q88.6875 -70.86625 88.6875 -60.22374999999998 Q88.6875 -49.58124999999998 81.915 -42.80874999999999 Q75.1425 -36.03624999999998 64.5 -36.03624999999998 Z"/></g><g id="Light-L" transform="matrix(1 0 0 1 1082.77 1556)"><path d="M107.05758375 16.679600000000015  105.87916875 7.401597500000015 Q102.95183625 6.719510000000014 100.09900125 5.156513750000016 Q97.24616625 3.5936787500000165 95.31116625 1.4725962500000165 L87.49683 3.5936787500000165 L84.643995 -1.1320749999999862 L91.416495 -7.110579999999985 Q90.78375 -8.996076249999987 90.78375 -11.88615999999999 Q90.78375 -14.776243749999985 91.416495 -16.723659999999988 L84.70607625 -22.764246249999985 L87.55875 -27.48999999999998 L95.31116625 -25.30683624999999 Q97.18408500000001 -27.48999999999998 100.06804125000001 -29.02187499999998 Q102.95183625 -30.55374999999998 105.87916875 -31.23599874999998 L107.05758375 -40.51400124999999 H113.16009000000001 L114.33834375 -31.23599874999998 Q117.20375625000001 -30.55374999999998 120.08755125 -29.02187499999998 Q122.97150750000002 -27.48999999999998 124.9065075 -25.36891749999998 L132.65876250000002 -27.48999999999998 L135.44951625 -22.826327499999977 L128.73909749999999 -16.785741249999987 Q129.4337625 -14.776243749999985 129.4337625 -11.917119999999983 Q129.4337625 -9.05799624999998 128.73909749999999 -7.110579999999985 L135.5115975 -1.1320749999999862 L132.72084375 3.5936787500000165 L124.9065075 1.4725962500000165 Q122.90942625000001 3.5936787500000165 120.05659125000001 5.156513750000016 Q117.20375625000001 6.719510000000014 114.33834375 7.401597500000015 L113.16009000000001 16.679600000000015 H107.05758375 Z M16.12516125 11.445425000000018 V-0.796997499999982 Q16.12516125 -5.882499999999986 18.66807375 -9.715251249999987 Q21.210825 -13.548002499999988 26.03590875 -15.780669999999986 Q36.591495 -20.506584999999987 45.608917500000004 -22.70200374999999 Q54.626501250000004 -24.89742249999999 64.5 -24.89742249999999 Q65.2814175 -24.89742249999999 66.07525125000001 -24.89742249999999 Q66.869085 -24.89742249999999 67.71258375000001 -24.959503749999982 Q64.88458125 -18.038331249999985 65.145 -6.217577499999983 Q65.40541875000001 5.603176250000018 69.38700375 11.445425000000018 H16.12516125 Z M110.04683625 0.3936725000000223 Q115.54159125000001 0.3936725000000223 118.93413000000001 -3.029826249999992 Q122.3265075 -6.453324999999985 122.3265075 -11.88615999999999 Q122.3265075 -17.381076249999992 118.93413000000001 -20.77345374999998 Q115.54159125000001 -24.165831249999982 110.04683625 -24.165831249999982 Q104.61400125 -24.165831249999982 101.19050250000001 -20.77345374999998 Q97.76700375 -17.381076249999992 97.76700375 -11.88615999999999 Q97.76700375 -6.453324999999985 101.19050250000001 -3.029826249999992 Q104.61400125 0.3936725000000223 110.04683625 0.3936725000000223 Z M64.5 -37.83499374999998 Q55.1600775 -37.83499374999998 49.13174625 -43.83220374999998 Q43.10357625 -49.829413749999986 43.10357625 -59.23141749999999 Q43.10357625 -68.57133999999999 49.13174625 -74.59951 Q55.1600775 -80.62784124999999 64.5 -80.62784124999999 Q73.8399225 -80.62784124999999 79.86825375000001 -74.59951 Q85.89642375000001 -68.57133999999999 85.89642375000001 -59.23141749999999 Q85.89642375000001 -49.829413749999986 79.86825375000001 -43.83220374999998 Q73.8399225 -37.83499374999998 64.5 -37.83499374999998 Z"/></g><g id="Thin-L" transform="matrix(1 0 0 1 787.282 1556)"><path d="M106.5614175 10.540328750000015  105.81724875 2.626662500000016 Q102.70383375 2.068415000000016 99.8198775 0.4744587500000179 Q96.9360825 -1.1193362499999893 95.0010825 -3.426501249999987 L88.24099875 -1.1193362499999893 L86.5664175 -3.7986662499999824 L92.5326675 -8.660998749999983 Q91.59 -10.980418749999984 91.59 -14.18058624999999 Q91.59 -17.38075374999999 92.5326675 -19.824336249999988 L86.69041875 -24.810669999999988 L88.36500000000001 -27.48999999999998 L95.0010825 -25.05883374999999 Q96.81208125 -27.48999999999998 99.7579575 -29.02187499999998 Q102.70383375 -30.55374999999998 105.81724875 -31.111997499999987 L106.5614175 -39.02566374999998 H110.05941375 L110.8035825 -31.111997499999987 Q113.79299625 -30.55374999999998 116.7388725 -29.02187499999998 Q119.68474875 -27.48999999999998 121.61974875 -25.182834999999983 L128.25583125 -27.48999999999998 L129.80625 -24.934832499999985 L123.9641625 -19.948498749999985 Q125.03083125 -17.38075374999999 125.03083125 -14.242667499999989 Q125.03083125 -11.10441999999999 123.9641625 -8.660998749999983 L129.9304125 -3.7986662499999824 L128.3798325 -1.1193362499999893 L121.61974875 -3.426501249999987 Q119.5607475 -1.1193362499999893 116.67679125000001 0.4744587500000179 Q113.79299625 2.068415000000016 110.8035825 2.626662500000016 L110.05941375 10.540328750000015 H106.5614175 Z M19.35 7.166333750000014 V-2.161333749999983 Q19.35 -6.688749999999985 21.613627500000003 -9.839252499999986 Q23.87741625 -12.989916249999986 28.206333750000002 -15.036501249999986 Q37.7076675 -19.328331249999984 45.82596 -21.461668749999987 Q53.94441375 -23.595167499999988 64.5 -23.595167499999988 Q65.095335 -23.595167499999988 65.7961275 -23.595167499999988 Q66.49708125 -23.595167499999988 67.2164175 -23.719168749999994 Q64.94650125 -18.100251249999985 65.145 -7.922957499999988 Q65.34349875 2.2544975000000136 68.14666875 7.166333750000014 H19.35 Z M108.18633375 -2.5210824999999843 Q113.37116625 -2.5210824999999843 116.6085825 -5.8204187499999875 Q119.84599875 -9.119916249999989 119.84599875 -14.18058624999999 Q119.84599875 -19.36541874999999 116.6085825 -22.602834999999985 Q113.37116625 -25.84025124999998 108.18633375 -25.84025124999998 Q103.12566375 -25.84025124999998 99.82616625 -22.602834999999985 Q96.52666875 -19.36541874999999 96.52666875 -14.18058624999999 Q96.52666875 -9.119916249999989 99.82616625 -5.8204187499999875 Q103.12566375 -2.5210824999999843 108.18633375 -2.5210824999999843 Z M64.5 -39.633414999999985 Q56.4623325 -39.633414999999985 51.17817 -44.85533499999998 Q45.894168750000006 -50.077416249999985 45.894168750000006 -58.23908499999999 Q45.894168750000006 -66.27691374999999 51.17817 -71.56091499999998 Q56.4623325 -76.84491624999998 64.5 -76.84491624999998 Q72.5376675 -76.84491624999998 77.82183 -71.56091499999998 Q83.10583125 -66.27691374999999 83.10583125 -58.23908499999999 Q83.10583125 -50.077416249999985 77.82183 -44.85533499999998 Q72.5376675 -39.633414999999985 64.5 -39.633414999999985 Z"/></g><g id="Ultralight-L" transform="matrix(1 0 0 1 491.205 1556)"><path d="M106.26375 6.856250000000017  105.78 -0.2387499999999818 Q102.555 -0.7224999999999824 99.6525 -2.3349999999999866 Q96.75 -3.947499999999984 94.815 -6.366249999999987 L88.6875 -3.947499999999984 L87.72 -5.3987499999999855 L93.2025 -9.591249999999988 Q92.07375 -12.171249999999986 92.07375 -15.557499999999983 Q92.07375 -18.943749999999987 93.2025 -21.684999999999988 L87.88125000000001 -26.03874999999998 L88.84875 -27.48999999999998 L94.815 -24.909999999999982 Q96.58875 -27.48999999999998 99.571875 -29.02187499999998 Q102.555 -30.55374999999998 105.78 -31.03749999999998 L106.26375 -38.13249999999999 H108.19875 L108.6825 -31.03749999999998 Q111.74625 -30.55374999999998 114.729375 -29.02187499999998 Q117.7125 -27.48999999999998 119.64750000000001 -25.071249999999992 L125.61375000000001 -27.48999999999998 L126.42 -26.19999999999999 L121.09875000000001 -21.846249999999984 Q122.38875 -18.943749999999987 122.38875 -15.638124999999988 Q122.38875 -12.332499999999989 121.09875000000001 -9.591249999999988 L126.58125 -5.3987499999999855 L125.775 -3.947499999999984 L119.64750000000001 -6.366249999999987 Q117.55125000000001 -3.947499999999984 114.64875 -2.3349999999999866 Q111.74625 -0.7224999999999824 108.6825 -0.2387499999999818 L108.19875 6.856250000000017 H106.26375 Z M21.285 4.598750000000017 V-2.9799999999999827 Q21.285 -7.172499999999985 23.38125 -9.913749999999986 Q25.4775 -12.654999999999987 29.50875 -14.58999999999999 Q38.3775 -18.62124999999999 45.956250000000004 -20.717499999999987 Q53.535000000000004 -22.813749999999985 64.5 -22.813749999999985 Q64.98375 -22.813749999999985 65.62875 -22.813749999999985 Q66.27375 -22.813749999999985 66.91875 -22.97499999999998 Q64.98375 -18.13749999999999 65.145 -8.946249999999985 Q65.30625 0.24500000000001165 67.4025 4.598750000000017 H21.285 Z M107.07000000000001 -4.269999999999982 Q112.06875000000001 -4.269999999999982 115.213125 -7.494999999999983 Q118.3575 -10.719999999999985 118.3575 -15.557499999999983 Q118.3575 -20.556249999999984 115.213125 -23.700624999999988 Q112.06875000000001 -26.844999999999985 107.07000000000001 -26.844999999999985 Q102.2325 -26.844999999999985 99.00750000000001 -23.700624999999988 Q95.7825 -20.556249999999984 95.7825 -15.557499999999983 Q95.7825 -10.719999999999985 99.00750000000001 -7.494999999999983 Q102.2325 -4.269999999999982 107.07000000000001 -4.269999999999982 Z M64.5 -40.71249999999999 Q57.24375 -40.71249999999999 52.40625 -45.469374999999985 Q47.56875 -50.22624999999999 47.56875 -57.64374999999998 Q47.56875 -64.89999999999999 52.40625 -69.73749999999998 Q57.24375 -74.57499999999999 64.5 -74.57499999999999 Q71.75625000000001 -74.57499999999999 76.59375 -69.73749999999998 Q81.43125 -64.89999999999999 81.43125 -57.64374999999998 Q81.43125 -50.22624999999999 76.59375 -45.469374999999985 Q71.75625000000001 -40.71249999999999 64.5 -40.71249999999999 Z"/></g><g id="Bold-M" transform="matrix(1 0 0 1 2281.8 1126)"><path d="M81.875 14.02000000000001  80.25 5.89500000000001 Q79.25 5.52000000000001 78.1875 4.89500000000001 Q77.125 4.27000000000001 76.125 3.6450000000000102 L68.25 6.14500000000001 L61.75 -5.10499999999999 L68.0 -10.47999999999999 Q67.625 -11.60499999999999 67.6875 -12.91749999999999 Q67.75 -14.22999999999999 68.0 -15.35499999999999 L61.75 -20.85499999999999 L68.25 -31.97999999999999 L76.125 -29.47999999999999 Q77.125 -30.10499999999999 78.1875 -30.72999999999999 Q79.25 -31.35499999999999 80.25 -31.72999999999999 L81.875 -39.85499999999999 H95.0 L96.625 -31.72999999999999 Q97.625 -31.35499999999999 98.75 -30.72999999999999 Q99.875 -30.10499999999999 100.875 -29.22999999999999 L108.625 -31.97999999999999 L115.25 -20.60499999999999 L108.875 -15.10499999999999 Q109.25 -14.10499999999999 109.1875 -12.79249999999999 Q109.125 -11.47999999999999 108.875 -10.47999999999999 L115.25 -5.10499999999999 L108.625 6.14500000000001 L100.875 3.6450000000000102 Q99.875 4.27000000000001 98.75 4.89500000000001 Q97.625 5.52000000000001 96.625 5.89500000000001 L95.0 14.02000000000001 H81.875 Z M5.75 11.14500000000001 V-7.35499999999999 Q5.75 -13.35499999999999 9.0625 -17.85499999999999 Q12.375 -22.35499999999999 16.125 -24.22999999999999 Q22.5 -27.47999999999999 31.4375 -29.91749999999999 Q40.375 -32.35499999999999 50.0 -32.35499999999999 Q51.0 -32.35499999999999 52.8125 -32.35499999999999 Q54.625 -32.35499999999999 55.875 -32.10499999999999 Q49.625 -20.72999999999999 50.4375 -9.72999999999999 Q51.25 1.2700000000000102 59.5 11.14500000000001 H5.75 Z M88.5 -3.8549999999999898 Q92.125 -3.8549999999999898 94.8125 -6.60499999999999 Q97.5 -9.35499999999999 97.5 -12.97999999999999 Q97.5 -16.60499999999999 94.8125 -19.29249999999999 Q92.125 -21.97999999999999 88.5 -21.97999999999999 Q84.875 -21.97999999999999 82.125 -19.29249999999999 Q79.375 -16.60499999999999 79.375 -12.97999999999999 Q79.375 -9.35499999999999 82.125 -6.60499999999999 Q84.875 -3.8549999999999898 88.5 -3.8549999999999898 Z M50.0 -37.35499999999999 Q39.875 -37.35499999999999 32.8125 -44.41749999999999 Q25.75 -51.47999999999999 25.75 -61.60499999999999 Q25.75 -71.72999999999999 32.8125 -78.72999999999999 Q39.875 -85.72999999999999 50.0 -85.72999999999999 Q60.125 -85.72999999999999 67.1875 -78.72999999999999 Q74.25 -71.72999999999999 74.25 -61.60499999999999 Q74.25 -51.47999999999999 67.1875 -44.41749999999999 Q60.125 -37.35499999999999 50.0 -37.35499999999999 Z"/></g><g id="Semibold-M" transform="matrix(1 0 0 1 1985.97 1126)"><path d="M81.059875 12.17225000000001  79.489125 4.31900000000001 Q78.27175 3.8353750000000097 77.100625 3.183125000000011 Q75.929375 2.5310000000000095 74.766375 1.7430000000000092 L67.163125 4.134250000000009 L61.31525 -5.920124999999988 L67.347875 -11.132124999999988 Q67.02725 -12.528874999999992 67.0625 -13.92287499999999 Q67.097875 -15.316874999999989 67.347875 -16.713624999999993 L61.31525 -21.99624999999999 L67.163125 -31.97999999999999 L74.766375 -29.58874999999999 Q75.929375 -30.376749999999987 77.100625 -31.028874999999992 Q78.27175 -31.681124999999987 79.489125 -32.16474999999999 L81.059875 -40.01799999999999 H92.82625 L94.396875 -32.16474999999999 Q95.61425 -31.681124999999987 96.82075 -31.001749999999987 Q98.02725 -30.322374999999987 99.190375 -29.33874999999999 L106.723 -31.97999999999999 L112.6415 -21.74624999999999 L106.53825 -16.463624999999993 Q106.858875 -15.24624999999999 106.8235 -13.79787499999999 Q106.78825 -12.349499999999992 106.53825 -11.132124999999988 L112.6415 -5.920124999999988 L106.723 4.134250000000009 L99.190375 1.7430000000000092 Q98.02725 2.5310000000000095 96.82075 3.183125000000011 Q95.61425 3.8353750000000097 94.396875 4.31900000000001 L92.82625 12.17225000000001 H81.059875 Z M7.59775 8.37350000000001 V-8.170124999999992 Q7.59775 -13.35499999999999 10.393875 -17.47462499999999 Q13.190125 -21.59412499999999 16.940125 -23.46912499999999 Q23.315125 -26.71912499999999 31.845125 -29.075124999999993 Q40.375 -31.431124999999987 50.0 -31.431124999999987 Q51.0 -31.431124999999987 52.350625 -31.431124999999987 Q53.701125 -31.431124999999987 54.73375 -31.181124999999987 Q49.625 -20.83874999999999 50.356 -10.762499999999989 Q51.087 -0.6863749999999911 58.087 8.37350000000001 H7.59775 Z M86.978375 -4.452749999999991 Q90.82075 -4.452749999999991 93.616875 -7.284249999999993 Q96.413125 -10.115874999999988 96.413125 -13.958249999999992 Q96.413125 -17.80062499999999 93.616875 -20.596749999999993 Q90.82075 -23.392999999999986 86.978375 -23.392999999999986 Q83.136 -23.392999999999986 80.3045 -20.596749999999993 Q77.473 -17.80062499999999 77.473 -13.958249999999992 Q77.473 -10.115874999999988 80.3045 -7.284249999999993 Q83.136 -4.452749999999991 86.978375 -4.452749999999991 Z M50.0 -36.43112499999999 Q40.690125 -36.43112499999999 34.143875 -42.977374999999995 Q27.59775 -49.523624999999996 27.59775 -58.83349999999999 Q27.59775 -68.14325 34.143875 -74.654125 Q40.690125 -81.16512499999999 50.0 -81.16512499999999 Q59.309875 -81.16512499999999 65.856125 -74.654125 Q72.40225 -68.14325 72.40225 -58.83349999999999 Q72.40225 -49.523624999999996 65.856125 -42.977374999999995 Q59.309875 -36.43112499999999 50.0 -36.43112499999999 Z"/></g><g id="Medium-M" transform="matrix(1 0 0 1 1689.91 1126)"><path d="M80.448375 10.78637500000001  78.9185 3.1368750000000105 Q77.538 2.5716250000000116 76.285375 1.8991250000000086 Q75.032625 1.2265000000000086 73.74725 0.3162500000000108 L66.347875 2.626000000000012 L60.989125 -6.531624999999991 L66.85875 -11.62124999999999 Q66.57875 -13.22187499999999 66.59375 -14.676999999999992 Q66.60875 -16.132124999999988 66.85875 -17.73274999999999 L60.989125 -22.85224999999999 L66.347875 -31.97999999999999 L73.74725 -29.67024999999999 Q75.032625 -30.580499999999986 76.285375 -31.25312499999999 Q77.538 -31.92562499999999 78.9185 -32.49087499999999 L80.448375 -40.14037499999999 H91.195625 L92.725625 -32.49087499999999 Q94.106 -31.92562499999999 95.373625 -31.205499999999986 Q96.641375 -30.48537499999999 97.926625 -29.42024999999999 L105.29625 -31.97999999999999 L110.684875 -22.60224999999999 L104.785375 -17.48274999999999 Q105.06525 -16.10224999999999 105.05025 -14.551999999999992 Q105.035375 -13.001749999999987 104.785375 -11.62124999999999 L110.684875 -6.531624999999991 L105.29625 2.626000000000012 L97.926625 0.3162500000000108 Q96.641375 1.2265000000000086 95.373625 1.8991250000000086 Q94.106 2.5716250000000116 92.725625 3.1368750000000105 L91.195625 10.78637500000001 H80.448375 Z M8.983625 6.29450000000001 V-8.781624999999991 Q8.983625 -13.35499999999999 11.392625 -17.189249999999987 Q13.801625 -21.02349999999999 17.551625 -22.89849999999999 Q23.926625 -26.14849999999999 32.15075 -28.44337499999999 Q40.375 -30.73812499999999 50.0 -30.73812499999999 Q51.0 -30.73812499999999 52.004125 -30.73812499999999 Q53.008125 -30.73812499999999 53.87775 -30.48812499999999 Q49.625 -20.92024999999999 50.294875 -11.536999999999992 Q50.964625 -2.1538749999999887 57.02725 6.29450000000001 H8.983625 Z M85.837 -4.90124999999999 Q89.842375 -4.90124999999999 92.720125 -7.793874999999993 Q95.597875 -10.686499999999988 95.597875 -14.691999999999993 Q95.597875 -18.697374999999987 92.720125 -21.575124999999993 Q89.842375 -24.452749999999988 85.837 -24.452749999999988 Q81.8315 -24.452749999999988 78.938875 -21.575124999999993 Q76.04625 -18.697374999999987 76.04625 -14.691999999999993 Q76.04625 -10.686499999999988 78.938875 -7.793874999999993 Q81.8315 -4.90124999999999 85.837 -4.90124999999999 Z M50.0 -35.73812499999999 Q41.301625 -35.73812499999999 35.142625 -41.89712499999999 Q28.983625 -48.056124999999994 28.983625 -56.75449999999999 Q28.983625 -65.45287499999999 35.142625 -71.59687499999998 Q41.301625 -77.74087499999999 50.0 -77.74087499999999 Q58.698375 -77.74087499999999 64.857375 -71.59687499999998 Q71.016375 -65.45287499999999 71.016375 -56.75449999999999 Q71.016375 -48.056124999999994 64.857375 -41.89712499999999 Q58.698375 -35.73812499999999 50.0 -35.73812499999999 Z"/></g><g id="Regular-M" transform="matrix(1 0 0 1 1394.06 1126)"><path d="M80.0 9.77000000000001  78.5 2.2700000000000102 Q77.0 1.6450000000000102 75.6875 0.9575000000000102 Q74.375 0.27000000000001023 73.0 -0.7299999999999898 L65.75 1.5200000000000102 L60.75 -6.97999999999999 L66.5 -11.97999999999999 Q66.25 -13.72999999999999 66.25 -15.22999999999999 Q66.25 -16.72999999999999 66.5 -18.47999999999999 L60.75 -23.47999999999999 L65.75 -31.97999999999999 L73.0 -29.72999999999999 Q74.375 -30.72999999999999 75.6875 -31.41749999999999 Q77.0 -32.10499999999999 78.5 -32.72999999999999 L80.0 -40.22999999999999 H90.0 L91.5 -32.72999999999999 Q93.0 -32.10499999999999 94.3125 -31.35499999999999 Q95.625 -30.60499999999999 97.0 -29.47999999999999 L104.25 -31.97999999999999 L109.25 -23.22999999999999 L103.5 -18.22999999999999 Q103.75 -16.72999999999999 103.75 -15.10499999999999 Q103.75 -13.47999999999999 103.5 -11.97999999999999 L109.25 -6.97999999999999 L104.25 1.5200000000000102 L97.0 -0.7299999999999898 Q95.625 0.27000000000001023 94.3125 0.9575000000000102 Q93.0 1.6450000000000102 91.5 2.2700000000000102 L90.0 9.77000000000001 H80.0 Z M10.0 4.77000000000001 V-9.22999999999999 Q10.0 -13.35499999999999 12.125 -16.97999999999999 Q14.25 -20.60499999999999 18.0 -22.47999999999999 Q24.375 -25.72999999999999 32.375 -27.97999999999999 Q40.375 -30.22999999999999 50.0 -30.22999999999999 Q51.0 -30.22999999999999 51.75 -30.22999999999999 Q52.5 -30.22999999999999 53.25 -29.97999999999999 Q49.625 -20.97999999999999 50.25 -12.10499999999999 Q50.875 -3.2299999999999898 56.25 4.77000000000001 H10.0 Z M85.0 -5.22999999999999 Q89.125 -5.22999999999999 92.0625 -8.16749999999999 Q95.0 -11.10499999999999 95.0 -15.22999999999999 Q95.0 -19.35499999999999 92.0625 -22.29249999999999 Q89.125 -25.22999999999999 85.0 -25.22999999999999 Q80.875 -25.22999999999999 77.9375 -22.29249999999999 Q75.0 -19.35499999999999 75.0 -15.22999999999999 Q75.0 -11.10499999999999 77.9375 -8.16749999999999 Q80.875 -5.22999999999999 85.0 -5.22999999999999 Z M50.0 -35.22999999999999 Q41.75 -35.22999999999999 35.875 -41.10499999999999 Q30.0 -46.97999999999999 30.0 -55.22999999999999 Q30.0 -63.47999999999999 35.875 -69.35499999999999 Q41.75 -75.22999999999999 50.0 -75.22999999999999 Q58.25 -75.22999999999999 64.125 -69.35499999999999 Q70.0 -63.47999999999999 70.0 -55.22999999999999 Q70.0 -46.97999999999999 64.125 -41.10499999999999 Q58.25 -35.22999999999999 50.0 -35.22999999999999 Z"/></g><g id="Light-M" transform="matrix(1 0 0 1 1098.18 1126)"><path d="M80.528875 5.010000000000009  79.4135 -1.6244999999999905 Q77.625 -2.15337499999999 76.048125 -3.0091249999999903 Q74.471125 -3.8648749999999907 73.048125 -5.15337499999999 L66.711625 -2.9514999999999887 L63.154 -8.999374999999986 L68.327 -13.230124999999987 Q67.788625 -15.172374999999988 67.788625 -17.056999999999988 Q67.788625 -18.941749999999992 68.327 -20.883999999999993 L63.202125 -25.210874999999987 L66.75975 -31.258749999999992 L73.048125 -29.008749999999992 Q74.423125 -30.29724999999999 76.024125 -31.12899999999999 Q77.625 -31.96074999999999 79.4135 -32.48962499999999 L80.528875 -39.12412499999999 H87.644 L88.711375 -32.48962499999999 Q90.499875 -31.96074999999999 92.10075 -31.09049999999999 Q93.70175 -30.22037499999999 95.07675 -28.85499999999999 L101.365125 -31.258749999999992 L104.92275 -25.056999999999988 L99.79775 -20.730124999999987 Q100.33625 -18.941749999999992 100.33625 -16.980124999999987 Q100.33625 -15.018624999999993 99.79775 -13.230124999999987 L104.970875 -8.999374999999986 L101.41325 -2.9514999999999887 L95.07675 -5.15337499999999 Q93.65375 -3.8648749999999907 92.07675 -3.0091249999999903 Q90.499875 -2.15337499999999 88.711375 -1.6244999999999905 L87.644 5.010000000000009 H80.528875 Z M12.500125 1.3082500000000117 V-9.806999999999988 Q12.500125 -13.59537499999999 14.432875 -16.66749999999999 Q16.3655 -19.739499999999992 19.827 -21.42224999999999 Q26.057875 -24.52799999999999 33.2885 -26.60974999999999 Q40.51925 -28.691374999999987 50.0 -28.691374999999987 Q50.807625 -28.691374999999987 51.4615 -28.691374999999987 Q52.115375 -28.691374999999987 52.76925 -28.53762499999999 Q49.865375 -21.26849999999999 50.322125 -13.234874999999988 Q50.778875 -5.201249999999991 54.90375 1.3082500000000117 H12.500125 Z M84.038375 -7.5378749999999926 Q87.971125 -7.5378749999999926 90.764375 -10.331124999999993 Q93.557625 -13.124374999999986 93.557625 -17.056999999999988 Q93.557625 -20.989749999999987 90.764375 -23.782999999999987 Q87.971125 -26.576249999999987 84.038375 -26.576249999999987 Q80.10575 -26.576249999999987 77.3125 -23.782999999999987 Q74.51925 -20.989749999999987 74.51925 -17.056999999999988 Q74.51925 -13.124374999999986 77.3125 -10.331124999999993 Q80.10575 -7.5378749999999926 84.038375 -7.5378749999999926 Z M50.0 -36.76862499999999 Q42.75975 -36.76862499999999 37.629875 -41.89837499999999 Q32.500125 -47.02812499999999 32.500125 -54.26837499999999 Q32.500125 -61.50874999999999 37.629875 -66.6385 Q42.75975 -71.76825 50.0 -71.76825 Q57.24025 -71.76825 62.370125 -66.6385 Q67.499875 -61.50874999999999 67.499875 -54.26837499999999 Q67.499875 -47.02812499999999 62.370125 -41.89837499999999 Q57.24025 -36.76862499999999 50.0 -36.76862499999999 Z"/></g><g id="Thin-M" transform="matrix(1 0 0 1 802.565 1126)"><path d="M81.057625 0.2508750000000113  80.326875 -5.518374999999988 Q78.25 -5.9511249999999905 76.408625 -6.975124999999991 Q74.56725 -7.999124999999992 73.096125 -9.57612499999999 L67.673125 -7.422249999999991 L65.557625 -11.018374999999992 L70.153875 -14.47999999999999 Q69.326875 -16.61462499999999 69.326875 -18.88387499999999 Q69.326875 -21.15299999999999 70.153875 -23.28762499999999 L65.653875 -26.94149999999999 L67.76925 -30.53774999999999 L73.096125 -28.28774999999999 Q74.471125 -29.86462499999999 76.360625 -30.84062499999999 Q78.25 -31.81649999999999 80.326875 -32.24924999999999 L81.057625 -38.01849999999999 H85.2885 L85.923125 -32.24924999999999 Q88.0 -31.81649999999999 89.8895 -30.82612499999999 Q91.778875 -29.83574999999999 93.153875 -28.22999999999999 L98.48075 -30.53774999999999 L100.59625 -26.88387499999999 L96.09625 -23.22999999999999 Q96.923125 -21.15299999999999 96.923125 -18.85499999999999 Q96.923125 -16.55687499999999 96.09625 -14.47999999999999 L100.692375 -11.018374999999992 L98.577 -7.422249999999991 L93.153875 -9.57612499999999 Q91.68275 -7.999124999999992 89.841375 -6.975124999999991 Q88.0 -5.9511249999999905 85.923125 -5.518374999999988 L85.2885 0.2508750000000113 H81.057625 Z M15.0 -2.152999999999988 V-10.383874999999989 Q15.0 -13.83574999999999 16.740375 -16.35499999999999 Q18.48075 -18.87424999999999 21.653875 -20.36462499999999 Q27.740375 -23.32612499999999 34.201875 -25.23962499999999 Q40.6635 -27.15312499999999 50.0 -27.15312499999999 Q50.615375 -27.15312499999999 51.173125 -27.15312499999999 Q51.73075 -27.15312499999999 52.2885 -27.09537499999999 Q50.10575 -21.55687499999999 50.39425 -14.36462499999999 Q50.68275 -7.172249999999991 53.55775 -2.152999999999988 H15.0 Z M83.076875 -9.84537499999999 Q86.817375 -9.84537499999999 89.466375 -12.494374999999991 Q92.115375 -15.143374999999992 92.115375 -18.88387499999999 Q92.115375 -22.62424999999999 89.466375 -25.27324999999999 Q86.817375 -27.92224999999999 83.076875 -27.92224999999999 Q79.3365 -27.92224999999999 76.6875 -25.27324999999999 Q74.0385 -22.62424999999999 74.0385 -18.88387499999999 Q74.0385 -15.143374999999992 76.6875 -12.494374999999991 Q79.3365 -9.84537499999999 83.076875 -9.84537499999999 Z M50.0 -38.30687499999999 Q43.76925 -38.30687499999999 39.384625 -42.69149999999999 Q35.0 -47.07612499999999 35.0 -53.30687499999999 Q35.0 -59.53774999999999 39.384625 -63.92237499999999 Q43.76925 -68.30699999999999 50.0 -68.30699999999999 Q56.23075 -68.30699999999999 60.615375 -63.92237499999999 Q65.0 -59.53774999999999 65.0 -53.30687499999999 Q65.0 -47.07612499999999 60.615375 -42.69149999999999 Q56.23075 -38.30687499999999 50.0 -38.30687499999999 Z"/></g><g id="Ultralight-M" transform="matrix(1 0 0 1 506.415 1126)"><path d="M81.375 -2.6049999999999898  80.875 -7.85499999999999 Q78.625 -8.22999999999999 76.625 -9.35499999999999 Q74.625 -10.47999999999999 73.125 -12.22999999999999 L68.25 -10.10499999999999 L67.0 -12.22999999999999 L71.25 -15.22999999999999 Q70.25 -17.47999999999999 70.25 -19.97999999999999 Q70.25 -22.47999999999999 71.25 -24.72999999999999 L67.125 -27.97999999999999 L68.375 -30.10499999999999 L73.125 -27.85499999999999 Q74.5 -29.60499999999999 76.5625 -30.66749999999999 Q78.625 -31.72999999999999 80.875 -32.10499999999999 L81.375 -37.35499999999999 H83.875 L84.25 -32.10499999999999 Q86.5 -31.72999999999999 88.5625 -30.66749999999999 Q90.625 -29.60499999999999 92.0 -27.85499999999999 L96.75 -30.10499999999999 L98.0 -27.97999999999999 L93.875 -24.72999999999999 Q94.875 -22.47999999999999 94.875 -19.97999999999999 Q94.875 -17.47999999999999 93.875 -15.22999999999999 L98.125 -12.22999999999999 L96.875 -10.10499999999999 L92.0 -12.22999999999999 Q90.5 -10.47999999999999 88.5 -9.35499999999999 Q86.5 -8.22999999999999 84.25 -7.85499999999999 L83.875 -2.6049999999999898 H81.375 Z M16.5 -4.22999999999999 V-10.72999999999999 Q16.5 -13.97999999999999 18.125 -16.16749999999999 Q19.75 -18.35499999999999 22.75 -19.72999999999999 Q28.75 -22.60499999999999 34.75 -24.41749999999999 Q40.75 -26.22999999999999 50.0 -26.22999999999999 Q50.5 -26.22999999999999 51.0 -26.22999999999999 Q51.5 -26.22999999999999 52.0 -26.22999999999999 Q50.25 -21.72999999999999 50.4375 -15.04249999999999 Q50.625 -8.35499999999999 52.75 -4.22999999999999 H16.5 Z M82.5 -11.22999999999999 Q86.125 -11.22999999999999 88.6875 -13.79249999999999 Q91.25 -16.35499999999999 91.25 -19.97999999999999 Q91.25 -23.60499999999999 88.6875 -26.16749999999999 Q86.125 -28.72999999999999 82.5 -28.72999999999999 Q78.875 -28.72999999999999 76.3125 -26.16749999999999 Q73.75 -23.60499999999999 73.75 -19.97999999999999 Q73.75 -16.35499999999999 76.3125 -13.79249999999999 Q78.875 -11.22999999999999 82.5 -11.22999999999999 Z M50.0 -39.22999999999999 Q44.375 -39.22999999999999 40.4375 -43.16749999999999 Q36.5 -47.10499999999999 36.5 -52.72999999999999 Q36.5 -58.35499999999999 40.4375 -62.29249999999999 Q44.375 -66.22999999999999 50.0 -66.22999999999999 Q55.625 -66.22999999999999 59.5625 -62.29249999999999 Q63.5 -58.35499999999999 63.5 -52.72999999999999 Q63.5 -47.10499999999999 59.5625 -43.16749999999999 Q55.625 -39.22999999999999 50.0 -39.22999999999999 Z"/></g><g id="Bold-S" transform="matrix(1 0 0 1 2294.23 696)"><path d="M64.50075 1.2612500000000129  63.218625 -4.754874999999988 Q62.232375000000005 -5.0507499999999865 61.1968125 -5.691812499999987 Q60.16125 -6.332874999999987 59.37225 -6.924624999999988 L53.454750000000004 -5.0507499999999865 L49.11525 -12.644874999999988 L53.553375 -16.885749999999987 Q53.06025 -17.773374999999987 53.158875 -19.104812499999987 Q53.2575 -20.436249999999987 53.553375 -21.323874999999987 L49.11525 -25.56474999999999 L53.454750000000004 -33.15887499999999 L59.273625 -31.383624999999988 Q60.062625000000004 -32.07399999999999 61.1475 -32.76437499999999 Q62.232375000000005 -33.45474999999999 63.218625 -33.65199999999999 L64.59937500000001 -39.66812499999999 H73.37700000000001 L74.75775 -33.65199999999999 Q75.744 -33.35612499999999 76.87818750000001 -32.76437499999999 Q78.012375 -32.17262499999999 78.80137500000001 -31.383624999999988 L84.521625 -33.06024999999999 L88.95975 -25.56474999999999 L84.521625 -21.422499999999985 Q84.81750000000001 -20.33762499999999 84.76818750000001 -19.104812499999987 Q84.718875 -17.87199999999999 84.423 -16.885749999999987 L88.95975 -12.743499999999987 L84.521625 -5.1493749999999885 L78.70275000000001 -6.924624999999988 Q77.91375000000001 -6.332874999999987 76.828875 -5.642499999999988 Q75.744 -4.952124999999988 74.75775 -4.754874999999988 L73.278375 1.2612500000000129 H64.50075 Z M6.11475 -1.7961249999999875 V-14.420124999999988 Q6.11475 -18.463749999999987 8.2845 -21.274562499999988 Q10.45425 -24.085374999999985 12.624 -25.367499999999986 Q18.048375 -28.52349999999999 24.8041875 -30.34806249999999 Q31.560000000000002 -32.17262499999999 37.872 -32.17262499999999 Q38.956875000000004 -32.17262499999999 40.732125 -32.12331249999999 Q42.507375 -32.07399999999999 43.98675 -31.975374999999985 Q39.745875000000005 -24.67712499999999 40.5841875 -16.441937499999987 Q41.4225 -8.206749999999989 47.044125 -1.7961249999999875 H6.11475 Z M69.03750000000001 -12.842124999999989 Q71.60175000000001 -12.842124999999989 73.47562500000001 -14.765312499999986 Q75.3495 -16.688499999999987 75.3495 -19.25274999999999 Q75.3495 -21.816999999999986 73.47562500000001 -23.69087499999999 Q71.60175000000001 -25.56474999999999 69.03750000000001 -25.56474999999999 Q66.47325000000001 -25.56474999999999 64.55006250000001 -23.69087499999999 Q62.626875000000005 -21.816999999999986 62.626875000000005 -19.25274999999999 Q62.626875000000005 -16.688499999999987 64.55006250000001 -14.765312499999986 Q66.47325000000001 -12.842124999999989 69.03750000000001 -12.842124999999989 Z M37.872 -36.90662499999999 Q30.475125000000002 -36.90662499999999 25.395937500000002 -41.98581249999999 Q20.316750000000003 -47.06499999999999 20.316750000000003 -54.46187499999999 Q20.316750000000003 -61.858749999999986 25.395937500000002 -66.88862499999999 Q30.475125000000002 -71.9185 37.872 -71.9185 Q45.268875 -71.9185 50.348062500000005 -66.88862499999999 Q55.42725 -61.858749999999986 55.42725 -54.46187499999999 Q55.42725 -47.06499999999999 50.348062500000005 -41.98581249999999 Q45.268875 -36.90662499999999 37.872 -36.90662499999999 Z"/></g><g id="Semibold-S" transform="matrix(1 0 0 1 1998.1 696)"><path d="M63.857616375000006 -0.19662474999998736  62.618294625000004 -5.998338999999987 Q61.46053575 -6.3799191249999865 60.339268125 -7.042481874999986 Q59.217901874999995 -7.704945999999989 58.300294875 -8.425302999999989 L52.597205625 -6.637231749999987 L48.77223225 -13.28800862499999 L53.038848375 -17.400276624999986 Q52.58862525 -18.50231237499999 52.66575 -19.89805337499999 Q52.742973375000005 -21.29379437499999 53.038848375 -22.39583012499999 L48.77223225 -26.46519624999999 L52.597205625 -33.15887499999999 L58.201669875 -31.46942874999999 Q59.119276875 -32.28841074999998 60.289955625 -33.00018737499999 Q61.46053575 -33.71206262499999 62.618294625000004 -33.99501774999999 L63.956241375000005 -39.796731999999984 H71.66191125 L72.999759375 -33.99501774999999 Q74.15751825 -33.61343762499999 75.35600925 -32.978785749999986 Q76.55450025 -32.34413387499998 77.472205875 -31.46942874999999 L83.020947 -33.06024999999999 L86.90164349999999 -26.46519624999999 L82.67792925 -22.494455124999988 Q82.930902375 -21.23807124999999 82.9029915 -19.89805337499999 Q82.87517925 -18.55803549999999 82.57930425 -17.400276624999986 L86.90164349999999 -13.386633624999988 L83.020947 -6.735856749999989 L77.373580875 -8.425302999999989 Q76.45587525 -7.704945999999989 75.30669675 -6.993169374999987 Q74.15751825 -6.281294124999988 72.999759375 -5.998338999999987 L71.56328625 -0.19662474999998736 H63.857616375000006 Z M7.57262475 -3.9828384999999855 V-15.063258624999989 Q7.57262475 -18.463749999999987 9.334954875 -20.974446624999985 Q11.097383625 -23.485044624999986 13.267133625 -24.767169624999987 Q18.691508625 -27.923169624999986 25.125803625 -29.68342862499999 Q31.560000000000002 -31.44368762499999 37.872 -31.44368762499999 Q38.956875000000004 -31.44368762499999 40.367705625 -31.39437512499999 Q41.778437625 -31.345062624999983 43.08630375 -31.246437624999984 Q39.745875000000005 -24.762928749999986 40.519884000000005 -17.256579999999985 Q41.293893000000004 -9.750329874999988 45.92926800000001 -3.9828384999999855 H7.57262475 Z M67.836937875 -13.313749749999985 Q70.57269675 -13.313749749999985 72.532276875 -15.301240749999991 Q74.491955625 -17.288830374999986 74.491955625 -20.02458924999999 Q74.491955625 -22.760348124999986 72.532276875 -24.719928249999988 Q70.57269675 -26.679606999999983 67.836937875 -26.679606999999983 Q65.101179 -26.679606999999983 63.113688 -24.719928249999988 Q61.126197000000005 -22.760348124999986 61.126197000000005 -20.02458924999999 Q61.126197000000005 -17.288830374999986 63.113688 -15.301240749999991 Q65.101179 -13.313749749999985 67.836937875 -13.313749749999985 Z M37.872 -36.17768762499998 Q31.118258625000003 -36.17768762499998 26.446392375000002 -40.84955387499999 Q21.77462475 -45.52142012499999 21.77462475 -52.27516149999998 Q21.77462475 -59.02880424999999 26.446392375000002 -63.672759625 Q31.118258625000003 -68.316813625 37.872 -68.316813625 Q44.625741375 -68.316813625 49.297607625 -63.672759625 Q53.96937525 -59.02880424999999 53.96937525 -52.27516149999998 Q53.96937525 -45.52142012499999 49.297607625 -40.84955387499999 Q44.625741375 -36.17768762499998 37.872 -36.17768762499998 Z"/></g><g id="Medium-S" transform="matrix(1 0 0 1 1701.85 696)"><path d="M63.375142875 -1.290080124999987  62.168071499999996 -6.931035624999986 Q60.881607 -7.377017874999986 59.69603587500001 -8.055557874999987 Q58.510366125 -8.734196499999989 57.496205249999996 -9.551008749999987 L51.953973375000004 -7.827240999999987 L48.514919625000005 -13.77048212499999 L52.65292875 -17.786196249999985 Q52.234758750000005 -19.049089374999987 52.29590625 -20.49305799999999 Q52.357053750000006 -21.937026624999987 52.65292875 -23.199919749999985 L48.514919625000005 -27.140580249999992 L51.953973375000004 -33.15887499999999 L57.39758025 -31.533732249999986 Q58.411741125 -32.44916949999998 59.64672337500001 -33.177120624999986 Q60.881607 -33.90497312499999 62.168071499999996 -34.252330374999985 L63.473767875 -39.89328587499999 H70.375348125 L71.68114312499999 -34.252330374999985 Q72.96750899999999 -33.806348124999985 74.214227625 -33.139544499999985 Q75.461044875 -32.47274087499999 76.47510712500001 -31.533732249999986 L81.89524125 -33.06024999999999 L85.35786637500001 -27.140580249999992 L81.294910875 -23.298544749999984 Q81.51573225000001 -21.91345524999999 81.50389725000001 -20.49305799999999 Q81.49216087500001 -19.072660749999987 81.196285875 -17.786196249999985 L85.35786637500001 -13.869107124999989 L81.89524125 -7.925865999999985 L76.37648212500001 -9.551008749999987 Q75.362419875 -8.734196499999989 74.16491512500001 -8.006245374999988 Q72.96750899999999 -7.278392874999987 71.68114312499999 -6.931035624999986 L70.276723125 -1.290080124999987 H63.375142875 Z M8.666080125 -5.623169499999989 V-15.54573212499999 Q8.666080125 -18.463749999999987 10.122968625 -20.749285749999984 Q11.579857125 -23.034821499999993 13.749607125000002 -24.316946499999986 Q19.173982125000002 -27.472946499999992 25.366941750000002 -29.184977874999987 Q31.560000000000002 -30.89691062499999 37.872 -30.89691062499999 Q38.956875000000004 -30.89691062499999 40.094317125 -30.84759812499999 Q41.231660625 -30.79828562499999 42.41091975 -30.699660624999986 Q39.745875000000005 -24.827232249999987 40.471656375 -17.86766049999999 Q41.197339125 -10.908187374999986 45.09312525000001 -5.623169499999989 H8.666080125 Z M66.93639300000001 -13.667616249999988 Q69.800758875 -13.667616249999988 71.824741125 -15.703334874999989 Q73.848723375 -17.739053499999986 73.848723375 -20.603517999999987 Q73.848723375 -23.467883874999984 71.824741125 -25.491866124999987 Q69.800758875 -27.515749749999983 66.93639300000001 -27.515749749999983 Q64.07192850000001 -27.515749749999983 62.036209875 -25.491866124999987 Q60.00049125 -23.467883874999984 60.00049125 -20.603517999999987 Q60.00049125 -17.739053499999986 62.036209875 -15.703334874999989 Q64.07192850000001 -13.667616249999988 66.93639300000001 -13.667616249999988 Z M37.872 -35.63091062499999 Q31.600732125000004 -35.63091062499999 27.234406125000003 -39.997236624999985 Q22.868080125000002 -44.36356262499999 22.868080125000002 -50.63483049999999 Q22.868080125000002 -56.906098374999985 27.234406125000003 -61.26058937499998 Q31.600732125000004 -65.61508037499999 37.872 -65.61508037499999 Q44.143267875 -65.61508037499999 48.509593875 -61.26058937499998 Q52.875919875 -56.906098374999985 52.875919875 -50.63483049999999 Q52.875919875 -44.36356262499999 48.509593875 -39.997236624999985 Q44.143267875 -35.63091062499999 37.872 -35.63091062499999 Z"/></g><g id="Regular-S" transform="matrix(1 0 0 1 1405.73 696)"><path d="M63.021375000000006 -2.0919999999999863  61.837875000000004 -7.614999999999988 Q60.457125000000005 -8.108124999999987 59.2243125 -8.798499999999986 Q57.9915 -9.488874999999986 56.906625000000005 -10.376499999999986 L51.48225 -8.699874999999988 L48.32625 -14.124249999999986 L52.369875 -18.069249999999986 Q51.975375 -19.44999999999999 52.0246875 -20.929374999999986 Q52.074000000000005 -22.40874999999999 52.369875 -23.78949999999999 L48.32625 -27.63587499999999 L51.48225 -33.15887499999999 L56.808 -31.580874999999992 Q57.892875000000004 -32.56712499999999 59.175000000000004 -33.306812499999985 Q60.457125000000005 -34.04649999999999 61.837875000000004 -34.44099999999999 L63.120000000000005 -39.96399999999999 H69.432 L70.71412500000001 -34.44099999999999 Q72.094875 -33.94787499999999 73.37700000000001 -33.257499999999986 Q74.659125 -32.56712499999999 75.744 -31.580874999999992 L81.06975 -33.06024999999999 L84.22575 -27.63587499999999 L80.28075 -23.888124999999988 Q80.47800000000001 -22.40874999999999 80.47800000000001 -20.929374999999986 Q80.47800000000001 -19.44999999999999 80.182125 -18.069249999999986 L84.22575 -14.222874999999988 L81.06975 -8.798499999999986 L75.645375 -10.376499999999986 Q74.5605 -9.488874999999986 73.3276875 -8.749187499999987 Q72.094875 -8.009499999999989 70.71412500000001 -7.614999999999988 L69.333375 -2.0919999999999863 H63.021375000000006 Z M9.468 -6.825999999999986 V-15.899499999999989 Q9.468 -18.463749999999987 10.7008125 -20.584187499999985 Q11.933625000000001 -22.704624999999986 14.103375 -23.986749999999986 Q19.52775 -27.142749999999985 25.543875 -28.819374999999987 Q31.560000000000002 -30.495999999999988 37.872 -30.495999999999988 Q38.956875000000004 -30.495999999999988 39.8938125 -30.44668749999999 Q40.83075 -30.39737499999999 41.915625 -30.29874999999999 Q39.745875000000005 -24.874374999999986 40.43625 -18.31581249999999 Q41.126625000000004 -11.757249999999988 44.479875 -6.825999999999986 H9.468 Z M66.276 -13.926999999999989 Q69.23475 -13.926999999999989 71.305875 -15.998124999999987 Q73.37700000000001 -18.069249999999986 73.37700000000001 -21.027999999999984 Q73.37700000000001 -23.986749999999986 71.305875 -26.05787499999999 Q69.23475 -28.12899999999999 66.276 -28.12899999999999 Q63.31725 -28.12899999999999 61.246125 -26.05787499999999 Q59.175000000000004 -23.986749999999986 59.175000000000004 -21.027999999999984 Q59.175000000000004 -18.069249999999986 61.246125 -15.998124999999987 Q63.31725 -13.926999999999989 66.276 -13.926999999999989 Z M37.872 -35.22999999999999 Q31.954500000000003 -35.22999999999999 27.812250000000002 -39.37224999999999 Q23.67 -43.51449999999999 23.67 -49.43199999999999 Q23.67 -55.34949999999999 27.812250000000002 -59.491749999999996 Q31.954500000000003 -63.633999999999986 37.872 -63.633999999999986 Q43.789500000000004 -63.633999999999986 47.93175 -59.491749999999996 Q52.074000000000005 -55.34949999999999 52.074000000000005 -49.43199999999999 Q52.074000000000005 -43.51449999999999 47.93175 -39.37224999999999 Q43.789500000000004 -35.22999999999999 37.872 -35.22999999999999 Z"/></g><g id="Light-S" transform="matrix(1 0 0 1 1109.75 696)"><path d="M63.438657375000005 -5.847639999999988  62.5586265 -10.687760499999989 Q60.950250000000004 -11.105042874999988 59.508845625 -11.928167124999987 Q58.067342625 -12.751291374999987 56.944595625 -13.866542874999986 L52.240972125 -12.227888499999988 L50.223006000000005 -15.717536874999986 L53.811378 -19.055598624999984 Q53.189350125 -20.588033874999986 53.238662624999996 -22.370877999999983 Q53.287975125 -24.153820749999987 53.811378 -25.686255999999993 L50.260976625000005 -29.00153537499999 L52.27894275 -32.58980874999999 L56.845970625 -31.011808749999993 Q57.930845625 -32.22568524999999 59.440597125000004 -33.079185999999986 Q60.950250000000004 -33.93268674999999 62.5586265 -34.25134412499999 L63.537282375000004 -39.09146462499999 H67.57311600000001 L68.513899875 -34.25134412499999 Q70.122276375 -33.83406174999999 71.63192925000001 -33.04880949999999 Q73.14168075 -32.26365587499999 74.22655575 -31.087749999999986 L78.79358362500001 -32.49118374999999 L80.81154975 -29.07737799999999 L77.35967475 -25.860723624999984 Q77.78455125 -24.153820749999987 77.78455125 -22.408848624999983 Q77.78455125 -20.663975124999993 77.26104975 -19.055598624999984 L80.84952037500001 -15.816161874999985 L78.83155425000001 -12.326513499999987 L74.12793075 -13.866542874999986 Q73.00518375 -12.751291374999987 71.56368075 -11.878854624999988 Q70.122276375 -11.006417874999986 68.513899875 -10.687760499999989 L67.474491 -5.847639999999988 H63.438657375000005 Z M11.440598625000002 -9.557320749999985 V-16.354752999999985 Q11.440598625000002 -18.653405874999986 12.521725875 -20.33762499999999 Q13.602754500000001 -22.021745499999987 15.544878000000002 -23.152185249999988 Q20.855538375000002 -26.194371999999987 26.264626500000002 -27.738247749999992 Q31.673813250000002 -29.282024874999983 37.872 -29.282024874999983 Q38.805091125000004 -29.282024874999983 39.666186 -29.232712374999984 Q40.527280875 -29.183399874999985 41.53631325 -29.160716124999986 Q39.935530875000005 -25.102001499999986 40.493156625000005 -19.207283874999987 Q41.050782375000004 -13.312566249999986 43.41768375 -9.557320749999985 H11.440598625000002 Z M65.517277875 -15.747913374999989 Q68.324342625 -15.747913374999989 70.281654375 -17.70522512499999 Q72.238966125 -19.662536874999986 72.238966125 -22.46950299999999 Q72.238966125 -25.276567749999984 70.281654375 -27.233879499999986 Q68.324342625 -29.19119124999999 65.517277875 -29.19119124999999 Q62.71031175 -29.19119124999999 60.753 -27.233879499999986 Q58.795688250000005 -25.276567749999984 58.795688250000005 -22.46950299999999 Q58.795688250000005 -19.662536874999986 60.753 -17.70522512499999 Q62.71031175 -15.747913374999989 65.517277875 -15.747913374999989 Z M37.872 -36.443975124999994 Q32.75119275 -36.443975124999994 29.196846375 -39.99822287499999 Q25.642598624999998 -43.55247062499999 25.642598624999998 -48.67327787499999 Q25.642598624999998 -53.79418374999999 29.196846375 -57.34843149999999 Q32.75119275 -60.90267924999999 37.872 -60.90267924999999 Q42.992807250000006 -60.90267924999999 46.547153625 -57.34843149999999 Q50.101401375 -53.79418374999999 50.101401375 -48.67327787499999 Q50.101401375 -43.55247062499999 46.547153625 -39.99822287499999 Q42.992807250000006 -36.443975124999994 37.872 -36.443975124999994 Z"/></g><g id="Thin-S" transform="matrix(1 0 0 1 814.015 696)"><path d="M63.855841125000005 -9.602589624999986  63.279279375 -13.760027874999988 Q61.443375 -14.101467624999987 59.793280125 -15.05734112499999 Q58.14318525 -16.01321462499999 56.982467625000005 -17.356092624999988 L52.999595625000005 -15.75531024999999 L52.119466125 -17.310527874999988 L55.252782375 -20.041749999999986 Q54.403029375 -21.725969124999985 54.452341875 -23.812282374999988 Q54.501654375 -25.898496999999992 55.252782375 -27.58271612499999 L52.195407375 -30.366998499999987 L53.075438250000005 -32.02093974999999 L56.883842625 -30.442939749999987 Q57.968717625000004 -31.88434412499999 59.706095625 -32.851658124999986 Q61.443375 -33.81887349999999 63.279279375 -34.06168824999999 L63.954466125 -38.21912649999999 H65.71462650000001 L66.313970625 -34.06168824999999 Q68.14987500000001 -33.72024849999999 69.887253 -32.84021762499999 Q71.624532375 -31.96018674999999 72.709407375 -30.594624999999986 L76.51781175 -31.922314749999984 L77.39794125 -30.518782374999986 L74.43919125000001 -27.83312499999999 Q75.091595625 -25.898496999999992 75.091595625 -23.888124999999988 Q75.091595625 -21.87765437499999 74.34056625 -20.041749999999986 L77.473783875 -17.40915287499999 L76.593753 -15.853935249999989 L72.610782375 -17.356092624999988 Q71.45006475 -16.01321462499999 69.799969875 -15.008028624999987 Q68.14987500000001 -14.002842624999989 66.313970625 -13.760027874999988 L65.6160015 -9.602589624999986 H63.855841125000005 Z M13.413 -12.288246999999988 V-16.809907374999987 Q13.413 -18.84306174999999 14.342343375 -20.091062499999985 Q15.27168675 -21.339063249999988 16.986282375000002 -22.31771912499999 Q22.183030875 -25.24609262499999 26.985279375 -26.65721912499999 Q31.787626500000002 -28.068345624999985 37.872 -28.068345624999985 Q38.653405875000004 -28.068345624999985 39.438658125 -28.019033124999986 Q40.22381175 -27.969720624999987 41.1570015 -28.022780874999988 Q40.125186750000005 -25.329529374999986 40.55006325 -20.09865662499999 Q40.97493975 -14.86768524999999 42.35568975 -12.288246999999988 H13.413 Z M64.758654375 -17.568530874999986 Q67.414033875 -17.568530874999986 69.257532375 -19.41202937499999 Q71.101030875 -21.25552787499999 71.101030875 -23.910907374999987 Q71.101030875 -26.56618824999999 69.257532375 -28.40968674999999 Q67.414033875 -30.253185249999987 64.758654375 -30.253185249999987 Q62.103373500000004 -30.253185249999987 60.259875 -28.40968674999999 Q58.4163765 -26.56618824999999 58.4163765 -23.910907374999987 Q58.4163765 -21.25552787499999 60.259875 -19.41202937499999 Q62.103373500000004 -17.568530874999986 64.758654375 -17.568530874999986 Z M37.872 -37.65765437499999 Q33.54768825 -37.65765437499999 30.581344125 -40.62399849999999 Q27.615000000000002 -43.59034262499999 27.615000000000002 -47.91465437499999 Q27.615000000000002 -52.23906474999998 30.581344125 -55.20540887499999 Q33.54768825 -58.17175299999998 37.872 -58.17175299999998 Q42.19631175 -58.17175299999998 45.162655875 -55.20540887499999 Q48.129000000000005 -52.23906474999998 48.129000000000005 -47.91465437499999 Q48.129000000000005 -43.59034262499999 45.162655875 -40.62399849999999 Q42.19631175 -37.65765437499999 37.872 -37.65765437499999 Z"/></g><g id="Ultralight-S" transform="matrix(1 0 0 1 517.792 696)"><path d="M64.10625 -11.855874999999987  63.71175 -15.603624999999987 Q61.739250000000006 -15.899499999999989 59.964000000000006 -16.935062499999987 Q58.188750000000006 -17.970624999999988 57.005250000000004 -19.44999999999999 L53.454750000000004 -17.87199999999999 L53.2575 -18.266499999999986 L56.117625000000004 -20.63349999999999 Q55.131375000000006 -22.40874999999999 55.180687500000005 -24.67712499999999 Q55.230000000000004 -26.94549999999999 56.117625000000004 -28.72074999999999 L53.356125000000006 -31.18637499999999 L53.553375 -31.67949999999999 L56.906625000000005 -30.101499999999987 Q57.9915 -31.67949999999999 59.865375 -32.71506249999999 Q61.739250000000006 -33.750624999999985 63.71175 -33.94787499999999 L64.204875 -37.695624999999986 H64.59937500000001 L64.993875 -33.94787499999999 Q66.966375 -33.65199999999999 68.84025 -32.71506249999999 Q70.71412500000001 -31.77812499999999 71.799 -30.29874999999999 L75.15225000000001 -31.580874999999992 L75.3495 -31.383624999999988 L72.686625 -29.01662499999999 Q73.47562500000001 -26.94549999999999 73.47562500000001 -24.775749999999988 Q73.47562500000001 -22.605999999999987 72.58800000000001 -20.63349999999999 L75.448125 -18.36512499999999 L75.25087500000001 -17.970624999999988 L71.70037500000001 -19.44999999999999 Q70.516875 -17.970624999999988 68.741625 -16.885749999999987 Q66.966375 -15.800874999999987 64.993875 -15.603624999999987 L64.50075 -11.855874999999987 H64.10625 Z M14.5965 -13.926999999999989 V-17.082999999999988 Q14.5965 -18.95687499999999 15.434812500000001 -19.943124999999988 Q16.273125 -20.929374999999986 17.851125 -21.816999999999986 Q22.979625000000002 -24.67712499999999 27.41775 -26.00856249999999 Q31.855875 -27.33999999999999 37.872 -27.33999999999999 Q38.562375 -27.33999999999999 39.302062500000005 -27.29068749999999 Q40.04175 -27.24137499999999 40.929375 -27.33999999999999 Q40.239000000000004 -25.46612499999999 40.5841875 -20.63349999999999 Q40.929375 -15.800874999999987 41.718375 -13.926999999999989 H14.5965 Z M64.3035 -18.660999999999987 Q66.86775 -18.660999999999987 68.643 -20.436249999999987 Q70.41825 -22.211499999999987 70.41825 -24.775749999999988 Q70.41825 -27.33999999999999 68.643 -29.11524999999999 Q66.86775 -30.89049999999999 64.3035 -30.89049999999999 Q61.739250000000006 -30.89049999999999 59.964000000000006 -29.11524999999999 Q58.188750000000006 -27.33999999999999 58.188750000000006 -24.775749999999988 Q58.188750000000006 -22.211499999999987 59.964000000000006 -20.436249999999987 Q61.739250000000006 -18.660999999999987 64.3035 -18.660999999999987 Z M37.872 -38.38599999999999 Q34.025625 -38.38599999999999 31.4120625 -40.99956249999999 Q28.7985 -43.61312499999999 28.7985 -47.45949999999999 Q28.7985 -51.305874999999986 31.4120625 -53.91943749999999 Q34.025625 -56.53299999999999 37.872 -56.53299999999999 Q41.718375 -56.53299999999999 44.3319375 -53.91943749999999 Q46.9455 -51.305874999999986 46.9455 -47.45949999999999 Q46.9455 -43.61312499999999 44.3319375 -40.99956249999999 Q41.718375 -38.38599999999999 37.872 -38.38599999999999 Z"/></g></g></svg>