<svg width="24" height="24" viewBox="0 0 24 24" fill="none" xmlns="http://www.w3.org/2000/svg">
<path d="M11.2093 2L19.7763 3.22453L21 11.7919L13.0449 19.7466C12.8826 19.9089 12.6625 20 12.4331 20C12.2036 20 11.9835 19.9089 11.8212 19.7466L3.25339 11.1792C3.09114 11.0169 3 10.7969 3 10.5674C3 10.3379 3.09114 10.1178 3.25339 9.95556L11.2093 2ZM11.8212 3.83637L5.08898 10.5674L12.4331 17.9103L19.1644 11.1792L18.2471 4.75368L11.8212 3.83637ZM13.6559 9.34373C13.3313 9.01896 13.1489 8.57853 13.149 8.11932C13.149 7.89195 13.1938 7.66681 13.2809 7.45675C13.368 7.2467 13.4955 7.05585 13.6564 6.8951C13.8172 6.73435 14.0081 6.60684 14.2182 6.51987C14.4283 6.43289 14.6534 6.38815 14.8808 6.38819C15.34 6.38827 15.7804 6.57077 16.1051 6.89553C16.4298 7.2203 16.6121 7.66073 16.612 8.11994C16.612 8.57914 16.4294 9.01951 16.1047 9.34416C15.7799 9.66881 15.3394 9.85115 14.8802 9.85107C14.421 9.85099 13.9806 9.6685 13.6559 9.34373Z" fill="white"/>
</svg>
