<svg width="24" height="22" viewBox="0 0 24 22" fill="none" xmlns="http://www.w3.org/2000/svg">
<path d="M11.9999 11.6446L16.6257 16.3108L15.083 17.8673L13.0901 15.8565V22H10.9096V15.8543L8.91669 17.8673L7.37402 16.3108L11.9999 11.6446ZM11.9999 2.44376e-08C13.8718 8.99468e-05 15.6784 0.694225 17.0762 1.95043C18.474 3.20664 19.3656 4.93731 19.5813 6.8134C20.9379 7.18665 22.1213 8.02902 22.9247 9.19328C23.7281 10.3575 24.1005 11.7697 23.9767 13.1828C23.8529 14.596 23.2409 15.9203 22.2475 16.9244C21.2542 17.9285 19.9427 18.5484 18.5423 18.6758V16.4604C19.044 16.3881 19.5264 16.2157 19.9614 15.9533C20.3963 15.6908 20.7751 15.3436 21.0756 14.9318C21.376 14.5201 21.5922 14.0521 21.7115 13.5551C21.8308 13.0582 21.8507 12.5422 21.7702 12.0374C21.6897 11.5325 21.5103 11.049 21.2425 10.6148C20.9748 10.1807 20.624 9.80476 20.2106 9.50892C19.7973 9.21307 19.3297 9.00327 18.8351 8.89175C18.3405 8.78023 17.8288 8.76924 17.33 8.8594C17.5007 8.05737 17.4915 7.22697 17.303 6.42901C17.1145 5.63105 16.7514 4.88574 16.2404 4.24768C15.7294 3.60962 15.0835 3.09497 14.3498 2.74141C13.6162 2.38786 12.8134 2.20436 12.0004 2.20436C11.1874 2.20436 10.3846 2.38786 9.65099 2.74141C8.91735 3.09497 8.27138 3.60962 7.7604 4.24768C7.24942 4.88574 6.88637 5.63105 6.69784 6.42901C6.50931 7.22697 6.50008 8.05737 6.67082 8.8594C5.67616 8.67094 4.64803 8.88886 3.81261 9.46524C2.9772 10.0416 2.40293 10.9292 2.21614 11.9328C2.02935 12.9364 2.24534 13.9737 2.8166 14.8166C3.38785 15.6595 4.26758 16.2389 5.26225 16.4274L5.45849 16.4604V18.6758C4.05803 18.5486 2.74644 17.9288 1.75294 16.9248C0.759445 15.9208 0.147243 14.5965 0.0233355 13.1833C-0.100572 11.7701 0.271695 10.3579 1.07507 9.19355C1.87845 8.02919 3.06184 7.18673 4.41841 6.8134C4.63395 4.93721 5.52543 3.2064 6.9233 1.95015C8.32116 0.693902 10.1279 -0.000150373 11.9999 2.44376e-08Z" fill="white"/>
</svg>
