<svg width="47" height="48" viewBox="0 0 47 48" fill="none" xmlns="http://www.w3.org/2000/svg">
<path d="M8.33999 47.0623C3.77811 47.0623 0.0799866 43.3406 0.0799866 38.7498C0.0799866 34.1589 3.77811 30.4373 8.33999 30.4373C12.0806 30.4373 15.2406 32.9405 16.2578 36.3748H29.58V31.6248H34.3V17.9494L29.0065 12.6247H15.42V17.3747H1.25999V3.12467H15.42V7.87467H29.0065L36.66 0.170166L46.6735 10.2497L39.02 17.947V31.6248H43.74V45.8748H29.58V41.1248H16.2578C15.243 44.559 12.0806 47.0623 8.33999 47.0623ZM8.33999 35.1873C6.38591 35.1873 4.79999 36.7833 4.79999 38.7498C4.79999 40.7163 6.38591 42.3123 8.33999 42.3123C10.2941 42.3123 11.88 40.7163 11.88 38.7498C11.88 36.7833 10.2941 35.1873 8.33999 35.1873ZM39.02 36.3748H34.3V41.1248H39.02V36.3748ZM36.66 6.89142L33.3229 10.2497L36.66 13.6079L39.997 10.2497L36.66 6.89142ZM10.7 7.87467H5.97999V12.6247H10.7V7.87467Z" fill="#03234B"/>
</svg>
