<svg width="42" height="50" viewBox="0 0 42 50" fill="none" xmlns="http://www.w3.org/2000/svg">
<path fill-rule="evenodd" clip-rule="evenodd" d="M20 4V3H22V4H20ZM17 2C17 0.89543 17.8954 0 19 0H23C24.1046 0 25 0.895431 25 2V5C25 6.10457 24.1046 7 23 7H22.5V8.55404C33.1215 9.32215 41.5 18.1826 41.5 29C41.5 40.3218 32.3218 49.5 21 49.5C9.67816 49.5 0.5 40.3218 0.5 29C0.5 18.1826 8.87849 9.32215 19.5 8.55404V7H19C17.8954 7 17 6.10457 17 5V2ZM6 30.5H3.56339C4.28226 38.9684 11.0316 45.7177 19.5 46.4366V44C19.5 43.1716 20.1716 42.5 21 42.5C21.8284 42.5 22.5 43.1716 22.5 44V46.4366C30.9684 45.7177 37.7177 38.9684 38.4366 30.5H36C35.1716 30.5 34.5 29.8284 34.5 29C34.5 28.1716 35.1716 27.5 36 27.5H38.4366C37.7177 19.0316 30.9684 12.2823 22.5 11.5634V14.5C22.5 15.3284 21.8284 16 21 16C20.1716 16 19.5 15.3284 19.5 14.5V11.5634C11.0316 12.2823 4.28226 19.0316 3.56339 27.5H6C6.82843 27.5 7.5 28.1716 7.5 29C7.5 29.8284 6.82843 30.5 6 30.5ZM31.5851 22.5948C32.4245 21.402 32.2844 19.7783 31.253 18.747C30.2217 17.7156 28.598 17.5755 27.4052 18.4149L20.492 23.2797C19.1959 23.3941 17.9313 23.9473 16.9393 24.9393C15.9473 25.9313 15.3941 27.196 15.2797 28.492L10.4149 35.4052C9.57548 36.598 9.71561 38.2217 10.747 39.253C11.7783 40.2844 13.402 40.4245 14.5948 39.5851L21.508 34.7203C22.804 34.6059 24.0687 34.0527 25.0607 33.0607C26.0527 32.0687 26.6059 30.8041 26.7203 29.508L31.5851 22.5948ZM19.5858 27.5858L18.2905 29.4265C18.3772 29.9803 18.6339 30.5126 19.0606 30.9394C19.4874 31.3661 20.0197 31.6228 20.5735 31.7095L22.4142 30.4142L23.7095 28.5736C23.6228 28.0197 23.3661 27.4874 22.9393 27.0606C22.5126 26.6339 21.9803 26.3772 21.4264 26.2905L19.5858 27.5858ZM12.8683 37.1317L16.2837 32.2782C16.4754 32.5532 16.6939 32.8153 16.9393 33.0607C17.1847 33.306 17.4467 33.5246 17.7218 33.7163L12.8683 37.1317ZM25.0607 24.9393C25.306 25.1847 25.5246 25.4468 25.7162 25.7218L29.1317 20.8683L24.2782 24.2838C24.5532 24.4754 24.8153 24.694 25.0607 24.9393Z" fill="#002052"/>
</svg>
