<svg width="38" height="54" viewBox="0 0 38 54" fill="none" xmlns="http://www.w3.org/2000/svg">
<path fill-rule="evenodd" clip-rule="evenodd" d="M35 19V35C35 43.8366 27.8366 51 19 51C10.1634 51 3 43.8366 3 35V19C3 10.1634 10.1634 3 19 3C27.8366 3 35 10.1634 35 19ZM0 19C0 8.50659 8.50659 0 19 0C29.4934 0 38 8.50659 38 19V35C38 45.4934 29.4934 54 19 54C8.50659 54 0 45.4934 0 35V19ZM21.4758 11.2915C21.0468 10.8625 20.4016 10.7342 19.8411 10.9664C19.2806 11.1986 18.9151 11.7455 18.9151 12.3522V23.2215L11.0607 15.367C10.4749 14.7812 9.52513 14.7812 8.93934 15.367C8.35355 15.9528 8.35355 16.9026 8.93934 17.4883L18.1805 26.7296L8.93934 35.9708C8.35355 36.5565 8.35355 37.5063 8.93934 38.0921C9.52513 38.6779 10.4749 38.6779 11.0607 38.0921L18.9151 30.2376V42.0126C18.9151 42.6193 19.2806 43.1662 19.8411 43.3984C20.4016 43.6306 21.0468 43.5022 21.4758 43.0732L29.0607 35.4883C29.342 35.207 29.5 34.8255 29.5 34.4277C29.5 34.0299 29.342 33.6483 29.0607 33.367L22.4232 26.7296L28.6078 20.5449C28.8891 20.2636 29.0472 19.8821 29.0472 19.4843C29.0472 19.0864 28.8891 18.7049 28.6078 18.4236L21.4758 11.2915ZM25.8787 34.4277L21.9151 30.4641V38.3913L25.8787 34.4277ZM21.9151 15.9735V22.995L25.4258 19.4843L21.9151 15.9735Z" fill="#002052"/>
</svg>
