<svg width="54" height="56" viewBox="0 0 54 56" fill="none" xmlns="http://www.w3.org/2000/svg">
<path fill-rule="evenodd" clip-rule="evenodd" d="M3.55499 11.471C3.69941 10.772 4.13872 10.0074 4.99529 9.19738C6.07667 8.17471 7.72195 7.18463 9.87942 6.32165C14.186 4.599 20.2384 3.5 27 3.5C33.7616 3.5 39.814 4.599 44.1206 6.32165C46.278 7.18463 47.9233 8.17471 49.0047 9.19738C49.8613 10.0074 50.3006 10.772 50.445 11.471C49.0633 10.3353 47.28 9.35432 45.2348 8.53622C40.4931 6.63957 34.0455 5.5 27 5.5C19.9545 5.5 13.5069 6.63957 8.76524 8.53622C6.71998 9.35432 4.93668 10.3353 3.55499 11.471ZM0.5 17V12C0.5 10.0739 1.48204 8.39081 2.93396 7.01772C4.38272 5.64762 6.3986 4.48287 8.76524 3.53622C13.5069 1.63957 19.9545 0.5 27 0.5C34.0455 0.5 40.4931 1.63957 45.2348 3.53622C47.6014 4.48287 49.6173 5.64762 51.066 7.01772C52.518 8.39081 53.5 10.0739 53.5 12V17C53.5 18.8342 52.6081 20.4506 51.2694 21.7849C49.9362 23.1137 48.0799 24.2509 45.898 25.1887L45.8419 25.0581L44.4948 28.8C44.4983 28.8661 44.5 28.9328 44.5 29C44.5 30.4114 43.7318 31.5765 42.7378 32.4579C41.7419 33.3408 40.3865 34.0673 38.8404 34.6471C35.7371 35.8109 31.5505 36.5 27 36.5C22.4495 36.5 18.2629 35.8109 15.1596 34.6471C13.6135 34.0673 12.2581 33.3408 11.2622 32.4579C10.2682 31.5765 9.5 30.4114 9.5 29C9.5 28.9328 9.50174 28.8661 9.50517 28.8L8.17183 25.0963L8.12749 25.1997C5.93855 24.2614 4.07603 23.1231 2.73846 21.7927C1.39539 20.4569 0.5 18.8378 0.5 17ZM10.6712 26.1343C10.8549 25.9246 11.0536 25.7271 11.2622 25.5421C11.6984 25.1555 12.2034 24.7988 12.7633 24.4713L10.5683 17.4474C10.3244 16.6672 10.7502 15.8355 11.5256 15.577L16.0257 14.077C16.7617 13.8317 17.5633 14.188 17.8742 14.8988L20.9491 21.9271C21.4556 21.8527 21.9731 21.7875 22.5 21.7319V13C22.5 12.1716 23.1716 11.5 24 11.5H31C31.8284 11.5 32.5 12.1716 32.5 13V21.8504C33.0056 21.917 33.5012 21.9926 33.9853 22.0769L37.1258 14.8988C37.4367 14.188 38.2383 13.8317 38.9743 14.077L43.4744 15.577C44.2498 15.8355 44.6756 16.6672 44.4317 17.4474L42.0686 25.0095C42.3063 25.1803 42.5299 25.3578 42.7378 25.5421C42.9464 25.7271 43.1451 25.9246 43.3288 26.1343L46.5591 17.1613C46.7462 16.6416 47.3191 16.372 47.8387 16.5591C48.3584 16.7462 48.628 17.3191 48.4409 17.8387L47.2586 21.1228C48.0209 20.648 48.6534 20.1566 49.1515 19.6601C50.1216 18.6933 50.5 17.7971 50.5 17C50.5 16.1646 50.0829 15.2171 49.0047 14.1974C47.9233 13.1747 46.278 12.1846 44.1206 11.3216C39.814 9.599 33.7616 8.5 27 8.5C20.2384 8.5 14.186 9.599 9.87942 11.3216C7.72195 12.1846 6.07667 13.1747 4.99529 14.1974C3.91707 15.2171 3.5 16.1646 3.5 17C3.5 17.7986 3.87988 18.6967 4.85405 19.6657C5.35142 20.1604 5.98204 20.6498 6.74138 21.1228L5.55911 17.8387C5.37204 17.3191 5.64164 16.7462 6.16128 16.5591C6.68092 16.372 7.25382 16.6416 7.44089 17.1613L10.6712 26.1343ZM27 21.5H29.5V14.5H25.5V21.5H27ZM27 24.5C23.8934 24.5 21.0351 24.8436 18.6738 25.4165L17.3412 25.7799C16.9463 25.9005 16.5697 26.0281 16.213 26.1619C14.8637 26.6678 13.8759 27.2342 13.2525 27.7869C12.6273 28.3412 12.5 28.7546 12.5 29C12.5 29.2454 12.6273 29.6588 13.2525 30.2131C13.8759 30.7658 14.8637 31.3322 16.213 31.8381C18.9005 32.846 22.714 33.5 27 33.5C31.286 33.5 35.0995 32.846 37.787 31.8381C39.1363 31.3322 40.1241 30.7658 40.7475 30.2131C41.3727 29.6588 41.5 29.2454 41.5 29C41.5 28.7546 41.3727 28.3412 40.7475 27.7869C40.1241 27.2342 39.1363 26.6678 37.787 26.1619C35.0995 25.154 31.286 24.5 27 24.5ZM17.9238 22.5115L17.9296 22.5099L15.6748 17.3562L13.8708 17.9576L15.5004 23.1724L16.5102 22.897C16.9643 22.7592 17.4361 22.6306 17.9238 22.5115ZM41.1292 17.9576L39.4996 23.1724L37.0704 22.5099L39.3252 17.3562L41.1292 17.9576ZM29.5957 26.8699C28.8624 26.6254 27.9448 26.5 27 26.5C26.0552 26.5 25.1376 26.6254 24.4043 26.8699C24.0455 26.9895 23.647 27.1649 23.3073 27.4326C22.9845 27.687 22.5 28.2053 22.5 29C22.5 29.7947 22.9845 30.313 23.3073 30.5674C23.647 30.8351 24.0455 31.0105 24.4043 31.1301C25.1376 31.3746 26.0552 31.5 27 31.5C27.9448 31.5 28.8624 31.3746 29.5957 31.1301C29.9545 31.0105 30.353 30.8351 30.6927 30.5674C31.0155 30.313 31.5 29.7947 31.5 29C31.5 28.2053 31.0155 27.687 30.6927 27.4326C30.353 27.1649 29.9545 26.9895 29.5957 26.8699ZM26.2174 39.5C25.389 39.5 24.7174 40.1716 24.7174 41C24.7174 41.8284 25.389 42.5 26.2174 42.5H30.3913C30.5142 42.5 30.8426 42.5852 31.1446 42.8291C31.4264 43.0566 31.5 43.2658 31.5 43.4074C31.5 43.549 31.4264 43.7582 31.1446 43.9857C30.8426 44.2296 30.5142 44.3148 30.3913 44.3148H23.087C21.1127 44.3148 19.5 46.0556 19.5 48.2222C19.5 50.3888 21.1127 52.1296 23.087 52.1296H27.9118L27.914 52.1481C27.9749 52.654 28.1015 53.2326 28.4062 53.7734C29.115 55.0312 30.4138 55.5 31.9565 55.5C32.785 55.5 33.4565 54.8284 33.4565 54C33.4565 53.1716 32.785 52.5 31.9565 52.5C31.4613 52.5 31.2179 52.4266 31.1162 52.3801C31.0467 52.3483 31.036 52.3293 31.0201 52.3011L31.0199 52.3007C30.9855 52.2396 30.9294 52.096 30.8925 51.7894C30.8555 51.4824 30.8478 51.1126 30.8478 50.6296V49.1296H29.3478H23.087C22.9743 49.1296 22.5 48.9445 22.5 48.2222C22.5 47.5 22.9743 47.3148 23.087 47.3148H30.3913C31.3119 47.3148 32.2878 46.9186 33.0293 46.3198C33.791 45.7048 34.5 44.7103 34.5 43.4074C34.5 42.1045 33.791 41.1101 33.0293 40.495C32.2878 39.8962 31.3119 39.5 30.3913 39.5H26.2174Z" fill="#002052"/>
</svg>
