<svg width="35" height="52" viewBox="0 0 35 52" fill="none" xmlns="http://www.w3.org/2000/svg">
<path fill-rule="evenodd" clip-rule="evenodd" d="M10.6766 0.5C8.35572 0.5 6.41554 2.26506 6.19665 4.57559L5.63539 10.5H5C2.51472 10.5 0.5 12.5147 0.5 15V37C0.5 39.4853 2.51472 41.5 5 41.5H5.63539L6.19665 47.4244C6.41554 49.7349 8.35573 51.5 10.6766 51.5H21.3234C23.6443 51.5 25.5845 49.7349 25.8034 47.4244L26.3646 41.5H27C29.4853 41.5 31.5 39.4853 31.5 37V15C31.5 12.5147 29.4853 10.5 27 10.5H26.3646L25.8034 4.57558C25.5845 2.26506 23.6443 0.5 21.3234 0.5H10.6766ZM7 38.5H5.35118H5C4.17157 38.5 3.5 37.8284 3.5 37V15C3.5 14.1716 4.17157 13.5 5 13.5H5.35118H7H25H26.6488H27C27.8284 13.5 28.5 14.1716 28.5 15V37C28.5 37.8284 27.8284 38.5 27 38.5H26.6488H25H7ZM9.18328 47.1415L8.64882 41.5H23.3512L22.8167 47.1415C22.7438 47.9116 22.097 48.5 21.3234 48.5H10.6766C9.90297 48.5 9.25624 47.9116 9.18328 47.1415ZM23.3512 10.5L22.8167 4.85853C22.7438 4.08836 22.097 3.5 21.3234 3.5H10.6766C9.90297 3.5 9.25624 4.08835 9.18328 4.85853L8.64882 10.5H23.3512ZM34 16H32.5V21H34C34.5523 21 35 20.5523 35 20V17C35 16.4477 34.5523 16 34 16ZM32.5 31H34C34.5523 31 35 31.4477 35 32V35C35 35.5523 34.5523 36 34 36H32.5V31ZM14.4743 17.7236C14.3455 17.0365 13.7591 16.5295 13.0607 16.5012C12.3622 16.473 11.7368 16.9309 11.5529 17.6053L8.85431 27.5H6C5.17157 27.5 4.5 28.1716 4.5 29C4.5 29.8284 5.17157 30.5 6 30.5H10C10.6764 30.5 11.2692 30.0473 11.4471 29.3947L12.7291 24.6944L14.5257 34.2764C14.6539 34.9602 15.2354 35.4661 15.9303 35.4984C16.6252 35.5307 17.2512 35.081 17.4423 34.4121L19.4364 27.4326L20.6832 29.7183C20.946 30.2002 21.4511 30.5 22 30.5H26C26.8284 30.5 27.5 29.8284 27.5 29C27.5 28.1716 26.8284 27.5 26 27.5H22.8904L20.3168 22.7817C20.0253 22.2472 19.4396 21.942 18.8346 22.0092C18.2295 22.0763 17.725 22.5025 17.5577 23.0879L16.3033 27.4783L14.4743 17.7236Z" fill="#002052"/>
</svg>
